%TF.GenerationSoftware,KiCad,Pcbnew,7.0.10-7.0.10~ubuntu22.04.1*%
%TF.CreationDate,2024-01-30T10:17:11-05:00*%
%TF.ProjectId,ladcp_star_circuit,6c616463-705f-4737-9461-725f63697263,1.0.0*%
%TF.SameCoordinates,Original*%
%TF.FileFunction,Legend,Top*%
%TF.FilePolarity,Positive*%
%FSLAX46Y46*%
G04 Gerber Fmt 4.6, Leading zero omitted, Abs format (unit mm)*
G04 Created by KiCad (PCBNEW 7.0.10-7.0.10~ubuntu22.04.1) date 2024-01-30 10:17:11*
%MOMM*%
%LPD*%
G01*
G04 APERTURE LIST*
%ADD10C,0.150000*%
%ADD11C,0.300000*%
%ADD12C,0.120000*%
G04 APERTURE END LIST*
D10*
X158949819Y-114497030D02*
X158949819Y-114973220D01*
X158949819Y-114973220D02*
X157949819Y-114973220D01*
X158664104Y-114211315D02*
X158664104Y-113735125D01*
X158949819Y-114306553D02*
X157949819Y-113973220D01*
X157949819Y-113973220D02*
X158949819Y-113639887D01*
X158949819Y-113306553D02*
X157949819Y-113306553D01*
X157949819Y-113306553D02*
X157949819Y-113068458D01*
X157949819Y-113068458D02*
X157997438Y-112925601D01*
X157997438Y-112925601D02*
X158092676Y-112830363D01*
X158092676Y-112830363D02*
X158187914Y-112782744D01*
X158187914Y-112782744D02*
X158378390Y-112735125D01*
X158378390Y-112735125D02*
X158521247Y-112735125D01*
X158521247Y-112735125D02*
X158711723Y-112782744D01*
X158711723Y-112782744D02*
X158806961Y-112830363D01*
X158806961Y-112830363D02*
X158902200Y-112925601D01*
X158902200Y-112925601D02*
X158949819Y-113068458D01*
X158949819Y-113068458D02*
X158949819Y-113306553D01*
X158854580Y-111735125D02*
X158902200Y-111782744D01*
X158902200Y-111782744D02*
X158949819Y-111925601D01*
X158949819Y-111925601D02*
X158949819Y-112020839D01*
X158949819Y-112020839D02*
X158902200Y-112163696D01*
X158902200Y-112163696D02*
X158806961Y-112258934D01*
X158806961Y-112258934D02*
X158711723Y-112306553D01*
X158711723Y-112306553D02*
X158521247Y-112354172D01*
X158521247Y-112354172D02*
X158378390Y-112354172D01*
X158378390Y-112354172D02*
X158187914Y-112306553D01*
X158187914Y-112306553D02*
X158092676Y-112258934D01*
X158092676Y-112258934D02*
X157997438Y-112163696D01*
X157997438Y-112163696D02*
X157949819Y-112020839D01*
X157949819Y-112020839D02*
X157949819Y-111925601D01*
X157949819Y-111925601D02*
X157997438Y-111782744D01*
X157997438Y-111782744D02*
X158045057Y-111735125D01*
X158949819Y-111306553D02*
X157949819Y-111306553D01*
X157949819Y-111306553D02*
X157949819Y-110925601D01*
X157949819Y-110925601D02*
X157997438Y-110830363D01*
X157997438Y-110830363D02*
X158045057Y-110782744D01*
X158045057Y-110782744D02*
X158140295Y-110735125D01*
X158140295Y-110735125D02*
X158283152Y-110735125D01*
X158283152Y-110735125D02*
X158378390Y-110782744D01*
X158378390Y-110782744D02*
X158426009Y-110830363D01*
X158426009Y-110830363D02*
X158473628Y-110925601D01*
X158473628Y-110925601D02*
X158473628Y-111306553D01*
X158902200Y-109592267D02*
X158949819Y-109449410D01*
X158949819Y-109449410D02*
X158949819Y-109211315D01*
X158949819Y-109211315D02*
X158902200Y-109116077D01*
X158902200Y-109116077D02*
X158854580Y-109068458D01*
X158854580Y-109068458D02*
X158759342Y-109020839D01*
X158759342Y-109020839D02*
X158664104Y-109020839D01*
X158664104Y-109020839D02*
X158568866Y-109068458D01*
X158568866Y-109068458D02*
X158521247Y-109116077D01*
X158521247Y-109116077D02*
X158473628Y-109211315D01*
X158473628Y-109211315D02*
X158426009Y-109401791D01*
X158426009Y-109401791D02*
X158378390Y-109497029D01*
X158378390Y-109497029D02*
X158330771Y-109544648D01*
X158330771Y-109544648D02*
X158235533Y-109592267D01*
X158235533Y-109592267D02*
X158140295Y-109592267D01*
X158140295Y-109592267D02*
X158045057Y-109544648D01*
X158045057Y-109544648D02*
X157997438Y-109497029D01*
X157997438Y-109497029D02*
X157949819Y-109401791D01*
X157949819Y-109401791D02*
X157949819Y-109163696D01*
X157949819Y-109163696D02*
X157997438Y-109020839D01*
X158283152Y-108735124D02*
X158283152Y-108354172D01*
X157949819Y-108592267D02*
X158806961Y-108592267D01*
X158806961Y-108592267D02*
X158902200Y-108544648D01*
X158902200Y-108544648D02*
X158949819Y-108449410D01*
X158949819Y-108449410D02*
X158949819Y-108354172D01*
X158949819Y-107592267D02*
X158426009Y-107592267D01*
X158426009Y-107592267D02*
X158330771Y-107639886D01*
X158330771Y-107639886D02*
X158283152Y-107735124D01*
X158283152Y-107735124D02*
X158283152Y-107925600D01*
X158283152Y-107925600D02*
X158330771Y-108020838D01*
X158902200Y-107592267D02*
X158949819Y-107687505D01*
X158949819Y-107687505D02*
X158949819Y-107925600D01*
X158949819Y-107925600D02*
X158902200Y-108020838D01*
X158902200Y-108020838D02*
X158806961Y-108068457D01*
X158806961Y-108068457D02*
X158711723Y-108068457D01*
X158711723Y-108068457D02*
X158616485Y-108020838D01*
X158616485Y-108020838D02*
X158568866Y-107925600D01*
X158568866Y-107925600D02*
X158568866Y-107687505D01*
X158568866Y-107687505D02*
X158521247Y-107592267D01*
X158949819Y-107116076D02*
X158283152Y-107116076D01*
X158473628Y-107116076D02*
X158378390Y-107068457D01*
X158378390Y-107068457D02*
X158330771Y-107020838D01*
X158330771Y-107020838D02*
X158283152Y-106925600D01*
X158283152Y-106925600D02*
X158283152Y-106830362D01*
X158568866Y-106497028D02*
X158568866Y-105735124D01*
X158949819Y-105258933D02*
X157949819Y-105258933D01*
X158330771Y-105258933D02*
X158283152Y-105163695D01*
X158283152Y-105163695D02*
X158283152Y-104973219D01*
X158283152Y-104973219D02*
X158330771Y-104877981D01*
X158330771Y-104877981D02*
X158378390Y-104830362D01*
X158378390Y-104830362D02*
X158473628Y-104782743D01*
X158473628Y-104782743D02*
X158759342Y-104782743D01*
X158759342Y-104782743D02*
X158854580Y-104830362D01*
X158854580Y-104830362D02*
X158902200Y-104877981D01*
X158902200Y-104877981D02*
X158949819Y-104973219D01*
X158949819Y-104973219D02*
X158949819Y-105163695D01*
X158949819Y-105163695D02*
X158902200Y-105258933D01*
X158949819Y-104211314D02*
X158902200Y-104306552D01*
X158902200Y-104306552D02*
X158854580Y-104354171D01*
X158854580Y-104354171D02*
X158759342Y-104401790D01*
X158759342Y-104401790D02*
X158473628Y-104401790D01*
X158473628Y-104401790D02*
X158378390Y-104354171D01*
X158378390Y-104354171D02*
X158330771Y-104306552D01*
X158330771Y-104306552D02*
X158283152Y-104211314D01*
X158283152Y-104211314D02*
X158283152Y-104068457D01*
X158283152Y-104068457D02*
X158330771Y-103973219D01*
X158330771Y-103973219D02*
X158378390Y-103925600D01*
X158378390Y-103925600D02*
X158473628Y-103877981D01*
X158473628Y-103877981D02*
X158759342Y-103877981D01*
X158759342Y-103877981D02*
X158854580Y-103925600D01*
X158854580Y-103925600D02*
X158902200Y-103973219D01*
X158902200Y-103973219D02*
X158949819Y-104068457D01*
X158949819Y-104068457D02*
X158949819Y-104211314D01*
X158949819Y-103020838D02*
X158426009Y-103020838D01*
X158426009Y-103020838D02*
X158330771Y-103068457D01*
X158330771Y-103068457D02*
X158283152Y-103163695D01*
X158283152Y-103163695D02*
X158283152Y-103354171D01*
X158283152Y-103354171D02*
X158330771Y-103449409D01*
X158902200Y-103020838D02*
X158949819Y-103116076D01*
X158949819Y-103116076D02*
X158949819Y-103354171D01*
X158949819Y-103354171D02*
X158902200Y-103449409D01*
X158902200Y-103449409D02*
X158806961Y-103497028D01*
X158806961Y-103497028D02*
X158711723Y-103497028D01*
X158711723Y-103497028D02*
X158616485Y-103449409D01*
X158616485Y-103449409D02*
X158568866Y-103354171D01*
X158568866Y-103354171D02*
X158568866Y-103116076D01*
X158568866Y-103116076D02*
X158521247Y-103020838D01*
X158949819Y-102544647D02*
X158283152Y-102544647D01*
X158473628Y-102544647D02*
X158378390Y-102497028D01*
X158378390Y-102497028D02*
X158330771Y-102449409D01*
X158330771Y-102449409D02*
X158283152Y-102354171D01*
X158283152Y-102354171D02*
X158283152Y-102258933D01*
X158949819Y-101497028D02*
X157949819Y-101497028D01*
X158902200Y-101497028D02*
X158949819Y-101592266D01*
X158949819Y-101592266D02*
X158949819Y-101782742D01*
X158949819Y-101782742D02*
X158902200Y-101877980D01*
X158902200Y-101877980D02*
X158854580Y-101925599D01*
X158854580Y-101925599D02*
X158759342Y-101973218D01*
X158759342Y-101973218D02*
X158473628Y-101973218D01*
X158473628Y-101973218D02*
X158378390Y-101925599D01*
X158378390Y-101925599D02*
X158330771Y-101877980D01*
X158330771Y-101877980D02*
X158283152Y-101782742D01*
X158283152Y-101782742D02*
X158283152Y-101592266D01*
X158283152Y-101592266D02*
X158330771Y-101497028D01*
X144430592Y-67195819D02*
X145097258Y-67195819D01*
X145097258Y-67195819D02*
X144668687Y-68195819D01*
X118113180Y-103469839D02*
X118113180Y-102898411D01*
X118113180Y-103184125D02*
X119113180Y-103184125D01*
X119113180Y-103184125D02*
X118970323Y-103088887D01*
X118970323Y-103088887D02*
X118875085Y-102993649D01*
X118875085Y-102993649D02*
X118827466Y-102898411D01*
X126574779Y-99183819D02*
X126574779Y-98183819D01*
X126574779Y-98183819D02*
X127146207Y-99183819D01*
X127146207Y-99183819D02*
X127146207Y-98183819D01*
X128336683Y-98136200D02*
X127479541Y-99421914D01*
X129241445Y-99088580D02*
X129193826Y-99136200D01*
X129193826Y-99136200D02*
X129050969Y-99183819D01*
X129050969Y-99183819D02*
X128955731Y-99183819D01*
X128955731Y-99183819D02*
X128812874Y-99136200D01*
X128812874Y-99136200D02*
X128717636Y-99040961D01*
X128717636Y-99040961D02*
X128670017Y-98945723D01*
X128670017Y-98945723D02*
X128622398Y-98755247D01*
X128622398Y-98755247D02*
X128622398Y-98612390D01*
X128622398Y-98612390D02*
X128670017Y-98421914D01*
X128670017Y-98421914D02*
X128717636Y-98326676D01*
X128717636Y-98326676D02*
X128812874Y-98231438D01*
X128812874Y-98231438D02*
X128955731Y-98183819D01*
X128955731Y-98183819D02*
X129050969Y-98183819D01*
X129050969Y-98183819D02*
X129193826Y-98231438D01*
X129193826Y-98231438D02*
X129241445Y-98279057D01*
X142998866Y-54273220D02*
X142998866Y-53511316D01*
X143379819Y-53892268D02*
X142617914Y-53892268D01*
X142713152Y-52606554D02*
X143379819Y-52606554D01*
X142332200Y-52844649D02*
X143046485Y-53082744D01*
X143046485Y-53082744D02*
X143046485Y-52463697D01*
X142808390Y-51939887D02*
X142760771Y-52035125D01*
X142760771Y-52035125D02*
X142713152Y-52082744D01*
X142713152Y-52082744D02*
X142617914Y-52130363D01*
X142617914Y-52130363D02*
X142570295Y-52130363D01*
X142570295Y-52130363D02*
X142475057Y-52082744D01*
X142475057Y-52082744D02*
X142427438Y-52035125D01*
X142427438Y-52035125D02*
X142379819Y-51939887D01*
X142379819Y-51939887D02*
X142379819Y-51749411D01*
X142379819Y-51749411D02*
X142427438Y-51654173D01*
X142427438Y-51654173D02*
X142475057Y-51606554D01*
X142475057Y-51606554D02*
X142570295Y-51558935D01*
X142570295Y-51558935D02*
X142617914Y-51558935D01*
X142617914Y-51558935D02*
X142713152Y-51606554D01*
X142713152Y-51606554D02*
X142760771Y-51654173D01*
X142760771Y-51654173D02*
X142808390Y-51749411D01*
X142808390Y-51749411D02*
X142808390Y-51939887D01*
X142808390Y-51939887D02*
X142856009Y-52035125D01*
X142856009Y-52035125D02*
X142903628Y-52082744D01*
X142903628Y-52082744D02*
X142998866Y-52130363D01*
X142998866Y-52130363D02*
X143189342Y-52130363D01*
X143189342Y-52130363D02*
X143284580Y-52082744D01*
X143284580Y-52082744D02*
X143332200Y-52035125D01*
X143332200Y-52035125D02*
X143379819Y-51939887D01*
X143379819Y-51939887D02*
X143379819Y-51749411D01*
X143379819Y-51749411D02*
X143332200Y-51654173D01*
X143332200Y-51654173D02*
X143284580Y-51606554D01*
X143284580Y-51606554D02*
X143189342Y-51558935D01*
X143189342Y-51558935D02*
X142998866Y-51558935D01*
X142998866Y-51558935D02*
X142903628Y-51606554D01*
X142903628Y-51606554D02*
X142856009Y-51654173D01*
X142856009Y-51654173D02*
X142808390Y-51749411D01*
X142379819Y-51273220D02*
X143379819Y-50939887D01*
X143379819Y-50939887D02*
X142379819Y-50606554D01*
X143389579Y-62861819D02*
X143389579Y-61861819D01*
X143389579Y-61861819D02*
X143961007Y-62861819D01*
X143961007Y-62861819D02*
X143961007Y-61861819D01*
X145151483Y-61814200D02*
X144294341Y-63099914D01*
X146056245Y-62766580D02*
X146008626Y-62814200D01*
X146008626Y-62814200D02*
X145865769Y-62861819D01*
X145865769Y-62861819D02*
X145770531Y-62861819D01*
X145770531Y-62861819D02*
X145627674Y-62814200D01*
X145627674Y-62814200D02*
X145532436Y-62718961D01*
X145532436Y-62718961D02*
X145484817Y-62623723D01*
X145484817Y-62623723D02*
X145437198Y-62433247D01*
X145437198Y-62433247D02*
X145437198Y-62290390D01*
X145437198Y-62290390D02*
X145484817Y-62099914D01*
X145484817Y-62099914D02*
X145532436Y-62004676D01*
X145532436Y-62004676D02*
X145627674Y-61909438D01*
X145627674Y-61909438D02*
X145770531Y-61861819D01*
X145770531Y-61861819D02*
X145865769Y-61861819D01*
X145865769Y-61861819D02*
X146008626Y-61909438D01*
X146008626Y-61909438D02*
X146056245Y-61957057D01*
X145049639Y-99183819D02*
X144478211Y-99183819D01*
X144763925Y-99183819D02*
X144763925Y-98183819D01*
X144763925Y-98183819D02*
X144668687Y-98326676D01*
X144668687Y-98326676D02*
X144573449Y-98421914D01*
X144573449Y-98421914D02*
X144478211Y-98469533D01*
X145002020Y-77355819D02*
X144525830Y-77355819D01*
X144525830Y-77355819D02*
X144478211Y-77832009D01*
X144478211Y-77832009D02*
X144525830Y-77784390D01*
X144525830Y-77784390D02*
X144621068Y-77736771D01*
X144621068Y-77736771D02*
X144859163Y-77736771D01*
X144859163Y-77736771D02*
X144954401Y-77784390D01*
X144954401Y-77784390D02*
X145002020Y-77832009D01*
X145002020Y-77832009D02*
X145049639Y-77927247D01*
X145049639Y-77927247D02*
X145049639Y-78165342D01*
X145049639Y-78165342D02*
X145002020Y-78260580D01*
X145002020Y-78260580D02*
X144954401Y-78308200D01*
X144954401Y-78308200D02*
X144859163Y-78355819D01*
X144859163Y-78355819D02*
X144621068Y-78355819D01*
X144621068Y-78355819D02*
X144525830Y-78308200D01*
X144525830Y-78308200D02*
X144478211Y-78260580D01*
X124859942Y-102898411D02*
X124907561Y-102946030D01*
X124907561Y-102946030D02*
X124955180Y-103041268D01*
X124955180Y-103041268D02*
X124955180Y-103279363D01*
X124955180Y-103279363D02*
X124907561Y-103374601D01*
X124907561Y-103374601D02*
X124859942Y-103422220D01*
X124859942Y-103422220D02*
X124764704Y-103469839D01*
X124764704Y-103469839D02*
X124669466Y-103469839D01*
X124669466Y-103469839D02*
X124526609Y-103422220D01*
X124526609Y-103422220D02*
X123955180Y-102850792D01*
X123955180Y-102850792D02*
X123955180Y-103469839D01*
X127615792Y-92849819D02*
X128282458Y-92849819D01*
X128282458Y-92849819D02*
X127853887Y-93849819D01*
X148418779Y-59178819D02*
X148418779Y-58178819D01*
X148418779Y-58178819D02*
X148656874Y-58178819D01*
X148656874Y-58178819D02*
X148799731Y-58226438D01*
X148799731Y-58226438D02*
X148894969Y-58321676D01*
X148894969Y-58321676D02*
X148942588Y-58416914D01*
X148942588Y-58416914D02*
X148990207Y-58607390D01*
X148990207Y-58607390D02*
X148990207Y-58750247D01*
X148990207Y-58750247D02*
X148942588Y-58940723D01*
X148942588Y-58940723D02*
X148894969Y-59035961D01*
X148894969Y-59035961D02*
X148799731Y-59131200D01*
X148799731Y-59131200D02*
X148656874Y-59178819D01*
X148656874Y-59178819D02*
X148418779Y-59178819D01*
X149418779Y-58655009D02*
X149752112Y-58655009D01*
X149894969Y-59178819D02*
X149418779Y-59178819D01*
X149418779Y-59178819D02*
X149418779Y-58178819D01*
X149418779Y-58178819D02*
X149894969Y-58178819D01*
X150894969Y-59083580D02*
X150847350Y-59131200D01*
X150847350Y-59131200D02*
X150704493Y-59178819D01*
X150704493Y-59178819D02*
X150609255Y-59178819D01*
X150609255Y-59178819D02*
X150466398Y-59131200D01*
X150466398Y-59131200D02*
X150371160Y-59035961D01*
X150371160Y-59035961D02*
X150323541Y-58940723D01*
X150323541Y-58940723D02*
X150275922Y-58750247D01*
X150275922Y-58750247D02*
X150275922Y-58607390D01*
X150275922Y-58607390D02*
X150323541Y-58416914D01*
X150323541Y-58416914D02*
X150371160Y-58321676D01*
X150371160Y-58321676D02*
X150466398Y-58226438D01*
X150466398Y-58226438D02*
X150609255Y-58178819D01*
X150609255Y-58178819D02*
X150704493Y-58178819D01*
X150704493Y-58178819D02*
X150847350Y-58226438D01*
X150847350Y-58226438D02*
X150894969Y-58274057D01*
X151323541Y-59178819D02*
X151323541Y-58178819D01*
X151894969Y-59178819D02*
X151466398Y-58607390D01*
X151894969Y-58178819D02*
X151323541Y-58750247D01*
X153561636Y-59178819D02*
X153085446Y-59178819D01*
X153085446Y-59178819D02*
X153085446Y-58178819D01*
X153894970Y-58655009D02*
X154228303Y-58655009D01*
X154371160Y-59178819D02*
X153894970Y-59178819D01*
X153894970Y-59178819D02*
X153894970Y-58178819D01*
X153894970Y-58178819D02*
X154371160Y-58178819D01*
X154752113Y-58893104D02*
X155228303Y-58893104D01*
X154656875Y-59178819D02*
X154990208Y-58178819D01*
X154990208Y-58178819D02*
X155323541Y-59178819D01*
X155656875Y-59178819D02*
X155656875Y-58178819D01*
X155656875Y-58178819D02*
X155894970Y-58178819D01*
X155894970Y-58178819D02*
X156037827Y-58226438D01*
X156037827Y-58226438D02*
X156133065Y-58321676D01*
X156133065Y-58321676D02*
X156180684Y-58416914D01*
X156180684Y-58416914D02*
X156228303Y-58607390D01*
X156228303Y-58607390D02*
X156228303Y-58750247D01*
X156228303Y-58750247D02*
X156180684Y-58940723D01*
X156180684Y-58940723D02*
X156133065Y-59035961D01*
X156133065Y-59035961D02*
X156037827Y-59131200D01*
X156037827Y-59131200D02*
X155894970Y-59178819D01*
X155894970Y-59178819D02*
X155656875Y-59178819D01*
X127663411Y-67799057D02*
X127711030Y-67751438D01*
X127711030Y-67751438D02*
X127806268Y-67703819D01*
X127806268Y-67703819D02*
X128044363Y-67703819D01*
X128044363Y-67703819D02*
X128139601Y-67751438D01*
X128139601Y-67751438D02*
X128187220Y-67799057D01*
X128187220Y-67799057D02*
X128234839Y-67894295D01*
X128234839Y-67894295D02*
X128234839Y-67989533D01*
X128234839Y-67989533D02*
X128187220Y-68132390D01*
X128187220Y-68132390D02*
X127615792Y-68703819D01*
X127615792Y-68703819D02*
X128234839Y-68703819D01*
X118954779Y-59178819D02*
X118954779Y-58178819D01*
X118954779Y-58178819D02*
X119288112Y-58893104D01*
X119288112Y-58893104D02*
X119621445Y-58178819D01*
X119621445Y-58178819D02*
X119621445Y-59178819D01*
X120050017Y-58893104D02*
X120526207Y-58893104D01*
X119954779Y-59178819D02*
X120288112Y-58178819D01*
X120288112Y-58178819D02*
X120621445Y-59178819D01*
X120907160Y-59131200D02*
X121050017Y-59178819D01*
X121050017Y-59178819D02*
X121288112Y-59178819D01*
X121288112Y-59178819D02*
X121383350Y-59131200D01*
X121383350Y-59131200D02*
X121430969Y-59083580D01*
X121430969Y-59083580D02*
X121478588Y-58988342D01*
X121478588Y-58988342D02*
X121478588Y-58893104D01*
X121478588Y-58893104D02*
X121430969Y-58797866D01*
X121430969Y-58797866D02*
X121383350Y-58750247D01*
X121383350Y-58750247D02*
X121288112Y-58702628D01*
X121288112Y-58702628D02*
X121097636Y-58655009D01*
X121097636Y-58655009D02*
X121002398Y-58607390D01*
X121002398Y-58607390D02*
X120954779Y-58559771D01*
X120954779Y-58559771D02*
X120907160Y-58464533D01*
X120907160Y-58464533D02*
X120907160Y-58369295D01*
X120907160Y-58369295D02*
X120954779Y-58274057D01*
X120954779Y-58274057D02*
X121002398Y-58226438D01*
X121002398Y-58226438D02*
X121097636Y-58178819D01*
X121097636Y-58178819D02*
X121335731Y-58178819D01*
X121335731Y-58178819D02*
X121478588Y-58226438D01*
X121764303Y-58178819D02*
X122335731Y-58178819D01*
X122050017Y-59178819D02*
X122050017Y-58178819D01*
X122669065Y-58655009D02*
X123002398Y-58655009D01*
X123145255Y-59178819D02*
X122669065Y-59178819D01*
X122669065Y-59178819D02*
X122669065Y-58178819D01*
X122669065Y-58178819D02*
X123145255Y-58178819D01*
X124145255Y-59178819D02*
X123811922Y-58702628D01*
X123573827Y-59178819D02*
X123573827Y-58178819D01*
X123573827Y-58178819D02*
X123954779Y-58178819D01*
X123954779Y-58178819D02*
X124050017Y-58226438D01*
X124050017Y-58226438D02*
X124097636Y-58274057D01*
X124097636Y-58274057D02*
X124145255Y-58369295D01*
X124145255Y-58369295D02*
X124145255Y-58512152D01*
X124145255Y-58512152D02*
X124097636Y-58607390D01*
X124097636Y-58607390D02*
X124050017Y-58655009D01*
X124050017Y-58655009D02*
X123954779Y-58702628D01*
X123954779Y-58702628D02*
X123573827Y-58702628D01*
X150101180Y-102850792D02*
X150101180Y-103517458D01*
X150101180Y-103517458D02*
X149101180Y-103088887D01*
X131480112Y-44812009D02*
X131622969Y-44859628D01*
X131622969Y-44859628D02*
X131670588Y-44907247D01*
X131670588Y-44907247D02*
X131718207Y-45002485D01*
X131718207Y-45002485D02*
X131718207Y-45145342D01*
X131718207Y-45145342D02*
X131670588Y-45240580D01*
X131670588Y-45240580D02*
X131622969Y-45288200D01*
X131622969Y-45288200D02*
X131527731Y-45335819D01*
X131527731Y-45335819D02*
X131146779Y-45335819D01*
X131146779Y-45335819D02*
X131146779Y-44335819D01*
X131146779Y-44335819D02*
X131480112Y-44335819D01*
X131480112Y-44335819D02*
X131575350Y-44383438D01*
X131575350Y-44383438D02*
X131622969Y-44431057D01*
X131622969Y-44431057D02*
X131670588Y-44526295D01*
X131670588Y-44526295D02*
X131670588Y-44621533D01*
X131670588Y-44621533D02*
X131622969Y-44716771D01*
X131622969Y-44716771D02*
X131575350Y-44764390D01*
X131575350Y-44764390D02*
X131480112Y-44812009D01*
X131480112Y-44812009D02*
X131146779Y-44812009D01*
X132099160Y-45050104D02*
X132575350Y-45050104D01*
X132003922Y-45335819D02*
X132337255Y-44335819D01*
X132337255Y-44335819D02*
X132670588Y-45335819D01*
X132861065Y-44335819D02*
X133432493Y-44335819D01*
X133146779Y-45335819D02*
X133146779Y-44335819D01*
X133622970Y-44335819D02*
X134194398Y-44335819D01*
X133908684Y-45335819D02*
X133908684Y-44335819D01*
X134527732Y-44812009D02*
X134861065Y-44812009D01*
X135003922Y-45335819D02*
X134527732Y-45335819D01*
X134527732Y-45335819D02*
X134527732Y-44335819D01*
X134527732Y-44335819D02*
X135003922Y-44335819D01*
X136003922Y-45335819D02*
X135670589Y-44859628D01*
X135432494Y-45335819D02*
X135432494Y-44335819D01*
X135432494Y-44335819D02*
X135813446Y-44335819D01*
X135813446Y-44335819D02*
X135908684Y-44383438D01*
X135908684Y-44383438D02*
X135956303Y-44431057D01*
X135956303Y-44431057D02*
X136003922Y-44526295D01*
X136003922Y-44526295D02*
X136003922Y-44669152D01*
X136003922Y-44669152D02*
X135956303Y-44764390D01*
X135956303Y-44764390D02*
X135908684Y-44812009D01*
X135908684Y-44812009D02*
X135813446Y-44859628D01*
X135813446Y-44859628D02*
X135432494Y-44859628D01*
X136622970Y-44859628D02*
X136622970Y-45335819D01*
X136289637Y-44335819D02*
X136622970Y-44859628D01*
X136622970Y-44859628D02*
X136956303Y-44335819D01*
X138051542Y-45335819D02*
X138051542Y-44335819D01*
X138051542Y-44335819D02*
X138432494Y-44335819D01*
X138432494Y-44335819D02*
X138527732Y-44383438D01*
X138527732Y-44383438D02*
X138575351Y-44431057D01*
X138575351Y-44431057D02*
X138622970Y-44526295D01*
X138622970Y-44526295D02*
X138622970Y-44669152D01*
X138622970Y-44669152D02*
X138575351Y-44764390D01*
X138575351Y-44764390D02*
X138527732Y-44812009D01*
X138527732Y-44812009D02*
X138432494Y-44859628D01*
X138432494Y-44859628D02*
X138051542Y-44859628D01*
X139003923Y-45050104D02*
X139480113Y-45050104D01*
X138908685Y-45335819D02*
X139242018Y-44335819D01*
X139242018Y-44335819D02*
X139575351Y-45335819D01*
X140480113Y-45240580D02*
X140432494Y-45288200D01*
X140432494Y-45288200D02*
X140289637Y-45335819D01*
X140289637Y-45335819D02*
X140194399Y-45335819D01*
X140194399Y-45335819D02*
X140051542Y-45288200D01*
X140051542Y-45288200D02*
X139956304Y-45192961D01*
X139956304Y-45192961D02*
X139908685Y-45097723D01*
X139908685Y-45097723D02*
X139861066Y-44907247D01*
X139861066Y-44907247D02*
X139861066Y-44764390D01*
X139861066Y-44764390D02*
X139908685Y-44573914D01*
X139908685Y-44573914D02*
X139956304Y-44478676D01*
X139956304Y-44478676D02*
X140051542Y-44383438D01*
X140051542Y-44383438D02*
X140194399Y-44335819D01*
X140194399Y-44335819D02*
X140289637Y-44335819D01*
X140289637Y-44335819D02*
X140432494Y-44383438D01*
X140432494Y-44383438D02*
X140480113Y-44431057D01*
X140908685Y-45335819D02*
X140908685Y-44335819D01*
X141480113Y-45335819D02*
X141051542Y-44764390D01*
X141480113Y-44335819D02*
X140908685Y-44907247D01*
X134781847Y-103374601D02*
X134115180Y-103374601D01*
X135162800Y-103136506D02*
X134448514Y-102898411D01*
X134448514Y-102898411D02*
X134448514Y-103517458D01*
X144767180Y-103374601D02*
X144767180Y-103184125D01*
X144767180Y-103184125D02*
X144719561Y-103088887D01*
X144719561Y-103088887D02*
X144671942Y-103041268D01*
X144671942Y-103041268D02*
X144529085Y-102946030D01*
X144529085Y-102946030D02*
X144338609Y-102898411D01*
X144338609Y-102898411D02*
X143957657Y-102898411D01*
X143957657Y-102898411D02*
X143862419Y-102946030D01*
X143862419Y-102946030D02*
X143814800Y-102993649D01*
X143814800Y-102993649D02*
X143767180Y-103088887D01*
X143767180Y-103088887D02*
X143767180Y-103279363D01*
X143767180Y-103279363D02*
X143814800Y-103374601D01*
X143814800Y-103374601D02*
X143862419Y-103422220D01*
X143862419Y-103422220D02*
X143957657Y-103469839D01*
X143957657Y-103469839D02*
X144195752Y-103469839D01*
X144195752Y-103469839D02*
X144290990Y-103422220D01*
X144290990Y-103422220D02*
X144338609Y-103374601D01*
X144338609Y-103374601D02*
X144386228Y-103279363D01*
X144386228Y-103279363D02*
X144386228Y-103088887D01*
X144386228Y-103088887D02*
X144338609Y-102993649D01*
X144338609Y-102993649D02*
X144290990Y-102946030D01*
X144290990Y-102946030D02*
X144195752Y-102898411D01*
X144478211Y-92437057D02*
X144525830Y-92389438D01*
X144525830Y-92389438D02*
X144621068Y-92341819D01*
X144621068Y-92341819D02*
X144859163Y-92341819D01*
X144859163Y-92341819D02*
X144954401Y-92389438D01*
X144954401Y-92389438D02*
X145002020Y-92437057D01*
X145002020Y-92437057D02*
X145049639Y-92532295D01*
X145049639Y-92532295D02*
X145049639Y-92627533D01*
X145049639Y-92627533D02*
X145002020Y-92770390D01*
X145002020Y-92770390D02*
X144430592Y-93341819D01*
X144430592Y-93341819D02*
X145049639Y-93341819D01*
X129409819Y-53003220D02*
X128409819Y-53003220D01*
X128409819Y-53003220D02*
X129409819Y-52431792D01*
X129409819Y-52431792D02*
X128409819Y-52431792D01*
X128886009Y-51955601D02*
X128886009Y-51622268D01*
X129409819Y-51479411D02*
X129409819Y-51955601D01*
X129409819Y-51955601D02*
X128409819Y-51955601D01*
X128409819Y-51955601D02*
X128409819Y-51479411D01*
X128457438Y-50527030D02*
X128409819Y-50622268D01*
X128409819Y-50622268D02*
X128409819Y-50765125D01*
X128409819Y-50765125D02*
X128457438Y-50907982D01*
X128457438Y-50907982D02*
X128552676Y-51003220D01*
X128552676Y-51003220D02*
X128647914Y-51050839D01*
X128647914Y-51050839D02*
X128838390Y-51098458D01*
X128838390Y-51098458D02*
X128981247Y-51098458D01*
X128981247Y-51098458D02*
X129171723Y-51050839D01*
X129171723Y-51050839D02*
X129266961Y-51003220D01*
X129266961Y-51003220D02*
X129362200Y-50907982D01*
X129362200Y-50907982D02*
X129409819Y-50765125D01*
X129409819Y-50765125D02*
X129409819Y-50669887D01*
X129409819Y-50669887D02*
X129362200Y-50527030D01*
X129362200Y-50527030D02*
X129314580Y-50479411D01*
X129314580Y-50479411D02*
X128981247Y-50479411D01*
X128981247Y-50479411D02*
X128981247Y-50669887D01*
X128187220Y-82689819D02*
X127711030Y-82689819D01*
X127711030Y-82689819D02*
X127663411Y-83166009D01*
X127663411Y-83166009D02*
X127711030Y-83118390D01*
X127711030Y-83118390D02*
X127806268Y-83070771D01*
X127806268Y-83070771D02*
X128044363Y-83070771D01*
X128044363Y-83070771D02*
X128139601Y-83118390D01*
X128139601Y-83118390D02*
X128187220Y-83166009D01*
X128187220Y-83166009D02*
X128234839Y-83261247D01*
X128234839Y-83261247D02*
X128234839Y-83499342D01*
X128234839Y-83499342D02*
X128187220Y-83594580D01*
X128187220Y-83594580D02*
X128139601Y-83642200D01*
X128139601Y-83642200D02*
X128044363Y-83689819D01*
X128044363Y-83689819D02*
X127806268Y-83689819D01*
X127806268Y-83689819D02*
X127711030Y-83642200D01*
X127711030Y-83642200D02*
X127663411Y-83594580D01*
X144430592Y-87261819D02*
X145049639Y-87261819D01*
X145049639Y-87261819D02*
X144716306Y-87642771D01*
X144716306Y-87642771D02*
X144859163Y-87642771D01*
X144859163Y-87642771D02*
X144954401Y-87690390D01*
X144954401Y-87690390D02*
X145002020Y-87738009D01*
X145002020Y-87738009D02*
X145049639Y-87833247D01*
X145049639Y-87833247D02*
X145049639Y-88071342D01*
X145049639Y-88071342D02*
X145002020Y-88166580D01*
X145002020Y-88166580D02*
X144954401Y-88214200D01*
X144954401Y-88214200D02*
X144859163Y-88261819D01*
X144859163Y-88261819D02*
X144573449Y-88261819D01*
X144573449Y-88261819D02*
X144478211Y-88214200D01*
X144478211Y-88214200D02*
X144430592Y-88166580D01*
X128234839Y-62861819D02*
X127663411Y-62861819D01*
X127949125Y-62861819D02*
X127949125Y-61861819D01*
X127949125Y-61861819D02*
X127853887Y-62004676D01*
X127853887Y-62004676D02*
X127758649Y-62099914D01*
X127758649Y-62099914D02*
X127663411Y-62147533D01*
X148926779Y-116328866D02*
X149688684Y-116328866D01*
X130035180Y-102850792D02*
X130035180Y-103469839D01*
X130035180Y-103469839D02*
X129654228Y-103136506D01*
X129654228Y-103136506D02*
X129654228Y-103279363D01*
X129654228Y-103279363D02*
X129606609Y-103374601D01*
X129606609Y-103374601D02*
X129558990Y-103422220D01*
X129558990Y-103422220D02*
X129463752Y-103469839D01*
X129463752Y-103469839D02*
X129225657Y-103469839D01*
X129225657Y-103469839D02*
X129130419Y-103422220D01*
X129130419Y-103422220D02*
X129082800Y-103374601D01*
X129082800Y-103374601D02*
X129035180Y-103279363D01*
X129035180Y-103279363D02*
X129035180Y-102993649D01*
X129035180Y-102993649D02*
X129082800Y-102898411D01*
X129082800Y-102898411D02*
X129130419Y-102850792D01*
X127615792Y-72783819D02*
X128234839Y-72783819D01*
X128234839Y-72783819D02*
X127901506Y-73164771D01*
X127901506Y-73164771D02*
X128044363Y-73164771D01*
X128044363Y-73164771D02*
X128139601Y-73212390D01*
X128139601Y-73212390D02*
X128187220Y-73260009D01*
X128187220Y-73260009D02*
X128234839Y-73355247D01*
X128234839Y-73355247D02*
X128234839Y-73593342D01*
X128234839Y-73593342D02*
X128187220Y-73688580D01*
X128187220Y-73688580D02*
X128139601Y-73736200D01*
X128139601Y-73736200D02*
X128044363Y-73783819D01*
X128044363Y-73783819D02*
X127758649Y-73783819D01*
X127758649Y-73783819D02*
X127663411Y-73736200D01*
X127663411Y-73736200D02*
X127615792Y-73688580D01*
X130089160Y-62532200D02*
X130232017Y-62579819D01*
X130232017Y-62579819D02*
X130470112Y-62579819D01*
X130470112Y-62579819D02*
X130565350Y-62532200D01*
X130565350Y-62532200D02*
X130612969Y-62484580D01*
X130612969Y-62484580D02*
X130660588Y-62389342D01*
X130660588Y-62389342D02*
X130660588Y-62294104D01*
X130660588Y-62294104D02*
X130612969Y-62198866D01*
X130612969Y-62198866D02*
X130565350Y-62151247D01*
X130565350Y-62151247D02*
X130470112Y-62103628D01*
X130470112Y-62103628D02*
X130279636Y-62056009D01*
X130279636Y-62056009D02*
X130184398Y-62008390D01*
X130184398Y-62008390D02*
X130136779Y-61960771D01*
X130136779Y-61960771D02*
X130089160Y-61865533D01*
X130089160Y-61865533D02*
X130089160Y-61770295D01*
X130089160Y-61770295D02*
X130136779Y-61675057D01*
X130136779Y-61675057D02*
X130184398Y-61627438D01*
X130184398Y-61627438D02*
X130279636Y-61579819D01*
X130279636Y-61579819D02*
X130517731Y-61579819D01*
X130517731Y-61579819D02*
X130660588Y-61627438D01*
X130946303Y-61913152D02*
X131327255Y-61913152D01*
X131089160Y-61579819D02*
X131089160Y-62436961D01*
X131089160Y-62436961D02*
X131136779Y-62532200D01*
X131136779Y-62532200D02*
X131232017Y-62579819D01*
X131232017Y-62579819D02*
X131327255Y-62579819D01*
X132089160Y-62579819D02*
X132089160Y-62056009D01*
X132089160Y-62056009D02*
X132041541Y-61960771D01*
X132041541Y-61960771D02*
X131946303Y-61913152D01*
X131946303Y-61913152D02*
X131755827Y-61913152D01*
X131755827Y-61913152D02*
X131660589Y-61960771D01*
X132089160Y-62532200D02*
X131993922Y-62579819D01*
X131993922Y-62579819D02*
X131755827Y-62579819D01*
X131755827Y-62579819D02*
X131660589Y-62532200D01*
X131660589Y-62532200D02*
X131612970Y-62436961D01*
X131612970Y-62436961D02*
X131612970Y-62341723D01*
X131612970Y-62341723D02*
X131660589Y-62246485D01*
X131660589Y-62246485D02*
X131755827Y-62198866D01*
X131755827Y-62198866D02*
X131993922Y-62198866D01*
X131993922Y-62198866D02*
X132089160Y-62151247D01*
X132565351Y-62579819D02*
X132565351Y-61913152D01*
X132565351Y-62103628D02*
X132612970Y-62008390D01*
X132612970Y-62008390D02*
X132660589Y-61960771D01*
X132660589Y-61960771D02*
X132755827Y-61913152D01*
X132755827Y-61913152D02*
X132851065Y-61913152D01*
X134279637Y-62056009D02*
X134422494Y-62103628D01*
X134422494Y-62103628D02*
X134470113Y-62151247D01*
X134470113Y-62151247D02*
X134517732Y-62246485D01*
X134517732Y-62246485D02*
X134517732Y-62389342D01*
X134517732Y-62389342D02*
X134470113Y-62484580D01*
X134470113Y-62484580D02*
X134422494Y-62532200D01*
X134422494Y-62532200D02*
X134327256Y-62579819D01*
X134327256Y-62579819D02*
X133946304Y-62579819D01*
X133946304Y-62579819D02*
X133946304Y-61579819D01*
X133946304Y-61579819D02*
X134279637Y-61579819D01*
X134279637Y-61579819D02*
X134374875Y-61627438D01*
X134374875Y-61627438D02*
X134422494Y-61675057D01*
X134422494Y-61675057D02*
X134470113Y-61770295D01*
X134470113Y-61770295D02*
X134470113Y-61865533D01*
X134470113Y-61865533D02*
X134422494Y-61960771D01*
X134422494Y-61960771D02*
X134374875Y-62008390D01*
X134374875Y-62008390D02*
X134279637Y-62056009D01*
X134279637Y-62056009D02*
X133946304Y-62056009D01*
X135089161Y-62579819D02*
X134993923Y-62532200D01*
X134993923Y-62532200D02*
X134946304Y-62484580D01*
X134946304Y-62484580D02*
X134898685Y-62389342D01*
X134898685Y-62389342D02*
X134898685Y-62103628D01*
X134898685Y-62103628D02*
X134946304Y-62008390D01*
X134946304Y-62008390D02*
X134993923Y-61960771D01*
X134993923Y-61960771D02*
X135089161Y-61913152D01*
X135089161Y-61913152D02*
X135232018Y-61913152D01*
X135232018Y-61913152D02*
X135327256Y-61960771D01*
X135327256Y-61960771D02*
X135374875Y-62008390D01*
X135374875Y-62008390D02*
X135422494Y-62103628D01*
X135422494Y-62103628D02*
X135422494Y-62389342D01*
X135422494Y-62389342D02*
X135374875Y-62484580D01*
X135374875Y-62484580D02*
X135327256Y-62532200D01*
X135327256Y-62532200D02*
X135232018Y-62579819D01*
X135232018Y-62579819D02*
X135089161Y-62579819D01*
X136279637Y-62579819D02*
X136279637Y-62056009D01*
X136279637Y-62056009D02*
X136232018Y-61960771D01*
X136232018Y-61960771D02*
X136136780Y-61913152D01*
X136136780Y-61913152D02*
X135946304Y-61913152D01*
X135946304Y-61913152D02*
X135851066Y-61960771D01*
X136279637Y-62532200D02*
X136184399Y-62579819D01*
X136184399Y-62579819D02*
X135946304Y-62579819D01*
X135946304Y-62579819D02*
X135851066Y-62532200D01*
X135851066Y-62532200D02*
X135803447Y-62436961D01*
X135803447Y-62436961D02*
X135803447Y-62341723D01*
X135803447Y-62341723D02*
X135851066Y-62246485D01*
X135851066Y-62246485D02*
X135946304Y-62198866D01*
X135946304Y-62198866D02*
X136184399Y-62198866D01*
X136184399Y-62198866D02*
X136279637Y-62151247D01*
X136755828Y-62579819D02*
X136755828Y-61913152D01*
X136755828Y-62103628D02*
X136803447Y-62008390D01*
X136803447Y-62008390D02*
X136851066Y-61960771D01*
X136851066Y-61960771D02*
X136946304Y-61913152D01*
X136946304Y-61913152D02*
X137041542Y-61913152D01*
X137803447Y-62579819D02*
X137803447Y-61579819D01*
X137803447Y-62532200D02*
X137708209Y-62579819D01*
X137708209Y-62579819D02*
X137517733Y-62579819D01*
X137517733Y-62579819D02*
X137422495Y-62532200D01*
X137422495Y-62532200D02*
X137374876Y-62484580D01*
X137374876Y-62484580D02*
X137327257Y-62389342D01*
X137327257Y-62389342D02*
X137327257Y-62103628D01*
X137327257Y-62103628D02*
X137374876Y-62008390D01*
X137374876Y-62008390D02*
X137422495Y-61960771D01*
X137422495Y-61960771D02*
X137517733Y-61913152D01*
X137517733Y-61913152D02*
X137708209Y-61913152D01*
X137708209Y-61913152D02*
X137803447Y-61960771D01*
X138279638Y-62484580D02*
X138327257Y-62532200D01*
X138327257Y-62532200D02*
X138279638Y-62579819D01*
X138279638Y-62579819D02*
X138232019Y-62532200D01*
X138232019Y-62532200D02*
X138279638Y-62484580D01*
X138279638Y-62484580D02*
X138279638Y-62579819D01*
X130612969Y-64189819D02*
X130136779Y-64189819D01*
X130136779Y-64189819D02*
X130136779Y-63189819D01*
X130898684Y-63904104D02*
X131374874Y-63904104D01*
X130803446Y-64189819D02*
X131136779Y-63189819D01*
X131136779Y-63189819D02*
X131470112Y-64189819D01*
X131803446Y-64189819D02*
X131803446Y-63189819D01*
X131803446Y-63189819D02*
X132041541Y-63189819D01*
X132041541Y-63189819D02*
X132184398Y-63237438D01*
X132184398Y-63237438D02*
X132279636Y-63332676D01*
X132279636Y-63332676D02*
X132327255Y-63427914D01*
X132327255Y-63427914D02*
X132374874Y-63618390D01*
X132374874Y-63618390D02*
X132374874Y-63761247D01*
X132374874Y-63761247D02*
X132327255Y-63951723D01*
X132327255Y-63951723D02*
X132279636Y-64046961D01*
X132279636Y-64046961D02*
X132184398Y-64142200D01*
X132184398Y-64142200D02*
X132041541Y-64189819D01*
X132041541Y-64189819D02*
X131803446Y-64189819D01*
X133374874Y-64094580D02*
X133327255Y-64142200D01*
X133327255Y-64142200D02*
X133184398Y-64189819D01*
X133184398Y-64189819D02*
X133089160Y-64189819D01*
X133089160Y-64189819D02*
X132946303Y-64142200D01*
X132946303Y-64142200D02*
X132851065Y-64046961D01*
X132851065Y-64046961D02*
X132803446Y-63951723D01*
X132803446Y-63951723D02*
X132755827Y-63761247D01*
X132755827Y-63761247D02*
X132755827Y-63618390D01*
X132755827Y-63618390D02*
X132803446Y-63427914D01*
X132803446Y-63427914D02*
X132851065Y-63332676D01*
X132851065Y-63332676D02*
X132946303Y-63237438D01*
X132946303Y-63237438D02*
X133089160Y-63189819D01*
X133089160Y-63189819D02*
X133184398Y-63189819D01*
X133184398Y-63189819D02*
X133327255Y-63237438D01*
X133327255Y-63237438D02*
X133374874Y-63285057D01*
X133803446Y-64189819D02*
X133803446Y-63189819D01*
X133803446Y-63189819D02*
X134184398Y-63189819D01*
X134184398Y-63189819D02*
X134279636Y-63237438D01*
X134279636Y-63237438D02*
X134327255Y-63285057D01*
X134327255Y-63285057D02*
X134374874Y-63380295D01*
X134374874Y-63380295D02*
X134374874Y-63523152D01*
X134374874Y-63523152D02*
X134327255Y-63618390D01*
X134327255Y-63618390D02*
X134279636Y-63666009D01*
X134279636Y-63666009D02*
X134184398Y-63713628D01*
X134184398Y-63713628D02*
X133803446Y-63713628D01*
X135517732Y-64142200D02*
X135660589Y-64189819D01*
X135660589Y-64189819D02*
X135898684Y-64189819D01*
X135898684Y-64189819D02*
X135993922Y-64142200D01*
X135993922Y-64142200D02*
X136041541Y-64094580D01*
X136041541Y-64094580D02*
X136089160Y-63999342D01*
X136089160Y-63999342D02*
X136089160Y-63904104D01*
X136089160Y-63904104D02*
X136041541Y-63808866D01*
X136041541Y-63808866D02*
X135993922Y-63761247D01*
X135993922Y-63761247D02*
X135898684Y-63713628D01*
X135898684Y-63713628D02*
X135708208Y-63666009D01*
X135708208Y-63666009D02*
X135612970Y-63618390D01*
X135612970Y-63618390D02*
X135565351Y-63570771D01*
X135565351Y-63570771D02*
X135517732Y-63475533D01*
X135517732Y-63475533D02*
X135517732Y-63380295D01*
X135517732Y-63380295D02*
X135565351Y-63285057D01*
X135565351Y-63285057D02*
X135612970Y-63237438D01*
X135612970Y-63237438D02*
X135708208Y-63189819D01*
X135708208Y-63189819D02*
X135946303Y-63189819D01*
X135946303Y-63189819D02*
X136089160Y-63237438D01*
X136374875Y-63523152D02*
X136755827Y-63523152D01*
X136517732Y-63189819D02*
X136517732Y-64046961D01*
X136517732Y-64046961D02*
X136565351Y-64142200D01*
X136565351Y-64142200D02*
X136660589Y-64189819D01*
X136660589Y-64189819D02*
X136755827Y-64189819D01*
X137517732Y-64189819D02*
X137517732Y-63666009D01*
X137517732Y-63666009D02*
X137470113Y-63570771D01*
X137470113Y-63570771D02*
X137374875Y-63523152D01*
X137374875Y-63523152D02*
X137184399Y-63523152D01*
X137184399Y-63523152D02*
X137089161Y-63570771D01*
X137517732Y-64142200D02*
X137422494Y-64189819D01*
X137422494Y-64189819D02*
X137184399Y-64189819D01*
X137184399Y-64189819D02*
X137089161Y-64142200D01*
X137089161Y-64142200D02*
X137041542Y-64046961D01*
X137041542Y-64046961D02*
X137041542Y-63951723D01*
X137041542Y-63951723D02*
X137089161Y-63856485D01*
X137089161Y-63856485D02*
X137184399Y-63808866D01*
X137184399Y-63808866D02*
X137422494Y-63808866D01*
X137422494Y-63808866D02*
X137517732Y-63761247D01*
X137993923Y-64189819D02*
X137993923Y-63523152D01*
X137993923Y-63713628D02*
X138041542Y-63618390D01*
X138041542Y-63618390D02*
X138089161Y-63570771D01*
X138089161Y-63570771D02*
X138184399Y-63523152D01*
X138184399Y-63523152D02*
X138279637Y-63523152D01*
X139946304Y-64094580D02*
X139898685Y-64142200D01*
X139898685Y-64142200D02*
X139755828Y-64189819D01*
X139755828Y-64189819D02*
X139660590Y-64189819D01*
X139660590Y-64189819D02*
X139517733Y-64142200D01*
X139517733Y-64142200D02*
X139422495Y-64046961D01*
X139422495Y-64046961D02*
X139374876Y-63951723D01*
X139374876Y-63951723D02*
X139327257Y-63761247D01*
X139327257Y-63761247D02*
X139327257Y-63618390D01*
X139327257Y-63618390D02*
X139374876Y-63427914D01*
X139374876Y-63427914D02*
X139422495Y-63332676D01*
X139422495Y-63332676D02*
X139517733Y-63237438D01*
X139517733Y-63237438D02*
X139660590Y-63189819D01*
X139660590Y-63189819D02*
X139755828Y-63189819D01*
X139755828Y-63189819D02*
X139898685Y-63237438D01*
X139898685Y-63237438D02*
X139946304Y-63285057D01*
X140803447Y-64189819D02*
X140803447Y-63666009D01*
X140803447Y-63666009D02*
X140755828Y-63570771D01*
X140755828Y-63570771D02*
X140660590Y-63523152D01*
X140660590Y-63523152D02*
X140470114Y-63523152D01*
X140470114Y-63523152D02*
X140374876Y-63570771D01*
X140803447Y-64142200D02*
X140708209Y-64189819D01*
X140708209Y-64189819D02*
X140470114Y-64189819D01*
X140470114Y-64189819D02*
X140374876Y-64142200D01*
X140374876Y-64142200D02*
X140327257Y-64046961D01*
X140327257Y-64046961D02*
X140327257Y-63951723D01*
X140327257Y-63951723D02*
X140374876Y-63856485D01*
X140374876Y-63856485D02*
X140470114Y-63808866D01*
X140470114Y-63808866D02*
X140708209Y-63808866D01*
X140708209Y-63808866D02*
X140803447Y-63761247D01*
X141279638Y-64189819D02*
X141279638Y-63189819D01*
X141279638Y-63570771D02*
X141374876Y-63523152D01*
X141374876Y-63523152D02*
X141565352Y-63523152D01*
X141565352Y-63523152D02*
X141660590Y-63570771D01*
X141660590Y-63570771D02*
X141708209Y-63618390D01*
X141708209Y-63618390D02*
X141755828Y-63713628D01*
X141755828Y-63713628D02*
X141755828Y-63999342D01*
X141755828Y-63999342D02*
X141708209Y-64094580D01*
X141708209Y-64094580D02*
X141660590Y-64142200D01*
X141660590Y-64142200D02*
X141565352Y-64189819D01*
X141565352Y-64189819D02*
X141374876Y-64189819D01*
X141374876Y-64189819D02*
X141279638Y-64142200D01*
X142327257Y-64189819D02*
X142232019Y-64142200D01*
X142232019Y-64142200D02*
X142184400Y-64046961D01*
X142184400Y-64046961D02*
X142184400Y-63189819D01*
X143089162Y-64142200D02*
X142993924Y-64189819D01*
X142993924Y-64189819D02*
X142803448Y-64189819D01*
X142803448Y-64189819D02*
X142708210Y-64142200D01*
X142708210Y-64142200D02*
X142660591Y-64046961D01*
X142660591Y-64046961D02*
X142660591Y-63666009D01*
X142660591Y-63666009D02*
X142708210Y-63570771D01*
X142708210Y-63570771D02*
X142803448Y-63523152D01*
X142803448Y-63523152D02*
X142993924Y-63523152D01*
X142993924Y-63523152D02*
X143089162Y-63570771D01*
X143089162Y-63570771D02*
X143136781Y-63666009D01*
X143136781Y-63666009D02*
X143136781Y-63761247D01*
X143136781Y-63761247D02*
X142660591Y-63856485D01*
X130708207Y-65799819D02*
X130374874Y-65323628D01*
X130136779Y-65799819D02*
X130136779Y-64799819D01*
X130136779Y-64799819D02*
X130517731Y-64799819D01*
X130517731Y-64799819D02*
X130612969Y-64847438D01*
X130612969Y-64847438D02*
X130660588Y-64895057D01*
X130660588Y-64895057D02*
X130708207Y-64990295D01*
X130708207Y-64990295D02*
X130708207Y-65133152D01*
X130708207Y-65133152D02*
X130660588Y-65228390D01*
X130660588Y-65228390D02*
X130612969Y-65276009D01*
X130612969Y-65276009D02*
X130517731Y-65323628D01*
X130517731Y-65323628D02*
X130136779Y-65323628D01*
X131517731Y-65752200D02*
X131422493Y-65799819D01*
X131422493Y-65799819D02*
X131232017Y-65799819D01*
X131232017Y-65799819D02*
X131136779Y-65752200D01*
X131136779Y-65752200D02*
X131089160Y-65656961D01*
X131089160Y-65656961D02*
X131089160Y-65276009D01*
X131089160Y-65276009D02*
X131136779Y-65180771D01*
X131136779Y-65180771D02*
X131232017Y-65133152D01*
X131232017Y-65133152D02*
X131422493Y-65133152D01*
X131422493Y-65133152D02*
X131517731Y-65180771D01*
X131517731Y-65180771D02*
X131565350Y-65276009D01*
X131565350Y-65276009D02*
X131565350Y-65371247D01*
X131565350Y-65371247D02*
X131089160Y-65466485D01*
X131993922Y-65133152D02*
X131993922Y-66133152D01*
X131993922Y-65180771D02*
X132089160Y-65133152D01*
X132089160Y-65133152D02*
X132279636Y-65133152D01*
X132279636Y-65133152D02*
X132374874Y-65180771D01*
X132374874Y-65180771D02*
X132422493Y-65228390D01*
X132422493Y-65228390D02*
X132470112Y-65323628D01*
X132470112Y-65323628D02*
X132470112Y-65609342D01*
X132470112Y-65609342D02*
X132422493Y-65704580D01*
X132422493Y-65704580D02*
X132374874Y-65752200D01*
X132374874Y-65752200D02*
X132279636Y-65799819D01*
X132279636Y-65799819D02*
X132089160Y-65799819D01*
X132089160Y-65799819D02*
X131993922Y-65752200D01*
X133041541Y-65799819D02*
X132946303Y-65752200D01*
X132946303Y-65752200D02*
X132898684Y-65656961D01*
X132898684Y-65656961D02*
X132898684Y-64799819D01*
X133851065Y-65799819D02*
X133851065Y-65276009D01*
X133851065Y-65276009D02*
X133803446Y-65180771D01*
X133803446Y-65180771D02*
X133708208Y-65133152D01*
X133708208Y-65133152D02*
X133517732Y-65133152D01*
X133517732Y-65133152D02*
X133422494Y-65180771D01*
X133851065Y-65752200D02*
X133755827Y-65799819D01*
X133755827Y-65799819D02*
X133517732Y-65799819D01*
X133517732Y-65799819D02*
X133422494Y-65752200D01*
X133422494Y-65752200D02*
X133374875Y-65656961D01*
X133374875Y-65656961D02*
X133374875Y-65561723D01*
X133374875Y-65561723D02*
X133422494Y-65466485D01*
X133422494Y-65466485D02*
X133517732Y-65418866D01*
X133517732Y-65418866D02*
X133755827Y-65418866D01*
X133755827Y-65418866D02*
X133851065Y-65371247D01*
X134755827Y-65752200D02*
X134660589Y-65799819D01*
X134660589Y-65799819D02*
X134470113Y-65799819D01*
X134470113Y-65799819D02*
X134374875Y-65752200D01*
X134374875Y-65752200D02*
X134327256Y-65704580D01*
X134327256Y-65704580D02*
X134279637Y-65609342D01*
X134279637Y-65609342D02*
X134279637Y-65323628D01*
X134279637Y-65323628D02*
X134327256Y-65228390D01*
X134327256Y-65228390D02*
X134374875Y-65180771D01*
X134374875Y-65180771D02*
X134470113Y-65133152D01*
X134470113Y-65133152D02*
X134660589Y-65133152D01*
X134660589Y-65133152D02*
X134755827Y-65180771D01*
X135565351Y-65752200D02*
X135470113Y-65799819D01*
X135470113Y-65799819D02*
X135279637Y-65799819D01*
X135279637Y-65799819D02*
X135184399Y-65752200D01*
X135184399Y-65752200D02*
X135136780Y-65656961D01*
X135136780Y-65656961D02*
X135136780Y-65276009D01*
X135136780Y-65276009D02*
X135184399Y-65180771D01*
X135184399Y-65180771D02*
X135279637Y-65133152D01*
X135279637Y-65133152D02*
X135470113Y-65133152D01*
X135470113Y-65133152D02*
X135565351Y-65180771D01*
X135565351Y-65180771D02*
X135612970Y-65276009D01*
X135612970Y-65276009D02*
X135612970Y-65371247D01*
X135612970Y-65371247D02*
X135136780Y-65466485D01*
X136041542Y-65799819D02*
X136041542Y-65133152D01*
X136041542Y-65228390D02*
X136089161Y-65180771D01*
X136089161Y-65180771D02*
X136184399Y-65133152D01*
X136184399Y-65133152D02*
X136327256Y-65133152D01*
X136327256Y-65133152D02*
X136422494Y-65180771D01*
X136422494Y-65180771D02*
X136470113Y-65276009D01*
X136470113Y-65276009D02*
X136470113Y-65799819D01*
X136470113Y-65276009D02*
X136517732Y-65180771D01*
X136517732Y-65180771D02*
X136612970Y-65133152D01*
X136612970Y-65133152D02*
X136755827Y-65133152D01*
X136755827Y-65133152D02*
X136851066Y-65180771D01*
X136851066Y-65180771D02*
X136898685Y-65276009D01*
X136898685Y-65276009D02*
X136898685Y-65799819D01*
X137755827Y-65752200D02*
X137660589Y-65799819D01*
X137660589Y-65799819D02*
X137470113Y-65799819D01*
X137470113Y-65799819D02*
X137374875Y-65752200D01*
X137374875Y-65752200D02*
X137327256Y-65656961D01*
X137327256Y-65656961D02*
X137327256Y-65276009D01*
X137327256Y-65276009D02*
X137374875Y-65180771D01*
X137374875Y-65180771D02*
X137470113Y-65133152D01*
X137470113Y-65133152D02*
X137660589Y-65133152D01*
X137660589Y-65133152D02*
X137755827Y-65180771D01*
X137755827Y-65180771D02*
X137803446Y-65276009D01*
X137803446Y-65276009D02*
X137803446Y-65371247D01*
X137803446Y-65371247D02*
X137327256Y-65466485D01*
X138232018Y-65133152D02*
X138232018Y-65799819D01*
X138232018Y-65228390D02*
X138279637Y-65180771D01*
X138279637Y-65180771D02*
X138374875Y-65133152D01*
X138374875Y-65133152D02*
X138517732Y-65133152D01*
X138517732Y-65133152D02*
X138612970Y-65180771D01*
X138612970Y-65180771D02*
X138660589Y-65276009D01*
X138660589Y-65276009D02*
X138660589Y-65799819D01*
X138993923Y-65133152D02*
X139374875Y-65133152D01*
X139136780Y-64799819D02*
X139136780Y-65656961D01*
X139136780Y-65656961D02*
X139184399Y-65752200D01*
X139184399Y-65752200D02*
X139279637Y-65799819D01*
X139279637Y-65799819D02*
X139374875Y-65799819D01*
X130708207Y-67409819D02*
X130374874Y-66933628D01*
X130136779Y-67409819D02*
X130136779Y-66409819D01*
X130136779Y-66409819D02*
X130517731Y-66409819D01*
X130517731Y-66409819D02*
X130612969Y-66457438D01*
X130612969Y-66457438D02*
X130660588Y-66505057D01*
X130660588Y-66505057D02*
X130708207Y-66600295D01*
X130708207Y-66600295D02*
X130708207Y-66743152D01*
X130708207Y-66743152D02*
X130660588Y-66838390D01*
X130660588Y-66838390D02*
X130612969Y-66886009D01*
X130612969Y-66886009D02*
X130517731Y-66933628D01*
X130517731Y-66933628D02*
X130136779Y-66933628D01*
X131517731Y-67362200D02*
X131422493Y-67409819D01*
X131422493Y-67409819D02*
X131232017Y-67409819D01*
X131232017Y-67409819D02*
X131136779Y-67362200D01*
X131136779Y-67362200D02*
X131089160Y-67266961D01*
X131089160Y-67266961D02*
X131089160Y-66886009D01*
X131089160Y-66886009D02*
X131136779Y-66790771D01*
X131136779Y-66790771D02*
X131232017Y-66743152D01*
X131232017Y-66743152D02*
X131422493Y-66743152D01*
X131422493Y-66743152D02*
X131517731Y-66790771D01*
X131517731Y-66790771D02*
X131565350Y-66886009D01*
X131565350Y-66886009D02*
X131565350Y-66981247D01*
X131565350Y-66981247D02*
X131089160Y-67076485D01*
X131898684Y-66743152D02*
X132136779Y-67409819D01*
X132136779Y-67409819D02*
X132374874Y-66743152D01*
X134041541Y-67409819D02*
X133470113Y-67409819D01*
X133755827Y-67409819D02*
X133755827Y-66409819D01*
X133755827Y-66409819D02*
X133660589Y-66552676D01*
X133660589Y-66552676D02*
X133565351Y-66647914D01*
X133565351Y-66647914D02*
X133470113Y-66695533D01*
X134470113Y-67314580D02*
X134517732Y-67362200D01*
X134517732Y-67362200D02*
X134470113Y-67409819D01*
X134470113Y-67409819D02*
X134422494Y-67362200D01*
X134422494Y-67362200D02*
X134470113Y-67314580D01*
X134470113Y-67314580D02*
X134470113Y-67409819D01*
X135136779Y-66409819D02*
X135232017Y-66409819D01*
X135232017Y-66409819D02*
X135327255Y-66457438D01*
X135327255Y-66457438D02*
X135374874Y-66505057D01*
X135374874Y-66505057D02*
X135422493Y-66600295D01*
X135422493Y-66600295D02*
X135470112Y-66790771D01*
X135470112Y-66790771D02*
X135470112Y-67028866D01*
X135470112Y-67028866D02*
X135422493Y-67219342D01*
X135422493Y-67219342D02*
X135374874Y-67314580D01*
X135374874Y-67314580D02*
X135327255Y-67362200D01*
X135327255Y-67362200D02*
X135232017Y-67409819D01*
X135232017Y-67409819D02*
X135136779Y-67409819D01*
X135136779Y-67409819D02*
X135041541Y-67362200D01*
X135041541Y-67362200D02*
X134993922Y-67314580D01*
X134993922Y-67314580D02*
X134946303Y-67219342D01*
X134946303Y-67219342D02*
X134898684Y-67028866D01*
X134898684Y-67028866D02*
X134898684Y-66790771D01*
X134898684Y-66790771D02*
X134946303Y-66600295D01*
X134946303Y-66600295D02*
X134993922Y-66505057D01*
X134993922Y-66505057D02*
X135041541Y-66457438D01*
X135041541Y-66457438D02*
X135136779Y-66409819D01*
X135898684Y-67314580D02*
X135946303Y-67362200D01*
X135946303Y-67362200D02*
X135898684Y-67409819D01*
X135898684Y-67409819D02*
X135851065Y-67362200D01*
X135851065Y-67362200D02*
X135898684Y-67314580D01*
X135898684Y-67314580D02*
X135898684Y-67409819D01*
X136565350Y-66409819D02*
X136660588Y-66409819D01*
X136660588Y-66409819D02*
X136755826Y-66457438D01*
X136755826Y-66457438D02*
X136803445Y-66505057D01*
X136803445Y-66505057D02*
X136851064Y-66600295D01*
X136851064Y-66600295D02*
X136898683Y-66790771D01*
X136898683Y-66790771D02*
X136898683Y-67028866D01*
X136898683Y-67028866D02*
X136851064Y-67219342D01*
X136851064Y-67219342D02*
X136803445Y-67314580D01*
X136803445Y-67314580D02*
X136755826Y-67362200D01*
X136755826Y-67362200D02*
X136660588Y-67409819D01*
X136660588Y-67409819D02*
X136565350Y-67409819D01*
X136565350Y-67409819D02*
X136470112Y-67362200D01*
X136470112Y-67362200D02*
X136422493Y-67314580D01*
X136422493Y-67314580D02*
X136374874Y-67219342D01*
X136374874Y-67219342D02*
X136327255Y-67028866D01*
X136327255Y-67028866D02*
X136327255Y-66790771D01*
X136327255Y-66790771D02*
X136374874Y-66600295D01*
X136374874Y-66600295D02*
X136422493Y-66505057D01*
X136422493Y-66505057D02*
X136470112Y-66457438D01*
X136470112Y-66457438D02*
X136565350Y-66409819D01*
X130136779Y-69019819D02*
X130136779Y-68019819D01*
X130136779Y-68019819D02*
X130517731Y-68019819D01*
X130517731Y-68019819D02*
X130612969Y-68067438D01*
X130612969Y-68067438D02*
X130660588Y-68115057D01*
X130660588Y-68115057D02*
X130708207Y-68210295D01*
X130708207Y-68210295D02*
X130708207Y-68353152D01*
X130708207Y-68353152D02*
X130660588Y-68448390D01*
X130660588Y-68448390D02*
X130612969Y-68496009D01*
X130612969Y-68496009D02*
X130517731Y-68543628D01*
X130517731Y-68543628D02*
X130136779Y-68543628D01*
X131517731Y-68972200D02*
X131422493Y-69019819D01*
X131422493Y-69019819D02*
X131232017Y-69019819D01*
X131232017Y-69019819D02*
X131136779Y-68972200D01*
X131136779Y-68972200D02*
X131089160Y-68876961D01*
X131089160Y-68876961D02*
X131089160Y-68496009D01*
X131089160Y-68496009D02*
X131136779Y-68400771D01*
X131136779Y-68400771D02*
X131232017Y-68353152D01*
X131232017Y-68353152D02*
X131422493Y-68353152D01*
X131422493Y-68353152D02*
X131517731Y-68400771D01*
X131517731Y-68400771D02*
X131565350Y-68496009D01*
X131565350Y-68496009D02*
X131565350Y-68591247D01*
X131565350Y-68591247D02*
X131089160Y-68686485D01*
X132422493Y-69019819D02*
X132422493Y-68019819D01*
X132422493Y-68972200D02*
X132327255Y-69019819D01*
X132327255Y-69019819D02*
X132136779Y-69019819D01*
X132136779Y-69019819D02*
X132041541Y-68972200D01*
X132041541Y-68972200D02*
X131993922Y-68924580D01*
X131993922Y-68924580D02*
X131946303Y-68829342D01*
X131946303Y-68829342D02*
X131946303Y-68543628D01*
X131946303Y-68543628D02*
X131993922Y-68448390D01*
X131993922Y-68448390D02*
X132041541Y-68400771D01*
X132041541Y-68400771D02*
X132136779Y-68353152D01*
X132136779Y-68353152D02*
X132327255Y-68353152D01*
X132327255Y-68353152D02*
X132422493Y-68400771D01*
X132898684Y-69019819D02*
X132898684Y-68353152D01*
X132898684Y-68543628D02*
X132946303Y-68448390D01*
X132946303Y-68448390D02*
X132993922Y-68400771D01*
X132993922Y-68400771D02*
X133089160Y-68353152D01*
X133089160Y-68353152D02*
X133184398Y-68353152D01*
X133660589Y-69019819D02*
X133565351Y-68972200D01*
X133565351Y-68972200D02*
X133517732Y-68924580D01*
X133517732Y-68924580D02*
X133470113Y-68829342D01*
X133470113Y-68829342D02*
X133470113Y-68543628D01*
X133470113Y-68543628D02*
X133517732Y-68448390D01*
X133517732Y-68448390D02*
X133565351Y-68400771D01*
X133565351Y-68400771D02*
X133660589Y-68353152D01*
X133660589Y-68353152D02*
X133803446Y-68353152D01*
X133803446Y-68353152D02*
X133898684Y-68400771D01*
X133898684Y-68400771D02*
X133946303Y-68448390D01*
X133946303Y-68448390D02*
X133993922Y-68543628D01*
X133993922Y-68543628D02*
X133993922Y-68829342D01*
X133993922Y-68829342D02*
X133946303Y-68924580D01*
X133946303Y-68924580D02*
X133898684Y-68972200D01*
X133898684Y-68972200D02*
X133803446Y-69019819D01*
X133803446Y-69019819D02*
X133660589Y-69019819D01*
X135184399Y-69019819D02*
X135184399Y-68019819D01*
X135184399Y-68019819D02*
X135565351Y-68019819D01*
X135565351Y-68019819D02*
X135660589Y-68067438D01*
X135660589Y-68067438D02*
X135708208Y-68115057D01*
X135708208Y-68115057D02*
X135755827Y-68210295D01*
X135755827Y-68210295D02*
X135755827Y-68353152D01*
X135755827Y-68353152D02*
X135708208Y-68448390D01*
X135708208Y-68448390D02*
X135660589Y-68496009D01*
X135660589Y-68496009D02*
X135565351Y-68543628D01*
X135565351Y-68543628D02*
X135184399Y-68543628D01*
X136565351Y-68972200D02*
X136470113Y-69019819D01*
X136470113Y-69019819D02*
X136279637Y-69019819D01*
X136279637Y-69019819D02*
X136184399Y-68972200D01*
X136184399Y-68972200D02*
X136136780Y-68876961D01*
X136136780Y-68876961D02*
X136136780Y-68496009D01*
X136136780Y-68496009D02*
X136184399Y-68400771D01*
X136184399Y-68400771D02*
X136279637Y-68353152D01*
X136279637Y-68353152D02*
X136470113Y-68353152D01*
X136470113Y-68353152D02*
X136565351Y-68400771D01*
X136565351Y-68400771D02*
X136612970Y-68496009D01*
X136612970Y-68496009D02*
X136612970Y-68591247D01*
X136612970Y-68591247D02*
X136136780Y-68686485D01*
X137041542Y-68353152D02*
X137041542Y-69019819D01*
X137041542Y-68448390D02*
X137089161Y-68400771D01*
X137089161Y-68400771D02*
X137184399Y-68353152D01*
X137184399Y-68353152D02*
X137327256Y-68353152D01*
X137327256Y-68353152D02*
X137422494Y-68400771D01*
X137422494Y-68400771D02*
X137470113Y-68496009D01*
X137470113Y-68496009D02*
X137470113Y-69019819D01*
X138374875Y-69019819D02*
X138374875Y-68496009D01*
X138374875Y-68496009D02*
X138327256Y-68400771D01*
X138327256Y-68400771D02*
X138232018Y-68353152D01*
X138232018Y-68353152D02*
X138041542Y-68353152D01*
X138041542Y-68353152D02*
X137946304Y-68400771D01*
X138374875Y-68972200D02*
X138279637Y-69019819D01*
X138279637Y-69019819D02*
X138041542Y-69019819D01*
X138041542Y-69019819D02*
X137946304Y-68972200D01*
X137946304Y-68972200D02*
X137898685Y-68876961D01*
X137898685Y-68876961D02*
X137898685Y-68781723D01*
X137898685Y-68781723D02*
X137946304Y-68686485D01*
X137946304Y-68686485D02*
X138041542Y-68638866D01*
X138041542Y-68638866D02*
X138279637Y-68638866D01*
X138279637Y-68638866D02*
X138374875Y-68591247D01*
X139941180Y-103422220D02*
X139941180Y-102946030D01*
X139941180Y-102946030D02*
X139464990Y-102898411D01*
X139464990Y-102898411D02*
X139512609Y-102946030D01*
X139512609Y-102946030D02*
X139560228Y-103041268D01*
X139560228Y-103041268D02*
X139560228Y-103279363D01*
X139560228Y-103279363D02*
X139512609Y-103374601D01*
X139512609Y-103374601D02*
X139464990Y-103422220D01*
X139464990Y-103422220D02*
X139369752Y-103469839D01*
X139369752Y-103469839D02*
X139131657Y-103469839D01*
X139131657Y-103469839D02*
X139036419Y-103422220D01*
X139036419Y-103422220D02*
X138988800Y-103374601D01*
X138988800Y-103374601D02*
X138941180Y-103279363D01*
X138941180Y-103279363D02*
X138941180Y-103041268D01*
X138941180Y-103041268D02*
X138988800Y-102946030D01*
X138988800Y-102946030D02*
X139036419Y-102898411D01*
X128139601Y-78197152D02*
X128139601Y-78863819D01*
X127901506Y-77816200D02*
X127663411Y-78530485D01*
X127663411Y-78530485D02*
X128282458Y-78530485D01*
X144954401Y-72529819D02*
X144763925Y-72529819D01*
X144763925Y-72529819D02*
X144668687Y-72577438D01*
X144668687Y-72577438D02*
X144621068Y-72625057D01*
X144621068Y-72625057D02*
X144525830Y-72767914D01*
X144525830Y-72767914D02*
X144478211Y-72958390D01*
X144478211Y-72958390D02*
X144478211Y-73339342D01*
X144478211Y-73339342D02*
X144525830Y-73434580D01*
X144525830Y-73434580D02*
X144573449Y-73482200D01*
X144573449Y-73482200D02*
X144668687Y-73529819D01*
X144668687Y-73529819D02*
X144859163Y-73529819D01*
X144859163Y-73529819D02*
X144954401Y-73482200D01*
X144954401Y-73482200D02*
X145002020Y-73434580D01*
X145002020Y-73434580D02*
X145049639Y-73339342D01*
X145049639Y-73339342D02*
X145049639Y-73101247D01*
X145049639Y-73101247D02*
X145002020Y-73006009D01*
X145002020Y-73006009D02*
X144954401Y-72958390D01*
X144954401Y-72958390D02*
X144859163Y-72910771D01*
X144859163Y-72910771D02*
X144668687Y-72910771D01*
X144668687Y-72910771D02*
X144573449Y-72958390D01*
X144573449Y-72958390D02*
X144525830Y-73006009D01*
X144525830Y-73006009D02*
X144478211Y-73101247D01*
X154435180Y-101809779D02*
X155435180Y-101809779D01*
X155435180Y-101809779D02*
X154435180Y-102381207D01*
X154435180Y-102381207D02*
X155435180Y-102381207D01*
X155482800Y-103571683D02*
X154197085Y-102714541D01*
X154530419Y-104476445D02*
X154482800Y-104428826D01*
X154482800Y-104428826D02*
X154435180Y-104285969D01*
X154435180Y-104285969D02*
X154435180Y-104190731D01*
X154435180Y-104190731D02*
X154482800Y-104047874D01*
X154482800Y-104047874D02*
X154578038Y-103952636D01*
X154578038Y-103952636D02*
X154673276Y-103905017D01*
X154673276Y-103905017D02*
X154863752Y-103857398D01*
X154863752Y-103857398D02*
X155006609Y-103857398D01*
X155006609Y-103857398D02*
X155197085Y-103905017D01*
X155197085Y-103905017D02*
X155292323Y-103952636D01*
X155292323Y-103952636D02*
X155387561Y-104047874D01*
X155387561Y-104047874D02*
X155435180Y-104190731D01*
X155435180Y-104190731D02*
X155435180Y-104285969D01*
X155435180Y-104285969D02*
X155387561Y-104428826D01*
X155387561Y-104428826D02*
X155339942Y-104476445D01*
X144954401Y-82515152D02*
X144954401Y-83181819D01*
X144716306Y-82134200D02*
X144478211Y-82848485D01*
X144478211Y-82848485D02*
X145097258Y-82848485D01*
X113868200Y-112359839D02*
X113915819Y-112216982D01*
X113915819Y-112216982D02*
X113915819Y-111978887D01*
X113915819Y-111978887D02*
X113868200Y-111883649D01*
X113868200Y-111883649D02*
X113820580Y-111836030D01*
X113820580Y-111836030D02*
X113725342Y-111788411D01*
X113725342Y-111788411D02*
X113630104Y-111788411D01*
X113630104Y-111788411D02*
X113534866Y-111836030D01*
X113534866Y-111836030D02*
X113487247Y-111883649D01*
X113487247Y-111883649D02*
X113439628Y-111978887D01*
X113439628Y-111978887D02*
X113392009Y-112169363D01*
X113392009Y-112169363D02*
X113344390Y-112264601D01*
X113344390Y-112264601D02*
X113296771Y-112312220D01*
X113296771Y-112312220D02*
X113201533Y-112359839D01*
X113201533Y-112359839D02*
X113106295Y-112359839D01*
X113106295Y-112359839D02*
X113011057Y-112312220D01*
X113011057Y-112312220D02*
X112963438Y-112264601D01*
X112963438Y-112264601D02*
X112915819Y-112169363D01*
X112915819Y-112169363D02*
X112915819Y-111931268D01*
X112915819Y-111931268D02*
X112963438Y-111788411D01*
X113915819Y-110883649D02*
X113915819Y-111359839D01*
X113915819Y-111359839D02*
X112915819Y-111359839D01*
X113630104Y-110597934D02*
X113630104Y-110121744D01*
X113915819Y-110693172D02*
X112915819Y-110359839D01*
X112915819Y-110359839D02*
X113915819Y-110026506D01*
X112915819Y-109836029D02*
X113915819Y-109502696D01*
X113915819Y-109502696D02*
X112915819Y-109169363D01*
X113392009Y-108836029D02*
X113392009Y-108502696D01*
X113915819Y-108359839D02*
X113915819Y-108836029D01*
X113915819Y-108836029D02*
X112915819Y-108836029D01*
X112915819Y-108836029D02*
X112915819Y-108359839D01*
X113366779Y-93468866D02*
X114128684Y-93468866D01*
X128606779Y-116328866D02*
X129368684Y-116328866D01*
X128987731Y-116709819D02*
X128987731Y-115947914D01*
X113366779Y-73148866D02*
X114128684Y-73148866D01*
X113747731Y-73529819D02*
X113747731Y-72767914D01*
X128139601Y-87515819D02*
X127949125Y-87515819D01*
X127949125Y-87515819D02*
X127853887Y-87563438D01*
X127853887Y-87563438D02*
X127806268Y-87611057D01*
X127806268Y-87611057D02*
X127711030Y-87753914D01*
X127711030Y-87753914D02*
X127663411Y-87944390D01*
X127663411Y-87944390D02*
X127663411Y-88325342D01*
X127663411Y-88325342D02*
X127711030Y-88420580D01*
X127711030Y-88420580D02*
X127758649Y-88468200D01*
X127758649Y-88468200D02*
X127853887Y-88515819D01*
X127853887Y-88515819D02*
X128044363Y-88515819D01*
X128044363Y-88515819D02*
X128139601Y-88468200D01*
X128139601Y-88468200D02*
X128187220Y-88420580D01*
X128187220Y-88420580D02*
X128234839Y-88325342D01*
X128234839Y-88325342D02*
X128234839Y-88087247D01*
X128234839Y-88087247D02*
X128187220Y-87992009D01*
X128187220Y-87992009D02*
X128139601Y-87944390D01*
X128139601Y-87944390D02*
X128044363Y-87896771D01*
X128044363Y-87896771D02*
X127853887Y-87896771D01*
X127853887Y-87896771D02*
X127758649Y-87944390D01*
X127758649Y-87944390D02*
X127711030Y-87992009D01*
X127711030Y-87992009D02*
X127663411Y-88087247D01*
X114754819Y-61952094D02*
X113754819Y-61952094D01*
X113754819Y-61952094D02*
X113754819Y-61571142D01*
X113754819Y-61571142D02*
X113802438Y-61475904D01*
X113802438Y-61475904D02*
X113850057Y-61428285D01*
X113850057Y-61428285D02*
X113945295Y-61380666D01*
X113945295Y-61380666D02*
X114088152Y-61380666D01*
X114088152Y-61380666D02*
X114183390Y-61428285D01*
X114183390Y-61428285D02*
X114231009Y-61475904D01*
X114231009Y-61475904D02*
X114278628Y-61571142D01*
X114278628Y-61571142D02*
X114278628Y-61952094D01*
X114754819Y-60428285D02*
X114754819Y-60999713D01*
X114754819Y-60713999D02*
X113754819Y-60713999D01*
X113754819Y-60713999D02*
X113897676Y-60809237D01*
X113897676Y-60809237D02*
X113992914Y-60904475D01*
X113992914Y-60904475D02*
X114040533Y-60999713D01*
X139344819Y-76858094D02*
X138344819Y-76858094D01*
X138344819Y-76858094D02*
X138344819Y-76619999D01*
X138344819Y-76619999D02*
X138392438Y-76477142D01*
X138392438Y-76477142D02*
X138487676Y-76381904D01*
X138487676Y-76381904D02*
X138582914Y-76334285D01*
X138582914Y-76334285D02*
X138773390Y-76286666D01*
X138773390Y-76286666D02*
X138916247Y-76286666D01*
X138916247Y-76286666D02*
X139106723Y-76334285D01*
X139106723Y-76334285D02*
X139201961Y-76381904D01*
X139201961Y-76381904D02*
X139297200Y-76477142D01*
X139297200Y-76477142D02*
X139344819Y-76619999D01*
X139344819Y-76619999D02*
X139344819Y-76858094D01*
X139344819Y-75334285D02*
X139344819Y-75905713D01*
X139344819Y-75619999D02*
X138344819Y-75619999D01*
X138344819Y-75619999D02*
X138487676Y-75715237D01*
X138487676Y-75715237D02*
X138582914Y-75810475D01*
X138582914Y-75810475D02*
X138630533Y-75905713D01*
X139198819Y-73192904D02*
X138198819Y-73192904D01*
X139198819Y-72621476D02*
X138627390Y-73050047D01*
X138198819Y-72621476D02*
X138770247Y-73192904D01*
X145793619Y-58904094D02*
X144793619Y-58904094D01*
X144793619Y-58904094D02*
X144793619Y-58523142D01*
X144793619Y-58523142D02*
X144841238Y-58427904D01*
X144841238Y-58427904D02*
X144888857Y-58380285D01*
X144888857Y-58380285D02*
X144984095Y-58332666D01*
X144984095Y-58332666D02*
X145126952Y-58332666D01*
X145126952Y-58332666D02*
X145222190Y-58380285D01*
X145222190Y-58380285D02*
X145269809Y-58427904D01*
X145269809Y-58427904D02*
X145317428Y-58523142D01*
X145317428Y-58523142D02*
X145317428Y-58904094D01*
X144793619Y-57475523D02*
X144793619Y-57665999D01*
X144793619Y-57665999D02*
X144841238Y-57761237D01*
X144841238Y-57761237D02*
X144888857Y-57808856D01*
X144888857Y-57808856D02*
X145031714Y-57904094D01*
X145031714Y-57904094D02*
X145222190Y-57951713D01*
X145222190Y-57951713D02*
X145603142Y-57951713D01*
X145603142Y-57951713D02*
X145698380Y-57904094D01*
X145698380Y-57904094D02*
X145746000Y-57856475D01*
X145746000Y-57856475D02*
X145793619Y-57761237D01*
X145793619Y-57761237D02*
X145793619Y-57570761D01*
X145793619Y-57570761D02*
X145746000Y-57475523D01*
X145746000Y-57475523D02*
X145698380Y-57427904D01*
X145698380Y-57427904D02*
X145603142Y-57380285D01*
X145603142Y-57380285D02*
X145365047Y-57380285D01*
X145365047Y-57380285D02*
X145269809Y-57427904D01*
X145269809Y-57427904D02*
X145222190Y-57475523D01*
X145222190Y-57475523D02*
X145174571Y-57570761D01*
X145174571Y-57570761D02*
X145174571Y-57761237D01*
X145174571Y-57761237D02*
X145222190Y-57856475D01*
X145222190Y-57856475D02*
X145269809Y-57904094D01*
X145269809Y-57904094D02*
X145365047Y-57951713D01*
X143881905Y-116734819D02*
X143881905Y-115734819D01*
X143881905Y-115734819D02*
X144262857Y-115734819D01*
X144262857Y-115734819D02*
X144358095Y-115782438D01*
X144358095Y-115782438D02*
X144405714Y-115830057D01*
X144405714Y-115830057D02*
X144453333Y-115925295D01*
X144453333Y-115925295D02*
X144453333Y-116068152D01*
X144453333Y-116068152D02*
X144405714Y-116163390D01*
X144405714Y-116163390D02*
X144358095Y-116211009D01*
X144358095Y-116211009D02*
X144262857Y-116258628D01*
X144262857Y-116258628D02*
X143881905Y-116258628D01*
X144834286Y-115830057D02*
X144881905Y-115782438D01*
X144881905Y-115782438D02*
X144977143Y-115734819D01*
X144977143Y-115734819D02*
X145215238Y-115734819D01*
X145215238Y-115734819D02*
X145310476Y-115782438D01*
X145310476Y-115782438D02*
X145358095Y-115830057D01*
X145358095Y-115830057D02*
X145405714Y-115925295D01*
X145405714Y-115925295D02*
X145405714Y-116020533D01*
X145405714Y-116020533D02*
X145358095Y-116163390D01*
X145358095Y-116163390D02*
X144786667Y-116734819D01*
X144786667Y-116734819D02*
X145405714Y-116734819D01*
D11*
X135128572Y-123239757D02*
X134985715Y-123168328D01*
X134985715Y-123168328D02*
X134771429Y-123168328D01*
X134771429Y-123168328D02*
X134557143Y-123239757D01*
X134557143Y-123239757D02*
X134414286Y-123382614D01*
X134414286Y-123382614D02*
X134342857Y-123525471D01*
X134342857Y-123525471D02*
X134271429Y-123811185D01*
X134271429Y-123811185D02*
X134271429Y-124025471D01*
X134271429Y-124025471D02*
X134342857Y-124311185D01*
X134342857Y-124311185D02*
X134414286Y-124454042D01*
X134414286Y-124454042D02*
X134557143Y-124596900D01*
X134557143Y-124596900D02*
X134771429Y-124668328D01*
X134771429Y-124668328D02*
X134914286Y-124668328D01*
X134914286Y-124668328D02*
X135128572Y-124596900D01*
X135128572Y-124596900D02*
X135200000Y-124525471D01*
X135200000Y-124525471D02*
X135200000Y-124025471D01*
X135200000Y-124025471D02*
X134914286Y-124025471D01*
X136057143Y-123168328D02*
X136057143Y-123525471D01*
X135700000Y-123382614D02*
X136057143Y-123525471D01*
X136057143Y-123525471D02*
X136414286Y-123382614D01*
X135842857Y-123811185D02*
X136057143Y-123525471D01*
X136057143Y-123525471D02*
X136271429Y-123811185D01*
X137200000Y-123168328D02*
X137200000Y-123525471D01*
X136842857Y-123382614D02*
X137200000Y-123525471D01*
X137200000Y-123525471D02*
X137557143Y-123382614D01*
X136985714Y-123811185D02*
X137200000Y-123525471D01*
X137200000Y-123525471D02*
X137414286Y-123811185D01*
X138342857Y-123168328D02*
X138342857Y-123525471D01*
X137985714Y-123382614D02*
X138342857Y-123525471D01*
X138342857Y-123525471D02*
X138700000Y-123382614D01*
X138128571Y-123811185D02*
X138342857Y-123525471D01*
X138342857Y-123525471D02*
X138557143Y-123811185D01*
D10*
X135496705Y-57635619D02*
X135496705Y-56635619D01*
X135496705Y-56635619D02*
X135877657Y-56635619D01*
X135877657Y-56635619D02*
X135972895Y-56683238D01*
X135972895Y-56683238D02*
X136020514Y-56730857D01*
X136020514Y-56730857D02*
X136068133Y-56826095D01*
X136068133Y-56826095D02*
X136068133Y-56968952D01*
X136068133Y-56968952D02*
X136020514Y-57064190D01*
X136020514Y-57064190D02*
X135972895Y-57111809D01*
X135972895Y-57111809D02*
X135877657Y-57159428D01*
X135877657Y-57159428D02*
X135496705Y-57159428D01*
X136401467Y-56635619D02*
X137020514Y-56635619D01*
X137020514Y-56635619D02*
X136687181Y-57016571D01*
X136687181Y-57016571D02*
X136830038Y-57016571D01*
X136830038Y-57016571D02*
X136925276Y-57064190D01*
X136925276Y-57064190D02*
X136972895Y-57111809D01*
X136972895Y-57111809D02*
X137020514Y-57207047D01*
X137020514Y-57207047D02*
X137020514Y-57445142D01*
X137020514Y-57445142D02*
X136972895Y-57540380D01*
X136972895Y-57540380D02*
X136925276Y-57588000D01*
X136925276Y-57588000D02*
X136830038Y-57635619D01*
X136830038Y-57635619D02*
X136544324Y-57635619D01*
X136544324Y-57635619D02*
X136449086Y-57588000D01*
X136449086Y-57588000D02*
X136401467Y-57540380D01*
D12*
%TO.C,P1*%
X116802800Y-60117000D02*
X116162800Y-60117000D01*
X116162800Y-60117000D02*
X116162800Y-60517000D01*
X125522800Y-60357000D02*
X116402800Y-60357000D01*
X125522800Y-60357000D02*
X125522800Y-100477000D01*
X117962800Y-60357000D02*
X117962800Y-100477000D01*
X116862800Y-60357000D02*
X116862800Y-100477000D01*
X116402800Y-60357000D02*
X116402800Y-100477000D01*
X120181800Y-61369000D02*
X120074800Y-61263000D01*
X119915800Y-61635000D02*
X119808800Y-61529000D01*
X123116800Y-64305000D02*
X123009800Y-64198000D01*
X122850800Y-64571000D02*
X122743800Y-64464000D01*
X120470800Y-66659000D02*
X120074800Y-66264000D01*
X120188800Y-66910000D02*
X119808800Y-66530000D01*
X123116800Y-69305000D02*
X122736800Y-68925000D01*
X122850800Y-69571000D02*
X122454800Y-69176000D01*
X120470800Y-71659000D02*
X120074800Y-71264000D01*
X120188800Y-71910000D02*
X119808800Y-71530000D01*
X123116800Y-74305000D02*
X122736800Y-73925000D01*
X122850800Y-74571000D02*
X122454800Y-74176000D01*
X120470800Y-76659000D02*
X120074800Y-76264000D01*
X120188800Y-76910000D02*
X119808800Y-76530000D01*
X123116800Y-79305000D02*
X122736800Y-78925000D01*
X122850800Y-79571000D02*
X122454800Y-79176000D01*
X120470800Y-81659000D02*
X120074800Y-81264000D01*
X120188800Y-81910000D02*
X119808800Y-81530000D01*
X123116800Y-84305000D02*
X122736800Y-83925000D01*
X122850800Y-84571000D02*
X122454800Y-84176000D01*
X120470800Y-86659000D02*
X120074800Y-86264000D01*
X120188800Y-86910000D02*
X119808800Y-86530000D01*
X123116800Y-89305000D02*
X122736800Y-88925000D01*
X122850800Y-89571000D02*
X122454800Y-89176000D01*
X120470800Y-91659000D02*
X120074800Y-91264000D01*
X120188800Y-91910000D02*
X119808800Y-91530000D01*
X123116800Y-94305000D02*
X122736800Y-93925000D01*
X122850800Y-94571000D02*
X122454800Y-94176000D01*
X120470800Y-96659000D02*
X120074800Y-96264000D01*
X120188800Y-96910000D02*
X119808800Y-96530000D01*
X123116800Y-99305000D02*
X122736800Y-98925000D01*
X122850800Y-99571000D02*
X122454800Y-99176000D01*
X125522800Y-100477000D02*
X116402800Y-100477000D01*
X123642800Y-62917000D02*
G75*
G03*
X119282800Y-62917000I-2180000J0D01*
G01*
X119282800Y-62917000D02*
G75*
G03*
X123642800Y-62917000I2180000J0D01*
G01*
X123642800Y-67917000D02*
G75*
G03*
X119282800Y-67917000I-2180000J0D01*
G01*
X119282800Y-67917000D02*
G75*
G03*
X123642800Y-67917000I2180000J0D01*
G01*
X123642800Y-72917000D02*
G75*
G03*
X119282800Y-72917000I-2180000J0D01*
G01*
X119282800Y-72917000D02*
G75*
G03*
X123642800Y-72917000I2180000J0D01*
G01*
X123642800Y-77917000D02*
G75*
G03*
X119282800Y-77917000I-2180000J0D01*
G01*
X119282800Y-77917000D02*
G75*
G03*
X123642800Y-77917000I2180000J0D01*
G01*
X123642800Y-82917000D02*
G75*
G03*
X119282800Y-82917000I-2180000J0D01*
G01*
X119282800Y-82917000D02*
G75*
G03*
X123642800Y-82917000I2180000J0D01*
G01*
X123642800Y-87917000D02*
G75*
G03*
X119282800Y-87917000I-2180000J0D01*
G01*
X119282800Y-87917000D02*
G75*
G03*
X123642800Y-87917000I2180000J0D01*
G01*
X123642800Y-92917000D02*
G75*
G03*
X119282800Y-92917000I-2180000J0D01*
G01*
X119282800Y-92917000D02*
G75*
G03*
X123642800Y-92917000I2180000J0D01*
G01*
X123642800Y-97917000D02*
G75*
G03*
X119282800Y-97917000I-2180000J0D01*
G01*
X119282800Y-97917000D02*
G75*
G03*
X123642800Y-97917000I2180000J0D01*
G01*
%TO.C,D1*%
X136144000Y-74771000D02*
X136144000Y-78261000D01*
X140814000Y-78261000D02*
X131474000Y-78261000D01*
X131474000Y-78261000D02*
X131474000Y-87601000D01*
X140814000Y-79626000D02*
X131474000Y-79626000D01*
X140814000Y-79746000D02*
X131474000Y-79746000D01*
X140814000Y-79866000D02*
X131474000Y-79866000D01*
X140814000Y-87601000D02*
X140814000Y-78261000D01*
X131474000Y-87601000D02*
X140814000Y-87601000D01*
X136144000Y-91091000D02*
X136144000Y-87601000D01*
%TO.C,P6*%
X156174800Y-100792000D02*
X156814800Y-100792000D01*
X156814800Y-100792000D02*
X156814800Y-100392000D01*
X147454800Y-100552000D02*
X156574800Y-100552000D01*
X147454800Y-100552000D02*
X147454800Y-60432000D01*
X155014800Y-100552000D02*
X155014800Y-60432000D01*
X156114800Y-100552000D02*
X156114800Y-60432000D01*
X156574800Y-100552000D02*
X156574800Y-60432000D01*
X152795800Y-99540000D02*
X152902800Y-99646000D01*
X153061800Y-99274000D02*
X153168800Y-99380000D01*
X149860800Y-96604000D02*
X149967800Y-96711000D01*
X150126800Y-96338000D02*
X150233800Y-96445000D01*
X152506800Y-94250000D02*
X152902800Y-94645000D01*
X152788800Y-93999000D02*
X153168800Y-94379000D01*
X149860800Y-91604000D02*
X150240800Y-91984000D01*
X150126800Y-91338000D02*
X150522800Y-91733000D01*
X152506800Y-89250000D02*
X152902800Y-89645000D01*
X152788800Y-88999000D02*
X153168800Y-89379000D01*
X149860800Y-86604000D02*
X150240800Y-86984000D01*
X150126800Y-86338000D02*
X150522800Y-86733000D01*
X152506800Y-84250000D02*
X152902800Y-84645000D01*
X152788800Y-83999000D02*
X153168800Y-84379000D01*
X149860800Y-81604000D02*
X150240800Y-81984000D01*
X150126800Y-81338000D02*
X150522800Y-81733000D01*
X152506800Y-79250000D02*
X152902800Y-79645000D01*
X152788800Y-78999000D02*
X153168800Y-79379000D01*
X149860800Y-76604000D02*
X150240800Y-76984000D01*
X150126800Y-76338000D02*
X150522800Y-76733000D01*
X152506800Y-74250000D02*
X152902800Y-74645000D01*
X152788800Y-73999000D02*
X153168800Y-74379000D01*
X149860800Y-71604000D02*
X150240800Y-71984000D01*
X150126800Y-71338000D02*
X150522800Y-71733000D01*
X152506800Y-69250000D02*
X152902800Y-69645000D01*
X152788800Y-68999000D02*
X153168800Y-69379000D01*
X149860800Y-66604000D02*
X150240800Y-66984000D01*
X150126800Y-66338000D02*
X150522800Y-66733000D01*
X152506800Y-64250000D02*
X152902800Y-64645000D01*
X152788800Y-63999000D02*
X153168800Y-64379000D01*
X149860800Y-61604000D02*
X150240800Y-61984000D01*
X150126800Y-61338000D02*
X150522800Y-61733000D01*
X147454800Y-60432000D02*
X156574800Y-60432000D01*
X153694800Y-97992000D02*
G75*
G03*
X149334800Y-97992000I-2180000J0D01*
G01*
X149334800Y-97992000D02*
G75*
G03*
X153694800Y-97992000I2180000J0D01*
G01*
X153694800Y-92992000D02*
G75*
G03*
X149334800Y-92992000I-2180000J0D01*
G01*
X149334800Y-92992000D02*
G75*
G03*
X153694800Y-92992000I2180000J0D01*
G01*
X153694800Y-87992000D02*
G75*
G03*
X149334800Y-87992000I-2180000J0D01*
G01*
X149334800Y-87992000D02*
G75*
G03*
X153694800Y-87992000I2180000J0D01*
G01*
X153694800Y-82992000D02*
G75*
G03*
X149334800Y-82992000I-2180000J0D01*
G01*
X149334800Y-82992000D02*
G75*
G03*
X153694800Y-82992000I2180000J0D01*
G01*
X153694800Y-77992000D02*
G75*
G03*
X149334800Y-77992000I-2180000J0D01*
G01*
X149334800Y-77992000D02*
G75*
G03*
X153694800Y-77992000I2180000J0D01*
G01*
X153694800Y-72992000D02*
G75*
G03*
X149334800Y-72992000I-2180000J0D01*
G01*
X149334800Y-72992000D02*
G75*
G03*
X153694800Y-72992000I2180000J0D01*
G01*
X153694800Y-67992000D02*
G75*
G03*
X149334800Y-67992000I-2180000J0D01*
G01*
X149334800Y-67992000D02*
G75*
G03*
X153694800Y-67992000I2180000J0D01*
G01*
X153694800Y-62992000D02*
G75*
G03*
X149334800Y-62992000I-2180000J0D01*
G01*
X149334800Y-62992000D02*
G75*
G03*
X153694800Y-62992000I2180000J0D01*
G01*
%TO.C,P2*%
X116124000Y-113880000D02*
X116124000Y-114520000D01*
X116124000Y-114520000D02*
X116524000Y-114520000D01*
X116364000Y-105160000D02*
X116364000Y-114280000D01*
X116364000Y-105160000D02*
X156484000Y-105160000D01*
X116364000Y-112720000D02*
X156484000Y-112720000D01*
X116364000Y-113820000D02*
X156484000Y-113820000D01*
X116364000Y-114280000D02*
X156484000Y-114280000D01*
X117376000Y-110501000D02*
X117270000Y-110608000D01*
X117642000Y-110767000D02*
X117536000Y-110874000D01*
X120312000Y-107566000D02*
X120205000Y-107673000D01*
X120578000Y-107832000D02*
X120471000Y-107939000D01*
X122666000Y-110212000D02*
X122271000Y-110608000D01*
X122917000Y-110494000D02*
X122537000Y-110874000D01*
X125312000Y-107566000D02*
X124932000Y-107946000D01*
X125578000Y-107832000D02*
X125183000Y-108228000D01*
X127666000Y-110212000D02*
X127271000Y-110608000D01*
X127917000Y-110494000D02*
X127537000Y-110874000D01*
X130312000Y-107566000D02*
X129932000Y-107946000D01*
X130578000Y-107832000D02*
X130183000Y-108228000D01*
X132666000Y-110212000D02*
X132271000Y-110608000D01*
X132917000Y-110494000D02*
X132537000Y-110874000D01*
X135312000Y-107566000D02*
X134932000Y-107946000D01*
X135578000Y-107832000D02*
X135183000Y-108228000D01*
X137666000Y-110212000D02*
X137271000Y-110608000D01*
X137917000Y-110494000D02*
X137537000Y-110874000D01*
X140312000Y-107566000D02*
X139932000Y-107946000D01*
X140578000Y-107832000D02*
X140183000Y-108228000D01*
X142666000Y-110212000D02*
X142271000Y-110608000D01*
X142917000Y-110494000D02*
X142537000Y-110874000D01*
X145312000Y-107566000D02*
X144932000Y-107946000D01*
X145578000Y-107832000D02*
X145183000Y-108228000D01*
X147666000Y-110212000D02*
X147271000Y-110608000D01*
X147917000Y-110494000D02*
X147537000Y-110874000D01*
X150312000Y-107566000D02*
X149932000Y-107946000D01*
X150578000Y-107832000D02*
X150183000Y-108228000D01*
X152666000Y-110212000D02*
X152271000Y-110608000D01*
X152917000Y-110494000D02*
X152537000Y-110874000D01*
X155312000Y-107566000D02*
X154932000Y-107946000D01*
X155578000Y-107832000D02*
X155183000Y-108228000D01*
X156484000Y-105160000D02*
X156484000Y-114280000D01*
X121104000Y-109220000D02*
G75*
G03*
X116744000Y-109220000I-2180000J0D01*
G01*
X116744000Y-109220000D02*
G75*
G03*
X121104000Y-109220000I2180000J0D01*
G01*
X126104000Y-109220000D02*
G75*
G03*
X121744000Y-109220000I-2180000J0D01*
G01*
X121744000Y-109220000D02*
G75*
G03*
X126104000Y-109220000I2180000J0D01*
G01*
X131104000Y-109220000D02*
G75*
G03*
X126744000Y-109220000I-2180000J0D01*
G01*
X126744000Y-109220000D02*
G75*
G03*
X131104000Y-109220000I2180000J0D01*
G01*
X136104000Y-109220000D02*
G75*
G03*
X131744000Y-109220000I-2180000J0D01*
G01*
X131744000Y-109220000D02*
G75*
G03*
X136104000Y-109220000I2180000J0D01*
G01*
X141104000Y-109220000D02*
G75*
G03*
X136744000Y-109220000I-2180000J0D01*
G01*
X136744000Y-109220000D02*
G75*
G03*
X141104000Y-109220000I2180000J0D01*
G01*
X146104000Y-109220000D02*
G75*
G03*
X141744000Y-109220000I-2180000J0D01*
G01*
X141744000Y-109220000D02*
G75*
G03*
X146104000Y-109220000I2180000J0D01*
G01*
X151104000Y-109220000D02*
G75*
G03*
X146744000Y-109220000I-2180000J0D01*
G01*
X146744000Y-109220000D02*
G75*
G03*
X151104000Y-109220000I2180000J0D01*
G01*
X156104000Y-109220000D02*
G75*
G03*
X151744000Y-109220000I-2180000J0D01*
G01*
X151744000Y-109220000D02*
G75*
G03*
X156104000Y-109220000I2180000J0D01*
G01*
%TO.C,G\u002A\u002A\u002A*%
G36*
X137265332Y-120034109D02*
G01*
X137276393Y-120286613D01*
X137067231Y-120286613D01*
X136858069Y-120286613D01*
X136869130Y-120034109D01*
X136880192Y-119781605D01*
X137067231Y-119781605D01*
X137254271Y-119781605D01*
X137265332Y-120034109D01*
G37*
G36*
X138881517Y-120022802D02*
G01*
X138881517Y-120286613D01*
X138693303Y-120286613D01*
X138556466Y-120275798D01*
X138489901Y-120243566D01*
X138485435Y-120235394D01*
X138476337Y-120170789D01*
X138474413Y-120061030D01*
X138477257Y-119982890D01*
X138488734Y-119781605D01*
X138685125Y-119770299D01*
X138881517Y-119758992D01*
X138881517Y-120022802D01*
G37*
G36*
X135656053Y-120375129D02*
G01*
X135658074Y-120640412D01*
X135653525Y-120834208D01*
X135642254Y-120959571D01*
X135624104Y-121019553D01*
X135623417Y-121020416D01*
X135560582Y-121054611D01*
X135463972Y-121070239D01*
X135363417Y-121067004D01*
X135288750Y-121044611D01*
X135269486Y-121023918D01*
X135263795Y-120971532D01*
X135260125Y-120858269D01*
X135258652Y-120698047D01*
X135259553Y-120504782D01*
X135261308Y-120378631D01*
X135271650Y-119781605D01*
X135458689Y-119781605D01*
X135645729Y-119781605D01*
X135656053Y-120375129D01*
G37*
G36*
X143275955Y-120901073D02*
G01*
X143379893Y-121153837D01*
X143489058Y-121455346D01*
X143595519Y-121780693D01*
X143691349Y-122104974D01*
X143768617Y-122403282D01*
X143800842Y-122549794D01*
X143916246Y-123294555D01*
X143958840Y-124022947D01*
X143928420Y-124736669D01*
X143824777Y-125437419D01*
X143647705Y-126126894D01*
X143396997Y-126806793D01*
X143240439Y-127150972D01*
X142879628Y-127813959D01*
X142462788Y-128431817D01*
X141993873Y-129001520D01*
X141476835Y-129520041D01*
X140915628Y-129984355D01*
X140314203Y-130391436D01*
X139676514Y-130738256D01*
X139006514Y-131021791D01*
X138308155Y-131239014D01*
X137740574Y-131361469D01*
X137467811Y-131399315D01*
X137144204Y-131428510D01*
X136792826Y-131448240D01*
X136436748Y-131457686D01*
X136099041Y-131456034D01*
X135802779Y-131442466D01*
X135701841Y-131433603D01*
X135502500Y-131409549D01*
X135276369Y-131377170D01*
X135069953Y-131343162D01*
X135056020Y-131340633D01*
X134338104Y-131172143D01*
X133649108Y-130936675D01*
X132992507Y-130637606D01*
X132371776Y-130278315D01*
X131790391Y-129862180D01*
X131251827Y-129392578D01*
X130759558Y-128872887D01*
X130317061Y-128306485D01*
X129927809Y-127696750D01*
X129595278Y-127047059D01*
X129322943Y-126360792D01*
X129114279Y-125641324D01*
X129091422Y-125542926D01*
X129060998Y-125400116D01*
X129037320Y-125265646D01*
X129019243Y-125125870D01*
X129005619Y-124967138D01*
X128995299Y-124775802D01*
X128987138Y-124538212D01*
X128979987Y-124240722D01*
X128979335Y-124209625D01*
X128974029Y-123814121D01*
X128975626Y-123476628D01*
X128984027Y-123202235D01*
X128999131Y-122996030D01*
X129003847Y-122956458D01*
X129029444Y-122787617D01*
X129063167Y-122601009D01*
X129101464Y-122412603D01*
X129140782Y-122238367D01*
X129177570Y-122094270D01*
X129208273Y-121996281D01*
X129224889Y-121962946D01*
X129280212Y-121953922D01*
X129380679Y-121980414D01*
X129510117Y-122035067D01*
X129652355Y-122110526D01*
X129791221Y-122199437D01*
X129861765Y-122252587D01*
X129956905Y-122337225D01*
X130089867Y-122466426D01*
X130249178Y-122628474D01*
X130423365Y-122811652D01*
X130600957Y-123004243D01*
X130639683Y-123047088D01*
X131042948Y-123485106D01*
X131411125Y-123863970D01*
X131748675Y-124188036D01*
X132060059Y-124461658D01*
X132226002Y-124595516D01*
X132779630Y-124983775D01*
X133357175Y-125303646D01*
X133962488Y-125556537D01*
X134599419Y-125743858D01*
X135271819Y-125867017D01*
X135847755Y-125920860D01*
X136038333Y-125932782D01*
X136164414Y-125944308D01*
X136236277Y-125957442D01*
X136264202Y-125974186D01*
X136258470Y-125996543D01*
X136255522Y-126000289D01*
X136185262Y-126056189D01*
X136054954Y-126132302D01*
X135875124Y-126224008D01*
X135656299Y-126326689D01*
X135409003Y-126435722D01*
X135143764Y-126546490D01*
X134871107Y-126654371D01*
X134601559Y-126754746D01*
X134345645Y-126842995D01*
X134306367Y-126855778D01*
X134144581Y-126911195D01*
X134052146Y-126955199D01*
X134029683Y-126994253D01*
X134077814Y-127034820D01*
X134197158Y-127083364D01*
X134332565Y-127128506D01*
X134544118Y-127187172D01*
X134750718Y-127222436D01*
X134960538Y-127232560D01*
X135181749Y-127215802D01*
X135422522Y-127170423D01*
X135691029Y-127094684D01*
X135995441Y-126986843D01*
X136343929Y-126845163D01*
X136744665Y-126667901D01*
X136958657Y-126569350D01*
X137378264Y-126376776D01*
X137740933Y-126216709D01*
X138055597Y-126086180D01*
X138331189Y-125982222D01*
X138576641Y-125901866D01*
X138800887Y-125842144D01*
X139012860Y-125800087D01*
X139221492Y-125772729D01*
X139397025Y-125759142D01*
X139559233Y-125746902D01*
X139692024Y-125731182D01*
X139778628Y-125714301D01*
X139802825Y-125702978D01*
X139795828Y-125650117D01*
X139738720Y-125577523D01*
X139646862Y-125501666D01*
X139573652Y-125457282D01*
X139496383Y-125428320D01*
X139391164Y-125412505D01*
X139241198Y-125408268D01*
X139087261Y-125411813D01*
X138742488Y-125422289D01*
X138470450Y-125426521D01*
X138269326Y-125424475D01*
X138137295Y-125416122D01*
X138072534Y-125401430D01*
X138065164Y-125394117D01*
X138090560Y-125363441D01*
X138168751Y-125322262D01*
X138247261Y-125292025D01*
X138434633Y-125219742D01*
X138663015Y-125118608D01*
X138910092Y-124999620D01*
X139153551Y-124873772D01*
X139371079Y-124752061D01*
X139486534Y-124681318D01*
X139824234Y-124447865D01*
X140162897Y-124180382D01*
X140507178Y-123874078D01*
X140861735Y-123524162D01*
X141231225Y-123125842D01*
X141620303Y-122674327D01*
X142033628Y-122164825D01*
X142430756Y-121652003D01*
X142591872Y-121440176D01*
X142742519Y-121242436D01*
X142875339Y-121068414D01*
X142982973Y-120927745D01*
X143058064Y-120830062D01*
X143087954Y-120791620D01*
X143176561Y-120679396D01*
X143275955Y-120901073D01*
G37*
G36*
X136683574Y-116556314D02*
G01*
X137102672Y-116572694D01*
X137469023Y-116601775D01*
X137804130Y-116647071D01*
X138129497Y-116712100D01*
X138466625Y-116800375D01*
X138793958Y-116901332D01*
X139369333Y-117120898D01*
X139943809Y-117401950D01*
X140504604Y-117735665D01*
X141038935Y-118113221D01*
X141534017Y-118525792D01*
X141977068Y-118964557D01*
X142256081Y-119290986D01*
X142402405Y-119476100D01*
X142110223Y-119574787D01*
X141726104Y-119742695D01*
X141371929Y-119977499D01*
X141064455Y-120260027D01*
X140899225Y-120446055D01*
X140738414Y-120652374D01*
X140575564Y-120888884D01*
X140404218Y-121165486D01*
X140217916Y-121492080D01*
X140016593Y-121866410D01*
X139790811Y-122294143D01*
X139594370Y-122662179D01*
X139422715Y-122977517D01*
X139271286Y-123247153D01*
X139135528Y-123478088D01*
X139010883Y-123677318D01*
X138892793Y-123851843D01*
X138776702Y-124008660D01*
X138658053Y-124154768D01*
X138532287Y-124297166D01*
X138394848Y-124442850D01*
X138241179Y-124598820D01*
X138229960Y-124610041D01*
X138042262Y-124795273D01*
X137893062Y-124935737D01*
X137769946Y-125041488D01*
X137660502Y-125122581D01*
X137552315Y-125189070D01*
X137447315Y-125243967D01*
X137289920Y-125317759D01*
X137164850Y-125362472D01*
X137039556Y-125386294D01*
X136881490Y-125397416D01*
X136830084Y-125399268D01*
X136639470Y-125397837D01*
X136446952Y-125383901D01*
X136289566Y-125360216D01*
X136281664Y-125358457D01*
X135871089Y-125230334D01*
X135458248Y-125032610D01*
X135041171Y-124764058D01*
X134617890Y-124423450D01*
X134298029Y-124122815D01*
X134075413Y-123894194D01*
X133856023Y-123653774D01*
X133632390Y-123392386D01*
X133397044Y-123100861D01*
X133142519Y-122770031D01*
X132861345Y-122390728D01*
X132654619Y-122105313D01*
X132497270Y-121887745D01*
X132338725Y-121670875D01*
X132189650Y-121469121D01*
X132060711Y-121296903D01*
X131962573Y-121168641D01*
X131949061Y-121151410D01*
X131769871Y-120938012D01*
X131559428Y-120709805D01*
X131331943Y-120480440D01*
X131101624Y-120263569D01*
X130882682Y-120072844D01*
X130689325Y-119921916D01*
X130619134Y-119873659D01*
X130318023Y-119677536D01*
X130438135Y-119509165D01*
X130504510Y-119426230D01*
X133195508Y-119426230D01*
X133195508Y-120398837D01*
X133195508Y-121371443D01*
X133400508Y-121371443D01*
X133605508Y-121371443D01*
X133615604Y-120576524D01*
X133625700Y-119781605D01*
X133809120Y-119769970D01*
X133948402Y-119772663D01*
X134019949Y-119802402D01*
X134023643Y-119807378D01*
X134033133Y-119858355D01*
X134041511Y-119972036D01*
X134048304Y-120136312D01*
X134053034Y-120339071D01*
X134055228Y-120568205D01*
X134055318Y-120613932D01*
X134055891Y-121371443D01*
X134261635Y-121371443D01*
X134467379Y-121371443D01*
X134467320Y-120576524D01*
X134466730Y-120421327D01*
X134841458Y-120421327D01*
X134841664Y-120679048D01*
X134843044Y-120872646D01*
X134846741Y-121012812D01*
X134853900Y-121110238D01*
X134865665Y-121175616D01*
X134883179Y-121219638D01*
X134907586Y-121252996D01*
X134933278Y-121279624D01*
X134978500Y-121320069D01*
X135028095Y-121346508D01*
X135098261Y-121361896D01*
X135205196Y-121369192D01*
X135365100Y-121371353D01*
X135436199Y-121371443D01*
X136450000Y-121371443D01*
X136655744Y-121371443D01*
X136861488Y-121371443D01*
X136861488Y-120978660D01*
X136861488Y-120585876D01*
X137067231Y-120585876D01*
X137272975Y-120585876D01*
X137272975Y-120978660D01*
X137272975Y-121371443D01*
X137478719Y-121371443D01*
X137684463Y-121371443D01*
X138054632Y-121371443D01*
X138261022Y-121371443D01*
X138467412Y-121371443D01*
X138478073Y-120988012D01*
X138488734Y-120604580D01*
X138685125Y-120593273D01*
X138881517Y-120581967D01*
X138881517Y-120976705D01*
X138881517Y-121371443D01*
X139105965Y-121371443D01*
X139330412Y-121371443D01*
X139330204Y-120613932D01*
X139328925Y-120287767D01*
X139322476Y-120028691D01*
X139306639Y-119828986D01*
X139277195Y-119680933D01*
X139229926Y-119576811D01*
X139160613Y-119508901D01*
X139065039Y-119469483D01*
X138938983Y-119450839D01*
X138778230Y-119445248D01*
X138691400Y-119444934D01*
X138511424Y-119445802D01*
X138389643Y-119450658D01*
X138309441Y-119462875D01*
X138254198Y-119485827D01*
X138207299Y-119522890D01*
X138180968Y-119548582D01*
X138077246Y-119652230D01*
X138065939Y-120511837D01*
X138054632Y-121371443D01*
X137684463Y-121371443D01*
X137684463Y-120527305D01*
X137682737Y-120245717D01*
X137677790Y-120005324D01*
X137669968Y-119814355D01*
X137659617Y-119681036D01*
X137647083Y-119613595D01*
X137645946Y-119611198D01*
X137568817Y-119523074D01*
X137443163Y-119464708D01*
X137260795Y-119433465D01*
X137070849Y-119426230D01*
X136894313Y-119428417D01*
X136754863Y-119440235D01*
X136648128Y-119469570D01*
X136569739Y-119524307D01*
X136515327Y-119612332D01*
X136480521Y-119741530D01*
X136460952Y-119919786D01*
X136452251Y-120154986D01*
X136450048Y-120455016D01*
X136450000Y-120546611D01*
X136450000Y-121371443D01*
X135436199Y-121371443D01*
X135619498Y-121370223D01*
X135744727Y-121364610D01*
X135828617Y-121351682D01*
X135887899Y-121328514D01*
X135939305Y-121292180D01*
X135952259Y-121281236D01*
X136057217Y-121191029D01*
X136068721Y-120442557D01*
X136080226Y-119694085D01*
X135968918Y-119569509D01*
X135857610Y-119444934D01*
X135439815Y-119444934D01*
X135257662Y-119445627D01*
X135134531Y-119449879D01*
X135054630Y-119460955D01*
X135002165Y-119482116D01*
X134961345Y-119516625D01*
X134931739Y-119549892D01*
X134901385Y-119587286D01*
X134878733Y-119626313D01*
X134862656Y-119677851D01*
X134852027Y-119752777D01*
X134845720Y-119861966D01*
X134842607Y-120016296D01*
X134841563Y-120226644D01*
X134841458Y-120421327D01*
X134466730Y-120421327D01*
X134466092Y-120253549D01*
X134458864Y-119997588D01*
X134440245Y-119800843D01*
X134404843Y-119655515D01*
X134347267Y-119553805D01*
X134262125Y-119487914D01*
X134144026Y-119450044D01*
X133987577Y-119432395D01*
X133787388Y-119427169D01*
X133672460Y-119426781D01*
X133195508Y-119426230D01*
X130504510Y-119426230D01*
X130839265Y-119007958D01*
X131302196Y-118538155D01*
X131818507Y-118105353D01*
X132379775Y-117715149D01*
X132977580Y-117373137D01*
X133603498Y-117084915D01*
X134249107Y-116856080D01*
X134560898Y-116769637D01*
X134929310Y-116684137D01*
X135273547Y-116621665D01*
X135614391Y-116580131D01*
X135972624Y-116557447D01*
X136369028Y-116551525D01*
X136683574Y-116556314D01*
G37*
%TO.C,P3*%
X141534800Y-47460800D02*
X141534800Y-46820800D01*
X141534800Y-46820800D02*
X141134800Y-46820800D01*
X141294800Y-56180800D02*
X141294800Y-47060800D01*
X141294800Y-56180800D02*
X131174800Y-56180800D01*
X141294800Y-48620800D02*
X131174800Y-48620800D01*
X141294800Y-47520800D02*
X131174800Y-47520800D01*
X141294800Y-47060800D02*
X131174800Y-47060800D01*
X140282800Y-50839800D02*
X140388800Y-50732800D01*
X140016800Y-50573800D02*
X140122800Y-50466800D01*
X137346800Y-53774800D02*
X137453800Y-53667800D01*
X137080800Y-53508800D02*
X137187800Y-53401800D01*
X134992800Y-51128800D02*
X135387800Y-50732800D01*
X134741800Y-50846800D02*
X135121800Y-50466800D01*
X132346800Y-53774800D02*
X132726800Y-53394800D01*
X132080800Y-53508800D02*
X132475800Y-53112800D01*
X131174800Y-56180800D02*
X131174800Y-47060800D01*
X140914800Y-52120800D02*
G75*
G03*
X136554800Y-52120800I-2180000J0D01*
G01*
X136554800Y-52120800D02*
G75*
G03*
X140914800Y-52120800I2180000J0D01*
G01*
X135914800Y-52120800D02*
G75*
G03*
X131554800Y-52120800I-2180000J0D01*
G01*
X131554800Y-52120800D02*
G75*
G03*
X135914800Y-52120800I2180000J0D01*
G01*
%TD*%
M02*
