%TF.GenerationSoftware,KiCad,Pcbnew,7.0.8-7.0.8~ubuntu22.04.1*%
%TF.CreationDate,2023-10-05T10:55:24-04:00*%
%TF.ProjectId,ladcp_star_circuit,6c616463-705f-4737-9461-725f63697263,1.0.0*%
%TF.SameCoordinates,Original*%
%TF.FileFunction,Copper,L2,Bot*%
%TF.FilePolarity,Positive*%
%FSLAX46Y46*%
G04 Gerber Fmt 4.6, Leading zero omitted, Abs format (unit mm)*
G04 Created by KiCad (PCBNEW 7.0.8-7.0.8~ubuntu22.04.1) date 2023-10-05 10:55:24*
%MOMM*%
%LPD*%
G01*
G04 APERTURE LIST*
%TA.AperFunction,ComponentPad*%
%ADD10R,2.600000X2.600000*%
%TD*%
%TA.AperFunction,ComponentPad*%
%ADD11C,2.600000*%
%TD*%
%TA.AperFunction,ComponentPad*%
%ADD12R,3.200000X3.200000*%
%TD*%
%TA.AperFunction,ComponentPad*%
%ADD13O,3.200000X3.200000*%
%TD*%
%TA.AperFunction,Conductor*%
%ADD14C,0.250000*%
%TD*%
G04 APERTURE END LIST*
D10*
%TO.P,P1,1,Pin_1*%
%TO.N,/RS232_IN_MASTER*%
X121462800Y-62917000D03*
D11*
%TO.P,P1,2,Pin_2*%
%TO.N,/RS232_OUT_MASTER*%
X121462800Y-67917000D03*
%TO.P,P1,3,Pin_3*%
%TO.N,/POWER+*%
X121462800Y-72917000D03*
%TO.P,P1,4,Pin_4*%
%TO.N,/DATA_RTN*%
X121462800Y-77917000D03*
%TO.P,P1,5,Pin_5*%
%TO.N,/RS485A*%
X121462800Y-82917000D03*
%TO.P,P1,6,Pin_6*%
%TO.N,/RS485B*%
X121462800Y-87917000D03*
%TO.P,P1,7,Pin_7*%
%TO.N,/POWER-*%
X121462800Y-92917000D03*
%TO.P,P1,8,Pin_8*%
%TO.N,unconnected-(P1-Pin_8-Pad8)*%
X121462800Y-97917000D03*
%TD*%
D12*
%TO.P,D1,1,K*%
%TO.N,/POWER+*%
X136144000Y-72931000D03*
D13*
%TO.P,D1,2,A*%
%TO.N,Net-(D1-A)*%
X136144000Y-92931000D03*
%TD*%
D10*
%TO.P,P6,1,Pin_1*%
%TO.N,/RS232_IN_MASTER*%
X151514800Y-97992000D03*
D11*
%TO.P,P6,2,Pin_2*%
%TO.N,/RS232_OUT_MASTER*%
X151514800Y-92992000D03*
%TO.P,P6,3,Pin_3*%
%TO.N,Net-(D1-A)*%
X151514800Y-87992000D03*
%TO.P,P6,4,Pin_4*%
%TO.N,/DATA_RTN*%
X151514800Y-82992000D03*
%TO.P,P6,5,Pin_5*%
%TO.N,/RS232_IN_SLAVE*%
X151514800Y-77992000D03*
%TO.P,P6,6,Pin_6*%
%TO.N,/RS232_OUT_SLAVE*%
X151514800Y-72992000D03*
%TO.P,P6,7,Pin_7*%
%TO.N,/POWER-*%
X151514800Y-67992000D03*
%TO.P,P6,8,Pin_8*%
%TO.N,unconnected-(P6-Pin_8-Pad8)*%
X151514800Y-62992000D03*
%TD*%
D10*
%TO.P,P2,1,Pin_1*%
%TO.N,/RS232_IN_SLAVE*%
X118924000Y-109220000D03*
D11*
%TO.P,P2,2,Pin_2*%
%TO.N,/RS232_OUT_SLAVE*%
X123924000Y-109220000D03*
%TO.P,P2,3,Pin_3*%
%TO.N,/POWER+*%
X128924000Y-109220000D03*
%TO.P,P2,4,Pin_4*%
%TO.N,/DATA_RTN*%
X133924000Y-109220000D03*
%TO.P,P2,5,Pin_5*%
%TO.N,/RS485A*%
X138924000Y-109220000D03*
%TO.P,P2,6,Pin_6*%
%TO.N,/RS485B*%
X143924000Y-109220000D03*
%TO.P,P2,7,Pin_7*%
%TO.N,/POWER-*%
X148924000Y-109220000D03*
%TO.P,P2,8,Pin_8*%
%TO.N,unconnected-(P2-Pin_8-Pad8)*%
X153924000Y-109220000D03*
%TD*%
D10*
%TO.P,P3,1,Pin_1*%
%TO.N,/POWER+*%
X138734800Y-52120800D03*
D11*
%TO.P,P3,2,Pin_2*%
%TO.N,/POWER-*%
X133734800Y-52120800D03*
%TD*%
D14*
%TO.N,/RS232_IN_MASTER*%
X126567000Y-62917000D02*
X131191000Y-58293000D01*
X156464000Y-58293000D02*
X158877000Y-60706000D01*
X154928500Y-97992000D02*
X151514800Y-97992000D01*
X121462800Y-62917000D02*
X126567000Y-62917000D01*
X158877000Y-94043500D02*
X154928500Y-97992000D01*
X131191000Y-58293000D02*
X156464000Y-58293000D01*
X158877000Y-60706000D02*
X158877000Y-94043500D01*
%TO.N,/RS232_OUT_MASTER*%
X121462800Y-67917000D02*
X125123000Y-67917000D01*
X126753396Y-63367000D02*
X131377396Y-58743000D01*
X155928000Y-92992000D02*
X151514800Y-92992000D01*
X156277604Y-58743000D02*
X158427000Y-60892396D01*
X131377396Y-58743000D02*
X156277604Y-58743000D01*
X158427000Y-60892396D02*
X158427000Y-90493000D01*
X125123000Y-67917000D02*
X126753396Y-66286604D01*
X158427000Y-90493000D02*
X155928000Y-92992000D01*
X126753396Y-66286604D02*
X126753396Y-63367000D01*
%TO.N,/DATA_RTN*%
X157977000Y-80529000D02*
X155514000Y-82992000D01*
X127203396Y-72176404D02*
X127203396Y-63553396D01*
X151514800Y-82992000D02*
X142307396Y-82992000D01*
X131953000Y-107249000D02*
X133924000Y-109220000D01*
X127203396Y-63553396D02*
X131563792Y-59193000D01*
X155514000Y-82992000D02*
X151514800Y-82992000D01*
X131953000Y-93346396D02*
X131953000Y-107249000D01*
X142307396Y-82992000D02*
X131953000Y-93346396D01*
X157977000Y-61078792D02*
X157977000Y-80529000D01*
X131563792Y-59193000D02*
X156091208Y-59193000D01*
X121462800Y-77917000D02*
X127203396Y-72176404D01*
X156091208Y-59193000D02*
X157977000Y-61078792D01*
%TO.N,/RS485A*%
X138924000Y-111012000D02*
X138924000Y-109220000D01*
X115891604Y-116528000D02*
X133408000Y-116528000D01*
X121462800Y-82917000D02*
X114358000Y-90021800D01*
X133408000Y-116528000D02*
X138924000Y-111012000D01*
X114358000Y-114994396D02*
X115891604Y-116528000D01*
X114358000Y-90021800D02*
X114358000Y-114994396D01*
%TO.N,/RS485B*%
X116078000Y-116078000D02*
X133221604Y-116078000D01*
X133221604Y-116078000D02*
X136398000Y-112901604D01*
X142240000Y-105664000D02*
X143924000Y-107348000D01*
X136398000Y-107188000D02*
X137922000Y-105664000D01*
X137922000Y-105664000D02*
X142240000Y-105664000D01*
X114808000Y-114808000D02*
X116078000Y-116078000D01*
X114808000Y-90208196D02*
X114808000Y-114808000D01*
X117099196Y-87917000D02*
X114808000Y-90208196D01*
X121462800Y-87917000D02*
X117099196Y-87917000D01*
X136398000Y-112901604D02*
X136398000Y-107188000D01*
X143924000Y-107348000D02*
X143924000Y-109220000D01*
%TO.N,/RS232_IN_SLAVE*%
X118924000Y-112447000D02*
X118924000Y-109220000D01*
X119380000Y-112903000D02*
X118924000Y-112447000D01*
X125476000Y-112903000D02*
X119380000Y-112903000D01*
X151514800Y-77992000D02*
X146671000Y-77992000D01*
X146671000Y-77992000D02*
X126365000Y-98298000D01*
X126365000Y-112014000D02*
X125476000Y-112903000D01*
X126365000Y-98298000D02*
X126365000Y-112014000D01*
%TO.N,/RS232_OUT_SLAVE*%
X151034604Y-72992000D02*
X123924000Y-100102604D01*
X123924000Y-100102604D02*
X123924000Y-109220000D01*
X151514800Y-72992000D02*
X151034604Y-72992000D01*
%TD*%
%TA.AperFunction,Conductor*%
%TO.N,/POWER-*%
G36*
X157481737Y-43180598D02*
G01*
X157515041Y-43182467D01*
X157595603Y-43186992D01*
X157767691Y-43197401D01*
X157774297Y-43198160D01*
X157845907Y-43210327D01*
X157910343Y-43221277D01*
X158003462Y-43238340D01*
X158059227Y-43248560D01*
X158065198Y-43249963D01*
X158202032Y-43289384D01*
X158342850Y-43333265D01*
X158348092Y-43335164D01*
X158481420Y-43390391D01*
X158614609Y-43450334D01*
X158619147Y-43452605D01*
X158692221Y-43492991D01*
X158746422Y-43522947D01*
X158746439Y-43522956D01*
X158870935Y-43598217D01*
X158874739Y-43600711D01*
X158992726Y-43684427D01*
X158995072Y-43686176D01*
X159090416Y-43760874D01*
X159108332Y-43774910D01*
X159111409Y-43777486D01*
X159219430Y-43874018D01*
X159221957Y-43876408D01*
X159323590Y-43978041D01*
X159325980Y-43980568D01*
X159422512Y-44088589D01*
X159425088Y-44091666D01*
X159513811Y-44204912D01*
X159515571Y-44207272D01*
X159599287Y-44325259D01*
X159601781Y-44329063D01*
X159677043Y-44453560D01*
X159747393Y-44580851D01*
X159749668Y-44585398D01*
X159809609Y-44718581D01*
X159864831Y-44851899D01*
X159866744Y-44857183D01*
X159889633Y-44930634D01*
X159910631Y-44998021D01*
X159950032Y-45134790D01*
X159951440Y-45140781D01*
X159978722Y-45289656D01*
X160001835Y-45425683D01*
X160002599Y-45432330D01*
X160013012Y-45604475D01*
X160019402Y-45718263D01*
X160019500Y-45721741D01*
X160019500Y-129538258D01*
X160019402Y-129541736D01*
X160013012Y-129655524D01*
X160002599Y-129827668D01*
X160001835Y-129834315D01*
X159978722Y-129970343D01*
X159951440Y-130119217D01*
X159950032Y-130125208D01*
X159910625Y-130262001D01*
X159866744Y-130402815D01*
X159864831Y-130408099D01*
X159809609Y-130541418D01*
X159749668Y-130674600D01*
X159747394Y-130679147D01*
X159677043Y-130806439D01*
X159601781Y-130930936D01*
X159599287Y-130934739D01*
X159515571Y-131052726D01*
X159513811Y-131055086D01*
X159425088Y-131168332D01*
X159422512Y-131171409D01*
X159325980Y-131279430D01*
X159323590Y-131281957D01*
X159221957Y-131383590D01*
X159219430Y-131385980D01*
X159111409Y-131482512D01*
X159108332Y-131485088D01*
X158995086Y-131573811D01*
X158992726Y-131575571D01*
X158874739Y-131659287D01*
X158870936Y-131661781D01*
X158746439Y-131737043D01*
X158619147Y-131807394D01*
X158614600Y-131809668D01*
X158481418Y-131869609D01*
X158348099Y-131924831D01*
X158342815Y-131926744D01*
X158225231Y-131963385D01*
X158201990Y-131970627D01*
X158065208Y-132010032D01*
X158059217Y-132011440D01*
X157910343Y-132038722D01*
X157774315Y-132061835D01*
X157767668Y-132062599D01*
X157595524Y-132073012D01*
X157481736Y-132079402D01*
X157478258Y-132079500D01*
X114301742Y-132079500D01*
X114298265Y-132079402D01*
X114184475Y-132073012D01*
X114012330Y-132062599D01*
X114005683Y-132061835D01*
X113869656Y-132038722D01*
X113720781Y-132011440D01*
X113714790Y-132010032D01*
X113578021Y-131970631D01*
X113510634Y-131949633D01*
X113437183Y-131926744D01*
X113431899Y-131924831D01*
X113298581Y-131869609D01*
X113165398Y-131809668D01*
X113160851Y-131807393D01*
X113033560Y-131737043D01*
X112909063Y-131661781D01*
X112905259Y-131659287D01*
X112787272Y-131575571D01*
X112784912Y-131573811D01*
X112671666Y-131485088D01*
X112668589Y-131482512D01*
X112560568Y-131385980D01*
X112558041Y-131383590D01*
X112456408Y-131281957D01*
X112454018Y-131279430D01*
X112357486Y-131171409D01*
X112354910Y-131168332D01*
X112340874Y-131150416D01*
X112266176Y-131055072D01*
X112264427Y-131052726D01*
X112180711Y-130934739D01*
X112178217Y-130930935D01*
X112102956Y-130806439D01*
X112032605Y-130679147D01*
X112030330Y-130674600D01*
X111970390Y-130541418D01*
X111915167Y-130408099D01*
X111913265Y-130402850D01*
X111869375Y-130262001D01*
X111829963Y-130125198D01*
X111828560Y-130119227D01*
X111818340Y-130063462D01*
X111801277Y-129970343D01*
X111790327Y-129905907D01*
X111778160Y-129834297D01*
X111777401Y-129827691D01*
X111766992Y-129655603D01*
X111762626Y-129577867D01*
X111760598Y-129541736D01*
X111760500Y-129538259D01*
X111760500Y-124417312D01*
X117653774Y-124417312D01*
X117683545Y-124789270D01*
X117752685Y-125155947D01*
X117860404Y-125513191D01*
X118005491Y-125856970D01*
X118186291Y-126183370D01*
X118186294Y-126183374D01*
X118400769Y-126488713D01*
X118646484Y-126769525D01*
X118787524Y-126899727D01*
X118920656Y-127022629D01*
X119220166Y-127245147D01*
X119220177Y-127245155D01*
X119541655Y-127434584D01*
X119881447Y-127588769D01*
X120235702Y-127705963D01*
X120600408Y-127784838D01*
X120971431Y-127824500D01*
X121251211Y-127824500D01*
X121251213Y-127824500D01*
X121333835Y-127820096D01*
X121530594Y-127809610D01*
X121530598Y-127809609D01*
X121530608Y-127809609D01*
X121898995Y-127750256D01*
X122258986Y-127652083D01*
X122606502Y-127516201D01*
X122937606Y-127344150D01*
X123248547Y-127137880D01*
X123535800Y-126899727D01*
X123796113Y-126632391D01*
X124026534Y-126338899D01*
X124224454Y-126022578D01*
X124387630Y-125687011D01*
X124514212Y-125336000D01*
X124602768Y-124973524D01*
X124652293Y-124603688D01*
X124657256Y-124417312D01*
X147981374Y-124417312D01*
X148011145Y-124789270D01*
X148080285Y-125155947D01*
X148188004Y-125513191D01*
X148333091Y-125856970D01*
X148513891Y-126183370D01*
X148513894Y-126183374D01*
X148728369Y-126488713D01*
X148974084Y-126769525D01*
X149115124Y-126899727D01*
X149248256Y-127022629D01*
X149547766Y-127245147D01*
X149547777Y-127245155D01*
X149869255Y-127434584D01*
X150209047Y-127588769D01*
X150563302Y-127705963D01*
X150928008Y-127784838D01*
X151299031Y-127824500D01*
X151578811Y-127824500D01*
X151578813Y-127824500D01*
X151661435Y-127820096D01*
X151858194Y-127809610D01*
X151858198Y-127809609D01*
X151858208Y-127809609D01*
X152226595Y-127750256D01*
X152586586Y-127652083D01*
X152934102Y-127516201D01*
X153265206Y-127344150D01*
X153576147Y-127137880D01*
X153863400Y-126899727D01*
X154123713Y-126632391D01*
X154354134Y-126338899D01*
X154552054Y-126022578D01*
X154715230Y-125687011D01*
X154841812Y-125336000D01*
X154930368Y-124973524D01*
X154979893Y-124603688D01*
X154989826Y-124230683D01*
X154960055Y-123858735D01*
X154890916Y-123492059D01*
X154890914Y-123492052D01*
X154783195Y-123134808D01*
X154638108Y-122791029D01*
X154457308Y-122464629D01*
X154457305Y-122464625D01*
X154348065Y-122309105D01*
X154242831Y-122159287D01*
X153997116Y-121878475D01*
X153722945Y-121625372D01*
X153722943Y-121625370D01*
X153423433Y-121402852D01*
X153423430Y-121402850D01*
X153423423Y-121402845D01*
X153101945Y-121213416D01*
X152762153Y-121059231D01*
X152762149Y-121059229D01*
X152762143Y-121059227D01*
X152407902Y-120942038D01*
X152407889Y-120942035D01*
X152043195Y-120863162D01*
X152043188Y-120863161D01*
X151672169Y-120823500D01*
X151392387Y-120823500D01*
X151371323Y-120824622D01*
X151113005Y-120838389D01*
X151112979Y-120838392D01*
X150744607Y-120897743D01*
X150744604Y-120897744D01*
X150384613Y-120995917D01*
X150222689Y-121059231D01*
X150037098Y-121131799D01*
X150037096Y-121131799D01*
X150037096Y-121131800D01*
X149705998Y-121303847D01*
X149395058Y-121510116D01*
X149395049Y-121510122D01*
X149107811Y-121748263D01*
X149107796Y-121748277D01*
X148847488Y-122015607D01*
X148617069Y-122309095D01*
X148617062Y-122309105D01*
X148419148Y-122625416D01*
X148419146Y-122625421D01*
X148255967Y-122960994D01*
X148129386Y-123312004D01*
X148040832Y-123674472D01*
X148040831Y-123674480D01*
X147991308Y-124044305D01*
X147991306Y-124044321D01*
X147981374Y-124417312D01*
X124657256Y-124417312D01*
X124662226Y-124230683D01*
X124632455Y-123858735D01*
X124563316Y-123492059D01*
X124563314Y-123492052D01*
X124455595Y-123134808D01*
X124310508Y-122791029D01*
X124129708Y-122464629D01*
X124129705Y-122464625D01*
X124020465Y-122309105D01*
X123915231Y-122159287D01*
X123669516Y-121878475D01*
X123395345Y-121625372D01*
X123395343Y-121625370D01*
X123095833Y-121402852D01*
X123095830Y-121402850D01*
X123095823Y-121402845D01*
X122774345Y-121213416D01*
X122434553Y-121059231D01*
X122434549Y-121059229D01*
X122434543Y-121059227D01*
X122080302Y-120942038D01*
X122080289Y-120942035D01*
X121715595Y-120863162D01*
X121715588Y-120863161D01*
X121344569Y-120823500D01*
X121064787Y-120823500D01*
X121043723Y-120824622D01*
X120785405Y-120838389D01*
X120785379Y-120838392D01*
X120417007Y-120897743D01*
X120417004Y-120897744D01*
X120057013Y-120995917D01*
X119895089Y-121059231D01*
X119709498Y-121131799D01*
X119709496Y-121131799D01*
X119709496Y-121131800D01*
X119378398Y-121303847D01*
X119067458Y-121510116D01*
X119067449Y-121510122D01*
X118780211Y-121748263D01*
X118780196Y-121748277D01*
X118519888Y-122015607D01*
X118289469Y-122309095D01*
X118289462Y-122309105D01*
X118091548Y-122625416D01*
X118091546Y-122625421D01*
X117928367Y-122960994D01*
X117801786Y-123312004D01*
X117713232Y-123674472D01*
X117713231Y-123674480D01*
X117663708Y-124044305D01*
X117663706Y-124044321D01*
X117653774Y-124417312D01*
X111760500Y-124417312D01*
X111760500Y-90001995D01*
X113727840Y-90001995D01*
X113732225Y-90048383D01*
X113732500Y-90054221D01*
X113732500Y-114911651D01*
X113730775Y-114927268D01*
X113731061Y-114927295D01*
X113730326Y-114935061D01*
X113732500Y-115004210D01*
X113732500Y-115033739D01*
X113732501Y-115033756D01*
X113733368Y-115040627D01*
X113733826Y-115046446D01*
X113735290Y-115093020D01*
X113735291Y-115093023D01*
X113740880Y-115112263D01*
X113744824Y-115131307D01*
X113747336Y-115151187D01*
X113764490Y-115194515D01*
X113766382Y-115200043D01*
X113779381Y-115244784D01*
X113789580Y-115262030D01*
X113798138Y-115279499D01*
X113805514Y-115298128D01*
X113832898Y-115335819D01*
X113836106Y-115340703D01*
X113859827Y-115380812D01*
X113859833Y-115380820D01*
X113873990Y-115394976D01*
X113886628Y-115409772D01*
X113898405Y-115425982D01*
X113898406Y-115425983D01*
X113934309Y-115455684D01*
X113938620Y-115459606D01*
X115390798Y-116911784D01*
X115400623Y-116924048D01*
X115400844Y-116923866D01*
X115405814Y-116929873D01*
X115405817Y-116929876D01*
X115405818Y-116929877D01*
X115456255Y-116977241D01*
X115477134Y-116998120D01*
X115482608Y-117002366D01*
X115487046Y-117006156D01*
X115521022Y-117038062D01*
X115521026Y-117038064D01*
X115538577Y-117047713D01*
X115554835Y-117058392D01*
X115570668Y-117070674D01*
X115592619Y-117080172D01*
X115613441Y-117089183D01*
X115618685Y-117091752D01*
X115659512Y-117114197D01*
X115678916Y-117119179D01*
X115697314Y-117125478D01*
X115715709Y-117133438D01*
X115761733Y-117140726D01*
X115767436Y-117141907D01*
X115812585Y-117153500D01*
X115832620Y-117153500D01*
X115852017Y-117155026D01*
X115871800Y-117158160D01*
X115918188Y-117153775D01*
X115924026Y-117153500D01*
X133325257Y-117153500D01*
X133340877Y-117155224D01*
X133340904Y-117154939D01*
X133348660Y-117155671D01*
X133348667Y-117155673D01*
X133417814Y-117153500D01*
X133447350Y-117153500D01*
X133454228Y-117152630D01*
X133460041Y-117152172D01*
X133506627Y-117150709D01*
X133525869Y-117145117D01*
X133544912Y-117141174D01*
X133564792Y-117138664D01*
X133608122Y-117121507D01*
X133613646Y-117119617D01*
X133617396Y-117118527D01*
X133658390Y-117106618D01*
X133675629Y-117096422D01*
X133693103Y-117087862D01*
X133711727Y-117080488D01*
X133711727Y-117080487D01*
X133711732Y-117080486D01*
X133749449Y-117053082D01*
X133754305Y-117049892D01*
X133794420Y-117026170D01*
X133808589Y-117011999D01*
X133823379Y-116999368D01*
X133839587Y-116987594D01*
X133869299Y-116951676D01*
X133873212Y-116947376D01*
X139307788Y-111512801D01*
X139320042Y-111502986D01*
X139319859Y-111502764D01*
X139325866Y-111497792D01*
X139325877Y-111497786D01*
X139356775Y-111464882D01*
X139373227Y-111447364D01*
X139383671Y-111436918D01*
X139394120Y-111426471D01*
X139398379Y-111420978D01*
X139402152Y-111416561D01*
X139434062Y-111382582D01*
X139443715Y-111365020D01*
X139454389Y-111348770D01*
X139466673Y-111332936D01*
X139485180Y-111290167D01*
X139487749Y-111284924D01*
X139510196Y-111244093D01*
X139510197Y-111244092D01*
X139515177Y-111224691D01*
X139521478Y-111206288D01*
X139529438Y-111187896D01*
X139536730Y-111141849D01*
X139537911Y-111136152D01*
X139549500Y-111091019D01*
X139549500Y-111070983D01*
X139551027Y-111051582D01*
X139554160Y-111031803D01*
X139554160Y-111031800D01*
X139551717Y-111005962D01*
X139565003Y-110937368D01*
X139613266Y-110886845D01*
X139621341Y-110882582D01*
X139802580Y-110795302D01*
X139826767Y-110783655D01*
X139826767Y-110783654D01*
X139826775Y-110783651D01*
X140049741Y-110631635D01*
X140247561Y-110448085D01*
X140415815Y-110237102D01*
X140550743Y-110003398D01*
X140649334Y-109752195D01*
X140709383Y-109489103D01*
X140729549Y-109220000D01*
X140726466Y-109178862D01*
X140709389Y-108950973D01*
X140709383Y-108950897D01*
X140649334Y-108687805D01*
X140550743Y-108436602D01*
X140415815Y-108202898D01*
X140247561Y-107991915D01*
X140247560Y-107991914D01*
X140247557Y-107991910D01*
X140049741Y-107808365D01*
X139911657Y-107714221D01*
X139826775Y-107656349D01*
X139826769Y-107656346D01*
X139826768Y-107656345D01*
X139826767Y-107656344D01*
X139583643Y-107539263D01*
X139583645Y-107539263D01*
X139325773Y-107459720D01*
X139325767Y-107459718D01*
X139058936Y-107419500D01*
X139058929Y-107419500D01*
X138789071Y-107419500D01*
X138789063Y-107419500D01*
X138522232Y-107459718D01*
X138522226Y-107459720D01*
X138264358Y-107539262D01*
X138021230Y-107656346D01*
X137798258Y-107808365D01*
X137600442Y-107991910D01*
X137432185Y-108202898D01*
X137297258Y-108436599D01*
X137297256Y-108436603D01*
X137262928Y-108524069D01*
X137220112Y-108579282D01*
X137154241Y-108602583D01*
X137086231Y-108586572D01*
X137037673Y-108536334D01*
X137023500Y-108478766D01*
X137023500Y-107498452D01*
X137043185Y-107431413D01*
X137059819Y-107410771D01*
X138144772Y-106325819D01*
X138206095Y-106292334D01*
X138232453Y-106289500D01*
X141929548Y-106289500D01*
X141996587Y-106309185D01*
X142017229Y-106325819D01*
X143118046Y-107426636D01*
X143151531Y-107487959D01*
X143146547Y-107557651D01*
X143104675Y-107613584D01*
X143084168Y-107626036D01*
X143021235Y-107656343D01*
X143021232Y-107656345D01*
X143021226Y-107656348D01*
X143021226Y-107656349D01*
X143009453Y-107664376D01*
X142798258Y-107808365D01*
X142600442Y-107991910D01*
X142432185Y-108202898D01*
X142297258Y-108436599D01*
X142297256Y-108436603D01*
X142198666Y-108687804D01*
X142198664Y-108687811D01*
X142138616Y-108950898D01*
X142118451Y-109219995D01*
X142118451Y-109220004D01*
X142138616Y-109489101D01*
X142198664Y-109752188D01*
X142198666Y-109752195D01*
X142297256Y-110003396D01*
X142297258Y-110003400D01*
X142306887Y-110020078D01*
X142432185Y-110237102D01*
X142485655Y-110304151D01*
X142600442Y-110448089D01*
X142787183Y-110621358D01*
X142798259Y-110631635D01*
X143021226Y-110783651D01*
X143264359Y-110900738D01*
X143522228Y-110980280D01*
X143522229Y-110980280D01*
X143522232Y-110980281D01*
X143789063Y-111020499D01*
X143789068Y-111020499D01*
X143789071Y-111020500D01*
X143789072Y-111020500D01*
X144058928Y-111020500D01*
X144058929Y-111020500D01*
X144058936Y-111020499D01*
X144325767Y-110980281D01*
X144325768Y-110980280D01*
X144325772Y-110980280D01*
X144583641Y-110900738D01*
X144775765Y-110808216D01*
X144826767Y-110783655D01*
X144826767Y-110783654D01*
X144826775Y-110783651D01*
X145049741Y-110631635D01*
X145247561Y-110448085D01*
X145415815Y-110237102D01*
X145550743Y-110003398D01*
X145649334Y-109752195D01*
X145709383Y-109489103D01*
X145729549Y-109220004D01*
X147118953Y-109220004D01*
X147139113Y-109489026D01*
X147139113Y-109489028D01*
X147199142Y-109752033D01*
X147199148Y-109752052D01*
X147297709Y-110003181D01*
X147297708Y-110003181D01*
X147432602Y-110236822D01*
X147486294Y-110304151D01*
X147486295Y-110304151D01*
X148321452Y-109468993D01*
X148331188Y-109498956D01*
X148419186Y-109637619D01*
X148538903Y-109750040D01*
X148673510Y-109824041D01*
X147838848Y-110658702D01*
X148021483Y-110783220D01*
X148021485Y-110783221D01*
X148264539Y-110900269D01*
X148264537Y-110900269D01*
X148522337Y-110979790D01*
X148522343Y-110979792D01*
X148789101Y-111019999D01*
X148789110Y-111020000D01*
X149058890Y-111020000D01*
X149058898Y-111019999D01*
X149325656Y-110979792D01*
X149325662Y-110979790D01*
X149583461Y-110900269D01*
X149826521Y-110783218D01*
X150009150Y-110658702D01*
X149171534Y-109821086D01*
X149239629Y-109794126D01*
X149372492Y-109697595D01*
X149477175Y-109571055D01*
X149525631Y-109468079D01*
X150361703Y-110304151D01*
X150361704Y-110304150D01*
X150415393Y-110236828D01*
X150415400Y-110236817D01*
X150550290Y-110003181D01*
X150648851Y-109752052D01*
X150648857Y-109752033D01*
X150708886Y-109489028D01*
X150708886Y-109489026D01*
X150729047Y-109220004D01*
X152118451Y-109220004D01*
X152138616Y-109489101D01*
X152198664Y-109752188D01*
X152198666Y-109752195D01*
X152297256Y-110003396D01*
X152297258Y-110003400D01*
X152306887Y-110020078D01*
X152432185Y-110237102D01*
X152485655Y-110304151D01*
X152600442Y-110448089D01*
X152787183Y-110621358D01*
X152798259Y-110631635D01*
X153021226Y-110783651D01*
X153264359Y-110900738D01*
X153522228Y-110980280D01*
X153522229Y-110980280D01*
X153522232Y-110980281D01*
X153789063Y-111020499D01*
X153789068Y-111020499D01*
X153789071Y-111020500D01*
X153789072Y-111020500D01*
X154058928Y-111020500D01*
X154058929Y-111020500D01*
X154058936Y-111020499D01*
X154325767Y-110980281D01*
X154325768Y-110980280D01*
X154325772Y-110980280D01*
X154583641Y-110900738D01*
X154775765Y-110808216D01*
X154826767Y-110783655D01*
X154826767Y-110783654D01*
X154826775Y-110783651D01*
X155049741Y-110631635D01*
X155247561Y-110448085D01*
X155415815Y-110237102D01*
X155550743Y-110003398D01*
X155649334Y-109752195D01*
X155709383Y-109489103D01*
X155729549Y-109220000D01*
X155726466Y-109178862D01*
X155709389Y-108950973D01*
X155709383Y-108950897D01*
X155649334Y-108687805D01*
X155550743Y-108436602D01*
X155415815Y-108202898D01*
X155247561Y-107991915D01*
X155247560Y-107991914D01*
X155247557Y-107991910D01*
X155049741Y-107808365D01*
X154911657Y-107714221D01*
X154826775Y-107656349D01*
X154826769Y-107656346D01*
X154826768Y-107656345D01*
X154826767Y-107656344D01*
X154583643Y-107539263D01*
X154583645Y-107539263D01*
X154325773Y-107459720D01*
X154325767Y-107459718D01*
X154058936Y-107419500D01*
X154058929Y-107419500D01*
X153789071Y-107419500D01*
X153789063Y-107419500D01*
X153522232Y-107459718D01*
X153522226Y-107459720D01*
X153264358Y-107539262D01*
X153021230Y-107656346D01*
X152798258Y-107808365D01*
X152600442Y-107991910D01*
X152432185Y-108202898D01*
X152297258Y-108436599D01*
X152297256Y-108436603D01*
X152198666Y-108687804D01*
X152198664Y-108687811D01*
X152138616Y-108950898D01*
X152118451Y-109219995D01*
X152118451Y-109220004D01*
X150729047Y-109220004D01*
X150729047Y-109219995D01*
X150708886Y-108950973D01*
X150708886Y-108950971D01*
X150648857Y-108687966D01*
X150648851Y-108687947D01*
X150550290Y-108436818D01*
X150550291Y-108436818D01*
X150415397Y-108203177D01*
X150361704Y-108135847D01*
X149526546Y-108971004D01*
X149516812Y-108941044D01*
X149428814Y-108802381D01*
X149309097Y-108689960D01*
X149174489Y-108615958D01*
X150009150Y-107781296D01*
X149826517Y-107656779D01*
X149826516Y-107656778D01*
X149583460Y-107539730D01*
X149583462Y-107539730D01*
X149325662Y-107460209D01*
X149325656Y-107460207D01*
X149058898Y-107420000D01*
X148789101Y-107420000D01*
X148522343Y-107460207D01*
X148522337Y-107460209D01*
X148264538Y-107539730D01*
X148021485Y-107656778D01*
X148021476Y-107656783D01*
X147838848Y-107781296D01*
X148676465Y-108618913D01*
X148608371Y-108645874D01*
X148475508Y-108742405D01*
X148370825Y-108868945D01*
X148322368Y-108971921D01*
X147486295Y-108135848D01*
X147432600Y-108203180D01*
X147297709Y-108436818D01*
X147199148Y-108687947D01*
X147199142Y-108687966D01*
X147139113Y-108950971D01*
X147139113Y-108950973D01*
X147118953Y-109219995D01*
X147118953Y-109220004D01*
X145729549Y-109220004D01*
X145729549Y-109220000D01*
X145726466Y-109178862D01*
X145709389Y-108950973D01*
X145709383Y-108950897D01*
X145649334Y-108687805D01*
X145550743Y-108436602D01*
X145415815Y-108202898D01*
X145247561Y-107991915D01*
X145247560Y-107991914D01*
X145247557Y-107991910D01*
X145049741Y-107808365D01*
X144911657Y-107714221D01*
X144826775Y-107656349D01*
X144826772Y-107656348D01*
X144826770Y-107656346D01*
X144619698Y-107556626D01*
X144567839Y-107509804D01*
X144549500Y-107444906D01*
X144549500Y-107430742D01*
X144551224Y-107415122D01*
X144550939Y-107415095D01*
X144551673Y-107407333D01*
X144549500Y-107338172D01*
X144549500Y-107308656D01*
X144549500Y-107308650D01*
X144548631Y-107301779D01*
X144548173Y-107295952D01*
X144546710Y-107249373D01*
X144541119Y-107230130D01*
X144537173Y-107211078D01*
X144534664Y-107191208D01*
X144517504Y-107147867D01*
X144515624Y-107142379D01*
X144502618Y-107097610D01*
X144492422Y-107080370D01*
X144483861Y-107062894D01*
X144476487Y-107044270D01*
X144476486Y-107044268D01*
X144449079Y-107006545D01*
X144445888Y-107001686D01*
X144438923Y-106989909D01*
X144429975Y-106974777D01*
X144422172Y-106961583D01*
X144422165Y-106961574D01*
X144408006Y-106947415D01*
X144395368Y-106932619D01*
X144383594Y-106916413D01*
X144375646Y-106909838D01*
X144347688Y-106886709D01*
X144343376Y-106882786D01*
X142740803Y-105280212D01*
X142730980Y-105267950D01*
X142730759Y-105268134D01*
X142725786Y-105262123D01*
X142707159Y-105244631D01*
X142675364Y-105214773D01*
X142664919Y-105204328D01*
X142654475Y-105193883D01*
X142648986Y-105189625D01*
X142644561Y-105185847D01*
X142610582Y-105153938D01*
X142610580Y-105153936D01*
X142610577Y-105153935D01*
X142593029Y-105144288D01*
X142576763Y-105133604D01*
X142560933Y-105121325D01*
X142518168Y-105102818D01*
X142512922Y-105100248D01*
X142472093Y-105077803D01*
X142472092Y-105077802D01*
X142452693Y-105072822D01*
X142434281Y-105066518D01*
X142415898Y-105058562D01*
X142415892Y-105058560D01*
X142369874Y-105051272D01*
X142364152Y-105050087D01*
X142319021Y-105038500D01*
X142319019Y-105038500D01*
X142298984Y-105038500D01*
X142279586Y-105036973D01*
X142272162Y-105035797D01*
X142259805Y-105033840D01*
X142259804Y-105033840D01*
X142213416Y-105038225D01*
X142207578Y-105038500D01*
X138004737Y-105038500D01*
X137989120Y-105036776D01*
X137989093Y-105037062D01*
X137981331Y-105036327D01*
X137912203Y-105038500D01*
X137882650Y-105038500D01*
X137881929Y-105038590D01*
X137875757Y-105039369D01*
X137869945Y-105039826D01*
X137823372Y-105041290D01*
X137823369Y-105041291D01*
X137804126Y-105046881D01*
X137785083Y-105050825D01*
X137765204Y-105053336D01*
X137765203Y-105053337D01*
X137721878Y-105070490D01*
X137716352Y-105072382D01*
X137671608Y-105085383D01*
X137671604Y-105085385D01*
X137654365Y-105095580D01*
X137636898Y-105104137D01*
X137618269Y-105111512D01*
X137618267Y-105111513D01*
X137580564Y-105138906D01*
X137575682Y-105142112D01*
X137535580Y-105165828D01*
X137521408Y-105180000D01*
X137506623Y-105192628D01*
X137490412Y-105204407D01*
X137460709Y-105240310D01*
X137456777Y-105244631D01*
X136014208Y-106687199D01*
X136001951Y-106697020D01*
X136002134Y-106697241D01*
X135996123Y-106702213D01*
X135948772Y-106752636D01*
X135927889Y-106773519D01*
X135927877Y-106773532D01*
X135923621Y-106779017D01*
X135919837Y-106783447D01*
X135887937Y-106817418D01*
X135887936Y-106817420D01*
X135878284Y-106834976D01*
X135867610Y-106851226D01*
X135855329Y-106867061D01*
X135855324Y-106867068D01*
X135836815Y-106909838D01*
X135834245Y-106915084D01*
X135811803Y-106955906D01*
X135806822Y-106975307D01*
X135800521Y-106993710D01*
X135792562Y-107012102D01*
X135792561Y-107012105D01*
X135785271Y-107058127D01*
X135784087Y-107063846D01*
X135772501Y-107108972D01*
X135772500Y-107108982D01*
X135772500Y-107129016D01*
X135770973Y-107148413D01*
X135767840Y-107168196D01*
X135769870Y-107189667D01*
X135772225Y-107214583D01*
X135772500Y-107220421D01*
X135772500Y-108357921D01*
X135752815Y-108424960D01*
X135700011Y-108470715D01*
X135630853Y-108480659D01*
X135567297Y-108451634D01*
X135541113Y-108419921D01*
X135472317Y-108300763D01*
X135415815Y-108202898D01*
X135247561Y-107991915D01*
X135247560Y-107991914D01*
X135247557Y-107991910D01*
X135049741Y-107808365D01*
X134911657Y-107714221D01*
X134826775Y-107656349D01*
X134826769Y-107656346D01*
X134826768Y-107656345D01*
X134826767Y-107656344D01*
X134583643Y-107539263D01*
X134583645Y-107539263D01*
X134325773Y-107459720D01*
X134325767Y-107459718D01*
X134058936Y-107419500D01*
X134058929Y-107419500D01*
X133789071Y-107419500D01*
X133789063Y-107419500D01*
X133522232Y-107459718D01*
X133522226Y-107459720D01*
X133264355Y-107539263D01*
X133251490Y-107545459D01*
X133182549Y-107556810D01*
X133118415Y-107529086D01*
X133110010Y-107521419D01*
X132614819Y-107026228D01*
X132581334Y-106964905D01*
X132578500Y-106938547D01*
X132578500Y-93656847D01*
X132598185Y-93589808D01*
X132614814Y-93569171D01*
X133900668Y-92283316D01*
X133961989Y-92249833D01*
X134031681Y-92254817D01*
X134087614Y-92296689D01*
X134112031Y-92362153D01*
X134109754Y-92396227D01*
X134058201Y-92644319D01*
X134038592Y-92931000D01*
X134058201Y-93217680D01*
X134116666Y-93499034D01*
X134116667Y-93499037D01*
X134212894Y-93769793D01*
X134212893Y-93769793D01*
X134345098Y-94024935D01*
X134510812Y-94259700D01*
X134563783Y-94316417D01*
X134706947Y-94469708D01*
X134929853Y-94651055D01*
X135162448Y-94792500D01*
X135175382Y-94800365D01*
X135362237Y-94881526D01*
X135438942Y-94914844D01*
X135715642Y-94992371D01*
X135965920Y-95026771D01*
X136000321Y-95031500D01*
X136000322Y-95031500D01*
X136287679Y-95031500D01*
X136318370Y-95027281D01*
X136572358Y-94992371D01*
X136849058Y-94914844D01*
X136962015Y-94865779D01*
X137112617Y-94800365D01*
X137112620Y-94800363D01*
X137112625Y-94800361D01*
X137358147Y-94651055D01*
X137581053Y-94469708D01*
X137777189Y-94259698D01*
X137942901Y-94024936D01*
X138075104Y-93769797D01*
X138171334Y-93499032D01*
X138229798Y-93217686D01*
X138249408Y-92931000D01*
X138229798Y-92644314D01*
X138171334Y-92362968D01*
X138159681Y-92330181D01*
X138075105Y-92092206D01*
X138075106Y-92092206D01*
X137942901Y-91837064D01*
X137777187Y-91602299D01*
X137661375Y-91478296D01*
X137581053Y-91392292D01*
X137358147Y-91210945D01*
X137358146Y-91210944D01*
X137112617Y-91061634D01*
X136849063Y-90947158D01*
X136849061Y-90947157D01*
X136849058Y-90947156D01*
X136670765Y-90897201D01*
X136572364Y-90869630D01*
X136572359Y-90869629D01*
X136572358Y-90869629D01*
X136430018Y-90850064D01*
X136287679Y-90830500D01*
X136287678Y-90830500D01*
X136000322Y-90830500D01*
X136000321Y-90830500D01*
X135715642Y-90869629D01*
X135715631Y-90869631D01*
X135614133Y-90898069D01*
X135544268Y-90897201D01*
X135485964Y-90858699D01*
X135457731Y-90794787D01*
X135468533Y-90725758D01*
X135492995Y-90690989D01*
X138191981Y-87992004D01*
X149709251Y-87992004D01*
X149729416Y-88261101D01*
X149789464Y-88524188D01*
X149789466Y-88524195D01*
X149858620Y-88700396D01*
X149888057Y-88775398D01*
X150022985Y-89009102D01*
X150158880Y-89179509D01*
X150191242Y-89220089D01*
X150308227Y-89328634D01*
X150389059Y-89403635D01*
X150612026Y-89555651D01*
X150855159Y-89672738D01*
X151113028Y-89752280D01*
X151113029Y-89752280D01*
X151113032Y-89752281D01*
X151379863Y-89792499D01*
X151379868Y-89792499D01*
X151379871Y-89792500D01*
X151379872Y-89792500D01*
X151649728Y-89792500D01*
X151649729Y-89792500D01*
X151668266Y-89789706D01*
X151916567Y-89752281D01*
X151916568Y-89752280D01*
X151916572Y-89752280D01*
X152174441Y-89672738D01*
X152417575Y-89555651D01*
X152640541Y-89403635D01*
X152838361Y-89220085D01*
X153006615Y-89009102D01*
X153141543Y-88775398D01*
X153240134Y-88524195D01*
X153300183Y-88261103D01*
X153320349Y-87992000D01*
X153314728Y-87916995D01*
X153300183Y-87722898D01*
X153283065Y-87647898D01*
X153240134Y-87459805D01*
X153141543Y-87208602D01*
X153006615Y-86974898D01*
X152838361Y-86763915D01*
X152838360Y-86763914D01*
X152838357Y-86763910D01*
X152640541Y-86580365D01*
X152530536Y-86505365D01*
X152417575Y-86428349D01*
X152417569Y-86428346D01*
X152417568Y-86428345D01*
X152417567Y-86428344D01*
X152174443Y-86311263D01*
X152174445Y-86311263D01*
X151916573Y-86231720D01*
X151916567Y-86231718D01*
X151649736Y-86191500D01*
X151649729Y-86191500D01*
X151379871Y-86191500D01*
X151379863Y-86191500D01*
X151113032Y-86231718D01*
X151113026Y-86231720D01*
X150855158Y-86311262D01*
X150612030Y-86428346D01*
X150389058Y-86580365D01*
X150191242Y-86763910D01*
X150022985Y-86974898D01*
X149888058Y-87208599D01*
X149888056Y-87208603D01*
X149789466Y-87459804D01*
X149789464Y-87459811D01*
X149729416Y-87722898D01*
X149709251Y-87991995D01*
X149709251Y-87992004D01*
X138191981Y-87992004D01*
X142530168Y-83653819D01*
X142591491Y-83620334D01*
X142617849Y-83617500D01*
X149741545Y-83617500D01*
X149808584Y-83637185D01*
X149854339Y-83689989D01*
X149856967Y-83696184D01*
X149888057Y-83775398D01*
X150022985Y-84009102D01*
X150158880Y-84179509D01*
X150191242Y-84220089D01*
X150308227Y-84328634D01*
X150389059Y-84403635D01*
X150612026Y-84555651D01*
X150855159Y-84672738D01*
X151113028Y-84752280D01*
X151113029Y-84752280D01*
X151113032Y-84752281D01*
X151379863Y-84792499D01*
X151379868Y-84792499D01*
X151379871Y-84792500D01*
X151379872Y-84792500D01*
X151649728Y-84792500D01*
X151649729Y-84792500D01*
X151649736Y-84792499D01*
X151916567Y-84752281D01*
X151916568Y-84752280D01*
X151916572Y-84752280D01*
X152174441Y-84672738D01*
X152417575Y-84555651D01*
X152640541Y-84403635D01*
X152838361Y-84220085D01*
X153006615Y-84009102D01*
X153141543Y-83775398D01*
X153172627Y-83696195D01*
X153215443Y-83640984D01*
X153281313Y-83617683D01*
X153288055Y-83617500D01*
X155431257Y-83617500D01*
X155446877Y-83619224D01*
X155446904Y-83618939D01*
X155454660Y-83619671D01*
X155454667Y-83619673D01*
X155523814Y-83617500D01*
X155553350Y-83617500D01*
X155560228Y-83616630D01*
X155566041Y-83616172D01*
X155612627Y-83614709D01*
X155631869Y-83609117D01*
X155650912Y-83605174D01*
X155670792Y-83602664D01*
X155714122Y-83585507D01*
X155719646Y-83583617D01*
X155723396Y-83582527D01*
X155764390Y-83570618D01*
X155781629Y-83560422D01*
X155799103Y-83551862D01*
X155817727Y-83544488D01*
X155817727Y-83544487D01*
X155817732Y-83544486D01*
X155855449Y-83517082D01*
X155860305Y-83513892D01*
X155900420Y-83490170D01*
X155914589Y-83475999D01*
X155929379Y-83463368D01*
X155945587Y-83451594D01*
X155975299Y-83415676D01*
X155979212Y-83411376D01*
X157589820Y-81800768D01*
X157651142Y-81767285D01*
X157720834Y-81772269D01*
X157776767Y-81814141D01*
X157801184Y-81879605D01*
X157801500Y-81888451D01*
X157801500Y-90182547D01*
X157781815Y-90249586D01*
X157765181Y-90270228D01*
X155705228Y-92330181D01*
X155643905Y-92363666D01*
X155617547Y-92366500D01*
X153288055Y-92366500D01*
X153221016Y-92346815D01*
X153175261Y-92294011D01*
X153172627Y-92287803D01*
X153170867Y-92283318D01*
X153141543Y-92208602D01*
X153006615Y-91974898D01*
X152838361Y-91763915D01*
X152838360Y-91763914D01*
X152838357Y-91763910D01*
X152640541Y-91580365D01*
X152600536Y-91553090D01*
X152417575Y-91428349D01*
X152417569Y-91428346D01*
X152417568Y-91428345D01*
X152417567Y-91428344D01*
X152174443Y-91311263D01*
X152174445Y-91311263D01*
X151916573Y-91231720D01*
X151916567Y-91231718D01*
X151649736Y-91191500D01*
X151649729Y-91191500D01*
X151379871Y-91191500D01*
X151379863Y-91191500D01*
X151113032Y-91231718D01*
X151113026Y-91231720D01*
X150855158Y-91311262D01*
X150612030Y-91428346D01*
X150389058Y-91580365D01*
X150191242Y-91763910D01*
X150022985Y-91974898D01*
X149888058Y-92208599D01*
X149888056Y-92208603D01*
X149789466Y-92459804D01*
X149789464Y-92459811D01*
X149729416Y-92722898D01*
X149709251Y-92991995D01*
X149709251Y-92992004D01*
X149729416Y-93261101D01*
X149789464Y-93524188D01*
X149789466Y-93524195D01*
X149888056Y-93775396D01*
X149888058Y-93775400D01*
X149914228Y-93820728D01*
X150022985Y-94009102D01*
X150149430Y-94167658D01*
X150191242Y-94220089D01*
X150363861Y-94380255D01*
X150389059Y-94403635D01*
X150612026Y-94555651D01*
X150855159Y-94672738D01*
X151113028Y-94752280D01*
X151113029Y-94752280D01*
X151113032Y-94752281D01*
X151379863Y-94792499D01*
X151379868Y-94792499D01*
X151379871Y-94792500D01*
X151379872Y-94792500D01*
X151649728Y-94792500D01*
X151649729Y-94792500D01*
X151649736Y-94792499D01*
X151916567Y-94752281D01*
X151916568Y-94752280D01*
X151916572Y-94752280D01*
X152174441Y-94672738D01*
X152417575Y-94555651D01*
X152640541Y-94403635D01*
X152838361Y-94220085D01*
X153006615Y-94009102D01*
X153141543Y-93775398D01*
X153172627Y-93696195D01*
X153215443Y-93640984D01*
X153281313Y-93617683D01*
X153288055Y-93617500D01*
X155845257Y-93617500D01*
X155860877Y-93619224D01*
X155860904Y-93618939D01*
X155868660Y-93619671D01*
X155868667Y-93619673D01*
X155937814Y-93617500D01*
X155967350Y-93617500D01*
X155974228Y-93616630D01*
X155980041Y-93616172D01*
X156026627Y-93614709D01*
X156045869Y-93609117D01*
X156064912Y-93605174D01*
X156084792Y-93602664D01*
X156128122Y-93585507D01*
X156133646Y-93583617D01*
X156137396Y-93582527D01*
X156178390Y-93570618D01*
X156195629Y-93560422D01*
X156213103Y-93551862D01*
X156231727Y-93544488D01*
X156231727Y-93544487D01*
X156231732Y-93544486D01*
X156269449Y-93517082D01*
X156274305Y-93513892D01*
X156314420Y-93490170D01*
X156328589Y-93475999D01*
X156343379Y-93463368D01*
X156359587Y-93451594D01*
X156389299Y-93415676D01*
X156393212Y-93411376D01*
X158039820Y-91764768D01*
X158101142Y-91731285D01*
X158170834Y-91736269D01*
X158226767Y-91778141D01*
X158251184Y-91843605D01*
X158251500Y-91852451D01*
X158251500Y-93733047D01*
X158231815Y-93800086D01*
X158215181Y-93820728D01*
X154705728Y-97330181D01*
X154644405Y-97363666D01*
X154618047Y-97366500D01*
X153439299Y-97366500D01*
X153372260Y-97346815D01*
X153326505Y-97294011D01*
X153315299Y-97242500D01*
X153315299Y-96644129D01*
X153315298Y-96644123D01*
X153315297Y-96644116D01*
X153308891Y-96584517D01*
X153279369Y-96505365D01*
X153258597Y-96449671D01*
X153258593Y-96449664D01*
X153172347Y-96334455D01*
X153172344Y-96334452D01*
X153057135Y-96248206D01*
X153057128Y-96248202D01*
X152922282Y-96197908D01*
X152922283Y-96197908D01*
X152862683Y-96191501D01*
X152862681Y-96191500D01*
X152862673Y-96191500D01*
X152862664Y-96191500D01*
X150166929Y-96191500D01*
X150166923Y-96191501D01*
X150107316Y-96197908D01*
X149972471Y-96248202D01*
X149972464Y-96248206D01*
X149857255Y-96334452D01*
X149857252Y-96334455D01*
X149771006Y-96449664D01*
X149771002Y-96449671D01*
X149720708Y-96584517D01*
X149714301Y-96644116D01*
X149714301Y-96644123D01*
X149714300Y-96644135D01*
X149714300Y-99339870D01*
X149714301Y-99339876D01*
X149720708Y-99399483D01*
X149771002Y-99534328D01*
X149771006Y-99534335D01*
X149857252Y-99649544D01*
X149857255Y-99649547D01*
X149972464Y-99735793D01*
X149972471Y-99735797D01*
X150107317Y-99786091D01*
X150107316Y-99786091D01*
X150114244Y-99786835D01*
X150166927Y-99792500D01*
X152862672Y-99792499D01*
X152922283Y-99786091D01*
X153057131Y-99735796D01*
X153172346Y-99649546D01*
X153258596Y-99534331D01*
X153308891Y-99399483D01*
X153315300Y-99339873D01*
X153315300Y-98741500D01*
X153334985Y-98674461D01*
X153387789Y-98628706D01*
X153439300Y-98617500D01*
X154845757Y-98617500D01*
X154861377Y-98619224D01*
X154861404Y-98618939D01*
X154869160Y-98619671D01*
X154869167Y-98619673D01*
X154938314Y-98617500D01*
X154967850Y-98617500D01*
X154974728Y-98616630D01*
X154980541Y-98616172D01*
X155027127Y-98614709D01*
X155046369Y-98609117D01*
X155065412Y-98605174D01*
X155085292Y-98602664D01*
X155128622Y-98585507D01*
X155134146Y-98583617D01*
X155137896Y-98582527D01*
X155178890Y-98570618D01*
X155196129Y-98560422D01*
X155213603Y-98551862D01*
X155232227Y-98544488D01*
X155232227Y-98544487D01*
X155232232Y-98544486D01*
X155269949Y-98517082D01*
X155274805Y-98513892D01*
X155314920Y-98490170D01*
X155329089Y-98475999D01*
X155343879Y-98463368D01*
X155360087Y-98451594D01*
X155389799Y-98415676D01*
X155393712Y-98411376D01*
X159260788Y-94544301D01*
X159273042Y-94534486D01*
X159272859Y-94534264D01*
X159278866Y-94529292D01*
X159278877Y-94529286D01*
X159309775Y-94496382D01*
X159326227Y-94478864D01*
X159336671Y-94468418D01*
X159347120Y-94457971D01*
X159351379Y-94452478D01*
X159355152Y-94448061D01*
X159387062Y-94414082D01*
X159396713Y-94396524D01*
X159407396Y-94380261D01*
X159419673Y-94364436D01*
X159438185Y-94321653D01*
X159440738Y-94316441D01*
X159463197Y-94275592D01*
X159468180Y-94256180D01*
X159474481Y-94237780D01*
X159482437Y-94219396D01*
X159489729Y-94173352D01*
X159490906Y-94167671D01*
X159502500Y-94122519D01*
X159502500Y-94102483D01*
X159504027Y-94083082D01*
X159507160Y-94063304D01*
X159502775Y-94016915D01*
X159502500Y-94011077D01*
X159502500Y-60788737D01*
X159504224Y-60773123D01*
X159503938Y-60773096D01*
X159504672Y-60765333D01*
X159502500Y-60696203D01*
X159502500Y-60666651D01*
X159502500Y-60666650D01*
X159501629Y-60659759D01*
X159501172Y-60653945D01*
X159499709Y-60607373D01*
X159494121Y-60588139D01*
X159490174Y-60569081D01*
X159487664Y-60549208D01*
X159470507Y-60505875D01*
X159468614Y-60500346D01*
X159455618Y-60455614D01*
X159455617Y-60455610D01*
X159445420Y-60438368D01*
X159436863Y-60420902D01*
X159429486Y-60402268D01*
X159402083Y-60364550D01*
X159398900Y-60359705D01*
X159375170Y-60319579D01*
X159375165Y-60319573D01*
X159361005Y-60305413D01*
X159348370Y-60290620D01*
X159336593Y-60274412D01*
X159300693Y-60244713D01*
X159296381Y-60240790D01*
X156964803Y-57909212D01*
X156954980Y-57896950D01*
X156954759Y-57897134D01*
X156949786Y-57891123D01*
X156931159Y-57873631D01*
X156899364Y-57843773D01*
X156888919Y-57833328D01*
X156878475Y-57822883D01*
X156872986Y-57818625D01*
X156868561Y-57814847D01*
X156834582Y-57782938D01*
X156834580Y-57782936D01*
X156834577Y-57782935D01*
X156817029Y-57773288D01*
X156800763Y-57762604D01*
X156784933Y-57750325D01*
X156742168Y-57731818D01*
X156736922Y-57729248D01*
X156696093Y-57706803D01*
X156696092Y-57706802D01*
X156676693Y-57701822D01*
X156658281Y-57695518D01*
X156639898Y-57687562D01*
X156639892Y-57687560D01*
X156593874Y-57680272D01*
X156588152Y-57679087D01*
X156543021Y-57667500D01*
X156543019Y-57667500D01*
X156522984Y-57667500D01*
X156503586Y-57665973D01*
X156496162Y-57664797D01*
X156483805Y-57662840D01*
X156483804Y-57662840D01*
X156437416Y-57667225D01*
X156431578Y-57667500D01*
X131273743Y-57667500D01*
X131258122Y-57665775D01*
X131258095Y-57666061D01*
X131250333Y-57665326D01*
X131181172Y-57667500D01*
X131151649Y-57667500D01*
X131144778Y-57668367D01*
X131138959Y-57668825D01*
X131092374Y-57670289D01*
X131092368Y-57670290D01*
X131073126Y-57675880D01*
X131054087Y-57679823D01*
X131034217Y-57682334D01*
X131034200Y-57682338D01*
X130990882Y-57699488D01*
X130985358Y-57701379D01*
X130940607Y-57714383D01*
X130940604Y-57714384D01*
X130923358Y-57724583D01*
X130905893Y-57733139D01*
X130900010Y-57735468D01*
X130887266Y-57740514D01*
X130849572Y-57767899D01*
X130844691Y-57771105D01*
X130804580Y-57794828D01*
X130790408Y-57809000D01*
X130775623Y-57821628D01*
X130759412Y-57833407D01*
X130729709Y-57869310D01*
X130725777Y-57873631D01*
X126344228Y-62255181D01*
X126282905Y-62288666D01*
X126256547Y-62291500D01*
X123387299Y-62291500D01*
X123320260Y-62271815D01*
X123274505Y-62219011D01*
X123263299Y-62167500D01*
X123263299Y-61569129D01*
X123263298Y-61569123D01*
X123263297Y-61569116D01*
X123256891Y-61509517D01*
X123226617Y-61428349D01*
X123206597Y-61374671D01*
X123206593Y-61374664D01*
X123120347Y-61259455D01*
X123120344Y-61259452D01*
X123005135Y-61173206D01*
X123005128Y-61173202D01*
X122870282Y-61122908D01*
X122870283Y-61122908D01*
X122810683Y-61116501D01*
X122810681Y-61116500D01*
X122810673Y-61116500D01*
X122810664Y-61116500D01*
X120114929Y-61116500D01*
X120114923Y-61116501D01*
X120055316Y-61122908D01*
X119920471Y-61173202D01*
X119920464Y-61173206D01*
X119805255Y-61259452D01*
X119805252Y-61259455D01*
X119719006Y-61374664D01*
X119719002Y-61374671D01*
X119668708Y-61509517D01*
X119662301Y-61569116D01*
X119662301Y-61569123D01*
X119662300Y-61569135D01*
X119662300Y-64264870D01*
X119662301Y-64264876D01*
X119668708Y-64324483D01*
X119719002Y-64459328D01*
X119719006Y-64459335D01*
X119805252Y-64574544D01*
X119805255Y-64574547D01*
X119920464Y-64660793D01*
X119920471Y-64660797D01*
X120055317Y-64711091D01*
X120055316Y-64711091D01*
X120062244Y-64711835D01*
X120114927Y-64717500D01*
X122810672Y-64717499D01*
X122870283Y-64711091D01*
X123005131Y-64660796D01*
X123120346Y-64574546D01*
X123206596Y-64459331D01*
X123256891Y-64324483D01*
X123263300Y-64264873D01*
X123263300Y-63666500D01*
X123282985Y-63599461D01*
X123335789Y-63553706D01*
X123387300Y-63542500D01*
X126003896Y-63542500D01*
X126070935Y-63562185D01*
X126116690Y-63614989D01*
X126127896Y-63666500D01*
X126127896Y-65976151D01*
X126108211Y-66043190D01*
X126091577Y-66063832D01*
X124900228Y-67255181D01*
X124838905Y-67288666D01*
X124812547Y-67291500D01*
X123236055Y-67291500D01*
X123169016Y-67271815D01*
X123123261Y-67219011D01*
X123120627Y-67212803D01*
X123089543Y-67133603D01*
X123089543Y-67133602D01*
X122954615Y-66899898D01*
X122786361Y-66688915D01*
X122786360Y-66688914D01*
X122786357Y-66688910D01*
X122588541Y-66505365D01*
X122476210Y-66428779D01*
X122365575Y-66353349D01*
X122365569Y-66353346D01*
X122365568Y-66353345D01*
X122365567Y-66353344D01*
X122122443Y-66236263D01*
X122122445Y-66236263D01*
X121864573Y-66156720D01*
X121864567Y-66156718D01*
X121597736Y-66116500D01*
X121597729Y-66116500D01*
X121327871Y-66116500D01*
X121327863Y-66116500D01*
X121061032Y-66156718D01*
X121061026Y-66156720D01*
X120803158Y-66236262D01*
X120560030Y-66353346D01*
X120337058Y-66505365D01*
X120139242Y-66688910D01*
X119970985Y-66899898D01*
X119836058Y-67133599D01*
X119836056Y-67133603D01*
X119737466Y-67384804D01*
X119737464Y-67384811D01*
X119677416Y-67647898D01*
X119657251Y-67916995D01*
X119657251Y-67917004D01*
X119677416Y-68186101D01*
X119737464Y-68449188D01*
X119737466Y-68449195D01*
X119804972Y-68621197D01*
X119836057Y-68700398D01*
X119970985Y-68934102D01*
X120084265Y-69076150D01*
X120139242Y-69145089D01*
X120325983Y-69318358D01*
X120337059Y-69328635D01*
X120560026Y-69480651D01*
X120803159Y-69597738D01*
X121061028Y-69677280D01*
X121061029Y-69677280D01*
X121061032Y-69677281D01*
X121327863Y-69717499D01*
X121327868Y-69717499D01*
X121327871Y-69717500D01*
X121327872Y-69717500D01*
X121597728Y-69717500D01*
X121597729Y-69717500D01*
X121597736Y-69717499D01*
X121864567Y-69677281D01*
X121864568Y-69677280D01*
X121864572Y-69677280D01*
X122122441Y-69597738D01*
X122365575Y-69480651D01*
X122588541Y-69328635D01*
X122786361Y-69145085D01*
X122954615Y-68934102D01*
X123089543Y-68700398D01*
X123120627Y-68621195D01*
X123163443Y-68565984D01*
X123229313Y-68542683D01*
X123236055Y-68542500D01*
X125040257Y-68542500D01*
X125055877Y-68544224D01*
X125055904Y-68543939D01*
X125063660Y-68544671D01*
X125063667Y-68544673D01*
X125132814Y-68542500D01*
X125162350Y-68542500D01*
X125169228Y-68541630D01*
X125175041Y-68541172D01*
X125221627Y-68539709D01*
X125240869Y-68534117D01*
X125259912Y-68530174D01*
X125279792Y-68527664D01*
X125323122Y-68510507D01*
X125328646Y-68508617D01*
X125332396Y-68507527D01*
X125373390Y-68495618D01*
X125390629Y-68485422D01*
X125408103Y-68476862D01*
X125426727Y-68469488D01*
X125426727Y-68469487D01*
X125426732Y-68469486D01*
X125464449Y-68442082D01*
X125469305Y-68438892D01*
X125509420Y-68415170D01*
X125523589Y-68400999D01*
X125538379Y-68388368D01*
X125554587Y-68376594D01*
X125584299Y-68340676D01*
X125588212Y-68336376D01*
X126366216Y-67558373D01*
X126427538Y-67524889D01*
X126497230Y-67529873D01*
X126553163Y-67571745D01*
X126577580Y-67637209D01*
X126577896Y-67646055D01*
X126577896Y-71865950D01*
X126558211Y-71932989D01*
X126541577Y-71953631D01*
X122276789Y-76218418D01*
X122215466Y-76251903D01*
X122145774Y-76246919D01*
X122135311Y-76242459D01*
X122122445Y-76236263D01*
X121864573Y-76156720D01*
X121864567Y-76156718D01*
X121597736Y-76116500D01*
X121597729Y-76116500D01*
X121327871Y-76116500D01*
X121327863Y-76116500D01*
X121061032Y-76156718D01*
X121061026Y-76156720D01*
X120803158Y-76236262D01*
X120560030Y-76353346D01*
X120337058Y-76505365D01*
X120139242Y-76688910D01*
X119970985Y-76899898D01*
X119836058Y-77133599D01*
X119836056Y-77133603D01*
X119737466Y-77384804D01*
X119737464Y-77384811D01*
X119677416Y-77647898D01*
X119657251Y-77916995D01*
X119657251Y-77917004D01*
X119677416Y-78186101D01*
X119737464Y-78449188D01*
X119737466Y-78449195D01*
X119803521Y-78617500D01*
X119836057Y-78700398D01*
X119970985Y-78934102D01*
X120030795Y-79009101D01*
X120139242Y-79145089D01*
X120325983Y-79318358D01*
X120337059Y-79328635D01*
X120560026Y-79480651D01*
X120803159Y-79597738D01*
X121061028Y-79677280D01*
X121061029Y-79677280D01*
X121061032Y-79677281D01*
X121327863Y-79717499D01*
X121327868Y-79717499D01*
X121327871Y-79717500D01*
X121327872Y-79717500D01*
X121597728Y-79717500D01*
X121597729Y-79717500D01*
X121597736Y-79717499D01*
X121864567Y-79677281D01*
X121864568Y-79677280D01*
X121864572Y-79677280D01*
X122122441Y-79597738D01*
X122365575Y-79480651D01*
X122588541Y-79328635D01*
X122786361Y-79145085D01*
X122954615Y-78934102D01*
X123089543Y-78700398D01*
X123188134Y-78449195D01*
X123248183Y-78186103D01*
X123254905Y-78096402D01*
X123268349Y-77917004D01*
X123268349Y-77916995D01*
X123248183Y-77647898D01*
X123248183Y-77647897D01*
X123188134Y-77384805D01*
X123130829Y-77238795D01*
X123124660Y-77169199D01*
X123157098Y-77107315D01*
X123158516Y-77105872D01*
X125685518Y-74578870D01*
X134043500Y-74578870D01*
X134043501Y-74578876D01*
X134049908Y-74638483D01*
X134100202Y-74773328D01*
X134100206Y-74773335D01*
X134186452Y-74888544D01*
X134186455Y-74888547D01*
X134301664Y-74974793D01*
X134301671Y-74974797D01*
X134436517Y-75025091D01*
X134436516Y-75025091D01*
X134443444Y-75025835D01*
X134496127Y-75031500D01*
X137791872Y-75031499D01*
X137851483Y-75025091D01*
X137986331Y-74974796D01*
X138101546Y-74888546D01*
X138187796Y-74773331D01*
X138238091Y-74638483D01*
X138244500Y-74578873D01*
X138244499Y-71283128D01*
X138238091Y-71223517D01*
X138226149Y-71191500D01*
X138187797Y-71088671D01*
X138187793Y-71088664D01*
X138101547Y-70973455D01*
X138101544Y-70973452D01*
X137986335Y-70887206D01*
X137986328Y-70887202D01*
X137851482Y-70836908D01*
X137851483Y-70836908D01*
X137791883Y-70830501D01*
X137791881Y-70830500D01*
X137791873Y-70830500D01*
X137791864Y-70830500D01*
X134496129Y-70830500D01*
X134496123Y-70830501D01*
X134436516Y-70836908D01*
X134301671Y-70887202D01*
X134301664Y-70887206D01*
X134186455Y-70973452D01*
X134186452Y-70973455D01*
X134100206Y-71088664D01*
X134100202Y-71088671D01*
X134049908Y-71223517D01*
X134043501Y-71283116D01*
X134043501Y-71283123D01*
X134043500Y-71283135D01*
X134043500Y-74578870D01*
X125685518Y-74578870D01*
X127587182Y-72677206D01*
X127599444Y-72667384D01*
X127599261Y-72667163D01*
X127605263Y-72662196D01*
X127605273Y-72662190D01*
X127652637Y-72611752D01*
X127673516Y-72590874D01*
X127677769Y-72585390D01*
X127681546Y-72580967D01*
X127713458Y-72546986D01*
X127723110Y-72529427D01*
X127733785Y-72513176D01*
X127746070Y-72497340D01*
X127764582Y-72454556D01*
X127767138Y-72449339D01*
X127789593Y-72408496D01*
X127794576Y-72389084D01*
X127800873Y-72370695D01*
X127808834Y-72352299D01*
X127816125Y-72306257D01*
X127817304Y-72300566D01*
X127828896Y-72255423D01*
X127828896Y-72235387D01*
X127830423Y-72215986D01*
X127833556Y-72196208D01*
X127829171Y-72149819D01*
X127828896Y-72143981D01*
X127828896Y-67992004D01*
X149709753Y-67992004D01*
X149729913Y-68261026D01*
X149729913Y-68261028D01*
X149789942Y-68524033D01*
X149789948Y-68524052D01*
X149888509Y-68775181D01*
X149888508Y-68775181D01*
X150023402Y-69008822D01*
X150077094Y-69076151D01*
X150077095Y-69076151D01*
X150912252Y-68240993D01*
X150921988Y-68270956D01*
X151009986Y-68409619D01*
X151129703Y-68522040D01*
X151264310Y-68596041D01*
X150429648Y-69430702D01*
X150612283Y-69555220D01*
X150612285Y-69555221D01*
X150855339Y-69672269D01*
X150855337Y-69672269D01*
X151113137Y-69751790D01*
X151113143Y-69751792D01*
X151379901Y-69791999D01*
X151379910Y-69792000D01*
X151649690Y-69792000D01*
X151649698Y-69791999D01*
X151916456Y-69751792D01*
X151916462Y-69751790D01*
X152174261Y-69672269D01*
X152417321Y-69555218D01*
X152599950Y-69430702D01*
X151762334Y-68593086D01*
X151830429Y-68566126D01*
X151963292Y-68469595D01*
X152067975Y-68343055D01*
X152116431Y-68240079D01*
X152952503Y-69076151D01*
X152952504Y-69076150D01*
X153006193Y-69008828D01*
X153006200Y-69008817D01*
X153141090Y-68775181D01*
X153239651Y-68524052D01*
X153239657Y-68524033D01*
X153299686Y-68261028D01*
X153299686Y-68261026D01*
X153319847Y-67992004D01*
X153319847Y-67991995D01*
X153299686Y-67722973D01*
X153299686Y-67722971D01*
X153239657Y-67459966D01*
X153239651Y-67459947D01*
X153141090Y-67208818D01*
X153141091Y-67208818D01*
X153006197Y-66975177D01*
X152952504Y-66907847D01*
X152117346Y-67743004D01*
X152107612Y-67713044D01*
X152019614Y-67574381D01*
X151899897Y-67461960D01*
X151765289Y-67387958D01*
X152599950Y-66553296D01*
X152417317Y-66428779D01*
X152417316Y-66428778D01*
X152174260Y-66311730D01*
X152174262Y-66311730D01*
X151916462Y-66232209D01*
X151916456Y-66232207D01*
X151649698Y-66192000D01*
X151379901Y-66192000D01*
X151113143Y-66232207D01*
X151113137Y-66232209D01*
X150855338Y-66311730D01*
X150612285Y-66428778D01*
X150612276Y-66428783D01*
X150429648Y-66553296D01*
X151267265Y-67390913D01*
X151199171Y-67417874D01*
X151066308Y-67514405D01*
X150961625Y-67640945D01*
X150913168Y-67743921D01*
X150077095Y-66907848D01*
X150023400Y-66975180D01*
X149888509Y-67208818D01*
X149789948Y-67459947D01*
X149789942Y-67459966D01*
X149729913Y-67722971D01*
X149729913Y-67722973D01*
X149709753Y-67991995D01*
X149709753Y-67992004D01*
X127828896Y-67992004D01*
X127828896Y-63863848D01*
X127848581Y-63796809D01*
X127865215Y-63776167D01*
X128649378Y-62992004D01*
X149709251Y-62992004D01*
X149729416Y-63261101D01*
X149789464Y-63524188D01*
X149789466Y-63524195D01*
X149888056Y-63775396D01*
X149888058Y-63775400D01*
X149909470Y-63812486D01*
X150022985Y-64009102D01*
X150158880Y-64179509D01*
X150191242Y-64220089D01*
X150303752Y-64324482D01*
X150389059Y-64403635D01*
X150612026Y-64555651D01*
X150855159Y-64672738D01*
X151113028Y-64752280D01*
X151113029Y-64752280D01*
X151113032Y-64752281D01*
X151379863Y-64792499D01*
X151379868Y-64792499D01*
X151379871Y-64792500D01*
X151379872Y-64792500D01*
X151649728Y-64792500D01*
X151649729Y-64792500D01*
X151649736Y-64792499D01*
X151916567Y-64752281D01*
X151916568Y-64752280D01*
X151916572Y-64752280D01*
X152174441Y-64672738D01*
X152417575Y-64555651D01*
X152640541Y-64403635D01*
X152838361Y-64220085D01*
X153006615Y-64009102D01*
X153141543Y-63775398D01*
X153240134Y-63524195D01*
X153300183Y-63261103D01*
X153320349Y-62992000D01*
X153300183Y-62722897D01*
X153240134Y-62459805D01*
X153141543Y-62208602D01*
X153006615Y-61974898D01*
X152838361Y-61763915D01*
X152838360Y-61763914D01*
X152838357Y-61763910D01*
X152640541Y-61580365D01*
X152536626Y-61509517D01*
X152417575Y-61428349D01*
X152417569Y-61428346D01*
X152417568Y-61428345D01*
X152417567Y-61428344D01*
X152174443Y-61311263D01*
X152174445Y-61311263D01*
X151916573Y-61231720D01*
X151916567Y-61231718D01*
X151649736Y-61191500D01*
X151649729Y-61191500D01*
X151379871Y-61191500D01*
X151379863Y-61191500D01*
X151113032Y-61231718D01*
X151113026Y-61231720D01*
X150855158Y-61311262D01*
X150612030Y-61428346D01*
X150389058Y-61580365D01*
X150191242Y-61763910D01*
X150022985Y-61974898D01*
X149888058Y-62208599D01*
X149888056Y-62208603D01*
X149789466Y-62459804D01*
X149789464Y-62459811D01*
X149729416Y-62722898D01*
X149709251Y-62991995D01*
X149709251Y-62992004D01*
X128649378Y-62992004D01*
X131786564Y-59854819D01*
X131847887Y-59821334D01*
X131874245Y-59818500D01*
X155780756Y-59818500D01*
X155847795Y-59838185D01*
X155868437Y-59854819D01*
X157315181Y-61301563D01*
X157348666Y-61362886D01*
X157351500Y-61389244D01*
X157351500Y-80218547D01*
X157331815Y-80285586D01*
X157315181Y-80306228D01*
X155291228Y-82330181D01*
X155229905Y-82363666D01*
X155203547Y-82366500D01*
X153288055Y-82366500D01*
X153221016Y-82346815D01*
X153175261Y-82294011D01*
X153172627Y-82287803D01*
X153141543Y-82208602D01*
X153006615Y-81974898D01*
X152838361Y-81763915D01*
X152838360Y-81763914D01*
X152838357Y-81763910D01*
X152640541Y-81580365D01*
X152530536Y-81505365D01*
X152417575Y-81428349D01*
X152417569Y-81428346D01*
X152417568Y-81428345D01*
X152417567Y-81428344D01*
X152174443Y-81311263D01*
X152174445Y-81311263D01*
X151916573Y-81231720D01*
X151916567Y-81231718D01*
X151649736Y-81191500D01*
X151649729Y-81191500D01*
X151379871Y-81191500D01*
X151379863Y-81191500D01*
X151113032Y-81231718D01*
X151113026Y-81231720D01*
X150855158Y-81311262D01*
X150612030Y-81428346D01*
X150389058Y-81580365D01*
X150191242Y-81763910D01*
X150022985Y-81974898D01*
X149888058Y-82208599D01*
X149856973Y-82287803D01*
X149814157Y-82343016D01*
X149748287Y-82366317D01*
X149741545Y-82366500D01*
X143480452Y-82366500D01*
X143413413Y-82346815D01*
X143367658Y-82294011D01*
X143357714Y-82224853D01*
X143386739Y-82161297D01*
X143392771Y-82154819D01*
X146893771Y-78653819D01*
X146955094Y-78620334D01*
X146981452Y-78617500D01*
X149741545Y-78617500D01*
X149808584Y-78637185D01*
X149854339Y-78689989D01*
X149856967Y-78696184D01*
X149888057Y-78775398D01*
X150022985Y-79009102D01*
X150158880Y-79179509D01*
X150191242Y-79220089D01*
X150308227Y-79328634D01*
X150389059Y-79403635D01*
X150612026Y-79555651D01*
X150855159Y-79672738D01*
X151113028Y-79752280D01*
X151113029Y-79752280D01*
X151113032Y-79752281D01*
X151379863Y-79792499D01*
X151379868Y-79792499D01*
X151379871Y-79792500D01*
X151379872Y-79792500D01*
X151649728Y-79792500D01*
X151649729Y-79792500D01*
X151649736Y-79792499D01*
X151916567Y-79752281D01*
X151916568Y-79752280D01*
X151916572Y-79752280D01*
X152174441Y-79672738D01*
X152417575Y-79555651D01*
X152640541Y-79403635D01*
X152838361Y-79220085D01*
X153006615Y-79009102D01*
X153141543Y-78775398D01*
X153240134Y-78524195D01*
X153300183Y-78261103D01*
X153320349Y-77992000D01*
X153314728Y-77916995D01*
X153300183Y-77722898D01*
X153283065Y-77647898D01*
X153240134Y-77459805D01*
X153141543Y-77208602D01*
X153006615Y-76974898D01*
X152838361Y-76763915D01*
X152838360Y-76763914D01*
X152838357Y-76763910D01*
X152640541Y-76580365D01*
X152530536Y-76505365D01*
X152417575Y-76428349D01*
X152417569Y-76428346D01*
X152417568Y-76428345D01*
X152417567Y-76428344D01*
X152174443Y-76311263D01*
X152174445Y-76311263D01*
X151916573Y-76231720D01*
X151916567Y-76231718D01*
X151649736Y-76191500D01*
X151649729Y-76191500D01*
X151379871Y-76191500D01*
X151379863Y-76191500D01*
X151113032Y-76231718D01*
X151113026Y-76231720D01*
X150855158Y-76311262D01*
X150612030Y-76428346D01*
X150389058Y-76580365D01*
X150191242Y-76763910D01*
X150022985Y-76974898D01*
X149888058Y-77208599D01*
X149856973Y-77287803D01*
X149814157Y-77343016D01*
X149748287Y-77366317D01*
X149741545Y-77366500D01*
X147844057Y-77366500D01*
X147777018Y-77346815D01*
X147731263Y-77294011D01*
X147721319Y-77224853D01*
X147750344Y-77161297D01*
X147756376Y-77154819D01*
X148405830Y-76505365D01*
X150386875Y-74524318D01*
X150448196Y-74490835D01*
X150517888Y-74495819D01*
X150544403Y-74509546D01*
X150612026Y-74555651D01*
X150855159Y-74672738D01*
X151113028Y-74752280D01*
X151113029Y-74752280D01*
X151113032Y-74752281D01*
X151379863Y-74792499D01*
X151379868Y-74792499D01*
X151379871Y-74792500D01*
X151379872Y-74792500D01*
X151649728Y-74792500D01*
X151649729Y-74792500D01*
X151649736Y-74792499D01*
X151916567Y-74752281D01*
X151916568Y-74752280D01*
X151916572Y-74752280D01*
X152174441Y-74672738D01*
X152417575Y-74555651D01*
X152640541Y-74403635D01*
X152838361Y-74220085D01*
X153006615Y-74009102D01*
X153141543Y-73775398D01*
X153240134Y-73524195D01*
X153300183Y-73261103D01*
X153320349Y-72992000D01*
X153314728Y-72916995D01*
X153300183Y-72722898D01*
X153287545Y-72667527D01*
X153240134Y-72459805D01*
X153141543Y-72208602D01*
X153006615Y-71974898D01*
X152838361Y-71763915D01*
X152838360Y-71763914D01*
X152838357Y-71763910D01*
X152640541Y-71580365D01*
X152530536Y-71505365D01*
X152417575Y-71428349D01*
X152417569Y-71428346D01*
X152417568Y-71428345D01*
X152417567Y-71428344D01*
X152174443Y-71311263D01*
X152174445Y-71311263D01*
X151916573Y-71231720D01*
X151916567Y-71231718D01*
X151649736Y-71191500D01*
X151649729Y-71191500D01*
X151379871Y-71191500D01*
X151379863Y-71191500D01*
X151113032Y-71231718D01*
X151113026Y-71231720D01*
X150855158Y-71311262D01*
X150612030Y-71428346D01*
X150389058Y-71580365D01*
X150191242Y-71763910D01*
X150022985Y-71974898D01*
X149888058Y-72208599D01*
X149888056Y-72208603D01*
X149789466Y-72459804D01*
X149789464Y-72459811D01*
X149729416Y-72722898D01*
X149709251Y-72991995D01*
X149709251Y-72992004D01*
X149729416Y-73261101D01*
X149729416Y-73261103D01*
X149742318Y-73317630D01*
X149738045Y-73387369D01*
X149709108Y-73432903D01*
X123540208Y-99601803D01*
X123527951Y-99611624D01*
X123528134Y-99611845D01*
X123522123Y-99616817D01*
X123474772Y-99667240D01*
X123453889Y-99688123D01*
X123453877Y-99688136D01*
X123449621Y-99693621D01*
X123445837Y-99698051D01*
X123413937Y-99732022D01*
X123413936Y-99732024D01*
X123404284Y-99749580D01*
X123393610Y-99765830D01*
X123381329Y-99781665D01*
X123381324Y-99781672D01*
X123362815Y-99824442D01*
X123360245Y-99829688D01*
X123337803Y-99870510D01*
X123332822Y-99889911D01*
X123326521Y-99908314D01*
X123318562Y-99926706D01*
X123318561Y-99926709D01*
X123311271Y-99972731D01*
X123310087Y-99978450D01*
X123298501Y-100023576D01*
X123298500Y-100023586D01*
X123298500Y-100043620D01*
X123296973Y-100063019D01*
X123293840Y-100082798D01*
X123293840Y-100082799D01*
X123298225Y-100129187D01*
X123298500Y-100135025D01*
X123298500Y-107444906D01*
X123278815Y-107511945D01*
X123228302Y-107556626D01*
X123021230Y-107656346D01*
X122798258Y-107808365D01*
X122600442Y-107991910D01*
X122432185Y-108202898D01*
X122297258Y-108436599D01*
X122297256Y-108436603D01*
X122198666Y-108687804D01*
X122198664Y-108687811D01*
X122138616Y-108950898D01*
X122118451Y-109219995D01*
X122118451Y-109220004D01*
X122138616Y-109489101D01*
X122198664Y-109752188D01*
X122198666Y-109752195D01*
X122297256Y-110003396D01*
X122297258Y-110003400D01*
X122306887Y-110020078D01*
X122432185Y-110237102D01*
X122485655Y-110304151D01*
X122600442Y-110448089D01*
X122787183Y-110621358D01*
X122798259Y-110631635D01*
X123021226Y-110783651D01*
X123264359Y-110900738D01*
X123522228Y-110980280D01*
X123522229Y-110980280D01*
X123522232Y-110980281D01*
X123789063Y-111020499D01*
X123789068Y-111020499D01*
X123789071Y-111020500D01*
X123789072Y-111020500D01*
X124058928Y-111020500D01*
X124058929Y-111020500D01*
X124058936Y-111020499D01*
X124325767Y-110980281D01*
X124325768Y-110980280D01*
X124325772Y-110980280D01*
X124583641Y-110900738D01*
X124775765Y-110808216D01*
X124826767Y-110783655D01*
X124826767Y-110783654D01*
X124826775Y-110783651D01*
X125049741Y-110631635D01*
X125247561Y-110448085D01*
X125415815Y-110237102D01*
X125508113Y-110077236D01*
X125558680Y-110029021D01*
X125627287Y-110015797D01*
X125692152Y-110041765D01*
X125732680Y-110098679D01*
X125739500Y-110139236D01*
X125739500Y-111703547D01*
X125719815Y-111770586D01*
X125703181Y-111791228D01*
X125253228Y-112241181D01*
X125191905Y-112274666D01*
X125165547Y-112277500D01*
X119690453Y-112277500D01*
X119623414Y-112257815D01*
X119602772Y-112241181D01*
X119585819Y-112224228D01*
X119552334Y-112162905D01*
X119549500Y-112136547D01*
X119549500Y-111144499D01*
X119569185Y-111077460D01*
X119621989Y-111031705D01*
X119673500Y-111020499D01*
X120271871Y-111020499D01*
X120271872Y-111020499D01*
X120331483Y-111014091D01*
X120466331Y-110963796D01*
X120581546Y-110877546D01*
X120667796Y-110762331D01*
X120718091Y-110627483D01*
X120724500Y-110567873D01*
X120724499Y-107872128D01*
X120718091Y-107812517D01*
X120716542Y-107808365D01*
X120667797Y-107677671D01*
X120667793Y-107677664D01*
X120581547Y-107562455D01*
X120581544Y-107562452D01*
X120466335Y-107476206D01*
X120466328Y-107476202D01*
X120331482Y-107425908D01*
X120331483Y-107425908D01*
X120271883Y-107419501D01*
X120271881Y-107419500D01*
X120271873Y-107419500D01*
X120271864Y-107419500D01*
X117576129Y-107419500D01*
X117576123Y-107419501D01*
X117516516Y-107425908D01*
X117381671Y-107476202D01*
X117381664Y-107476206D01*
X117266455Y-107562452D01*
X117266452Y-107562455D01*
X117180206Y-107677664D01*
X117180202Y-107677671D01*
X117129908Y-107812517D01*
X117123501Y-107872116D01*
X117123501Y-107872123D01*
X117123500Y-107872135D01*
X117123500Y-110567870D01*
X117123501Y-110567876D01*
X117129908Y-110627483D01*
X117180202Y-110762328D01*
X117180206Y-110762335D01*
X117266452Y-110877544D01*
X117266455Y-110877547D01*
X117381664Y-110963793D01*
X117381671Y-110963797D01*
X117424551Y-110979790D01*
X117516517Y-111014091D01*
X117576127Y-111020500D01*
X118174500Y-111020499D01*
X118241539Y-111040183D01*
X118287294Y-111092987D01*
X118298500Y-111144499D01*
X118298500Y-112364255D01*
X118296775Y-112379872D01*
X118297061Y-112379899D01*
X118296326Y-112387665D01*
X118298500Y-112456814D01*
X118298500Y-112486343D01*
X118298501Y-112486360D01*
X118299368Y-112493231D01*
X118299826Y-112499050D01*
X118301290Y-112545624D01*
X118301291Y-112545627D01*
X118306880Y-112564867D01*
X118310824Y-112583911D01*
X118313336Y-112603791D01*
X118330490Y-112647119D01*
X118332382Y-112652647D01*
X118345381Y-112697388D01*
X118355580Y-112714634D01*
X118364138Y-112732103D01*
X118371514Y-112750732D01*
X118398898Y-112788423D01*
X118402106Y-112793307D01*
X118425827Y-112833416D01*
X118425833Y-112833424D01*
X118439990Y-112847580D01*
X118452628Y-112862376D01*
X118464405Y-112878586D01*
X118464406Y-112878587D01*
X118500309Y-112908288D01*
X118504620Y-112912210D01*
X118879194Y-113286784D01*
X118889017Y-113299045D01*
X118889239Y-113298863D01*
X118894212Y-113304875D01*
X118944636Y-113352227D01*
X118965523Y-113373115D01*
X118965527Y-113373118D01*
X118965529Y-113373120D01*
X118971011Y-113377373D01*
X118975443Y-113381157D01*
X119009418Y-113413062D01*
X119026976Y-113422714D01*
X119043235Y-113433395D01*
X119059064Y-113445673D01*
X119101838Y-113464182D01*
X119107056Y-113466738D01*
X119147908Y-113489197D01*
X119167316Y-113494180D01*
X119185717Y-113500480D01*
X119204104Y-113508437D01*
X119247488Y-113515308D01*
X119250119Y-113515725D01*
X119255839Y-113516909D01*
X119300981Y-113528500D01*
X119321016Y-113528500D01*
X119340414Y-113530026D01*
X119360194Y-113533159D01*
X119360195Y-113533160D01*
X119360195Y-113533159D01*
X119360196Y-113533160D01*
X119406584Y-113528775D01*
X119412422Y-113528500D01*
X125393257Y-113528500D01*
X125408877Y-113530224D01*
X125408904Y-113529939D01*
X125416660Y-113530671D01*
X125416667Y-113530673D01*
X125485814Y-113528500D01*
X125515350Y-113528500D01*
X125522228Y-113527630D01*
X125528041Y-113527172D01*
X125574627Y-113525709D01*
X125593869Y-113520117D01*
X125612912Y-113516174D01*
X125632792Y-113513664D01*
X125676122Y-113496507D01*
X125681646Y-113494617D01*
X125685396Y-113493527D01*
X125726390Y-113481618D01*
X125743629Y-113471422D01*
X125761103Y-113462862D01*
X125779727Y-113455488D01*
X125779727Y-113455487D01*
X125779732Y-113455486D01*
X125817449Y-113428082D01*
X125822305Y-113424892D01*
X125862420Y-113401170D01*
X125876589Y-113386999D01*
X125891379Y-113374368D01*
X125907587Y-113362594D01*
X125937299Y-113326676D01*
X125941212Y-113322376D01*
X126748787Y-112514802D01*
X126761042Y-112504986D01*
X126760859Y-112504764D01*
X126766866Y-112499792D01*
X126766877Y-112499786D01*
X126797775Y-112466882D01*
X126814227Y-112449364D01*
X126824671Y-112438918D01*
X126835120Y-112428471D01*
X126839379Y-112422978D01*
X126843152Y-112418561D01*
X126875062Y-112384582D01*
X126884715Y-112367020D01*
X126895389Y-112350770D01*
X126907673Y-112334936D01*
X126926180Y-112292167D01*
X126928749Y-112286924D01*
X126951196Y-112246093D01*
X126951197Y-112246092D01*
X126956177Y-112226691D01*
X126962478Y-112208288D01*
X126970438Y-112189896D01*
X126977730Y-112143849D01*
X126978911Y-112138152D01*
X126979323Y-112136547D01*
X126990500Y-112093019D01*
X126990500Y-112072983D01*
X126992027Y-112053582D01*
X126995160Y-112033804D01*
X126990775Y-111987415D01*
X126990500Y-111981577D01*
X126990500Y-109877151D01*
X127010185Y-109810112D01*
X127062989Y-109764357D01*
X127132147Y-109754413D01*
X127195703Y-109783438D01*
X127229927Y-109831847D01*
X127238851Y-109854583D01*
X127297256Y-110003396D01*
X127297258Y-110003400D01*
X127306887Y-110020078D01*
X127432185Y-110237102D01*
X127485655Y-110304151D01*
X127600442Y-110448089D01*
X127787183Y-110621358D01*
X127798259Y-110631635D01*
X128021226Y-110783651D01*
X128264359Y-110900738D01*
X128522228Y-110980280D01*
X128522229Y-110980280D01*
X128522232Y-110980281D01*
X128789063Y-111020499D01*
X128789068Y-111020499D01*
X128789071Y-111020500D01*
X128789072Y-111020500D01*
X129058928Y-111020500D01*
X129058929Y-111020500D01*
X129058936Y-111020499D01*
X129325767Y-110980281D01*
X129325768Y-110980280D01*
X129325772Y-110980280D01*
X129583641Y-110900738D01*
X129775765Y-110808216D01*
X129826767Y-110783655D01*
X129826767Y-110783654D01*
X129826775Y-110783651D01*
X130049741Y-110631635D01*
X130247561Y-110448085D01*
X130415815Y-110237102D01*
X130550743Y-110003398D01*
X130649334Y-109752195D01*
X130709383Y-109489103D01*
X130729549Y-109220000D01*
X130726466Y-109178862D01*
X130709389Y-108950973D01*
X130709383Y-108950897D01*
X130649334Y-108687805D01*
X130550743Y-108436602D01*
X130415815Y-108202898D01*
X130247561Y-107991915D01*
X130247560Y-107991914D01*
X130247557Y-107991910D01*
X130049741Y-107808365D01*
X129911657Y-107714221D01*
X129826775Y-107656349D01*
X129826769Y-107656346D01*
X129826768Y-107656345D01*
X129826767Y-107656344D01*
X129583643Y-107539263D01*
X129583645Y-107539263D01*
X129325773Y-107459720D01*
X129325767Y-107459718D01*
X129058936Y-107419500D01*
X129058929Y-107419500D01*
X128789071Y-107419500D01*
X128789063Y-107419500D01*
X128522232Y-107459718D01*
X128522226Y-107459720D01*
X128264358Y-107539262D01*
X128021230Y-107656346D01*
X127798258Y-107808365D01*
X127600442Y-107991910D01*
X127432185Y-108202898D01*
X127297258Y-108436599D01*
X127297256Y-108436603D01*
X127229928Y-108608151D01*
X127187112Y-108663364D01*
X127121242Y-108686665D01*
X127053231Y-108670654D01*
X127004673Y-108620416D01*
X126990500Y-108562848D01*
X126990500Y-98608452D01*
X127010185Y-98541413D01*
X127026819Y-98520771D01*
X131115819Y-94431771D01*
X131177142Y-94398286D01*
X131246834Y-94403270D01*
X131302767Y-94445142D01*
X131327184Y-94510606D01*
X131327500Y-94519452D01*
X131327500Y-107166255D01*
X131325775Y-107181872D01*
X131326061Y-107181899D01*
X131325326Y-107189665D01*
X131327500Y-107258814D01*
X131327500Y-107288343D01*
X131327501Y-107288360D01*
X131328368Y-107295231D01*
X131328826Y-107301050D01*
X131330290Y-107347624D01*
X131330291Y-107347627D01*
X131335880Y-107366867D01*
X131339824Y-107385911D01*
X131342336Y-107405792D01*
X131352214Y-107430742D01*
X131359490Y-107449119D01*
X131361382Y-107454647D01*
X131374381Y-107499388D01*
X131384580Y-107516634D01*
X131393136Y-107534100D01*
X131395181Y-107539263D01*
X131400514Y-107552732D01*
X131427898Y-107590423D01*
X131431106Y-107595307D01*
X131454827Y-107635416D01*
X131454833Y-107635424D01*
X131468990Y-107649580D01*
X131481628Y-107664376D01*
X131493405Y-107680586D01*
X131493406Y-107680587D01*
X131529309Y-107710288D01*
X131533620Y-107714210D01*
X132228224Y-108408815D01*
X132261708Y-108470136D01*
X132256724Y-108539828D01*
X132255970Y-108541796D01*
X132208258Y-108663364D01*
X132198667Y-108687804D01*
X132198663Y-108687816D01*
X132138616Y-108950898D01*
X132118451Y-109219995D01*
X132118451Y-109220004D01*
X132138616Y-109489101D01*
X132198664Y-109752188D01*
X132198666Y-109752195D01*
X132297256Y-110003396D01*
X132297258Y-110003400D01*
X132306887Y-110020078D01*
X132432185Y-110237102D01*
X132485655Y-110304151D01*
X132600442Y-110448089D01*
X132787183Y-110621358D01*
X132798259Y-110631635D01*
X133021226Y-110783651D01*
X133264359Y-110900738D01*
X133522228Y-110980280D01*
X133522229Y-110980280D01*
X133522232Y-110980281D01*
X133789063Y-111020499D01*
X133789068Y-111020499D01*
X133789071Y-111020500D01*
X133789072Y-111020500D01*
X134058928Y-111020500D01*
X134058929Y-111020500D01*
X134058936Y-111020499D01*
X134325767Y-110980281D01*
X134325768Y-110980280D01*
X134325772Y-110980280D01*
X134583641Y-110900738D01*
X134775765Y-110808216D01*
X134826767Y-110783655D01*
X134826767Y-110783654D01*
X134826775Y-110783651D01*
X135049741Y-110631635D01*
X135247561Y-110448085D01*
X135415815Y-110237102D01*
X135541113Y-110020078D01*
X135591680Y-109971863D01*
X135660287Y-109958639D01*
X135725151Y-109984607D01*
X135765680Y-110041521D01*
X135772500Y-110082078D01*
X135772500Y-112591151D01*
X135752815Y-112658190D01*
X135736181Y-112678832D01*
X132998832Y-115416181D01*
X132937509Y-115449666D01*
X132911151Y-115452500D01*
X116388453Y-115452500D01*
X116321414Y-115432815D01*
X116300772Y-115416181D01*
X115469819Y-114585228D01*
X115436334Y-114523905D01*
X115433500Y-114497547D01*
X115433500Y-97917004D01*
X119657251Y-97917004D01*
X119677416Y-98186101D01*
X119737464Y-98449188D01*
X119737466Y-98449195D01*
X119807919Y-98628706D01*
X119836057Y-98700398D01*
X119970985Y-98934102D01*
X120106880Y-99104509D01*
X120139242Y-99145089D01*
X120325983Y-99318358D01*
X120337059Y-99328635D01*
X120560026Y-99480651D01*
X120803159Y-99597738D01*
X121061028Y-99677280D01*
X121061029Y-99677280D01*
X121061032Y-99677281D01*
X121327863Y-99717499D01*
X121327868Y-99717499D01*
X121327871Y-99717500D01*
X121327872Y-99717500D01*
X121597728Y-99717500D01*
X121597729Y-99717500D01*
X121597736Y-99717499D01*
X121864567Y-99677281D01*
X121864568Y-99677280D01*
X121864572Y-99677280D01*
X122122441Y-99597738D01*
X122365575Y-99480651D01*
X122588541Y-99328635D01*
X122786361Y-99145085D01*
X122954615Y-98934102D01*
X123089543Y-98700398D01*
X123188134Y-98449195D01*
X123248183Y-98186103D01*
X123268349Y-97917000D01*
X123248183Y-97647897D01*
X123188134Y-97384805D01*
X123089543Y-97133602D01*
X122954615Y-96899898D01*
X122786361Y-96688915D01*
X122786360Y-96688914D01*
X122786357Y-96688910D01*
X122588541Y-96505365D01*
X122506850Y-96449669D01*
X122365575Y-96353349D01*
X122365569Y-96353346D01*
X122365568Y-96353345D01*
X122365567Y-96353344D01*
X122122443Y-96236263D01*
X122122445Y-96236263D01*
X121864573Y-96156720D01*
X121864567Y-96156718D01*
X121597736Y-96116500D01*
X121597729Y-96116500D01*
X121327871Y-96116500D01*
X121327863Y-96116500D01*
X121061032Y-96156718D01*
X121061026Y-96156720D01*
X120803158Y-96236262D01*
X120560030Y-96353346D01*
X120337058Y-96505365D01*
X120139242Y-96688910D01*
X119970985Y-96899898D01*
X119836058Y-97133599D01*
X119836056Y-97133603D01*
X119737466Y-97384804D01*
X119737464Y-97384811D01*
X119677416Y-97647898D01*
X119657251Y-97916995D01*
X119657251Y-97917004D01*
X115433500Y-97917004D01*
X115433500Y-92917004D01*
X119657753Y-92917004D01*
X119677913Y-93186026D01*
X119677913Y-93186028D01*
X119737942Y-93449033D01*
X119737948Y-93449052D01*
X119836509Y-93700181D01*
X119836508Y-93700181D01*
X119971402Y-93933822D01*
X120025094Y-94001151D01*
X120025095Y-94001151D01*
X120860252Y-93165993D01*
X120869988Y-93195956D01*
X120957986Y-93334619D01*
X121077703Y-93447040D01*
X121212310Y-93521041D01*
X120377648Y-94355702D01*
X120560283Y-94480220D01*
X120560285Y-94480221D01*
X120803339Y-94597269D01*
X120803337Y-94597269D01*
X121061137Y-94676790D01*
X121061143Y-94676792D01*
X121327901Y-94716999D01*
X121327910Y-94717000D01*
X121597690Y-94717000D01*
X121597698Y-94716999D01*
X121864456Y-94676792D01*
X121864462Y-94676790D01*
X122122261Y-94597269D01*
X122365321Y-94480218D01*
X122547950Y-94355702D01*
X121710334Y-93518086D01*
X121778429Y-93491126D01*
X121911292Y-93394595D01*
X122015975Y-93268055D01*
X122064431Y-93165079D01*
X122900503Y-94001151D01*
X122900504Y-94001150D01*
X122954193Y-93933828D01*
X122954200Y-93933817D01*
X123089090Y-93700181D01*
X123187651Y-93449052D01*
X123187657Y-93449033D01*
X123247686Y-93186028D01*
X123247686Y-93186026D01*
X123267847Y-92917004D01*
X123267847Y-92916995D01*
X123247686Y-92647973D01*
X123247686Y-92647971D01*
X123187657Y-92384966D01*
X123187651Y-92384947D01*
X123089090Y-92133818D01*
X123089091Y-92133818D01*
X122954197Y-91900177D01*
X122900504Y-91832847D01*
X122065346Y-92668004D01*
X122055612Y-92638044D01*
X121967614Y-92499381D01*
X121847897Y-92386960D01*
X121713289Y-92312958D01*
X122547950Y-91478296D01*
X122365317Y-91353779D01*
X122365316Y-91353778D01*
X122122260Y-91236730D01*
X122122262Y-91236730D01*
X121864462Y-91157209D01*
X121864456Y-91157207D01*
X121597698Y-91117000D01*
X121327901Y-91117000D01*
X121061143Y-91157207D01*
X121061137Y-91157209D01*
X120803338Y-91236730D01*
X120560285Y-91353778D01*
X120560276Y-91353783D01*
X120377648Y-91478296D01*
X121215265Y-92315913D01*
X121147171Y-92342874D01*
X121014308Y-92439405D01*
X120909625Y-92565945D01*
X120861168Y-92668921D01*
X120025095Y-91832848D01*
X119971400Y-91900180D01*
X119836509Y-92133818D01*
X119737948Y-92384947D01*
X119737942Y-92384966D01*
X119677913Y-92647971D01*
X119677913Y-92647973D01*
X119657753Y-92916995D01*
X119657753Y-92917004D01*
X115433500Y-92917004D01*
X115433500Y-90518648D01*
X115453185Y-90451609D01*
X115469819Y-90430967D01*
X117321968Y-88578819D01*
X117383291Y-88545334D01*
X117409649Y-88542500D01*
X119689545Y-88542500D01*
X119756584Y-88562185D01*
X119802339Y-88614989D01*
X119804967Y-88621184D01*
X119836057Y-88700398D01*
X119970985Y-88934102D01*
X120030795Y-89009101D01*
X120139242Y-89145089D01*
X120325983Y-89318358D01*
X120337059Y-89328635D01*
X120560026Y-89480651D01*
X120803159Y-89597738D01*
X121061028Y-89677280D01*
X121061029Y-89677280D01*
X121061032Y-89677281D01*
X121327863Y-89717499D01*
X121327868Y-89717499D01*
X121327871Y-89717500D01*
X121327872Y-89717500D01*
X121597728Y-89717500D01*
X121597729Y-89717500D01*
X121597736Y-89717499D01*
X121864567Y-89677281D01*
X121864568Y-89677280D01*
X121864572Y-89677280D01*
X122122441Y-89597738D01*
X122365575Y-89480651D01*
X122588541Y-89328635D01*
X122786361Y-89145085D01*
X122954615Y-88934102D01*
X123089543Y-88700398D01*
X123188134Y-88449195D01*
X123248183Y-88186103D01*
X123254905Y-88096402D01*
X123268349Y-87917004D01*
X123268349Y-87916995D01*
X123248183Y-87647898D01*
X123248183Y-87647897D01*
X123188134Y-87384805D01*
X123089543Y-87133602D01*
X122954615Y-86899898D01*
X122786361Y-86688915D01*
X122786360Y-86688914D01*
X122786357Y-86688910D01*
X122588541Y-86505365D01*
X122365575Y-86353349D01*
X122365569Y-86353346D01*
X122365568Y-86353345D01*
X122365567Y-86353344D01*
X122122443Y-86236263D01*
X122122445Y-86236263D01*
X121864573Y-86156720D01*
X121864567Y-86156718D01*
X121597736Y-86116500D01*
X121597729Y-86116500D01*
X121327871Y-86116500D01*
X121327863Y-86116500D01*
X121061032Y-86156718D01*
X121061026Y-86156720D01*
X120803158Y-86236262D01*
X120560030Y-86353346D01*
X120337058Y-86505365D01*
X120139242Y-86688910D01*
X119970985Y-86899898D01*
X119836058Y-87133599D01*
X119829679Y-87149853D01*
X119806622Y-87208602D01*
X119804973Y-87212803D01*
X119762157Y-87268016D01*
X119696287Y-87291317D01*
X119689545Y-87291500D01*
X118272252Y-87291500D01*
X118205213Y-87271815D01*
X118159458Y-87219011D01*
X118149514Y-87149853D01*
X118178539Y-87086297D01*
X118184571Y-87079819D01*
X118759025Y-86505365D01*
X120648810Y-84615578D01*
X120710131Y-84582095D01*
X120779823Y-84587079D01*
X120790286Y-84591539D01*
X120803159Y-84597738D01*
X121061028Y-84677280D01*
X121061029Y-84677280D01*
X121061032Y-84677281D01*
X121327863Y-84717499D01*
X121327868Y-84717499D01*
X121327871Y-84717500D01*
X121327872Y-84717500D01*
X121597728Y-84717500D01*
X121597729Y-84717500D01*
X121597736Y-84717499D01*
X121864567Y-84677281D01*
X121864568Y-84677280D01*
X121864572Y-84677280D01*
X122122441Y-84597738D01*
X122365575Y-84480651D01*
X122588541Y-84328635D01*
X122786361Y-84145085D01*
X122954615Y-83934102D01*
X123089543Y-83700398D01*
X123188134Y-83449195D01*
X123248183Y-83186103D01*
X123268349Y-82917000D01*
X123248183Y-82647897D01*
X123188134Y-82384805D01*
X123089543Y-82133602D01*
X122954615Y-81899898D01*
X122786361Y-81688915D01*
X122786360Y-81688914D01*
X122786357Y-81688910D01*
X122588541Y-81505365D01*
X122365575Y-81353349D01*
X122365569Y-81353346D01*
X122365568Y-81353345D01*
X122365567Y-81353344D01*
X122122443Y-81236263D01*
X122122445Y-81236263D01*
X121864573Y-81156720D01*
X121864567Y-81156718D01*
X121597736Y-81116500D01*
X121597729Y-81116500D01*
X121327871Y-81116500D01*
X121327863Y-81116500D01*
X121061032Y-81156718D01*
X121061026Y-81156720D01*
X120803158Y-81236262D01*
X120560030Y-81353346D01*
X120337058Y-81505365D01*
X120139242Y-81688910D01*
X119970985Y-81899898D01*
X119836058Y-82133599D01*
X119836056Y-82133603D01*
X119737466Y-82384804D01*
X119737464Y-82384811D01*
X119677416Y-82647898D01*
X119657251Y-82916995D01*
X119657251Y-82917004D01*
X119677416Y-83186101D01*
X119729304Y-83413437D01*
X119737466Y-83449195D01*
X119790223Y-83583617D01*
X119794770Y-83595202D01*
X119800938Y-83664799D01*
X119768500Y-83726682D01*
X119767022Y-83728185D01*
X113974208Y-89520999D01*
X113961951Y-89530820D01*
X113962134Y-89531041D01*
X113956123Y-89536013D01*
X113908772Y-89586436D01*
X113887889Y-89607319D01*
X113887877Y-89607332D01*
X113883621Y-89612817D01*
X113879837Y-89617247D01*
X113847937Y-89651218D01*
X113847936Y-89651220D01*
X113838284Y-89668776D01*
X113827610Y-89685026D01*
X113815329Y-89700861D01*
X113815324Y-89700868D01*
X113796815Y-89743638D01*
X113794245Y-89748884D01*
X113771803Y-89789706D01*
X113766822Y-89809107D01*
X113760521Y-89827510D01*
X113752562Y-89845902D01*
X113752561Y-89845905D01*
X113745271Y-89891927D01*
X113744087Y-89897646D01*
X113732501Y-89942772D01*
X113732500Y-89942782D01*
X113732500Y-89962816D01*
X113730973Y-89982215D01*
X113727840Y-90001994D01*
X113727840Y-90001995D01*
X111760500Y-90001995D01*
X111760500Y-72917004D01*
X119657251Y-72917004D01*
X119677416Y-73186101D01*
X119733747Y-73432903D01*
X119737466Y-73449195D01*
X119836057Y-73700398D01*
X119970985Y-73934102D01*
X120030795Y-74009101D01*
X120139242Y-74145089D01*
X120325983Y-74318358D01*
X120337059Y-74328635D01*
X120560026Y-74480651D01*
X120803159Y-74597738D01*
X121061028Y-74677280D01*
X121061029Y-74677280D01*
X121061032Y-74677281D01*
X121327863Y-74717499D01*
X121327868Y-74717499D01*
X121327871Y-74717500D01*
X121327872Y-74717500D01*
X121597728Y-74717500D01*
X121597729Y-74717500D01*
X121597736Y-74717499D01*
X121864567Y-74677281D01*
X121864568Y-74677280D01*
X121864572Y-74677280D01*
X122122441Y-74597738D01*
X122365575Y-74480651D01*
X122588541Y-74328635D01*
X122786361Y-74145085D01*
X122954615Y-73934102D01*
X123089543Y-73700398D01*
X123188134Y-73449195D01*
X123248183Y-73186103D01*
X123254905Y-73096402D01*
X123268349Y-72917004D01*
X123268349Y-72916995D01*
X123248183Y-72647898D01*
X123225151Y-72546988D01*
X123188134Y-72384805D01*
X123089543Y-72133602D01*
X122954615Y-71899898D01*
X122786361Y-71688915D01*
X122786360Y-71688914D01*
X122786357Y-71688910D01*
X122588541Y-71505365D01*
X122365575Y-71353349D01*
X122365569Y-71353346D01*
X122365568Y-71353345D01*
X122365567Y-71353344D01*
X122122443Y-71236263D01*
X122122445Y-71236263D01*
X121864573Y-71156720D01*
X121864567Y-71156718D01*
X121597736Y-71116500D01*
X121597729Y-71116500D01*
X121327871Y-71116500D01*
X121327863Y-71116500D01*
X121061032Y-71156718D01*
X121061026Y-71156720D01*
X120803158Y-71236262D01*
X120560030Y-71353346D01*
X120337058Y-71505365D01*
X120139242Y-71688910D01*
X119970985Y-71899898D01*
X119836058Y-72133599D01*
X119836056Y-72133603D01*
X119737466Y-72384804D01*
X119737464Y-72384811D01*
X119677416Y-72647898D01*
X119657251Y-72916995D01*
X119657251Y-72917004D01*
X111760500Y-72917004D01*
X111760500Y-51147312D01*
X117653774Y-51147312D01*
X117683545Y-51519270D01*
X117752685Y-51885947D01*
X117860404Y-52243191D01*
X118005491Y-52586970D01*
X118186291Y-52913370D01*
X118186294Y-52913374D01*
X118400769Y-53218713D01*
X118646484Y-53499525D01*
X118823713Y-53663135D01*
X118920656Y-53752629D01*
X119147688Y-53921300D01*
X119220177Y-53975155D01*
X119541655Y-54164584D01*
X119881447Y-54318769D01*
X120235702Y-54435963D01*
X120600408Y-54514838D01*
X120971431Y-54554500D01*
X121251211Y-54554500D01*
X121251213Y-54554500D01*
X121333835Y-54550096D01*
X121530594Y-54539610D01*
X121530598Y-54539609D01*
X121530608Y-54539609D01*
X121898995Y-54480256D01*
X122258986Y-54382083D01*
X122606502Y-54246201D01*
X122937606Y-54074150D01*
X123248547Y-53867880D01*
X123535800Y-53629727D01*
X123796113Y-53362391D01*
X124026534Y-53068899D01*
X124224454Y-52752578D01*
X124387630Y-52417011D01*
X124494449Y-52120804D01*
X131929753Y-52120804D01*
X131949913Y-52389826D01*
X131949913Y-52389828D01*
X132009942Y-52652833D01*
X132009948Y-52652852D01*
X132108509Y-52903981D01*
X132108508Y-52903981D01*
X132243402Y-53137622D01*
X132297094Y-53204951D01*
X132297095Y-53204951D01*
X133132252Y-52369793D01*
X133141988Y-52399756D01*
X133229986Y-52538419D01*
X133349703Y-52650840D01*
X133484310Y-52724841D01*
X132649648Y-53559502D01*
X132832283Y-53684020D01*
X132832285Y-53684021D01*
X133075339Y-53801069D01*
X133075337Y-53801069D01*
X133333137Y-53880590D01*
X133333143Y-53880592D01*
X133599901Y-53920799D01*
X133599910Y-53920800D01*
X133869690Y-53920800D01*
X133869698Y-53920799D01*
X134136456Y-53880592D01*
X134136462Y-53880590D01*
X134394261Y-53801069D01*
X134637321Y-53684018D01*
X134819950Y-53559502D01*
X134729118Y-53468670D01*
X136934300Y-53468670D01*
X136934301Y-53468676D01*
X136940708Y-53528283D01*
X136991002Y-53663128D01*
X136991006Y-53663135D01*
X137077252Y-53778344D01*
X137077255Y-53778347D01*
X137192464Y-53864593D01*
X137192471Y-53864597D01*
X137327317Y-53914891D01*
X137327316Y-53914891D01*
X137334244Y-53915635D01*
X137386927Y-53921300D01*
X140082672Y-53921299D01*
X140142283Y-53914891D01*
X140277131Y-53864596D01*
X140392346Y-53778346D01*
X140478596Y-53663131D01*
X140528891Y-53528283D01*
X140535300Y-53468673D01*
X140535299Y-51147312D01*
X147981374Y-51147312D01*
X148011145Y-51519270D01*
X148080285Y-51885947D01*
X148188004Y-52243191D01*
X148333091Y-52586970D01*
X148513891Y-52913370D01*
X148513894Y-52913374D01*
X148728369Y-53218713D01*
X148974084Y-53499525D01*
X149151313Y-53663135D01*
X149248256Y-53752629D01*
X149475288Y-53921300D01*
X149547777Y-53975155D01*
X149869255Y-54164584D01*
X150209047Y-54318769D01*
X150563302Y-54435963D01*
X150928008Y-54514838D01*
X151299031Y-54554500D01*
X151578811Y-54554500D01*
X151578813Y-54554500D01*
X151661435Y-54550096D01*
X151858194Y-54539610D01*
X151858198Y-54539609D01*
X151858208Y-54539609D01*
X152226595Y-54480256D01*
X152586586Y-54382083D01*
X152934102Y-54246201D01*
X153265206Y-54074150D01*
X153576147Y-53867880D01*
X153863400Y-53629727D01*
X154123713Y-53362391D01*
X154354134Y-53068899D01*
X154552054Y-52752578D01*
X154715230Y-52417011D01*
X154841812Y-52066000D01*
X154930368Y-51703524D01*
X154979893Y-51333688D01*
X154989826Y-50960683D01*
X154960055Y-50588735D01*
X154890916Y-50222059D01*
X154890914Y-50222052D01*
X154783195Y-49864808D01*
X154638108Y-49521029D01*
X154457308Y-49194629D01*
X154457305Y-49194625D01*
X154348065Y-49039105D01*
X154242831Y-48889287D01*
X153997116Y-48608475D01*
X153722945Y-48355372D01*
X153722943Y-48355370D01*
X153423433Y-48132852D01*
X153423430Y-48132850D01*
X153423423Y-48132845D01*
X153101945Y-47943416D01*
X152762153Y-47789231D01*
X152762149Y-47789229D01*
X152762143Y-47789227D01*
X152407902Y-47672038D01*
X152407889Y-47672035D01*
X152043195Y-47593162D01*
X152043188Y-47593161D01*
X151672169Y-47553500D01*
X151392387Y-47553500D01*
X151371323Y-47554622D01*
X151113005Y-47568389D01*
X151112979Y-47568392D01*
X150744607Y-47627743D01*
X150744604Y-47627744D01*
X150384613Y-47725917D01*
X150222689Y-47789231D01*
X150037098Y-47861799D01*
X150037096Y-47861799D01*
X150037096Y-47861800D01*
X149705998Y-48033847D01*
X149395058Y-48240116D01*
X149395049Y-48240122D01*
X149107811Y-48478263D01*
X149107796Y-48478277D01*
X148847488Y-48745607D01*
X148617069Y-49039095D01*
X148617062Y-49039105D01*
X148419148Y-49355416D01*
X148419146Y-49355421D01*
X148255967Y-49690994D01*
X148129386Y-50042004D01*
X148040832Y-50404472D01*
X148040831Y-50404480D01*
X148016158Y-50588735D01*
X147991493Y-50772927D01*
X147991308Y-50774305D01*
X147991306Y-50774321D01*
X147981374Y-51147312D01*
X140535299Y-51147312D01*
X140535299Y-50772928D01*
X140528891Y-50713317D01*
X140517246Y-50682096D01*
X140478597Y-50578471D01*
X140478593Y-50578464D01*
X140392347Y-50463255D01*
X140392344Y-50463252D01*
X140277135Y-50377006D01*
X140277128Y-50377002D01*
X140142282Y-50326708D01*
X140142283Y-50326708D01*
X140082683Y-50320301D01*
X140082681Y-50320300D01*
X140082673Y-50320300D01*
X140082664Y-50320300D01*
X137386929Y-50320300D01*
X137386923Y-50320301D01*
X137327316Y-50326708D01*
X137192471Y-50377002D01*
X137192464Y-50377006D01*
X137077255Y-50463252D01*
X137077252Y-50463255D01*
X136991006Y-50578464D01*
X136991002Y-50578471D01*
X136940708Y-50713317D01*
X136934301Y-50772916D01*
X136934301Y-50772923D01*
X136934300Y-50772935D01*
X136934300Y-53468670D01*
X134729118Y-53468670D01*
X133982334Y-52721886D01*
X134050429Y-52694926D01*
X134183292Y-52598395D01*
X134287975Y-52471855D01*
X134336431Y-52368879D01*
X135172503Y-53204951D01*
X135172504Y-53204950D01*
X135226193Y-53137628D01*
X135226200Y-53137617D01*
X135361090Y-52903981D01*
X135459651Y-52652852D01*
X135459657Y-52652833D01*
X135519686Y-52389828D01*
X135519686Y-52389826D01*
X135539847Y-52120804D01*
X135539847Y-52120795D01*
X135519686Y-51851773D01*
X135519686Y-51851771D01*
X135459657Y-51588766D01*
X135459651Y-51588747D01*
X135361090Y-51337618D01*
X135361091Y-51337618D01*
X135226197Y-51103977D01*
X135172504Y-51036647D01*
X134337346Y-51871804D01*
X134327612Y-51841844D01*
X134239614Y-51703181D01*
X134119897Y-51590760D01*
X133985289Y-51516758D01*
X134819950Y-50682096D01*
X134637317Y-50557579D01*
X134637316Y-50557578D01*
X134394260Y-50440530D01*
X134394262Y-50440530D01*
X134136462Y-50361009D01*
X134136456Y-50361007D01*
X133869698Y-50320800D01*
X133599901Y-50320800D01*
X133333143Y-50361007D01*
X133333137Y-50361009D01*
X133075338Y-50440530D01*
X132832285Y-50557578D01*
X132832276Y-50557583D01*
X132649648Y-50682096D01*
X133487265Y-51519713D01*
X133419171Y-51546674D01*
X133286308Y-51643205D01*
X133181625Y-51769745D01*
X133133168Y-51872721D01*
X132297095Y-51036648D01*
X132243400Y-51103980D01*
X132108509Y-51337618D01*
X132009948Y-51588747D01*
X132009942Y-51588766D01*
X131949913Y-51851771D01*
X131949913Y-51851773D01*
X131929753Y-52120795D01*
X131929753Y-52120804D01*
X124494449Y-52120804D01*
X124514212Y-52066000D01*
X124602768Y-51703524D01*
X124652293Y-51333688D01*
X124662226Y-50960683D01*
X124632455Y-50588735D01*
X124563316Y-50222059D01*
X124563314Y-50222052D01*
X124455595Y-49864808D01*
X124310508Y-49521029D01*
X124129708Y-49194629D01*
X124129705Y-49194625D01*
X124020465Y-49039105D01*
X123915231Y-48889287D01*
X123669516Y-48608475D01*
X123395345Y-48355372D01*
X123395343Y-48355370D01*
X123095833Y-48132852D01*
X123095830Y-48132850D01*
X123095823Y-48132845D01*
X122774345Y-47943416D01*
X122434553Y-47789231D01*
X122434549Y-47789229D01*
X122434543Y-47789227D01*
X122080302Y-47672038D01*
X122080289Y-47672035D01*
X121715595Y-47593162D01*
X121715588Y-47593161D01*
X121344569Y-47553500D01*
X121064787Y-47553500D01*
X121043723Y-47554622D01*
X120785405Y-47568389D01*
X120785379Y-47568392D01*
X120417007Y-47627743D01*
X120417004Y-47627744D01*
X120057013Y-47725917D01*
X119895089Y-47789231D01*
X119709498Y-47861799D01*
X119709496Y-47861799D01*
X119709496Y-47861800D01*
X119378398Y-48033847D01*
X119067458Y-48240116D01*
X119067449Y-48240122D01*
X118780211Y-48478263D01*
X118780196Y-48478277D01*
X118519888Y-48745607D01*
X118289469Y-49039095D01*
X118289462Y-49039105D01*
X118091548Y-49355416D01*
X118091546Y-49355421D01*
X117928367Y-49690994D01*
X117801786Y-50042004D01*
X117713232Y-50404472D01*
X117713231Y-50404480D01*
X117688558Y-50588735D01*
X117663893Y-50772927D01*
X117663708Y-50774305D01*
X117663706Y-50774321D01*
X117653774Y-51147312D01*
X111760500Y-51147312D01*
X111760500Y-45721740D01*
X111760598Y-45718263D01*
X111762140Y-45690782D01*
X111766995Y-45604333D01*
X111777401Y-45432304D01*
X111778160Y-45425706D01*
X111800576Y-45293780D01*
X111801277Y-45289656D01*
X111813432Y-45223324D01*
X111828562Y-45140763D01*
X111829961Y-45134810D01*
X111869387Y-44997956D01*
X111913270Y-44857135D01*
X111915158Y-44851921D01*
X111970397Y-44718565D01*
X112030343Y-44585370D01*
X112032599Y-44580861D01*
X112102958Y-44453557D01*
X112178228Y-44329044D01*
X112180693Y-44325286D01*
X112264461Y-44207226D01*
X112266145Y-44204967D01*
X112354932Y-44091638D01*
X112357472Y-44088605D01*
X112454052Y-43980531D01*
X112456373Y-43978077D01*
X112558077Y-43876373D01*
X112560531Y-43874052D01*
X112668605Y-43777472D01*
X112671638Y-43774932D01*
X112784967Y-43686145D01*
X112787226Y-43684461D01*
X112905286Y-43600693D01*
X112909044Y-43598228D01*
X113033561Y-43522956D01*
X113160861Y-43452599D01*
X113165370Y-43450343D01*
X113298565Y-43390397D01*
X113431921Y-43335158D01*
X113437135Y-43333270D01*
X113577956Y-43289387D01*
X113714810Y-43249961D01*
X113720763Y-43248562D01*
X113803324Y-43233432D01*
X113869656Y-43221277D01*
X113917941Y-43213072D01*
X114005706Y-43198160D01*
X114012304Y-43197401D01*
X114184333Y-43186995D01*
X114270782Y-43182140D01*
X114298263Y-43180598D01*
X114301740Y-43180500D01*
X157478260Y-43180500D01*
X157481737Y-43180598D01*
G37*
%TD.AperFunction*%
%TD*%
M02*
