%TF.GenerationSoftware,KiCad,Pcbnew,7.0.10-7.0.10~ubuntu22.04.1*%
%TF.CreationDate,2024-01-30T10:17:10-05:00*%
%TF.ProjectId,ladcp_star_circuit,6c616463-705f-4737-9461-725f63697263,1.0.0*%
%TF.SameCoordinates,Original*%
%TF.FileFunction,Copper,L1,Top*%
%TF.FilePolarity,Positive*%
%FSLAX46Y46*%
G04 Gerber Fmt 4.6, Leading zero omitted, Abs format (unit mm)*
G04 Created by KiCad (PCBNEW 7.0.10-7.0.10~ubuntu22.04.1) date 2024-01-30 10:17:10*
%MOMM*%
%LPD*%
G01*
G04 APERTURE LIST*
%TA.AperFunction,ComponentPad*%
%ADD10R,2.600000X2.600000*%
%TD*%
%TA.AperFunction,ComponentPad*%
%ADD11C,2.600000*%
%TD*%
%TA.AperFunction,ComponentPad*%
%ADD12R,3.200000X3.200000*%
%TD*%
%TA.AperFunction,ComponentPad*%
%ADD13O,3.200000X3.200000*%
%TD*%
%TA.AperFunction,Conductor*%
%ADD14C,5.000000*%
%TD*%
G04 APERTURE END LIST*
D10*
%TO.P,P1,1,Pin_1*%
%TO.N,/RS232_IN_MASTER*%
X121462800Y-62917000D03*
D11*
%TO.P,P1,2,Pin_2*%
%TO.N,/RS232_OUT_MASTER*%
X121462800Y-67917000D03*
%TO.P,P1,3,Pin_3*%
%TO.N,/POWER+*%
X121462800Y-72917000D03*
%TO.P,P1,4,Pin_4*%
%TO.N,/DATA_RTN*%
X121462800Y-77917000D03*
%TO.P,P1,5,Pin_5*%
%TO.N,/RS485A*%
X121462800Y-82917000D03*
%TO.P,P1,6,Pin_6*%
%TO.N,/RS485B*%
X121462800Y-87917000D03*
%TO.P,P1,7,Pin_7*%
%TO.N,/POWER-*%
X121462800Y-92917000D03*
%TO.P,P1,8,Pin_8*%
%TO.N,unconnected-(P1-Pin_8-Pad8)*%
X121462800Y-97917000D03*
%TD*%
D12*
%TO.P,D1,1,K*%
%TO.N,/POWER+*%
X136144000Y-72931000D03*
D13*
%TO.P,D1,2,A*%
%TO.N,Net-(D1-A)*%
X136144000Y-92931000D03*
%TD*%
D10*
%TO.P,P6,1,Pin_1*%
%TO.N,/RS232_IN_MASTER*%
X151514800Y-97992000D03*
D11*
%TO.P,P6,2,Pin_2*%
%TO.N,/RS232_OUT_MASTER*%
X151514800Y-92992000D03*
%TO.P,P6,3,Pin_3*%
%TO.N,Net-(D1-A)*%
X151514800Y-87992000D03*
%TO.P,P6,4,Pin_4*%
%TO.N,/DATA_RTN*%
X151514800Y-82992000D03*
%TO.P,P6,5,Pin_5*%
%TO.N,/RS232_IN_SLAVE*%
X151514800Y-77992000D03*
%TO.P,P6,6,Pin_6*%
%TO.N,/RS232_OUT_SLAVE*%
X151514800Y-72992000D03*
%TO.P,P6,7,Pin_7*%
%TO.N,/POWER-*%
X151514800Y-67992000D03*
%TO.P,P6,8,Pin_8*%
%TO.N,unconnected-(P6-Pin_8-Pad8)*%
X151514800Y-62992000D03*
%TD*%
D10*
%TO.P,P2,1,Pin_1*%
%TO.N,/RS232_IN_SLAVE*%
X118924000Y-109220000D03*
D11*
%TO.P,P2,2,Pin_2*%
%TO.N,/RS232_OUT_SLAVE*%
X123924000Y-109220000D03*
%TO.P,P2,3,Pin_3*%
%TO.N,/POWER+*%
X128924000Y-109220000D03*
%TO.P,P2,4,Pin_4*%
%TO.N,/DATA_RTN*%
X133924000Y-109220000D03*
%TO.P,P2,5,Pin_5*%
%TO.N,/RS485A*%
X138924000Y-109220000D03*
%TO.P,P2,6,Pin_6*%
%TO.N,/RS485B*%
X143924000Y-109220000D03*
%TO.P,P2,7,Pin_7*%
%TO.N,/POWER-*%
X148924000Y-109220000D03*
%TO.P,P2,8,Pin_8*%
%TO.N,unconnected-(P2-Pin_8-Pad8)*%
X153924000Y-109220000D03*
%TD*%
D10*
%TO.P,P3,1,Pin_1*%
%TO.N,/POWER+*%
X138734800Y-52120800D03*
D11*
%TO.P,P3,2,Pin_2*%
%TO.N,/POWER-*%
X133734800Y-52120800D03*
%TD*%
D14*
%TO.N,/POWER+*%
X129540000Y-72917000D02*
X136130000Y-72917000D01*
X138734800Y-52120800D02*
X138734800Y-70340200D01*
X128924000Y-109220000D02*
X128924000Y-73533000D01*
X128924000Y-73533000D02*
X129540000Y-72917000D01*
X136130000Y-72917000D02*
X136144000Y-72931000D01*
X121462800Y-72917000D02*
X129540000Y-72917000D01*
X138734800Y-70340200D02*
X136144000Y-72931000D01*
%TO.N,Net-(D1-A)*%
X136144000Y-92931000D02*
X141083000Y-87992000D01*
X141083000Y-87992000D02*
X151514800Y-87992000D01*
%TD*%
%TA.AperFunction,Conductor*%
%TO.N,/POWER-*%
G36*
X157483471Y-43180694D02*
G01*
X157595527Y-43186987D01*
X157764353Y-43197199D01*
X157777591Y-43198720D01*
X157909665Y-43221160D01*
X157911007Y-43221397D01*
X158056210Y-43248007D01*
X158068153Y-43250814D01*
X158200788Y-43289025D01*
X158203279Y-43289773D01*
X158340146Y-43332423D01*
X158350682Y-43336237D01*
X158479736Y-43389693D01*
X158483063Y-43391130D01*
X158612306Y-43449298D01*
X158621372Y-43453834D01*
X158744331Y-43521791D01*
X158748500Y-43524202D01*
X158868988Y-43597040D01*
X158876592Y-43602027D01*
X158991525Y-43683575D01*
X158996223Y-43687078D01*
X159106752Y-43773672D01*
X159112906Y-43778823D01*
X159218133Y-43872859D01*
X159223187Y-43877638D01*
X159322360Y-43976811D01*
X159327139Y-43981865D01*
X159421175Y-44087092D01*
X159426326Y-44093246D01*
X159512904Y-44203754D01*
X159516423Y-44208473D01*
X159597971Y-44323406D01*
X159602958Y-44331010D01*
X159675796Y-44451498D01*
X159678207Y-44455667D01*
X159746164Y-44578626D01*
X159750712Y-44587716D01*
X159808832Y-44716853D01*
X159810317Y-44720291D01*
X159863756Y-44849303D01*
X159867580Y-44859866D01*
X159910214Y-44996684D01*
X159910983Y-44999246D01*
X159949180Y-45131831D01*
X159951995Y-45143807D01*
X159978578Y-45288865D01*
X159978857Y-45290446D01*
X160001275Y-45422385D01*
X160002801Y-45435670D01*
X160012997Y-45604242D01*
X160013028Y-45604774D01*
X160019305Y-45716526D01*
X160019500Y-45723480D01*
X160019500Y-129536519D01*
X160019305Y-129543473D01*
X160013028Y-129655224D01*
X160012997Y-129655756D01*
X160002801Y-129824328D01*
X160001275Y-129837613D01*
X159978857Y-129969552D01*
X159978578Y-129971133D01*
X159951995Y-130116191D01*
X159949180Y-130128167D01*
X159910983Y-130260752D01*
X159910214Y-130263314D01*
X159867580Y-130400132D01*
X159863756Y-130410695D01*
X159810317Y-130539707D01*
X159808832Y-130543145D01*
X159750712Y-130672282D01*
X159746164Y-130681372D01*
X159678207Y-130804331D01*
X159675796Y-130808500D01*
X159602958Y-130928988D01*
X159597971Y-130936592D01*
X159516423Y-131051525D01*
X159512904Y-131056244D01*
X159426326Y-131166752D01*
X159421175Y-131172906D01*
X159327139Y-131278133D01*
X159322360Y-131283187D01*
X159223187Y-131382360D01*
X159218133Y-131387139D01*
X159112906Y-131481175D01*
X159106752Y-131486326D01*
X158996244Y-131572904D01*
X158991525Y-131576423D01*
X158876592Y-131657971D01*
X158868988Y-131662958D01*
X158748500Y-131735796D01*
X158744331Y-131738207D01*
X158621372Y-131806164D01*
X158612282Y-131810712D01*
X158483145Y-131868832D01*
X158479707Y-131870317D01*
X158350695Y-131923756D01*
X158340132Y-131927580D01*
X158203314Y-131970214D01*
X158200752Y-131970983D01*
X158068167Y-132009180D01*
X158056191Y-132011995D01*
X157911133Y-132038578D01*
X157909552Y-132038857D01*
X157777613Y-132061275D01*
X157764328Y-132062801D01*
X157595756Y-132072997D01*
X157595224Y-132073028D01*
X157487513Y-132079078D01*
X157483471Y-132079305D01*
X157476519Y-132079500D01*
X114303481Y-132079500D01*
X114296528Y-132079305D01*
X114292045Y-132079053D01*
X114184774Y-132073028D01*
X114184242Y-132072997D01*
X114015670Y-132062801D01*
X114002385Y-132061275D01*
X113870446Y-132038857D01*
X113868865Y-132038578D01*
X113723807Y-132011995D01*
X113711831Y-132009180D01*
X113579246Y-131970983D01*
X113576684Y-131970214D01*
X113439866Y-131927580D01*
X113429303Y-131923756D01*
X113300291Y-131870317D01*
X113296873Y-131868841D01*
X113167713Y-131810710D01*
X113158626Y-131806164D01*
X113035667Y-131738207D01*
X113031498Y-131735796D01*
X112911010Y-131662958D01*
X112903406Y-131657971D01*
X112788473Y-131576423D01*
X112783754Y-131572904D01*
X112673246Y-131486326D01*
X112667092Y-131481175D01*
X112561865Y-131387139D01*
X112556811Y-131382360D01*
X112457638Y-131283187D01*
X112452859Y-131278133D01*
X112358823Y-131172906D01*
X112353672Y-131166752D01*
X112267078Y-131056223D01*
X112263575Y-131051525D01*
X112182027Y-130936592D01*
X112177040Y-130928988D01*
X112104202Y-130808500D01*
X112101791Y-130804331D01*
X112083272Y-130770824D01*
X112033832Y-130681369D01*
X112029298Y-130672306D01*
X111971130Y-130543063D01*
X111969693Y-130539736D01*
X111916237Y-130410682D01*
X111912423Y-130400146D01*
X111869773Y-130263279D01*
X111869015Y-130260752D01*
X111864307Y-130244409D01*
X111830814Y-130128153D01*
X111828007Y-130116210D01*
X111801397Y-129971007D01*
X111801160Y-129969665D01*
X111778720Y-129837591D01*
X111777199Y-129824353D01*
X111766983Y-129655453D01*
X111760695Y-129543472D01*
X111760500Y-129536520D01*
X111760500Y-124417312D01*
X117653774Y-124417312D01*
X117683545Y-124789270D01*
X117752685Y-125155947D01*
X117860404Y-125513191D01*
X118005491Y-125856970D01*
X118186291Y-126183370D01*
X118186294Y-126183374D01*
X118400769Y-126488713D01*
X118646484Y-126769525D01*
X118787524Y-126899727D01*
X118920656Y-127022629D01*
X119220166Y-127245147D01*
X119220177Y-127245155D01*
X119541655Y-127434584D01*
X119881447Y-127588769D01*
X120235702Y-127705963D01*
X120600408Y-127784838D01*
X120971431Y-127824500D01*
X121251209Y-127824500D01*
X121251213Y-127824500D01*
X121432219Y-127814852D01*
X121530594Y-127809610D01*
X121530598Y-127809609D01*
X121530608Y-127809609D01*
X121898995Y-127750256D01*
X122258986Y-127652083D01*
X122606502Y-127516201D01*
X122937606Y-127344150D01*
X123248547Y-127137880D01*
X123535800Y-126899727D01*
X123796113Y-126632391D01*
X124026534Y-126338899D01*
X124224454Y-126022578D01*
X124387630Y-125687011D01*
X124514212Y-125336000D01*
X124602768Y-124973524D01*
X124652293Y-124603688D01*
X124657256Y-124417312D01*
X147981374Y-124417312D01*
X148011145Y-124789270D01*
X148080285Y-125155947D01*
X148188004Y-125513191D01*
X148333091Y-125856970D01*
X148513891Y-126183370D01*
X148513894Y-126183374D01*
X148728369Y-126488713D01*
X148974084Y-126769525D01*
X149115124Y-126899727D01*
X149248256Y-127022629D01*
X149547766Y-127245147D01*
X149547777Y-127245155D01*
X149869255Y-127434584D01*
X150209047Y-127588769D01*
X150563302Y-127705963D01*
X150928008Y-127784838D01*
X151299031Y-127824500D01*
X151578809Y-127824500D01*
X151578813Y-127824500D01*
X151759819Y-127814852D01*
X151858194Y-127809610D01*
X151858198Y-127809609D01*
X151858208Y-127809609D01*
X152226595Y-127750256D01*
X152586586Y-127652083D01*
X152934102Y-127516201D01*
X153265206Y-127344150D01*
X153576147Y-127137880D01*
X153863400Y-126899727D01*
X154123713Y-126632391D01*
X154354134Y-126338899D01*
X154552054Y-126022578D01*
X154715230Y-125687011D01*
X154841812Y-125336000D01*
X154930368Y-124973524D01*
X154979893Y-124603688D01*
X154989826Y-124230683D01*
X154960055Y-123858735D01*
X154890916Y-123492059D01*
X154890914Y-123492052D01*
X154783195Y-123134808D01*
X154638108Y-122791029D01*
X154457308Y-122464629D01*
X154457305Y-122464625D01*
X154348065Y-122309105D01*
X154242831Y-122159287D01*
X153997116Y-121878475D01*
X153722945Y-121625372D01*
X153722943Y-121625370D01*
X153423433Y-121402852D01*
X153423430Y-121402850D01*
X153423423Y-121402845D01*
X153101945Y-121213416D01*
X152762153Y-121059231D01*
X152762149Y-121059229D01*
X152762143Y-121059227D01*
X152407902Y-120942038D01*
X152407889Y-120942035D01*
X152043195Y-120863162D01*
X152043188Y-120863161D01*
X151672169Y-120823500D01*
X151392387Y-120823500D01*
X151392376Y-120823500D01*
X151113005Y-120838389D01*
X151112979Y-120838392D01*
X150744607Y-120897743D01*
X150744604Y-120897744D01*
X150384613Y-120995917D01*
X150222689Y-121059231D01*
X150037098Y-121131799D01*
X150037096Y-121131799D01*
X150037096Y-121131800D01*
X149705998Y-121303847D01*
X149395058Y-121510116D01*
X149395049Y-121510122D01*
X149107811Y-121748263D01*
X149107796Y-121748277D01*
X148847488Y-122015607D01*
X148617069Y-122309095D01*
X148617062Y-122309105D01*
X148419148Y-122625416D01*
X148419146Y-122625421D01*
X148255967Y-122960994D01*
X148129386Y-123312004D01*
X148040832Y-123674472D01*
X148040831Y-123674480D01*
X147991308Y-124044305D01*
X147991306Y-124044321D01*
X147981374Y-124417312D01*
X124657256Y-124417312D01*
X124662226Y-124230683D01*
X124632455Y-123858735D01*
X124563316Y-123492059D01*
X124563314Y-123492052D01*
X124455595Y-123134808D01*
X124310508Y-122791029D01*
X124129708Y-122464629D01*
X124129705Y-122464625D01*
X124020465Y-122309105D01*
X123915231Y-122159287D01*
X123669516Y-121878475D01*
X123395345Y-121625372D01*
X123395343Y-121625370D01*
X123095833Y-121402852D01*
X123095830Y-121402850D01*
X123095823Y-121402845D01*
X122774345Y-121213416D01*
X122434553Y-121059231D01*
X122434549Y-121059229D01*
X122434543Y-121059227D01*
X122080302Y-120942038D01*
X122080289Y-120942035D01*
X121715595Y-120863162D01*
X121715588Y-120863161D01*
X121344569Y-120823500D01*
X121064787Y-120823500D01*
X121064776Y-120823500D01*
X120785405Y-120838389D01*
X120785379Y-120838392D01*
X120417007Y-120897743D01*
X120417004Y-120897744D01*
X120057013Y-120995917D01*
X119895089Y-121059231D01*
X119709498Y-121131799D01*
X119709496Y-121131799D01*
X119709496Y-121131800D01*
X119378398Y-121303847D01*
X119067458Y-121510116D01*
X119067449Y-121510122D01*
X118780211Y-121748263D01*
X118780196Y-121748277D01*
X118519888Y-122015607D01*
X118289469Y-122309095D01*
X118289462Y-122309105D01*
X118091548Y-122625416D01*
X118091546Y-122625421D01*
X117928367Y-122960994D01*
X117801786Y-123312004D01*
X117713232Y-123674472D01*
X117713231Y-123674480D01*
X117663708Y-124044305D01*
X117663706Y-124044321D01*
X117653774Y-124417312D01*
X111760500Y-124417312D01*
X111760500Y-110567870D01*
X117123500Y-110567870D01*
X117123501Y-110567876D01*
X117129908Y-110627483D01*
X117180202Y-110762328D01*
X117180206Y-110762335D01*
X117266452Y-110877544D01*
X117266455Y-110877547D01*
X117381664Y-110963793D01*
X117381671Y-110963797D01*
X117516517Y-111014091D01*
X117516516Y-111014091D01*
X117523444Y-111014835D01*
X117576127Y-111020500D01*
X120271872Y-111020499D01*
X120331483Y-111014091D01*
X120466331Y-110963796D01*
X120581546Y-110877546D01*
X120667796Y-110762331D01*
X120718091Y-110627483D01*
X120724500Y-110567873D01*
X120724499Y-107872128D01*
X120718091Y-107812517D01*
X120716542Y-107808365D01*
X120667797Y-107677671D01*
X120667793Y-107677664D01*
X120581547Y-107562455D01*
X120581544Y-107562452D01*
X120466335Y-107476206D01*
X120466328Y-107476202D01*
X120331482Y-107425908D01*
X120331483Y-107425908D01*
X120271883Y-107419501D01*
X120271881Y-107419500D01*
X120271873Y-107419500D01*
X120271864Y-107419500D01*
X117576129Y-107419500D01*
X117576123Y-107419501D01*
X117516516Y-107425908D01*
X117381671Y-107476202D01*
X117381664Y-107476206D01*
X117266455Y-107562452D01*
X117266452Y-107562455D01*
X117180206Y-107677664D01*
X117180202Y-107677671D01*
X117129908Y-107812517D01*
X117123501Y-107872116D01*
X117123501Y-107872123D01*
X117123500Y-107872135D01*
X117123500Y-110567870D01*
X111760500Y-110567870D01*
X111760500Y-97917004D01*
X119657251Y-97917004D01*
X119677416Y-98186101D01*
X119737464Y-98449188D01*
X119737466Y-98449195D01*
X119836057Y-98700398D01*
X119970985Y-98934102D01*
X120106880Y-99104509D01*
X120139242Y-99145089D01*
X120325983Y-99318358D01*
X120337059Y-99328635D01*
X120560026Y-99480651D01*
X120803159Y-99597738D01*
X121061028Y-99677280D01*
X121061029Y-99677280D01*
X121061032Y-99677281D01*
X121327863Y-99717499D01*
X121327868Y-99717499D01*
X121327871Y-99717500D01*
X121327872Y-99717500D01*
X121597728Y-99717500D01*
X121597729Y-99717500D01*
X121597736Y-99717499D01*
X121864567Y-99677281D01*
X121864568Y-99677280D01*
X121864572Y-99677280D01*
X122122441Y-99597738D01*
X122365575Y-99480651D01*
X122588541Y-99328635D01*
X122786361Y-99145085D01*
X122954615Y-98934102D01*
X123089543Y-98700398D01*
X123188134Y-98449195D01*
X123248183Y-98186103D01*
X123268349Y-97917000D01*
X123248183Y-97647897D01*
X123188134Y-97384805D01*
X123089543Y-97133602D01*
X122954615Y-96899898D01*
X122786361Y-96688915D01*
X122786360Y-96688914D01*
X122786357Y-96688910D01*
X122588541Y-96505365D01*
X122506850Y-96449669D01*
X122365575Y-96353349D01*
X122365569Y-96353346D01*
X122365568Y-96353345D01*
X122365567Y-96353344D01*
X122122443Y-96236263D01*
X122122445Y-96236263D01*
X121864573Y-96156720D01*
X121864567Y-96156718D01*
X121597736Y-96116500D01*
X121597729Y-96116500D01*
X121327871Y-96116500D01*
X121327863Y-96116500D01*
X121061032Y-96156718D01*
X121061026Y-96156720D01*
X120803158Y-96236262D01*
X120560030Y-96353346D01*
X120337058Y-96505365D01*
X120139242Y-96688910D01*
X119970985Y-96899898D01*
X119836058Y-97133599D01*
X119836056Y-97133603D01*
X119737466Y-97384804D01*
X119737464Y-97384811D01*
X119677416Y-97647898D01*
X119657251Y-97916995D01*
X119657251Y-97917004D01*
X111760500Y-97917004D01*
X111760500Y-92917004D01*
X119657753Y-92917004D01*
X119677913Y-93186026D01*
X119677913Y-93186028D01*
X119737942Y-93449033D01*
X119737948Y-93449052D01*
X119836509Y-93700181D01*
X119836508Y-93700181D01*
X119971402Y-93933822D01*
X120025094Y-94001151D01*
X120025095Y-94001151D01*
X120860252Y-93165993D01*
X120869988Y-93195956D01*
X120957986Y-93334619D01*
X121077703Y-93447040D01*
X121212310Y-93521041D01*
X120377648Y-94355702D01*
X120560283Y-94480220D01*
X120560285Y-94480221D01*
X120803339Y-94597269D01*
X120803337Y-94597269D01*
X121061137Y-94676790D01*
X121061143Y-94676792D01*
X121327901Y-94716999D01*
X121327910Y-94717000D01*
X121597690Y-94717000D01*
X121597698Y-94716999D01*
X121864456Y-94676792D01*
X121864462Y-94676790D01*
X122122261Y-94597269D01*
X122365321Y-94480218D01*
X122547950Y-94355702D01*
X121710334Y-93518086D01*
X121778429Y-93491126D01*
X121911292Y-93394595D01*
X122015975Y-93268055D01*
X122064431Y-93165079D01*
X122900503Y-94001151D01*
X122900504Y-94001150D01*
X122954193Y-93933828D01*
X122954200Y-93933817D01*
X123089090Y-93700181D01*
X123187651Y-93449052D01*
X123187657Y-93449033D01*
X123247686Y-93186028D01*
X123247686Y-93186026D01*
X123267847Y-92917004D01*
X123267847Y-92916995D01*
X123247686Y-92647973D01*
X123247686Y-92647971D01*
X123187657Y-92384966D01*
X123187651Y-92384947D01*
X123089090Y-92133818D01*
X123089091Y-92133818D01*
X122954197Y-91900177D01*
X122900504Y-91832847D01*
X122065346Y-92668004D01*
X122055612Y-92638044D01*
X121967614Y-92499381D01*
X121847897Y-92386960D01*
X121713289Y-92312958D01*
X122547950Y-91478296D01*
X122365317Y-91353779D01*
X122365316Y-91353778D01*
X122122260Y-91236730D01*
X122122262Y-91236730D01*
X121864462Y-91157209D01*
X121864456Y-91157207D01*
X121597698Y-91117000D01*
X121327901Y-91117000D01*
X121061143Y-91157207D01*
X121061137Y-91157209D01*
X120803338Y-91236730D01*
X120560285Y-91353778D01*
X120560276Y-91353783D01*
X120377648Y-91478296D01*
X121215265Y-92315913D01*
X121147171Y-92342874D01*
X121014308Y-92439405D01*
X120909625Y-92565945D01*
X120861168Y-92668921D01*
X120025095Y-91832848D01*
X119971400Y-91900180D01*
X119836509Y-92133818D01*
X119737948Y-92384947D01*
X119737942Y-92384966D01*
X119677913Y-92647971D01*
X119677913Y-92647973D01*
X119657753Y-92916995D01*
X119657753Y-92917004D01*
X111760500Y-92917004D01*
X111760500Y-87917004D01*
X119657251Y-87917004D01*
X119677416Y-88186101D01*
X119737464Y-88449188D01*
X119737466Y-88449195D01*
X119836057Y-88700398D01*
X119970985Y-88934102D01*
X120106880Y-89104509D01*
X120139242Y-89145089D01*
X120325983Y-89318358D01*
X120337059Y-89328635D01*
X120560026Y-89480651D01*
X120803159Y-89597738D01*
X121061028Y-89677280D01*
X121061029Y-89677280D01*
X121061032Y-89677281D01*
X121327863Y-89717499D01*
X121327868Y-89717499D01*
X121327871Y-89717500D01*
X121327872Y-89717500D01*
X121597728Y-89717500D01*
X121597729Y-89717500D01*
X121597736Y-89717499D01*
X121864567Y-89677281D01*
X121864568Y-89677280D01*
X121864572Y-89677280D01*
X122122441Y-89597738D01*
X122365575Y-89480651D01*
X122588541Y-89328635D01*
X122786361Y-89145085D01*
X122954615Y-88934102D01*
X123089543Y-88700398D01*
X123188134Y-88449195D01*
X123248183Y-88186103D01*
X123268349Y-87917000D01*
X123248183Y-87647897D01*
X123188134Y-87384805D01*
X123089543Y-87133602D01*
X122954615Y-86899898D01*
X122786361Y-86688915D01*
X122786360Y-86688914D01*
X122786357Y-86688910D01*
X122588541Y-86505365D01*
X122564836Y-86489203D01*
X122365575Y-86353349D01*
X122365569Y-86353346D01*
X122365568Y-86353345D01*
X122365567Y-86353344D01*
X122122443Y-86236263D01*
X122122445Y-86236263D01*
X121864573Y-86156720D01*
X121864567Y-86156718D01*
X121597736Y-86116500D01*
X121597729Y-86116500D01*
X121327871Y-86116500D01*
X121327863Y-86116500D01*
X121061032Y-86156718D01*
X121061026Y-86156720D01*
X120803158Y-86236262D01*
X120560030Y-86353346D01*
X120337058Y-86505365D01*
X120139242Y-86688910D01*
X119970985Y-86899898D01*
X119836058Y-87133599D01*
X119836056Y-87133603D01*
X119737466Y-87384804D01*
X119737464Y-87384811D01*
X119677416Y-87647898D01*
X119657251Y-87916995D01*
X119657251Y-87917004D01*
X111760500Y-87917004D01*
X111760500Y-82917004D01*
X119657251Y-82917004D01*
X119677416Y-83186101D01*
X119694535Y-83261103D01*
X119737466Y-83449195D01*
X119836057Y-83700398D01*
X119970985Y-83934102D01*
X120030795Y-84009101D01*
X120139242Y-84145089D01*
X120325983Y-84318358D01*
X120337059Y-84328635D01*
X120560026Y-84480651D01*
X120803159Y-84597738D01*
X121061028Y-84677280D01*
X121061029Y-84677280D01*
X121061032Y-84677281D01*
X121327863Y-84717499D01*
X121327868Y-84717499D01*
X121327871Y-84717500D01*
X121327872Y-84717500D01*
X121597728Y-84717500D01*
X121597729Y-84717500D01*
X121597736Y-84717499D01*
X121864567Y-84677281D01*
X121864568Y-84677280D01*
X121864572Y-84677280D01*
X122122441Y-84597738D01*
X122365575Y-84480651D01*
X122588541Y-84328635D01*
X122786361Y-84145085D01*
X122954615Y-83934102D01*
X123089543Y-83700398D01*
X123188134Y-83449195D01*
X123248183Y-83186103D01*
X123254905Y-83096402D01*
X123268349Y-82917004D01*
X123268349Y-82916995D01*
X123248183Y-82647898D01*
X123248183Y-82647897D01*
X123188134Y-82384805D01*
X123089543Y-82133602D01*
X122954615Y-81899898D01*
X122786361Y-81688915D01*
X122786360Y-81688914D01*
X122786357Y-81688910D01*
X122588541Y-81505365D01*
X122365575Y-81353349D01*
X122365569Y-81353346D01*
X122365568Y-81353345D01*
X122365567Y-81353344D01*
X122122443Y-81236263D01*
X122122445Y-81236263D01*
X121864573Y-81156720D01*
X121864567Y-81156718D01*
X121597736Y-81116500D01*
X121597729Y-81116500D01*
X121327871Y-81116500D01*
X121327863Y-81116500D01*
X121061032Y-81156718D01*
X121061026Y-81156720D01*
X120803158Y-81236262D01*
X120560030Y-81353346D01*
X120337058Y-81505365D01*
X120139242Y-81688910D01*
X119970985Y-81899898D01*
X119836058Y-82133599D01*
X119836056Y-82133603D01*
X119737466Y-82384804D01*
X119737464Y-82384811D01*
X119677416Y-82647898D01*
X119657251Y-82916995D01*
X119657251Y-82917004D01*
X111760500Y-82917004D01*
X111760500Y-73091759D01*
X118462300Y-73091759D01*
X118482094Y-73261103D01*
X118502877Y-73438914D01*
X118502877Y-73438916D01*
X118583480Y-73779009D01*
X118583481Y-73779012D01*
X118703023Y-74107452D01*
X118703026Y-74107458D01*
X118859888Y-74419796D01*
X119051946Y-74711805D01*
X119051952Y-74711813D01*
X119085908Y-74752280D01*
X119276617Y-74979558D01*
X119407917Y-75103433D01*
X119530844Y-75219410D01*
X119530850Y-75219415D01*
X119811202Y-75428129D01*
X119833523Y-75441016D01*
X120113896Y-75602889D01*
X120434829Y-75741326D01*
X120769664Y-75841569D01*
X120769666Y-75841569D01*
X120769672Y-75841571D01*
X121113867Y-75902261D01*
X121113873Y-75902262D01*
X121113877Y-75902262D01*
X121114231Y-75902304D01*
X121114318Y-75902340D01*
X121117426Y-75902889D01*
X121117299Y-75903607D01*
X121178535Y-75929630D01*
X121217858Y-75987384D01*
X121219714Y-76057229D01*
X121183515Y-76116990D01*
X121120753Y-76147693D01*
X121118333Y-76148082D01*
X121061031Y-76156719D01*
X121061026Y-76156720D01*
X120803158Y-76236262D01*
X120560030Y-76353346D01*
X120337058Y-76505365D01*
X120139242Y-76688910D01*
X119970985Y-76899898D01*
X119836058Y-77133599D01*
X119836056Y-77133603D01*
X119737466Y-77384804D01*
X119737464Y-77384811D01*
X119677416Y-77647898D01*
X119657251Y-77916995D01*
X119657251Y-77917004D01*
X119677416Y-78186101D01*
X119694535Y-78261103D01*
X119737466Y-78449195D01*
X119836057Y-78700398D01*
X119970985Y-78934102D01*
X120030795Y-79009101D01*
X120139242Y-79145089D01*
X120325983Y-79318358D01*
X120337059Y-79328635D01*
X120560026Y-79480651D01*
X120803159Y-79597738D01*
X121061028Y-79677280D01*
X121061029Y-79677280D01*
X121061032Y-79677281D01*
X121327863Y-79717499D01*
X121327868Y-79717499D01*
X121327871Y-79717500D01*
X121327872Y-79717500D01*
X121597728Y-79717500D01*
X121597729Y-79717500D01*
X121597736Y-79717499D01*
X121864567Y-79677281D01*
X121864568Y-79677280D01*
X121864572Y-79677280D01*
X122122441Y-79597738D01*
X122365575Y-79480651D01*
X122588541Y-79328635D01*
X122786361Y-79145085D01*
X122954615Y-78934102D01*
X123089543Y-78700398D01*
X123188134Y-78449195D01*
X123248183Y-78186103D01*
X123254905Y-78096402D01*
X123268349Y-77917004D01*
X123268349Y-77916995D01*
X123248183Y-77647898D01*
X123248183Y-77647897D01*
X123188134Y-77384805D01*
X123089543Y-77133602D01*
X122954615Y-76899898D01*
X122786361Y-76688915D01*
X122786360Y-76688914D01*
X122786357Y-76688910D01*
X122588541Y-76505365D01*
X122365575Y-76353349D01*
X122365569Y-76353346D01*
X122365568Y-76353345D01*
X122365567Y-76353344D01*
X122122443Y-76236263D01*
X122122445Y-76236263D01*
X121875177Y-76159991D01*
X121816918Y-76121421D01*
X121788760Y-76057476D01*
X121799644Y-75988459D01*
X121846113Y-75936282D01*
X121911727Y-75917500D01*
X125799500Y-75917500D01*
X125866539Y-75937185D01*
X125912294Y-75989989D01*
X125923500Y-76041500D01*
X125923500Y-108788472D01*
X125903815Y-108855511D01*
X125851011Y-108901266D01*
X125781853Y-108911210D01*
X125718297Y-108882185D01*
X125680523Y-108823407D01*
X125678609Y-108816065D01*
X125649826Y-108689960D01*
X125649334Y-108687805D01*
X125550743Y-108436602D01*
X125415815Y-108202898D01*
X125247561Y-107991915D01*
X125247560Y-107991914D01*
X125247557Y-107991910D01*
X125049741Y-107808365D01*
X125010038Y-107781296D01*
X124826775Y-107656349D01*
X124826769Y-107656346D01*
X124826768Y-107656345D01*
X124826767Y-107656344D01*
X124583643Y-107539263D01*
X124583645Y-107539263D01*
X124325773Y-107459720D01*
X124325767Y-107459718D01*
X124058936Y-107419500D01*
X124058929Y-107419500D01*
X123789071Y-107419500D01*
X123789063Y-107419500D01*
X123522232Y-107459718D01*
X123522226Y-107459720D01*
X123264358Y-107539262D01*
X123021230Y-107656346D01*
X122798258Y-107808365D01*
X122600442Y-107991910D01*
X122432185Y-108202898D01*
X122297258Y-108436599D01*
X122297256Y-108436603D01*
X122198666Y-108687804D01*
X122198664Y-108687811D01*
X122138616Y-108950898D01*
X122118451Y-109219995D01*
X122118451Y-109220004D01*
X122138616Y-109489101D01*
X122198664Y-109752188D01*
X122198666Y-109752195D01*
X122261830Y-109913134D01*
X122297257Y-110003398D01*
X122432185Y-110237102D01*
X122485655Y-110304151D01*
X122600442Y-110448089D01*
X122730641Y-110568895D01*
X122798259Y-110631635D01*
X123021226Y-110783651D01*
X123264359Y-110900738D01*
X123522228Y-110980280D01*
X123522229Y-110980280D01*
X123522232Y-110980281D01*
X123789063Y-111020499D01*
X123789068Y-111020499D01*
X123789071Y-111020500D01*
X123789072Y-111020500D01*
X124058928Y-111020500D01*
X124058929Y-111020500D01*
X124058936Y-111020499D01*
X124325767Y-110980281D01*
X124325768Y-110980280D01*
X124325772Y-110980280D01*
X124583641Y-110900738D01*
X124826775Y-110783651D01*
X125049741Y-110631635D01*
X125247561Y-110448085D01*
X125415815Y-110237102D01*
X125550743Y-110003398D01*
X125649334Y-109752195D01*
X125691493Y-109567485D01*
X125694513Y-109554254D01*
X125728622Y-109493275D01*
X125790283Y-109460417D01*
X125859920Y-109466112D01*
X125915424Y-109508552D01*
X125937770Y-109565434D01*
X125938111Y-109565374D01*
X125938407Y-109567054D01*
X125938567Y-109567461D01*
X125938739Y-109568939D01*
X125999428Y-109913127D01*
X125999430Y-109913134D01*
X126099674Y-110247972D01*
X126238107Y-110568895D01*
X126238113Y-110568908D01*
X126412870Y-110871597D01*
X126621584Y-111151949D01*
X126621589Y-111151955D01*
X126745463Y-111283253D01*
X126861442Y-111406183D01*
X127037903Y-111554251D01*
X127129186Y-111630847D01*
X127129194Y-111630853D01*
X127421203Y-111822911D01*
X127421207Y-111822913D01*
X127733549Y-111979777D01*
X128061989Y-112099319D01*
X128402086Y-112179923D01*
X128749241Y-112220500D01*
X128749248Y-112220500D01*
X129098752Y-112220500D01*
X129098759Y-112220500D01*
X129445914Y-112179923D01*
X129786011Y-112099319D01*
X130114451Y-111979777D01*
X130426793Y-111822913D01*
X130718811Y-111630849D01*
X130986558Y-111406183D01*
X131226412Y-111151953D01*
X131435130Y-110871596D01*
X131609889Y-110568904D01*
X131748326Y-110247971D01*
X131848569Y-109913136D01*
X131858894Y-109854583D01*
X131909257Y-109568954D01*
X131909262Y-109568927D01*
X131909263Y-109568895D01*
X131909429Y-109567485D01*
X131909579Y-109567131D01*
X131909889Y-109565374D01*
X131910295Y-109565445D01*
X131936746Y-109503176D01*
X131994494Y-109463845D01*
X132064338Y-109461978D01*
X132124105Y-109498168D01*
X132153486Y-109554253D01*
X132198664Y-109752188D01*
X132198666Y-109752195D01*
X132261830Y-109913134D01*
X132297257Y-110003398D01*
X132432185Y-110237102D01*
X132485655Y-110304151D01*
X132600442Y-110448089D01*
X132730641Y-110568895D01*
X132798259Y-110631635D01*
X133021226Y-110783651D01*
X133264359Y-110900738D01*
X133522228Y-110980280D01*
X133522229Y-110980280D01*
X133522232Y-110980281D01*
X133789063Y-111020499D01*
X133789068Y-111020499D01*
X133789071Y-111020500D01*
X133789072Y-111020500D01*
X134058928Y-111020500D01*
X134058929Y-111020500D01*
X134058936Y-111020499D01*
X134325767Y-110980281D01*
X134325768Y-110980280D01*
X134325772Y-110980280D01*
X134583641Y-110900738D01*
X134826775Y-110783651D01*
X135049741Y-110631635D01*
X135247561Y-110448085D01*
X135415815Y-110237102D01*
X135550743Y-110003398D01*
X135649334Y-109752195D01*
X135709383Y-109489103D01*
X135729549Y-109220004D01*
X137118451Y-109220004D01*
X137138616Y-109489101D01*
X137198664Y-109752188D01*
X137198666Y-109752195D01*
X137261830Y-109913134D01*
X137297257Y-110003398D01*
X137432185Y-110237102D01*
X137485655Y-110304151D01*
X137600442Y-110448089D01*
X137730641Y-110568895D01*
X137798259Y-110631635D01*
X138021226Y-110783651D01*
X138264359Y-110900738D01*
X138522228Y-110980280D01*
X138522229Y-110980280D01*
X138522232Y-110980281D01*
X138789063Y-111020499D01*
X138789068Y-111020499D01*
X138789071Y-111020500D01*
X138789072Y-111020500D01*
X139058928Y-111020500D01*
X139058929Y-111020500D01*
X139058936Y-111020499D01*
X139325767Y-110980281D01*
X139325768Y-110980280D01*
X139325772Y-110980280D01*
X139583641Y-110900738D01*
X139826775Y-110783651D01*
X140049741Y-110631635D01*
X140247561Y-110448085D01*
X140415815Y-110237102D01*
X140550743Y-110003398D01*
X140649334Y-109752195D01*
X140709383Y-109489103D01*
X140729549Y-109220004D01*
X142118451Y-109220004D01*
X142138616Y-109489101D01*
X142198664Y-109752188D01*
X142198666Y-109752195D01*
X142261830Y-109913134D01*
X142297257Y-110003398D01*
X142432185Y-110237102D01*
X142485655Y-110304151D01*
X142600442Y-110448089D01*
X142730641Y-110568895D01*
X142798259Y-110631635D01*
X143021226Y-110783651D01*
X143264359Y-110900738D01*
X143522228Y-110980280D01*
X143522229Y-110980280D01*
X143522232Y-110980281D01*
X143789063Y-111020499D01*
X143789068Y-111020499D01*
X143789071Y-111020500D01*
X143789072Y-111020500D01*
X144058928Y-111020500D01*
X144058929Y-111020500D01*
X144058936Y-111020499D01*
X144325767Y-110980281D01*
X144325768Y-110980280D01*
X144325772Y-110980280D01*
X144583641Y-110900738D01*
X144826775Y-110783651D01*
X145049741Y-110631635D01*
X145247561Y-110448085D01*
X145415815Y-110237102D01*
X145550743Y-110003398D01*
X145649334Y-109752195D01*
X145709383Y-109489103D01*
X145729549Y-109220004D01*
X147118953Y-109220004D01*
X147139113Y-109489026D01*
X147139113Y-109489028D01*
X147199142Y-109752033D01*
X147199148Y-109752052D01*
X147297709Y-110003181D01*
X147297708Y-110003181D01*
X147432602Y-110236822D01*
X147486294Y-110304151D01*
X147486295Y-110304151D01*
X148321452Y-109468993D01*
X148331188Y-109498956D01*
X148419186Y-109637619D01*
X148538903Y-109750040D01*
X148673510Y-109824041D01*
X147838848Y-110658702D01*
X148021483Y-110783220D01*
X148021485Y-110783221D01*
X148264539Y-110900269D01*
X148264537Y-110900269D01*
X148522337Y-110979790D01*
X148522343Y-110979792D01*
X148789101Y-111019999D01*
X148789110Y-111020000D01*
X149058890Y-111020000D01*
X149058898Y-111019999D01*
X149325656Y-110979792D01*
X149325662Y-110979790D01*
X149583461Y-110900269D01*
X149826521Y-110783218D01*
X150009150Y-110658702D01*
X149171534Y-109821086D01*
X149239629Y-109794126D01*
X149372492Y-109697595D01*
X149477175Y-109571055D01*
X149525631Y-109468079D01*
X150361703Y-110304151D01*
X150361704Y-110304150D01*
X150415393Y-110236828D01*
X150415400Y-110236817D01*
X150550290Y-110003181D01*
X150648851Y-109752052D01*
X150648857Y-109752033D01*
X150708886Y-109489028D01*
X150708886Y-109489026D01*
X150729047Y-109220004D01*
X152118451Y-109220004D01*
X152138616Y-109489101D01*
X152198664Y-109752188D01*
X152198666Y-109752195D01*
X152261830Y-109913134D01*
X152297257Y-110003398D01*
X152432185Y-110237102D01*
X152485655Y-110304151D01*
X152600442Y-110448089D01*
X152730641Y-110568895D01*
X152798259Y-110631635D01*
X153021226Y-110783651D01*
X153264359Y-110900738D01*
X153522228Y-110980280D01*
X153522229Y-110980280D01*
X153522232Y-110980281D01*
X153789063Y-111020499D01*
X153789068Y-111020499D01*
X153789071Y-111020500D01*
X153789072Y-111020500D01*
X154058928Y-111020500D01*
X154058929Y-111020500D01*
X154058936Y-111020499D01*
X154325767Y-110980281D01*
X154325768Y-110980280D01*
X154325772Y-110980280D01*
X154583641Y-110900738D01*
X154826775Y-110783651D01*
X155049741Y-110631635D01*
X155247561Y-110448085D01*
X155415815Y-110237102D01*
X155550743Y-110003398D01*
X155649334Y-109752195D01*
X155709383Y-109489103D01*
X155729549Y-109220000D01*
X155726466Y-109178862D01*
X155709389Y-108950973D01*
X155709383Y-108950897D01*
X155649334Y-108687805D01*
X155550743Y-108436602D01*
X155415815Y-108202898D01*
X155247561Y-107991915D01*
X155247560Y-107991914D01*
X155247557Y-107991910D01*
X155049741Y-107808365D01*
X155010038Y-107781296D01*
X154826775Y-107656349D01*
X154826769Y-107656346D01*
X154826768Y-107656345D01*
X154826767Y-107656344D01*
X154583643Y-107539263D01*
X154583645Y-107539263D01*
X154325773Y-107459720D01*
X154325767Y-107459718D01*
X154058936Y-107419500D01*
X154058929Y-107419500D01*
X153789071Y-107419500D01*
X153789063Y-107419500D01*
X153522232Y-107459718D01*
X153522226Y-107459720D01*
X153264358Y-107539262D01*
X153021230Y-107656346D01*
X152798258Y-107808365D01*
X152600442Y-107991910D01*
X152432185Y-108202898D01*
X152297258Y-108436599D01*
X152297256Y-108436603D01*
X152198666Y-108687804D01*
X152198664Y-108687811D01*
X152138616Y-108950898D01*
X152118451Y-109219995D01*
X152118451Y-109220004D01*
X150729047Y-109220004D01*
X150729047Y-109219995D01*
X150708886Y-108950973D01*
X150708886Y-108950971D01*
X150648857Y-108687966D01*
X150648851Y-108687947D01*
X150550290Y-108436818D01*
X150550291Y-108436818D01*
X150415397Y-108203177D01*
X150361704Y-108135847D01*
X149526546Y-108971004D01*
X149516812Y-108941044D01*
X149428814Y-108802381D01*
X149309097Y-108689960D01*
X149174489Y-108615958D01*
X150009150Y-107781296D01*
X149826517Y-107656779D01*
X149826516Y-107656778D01*
X149583460Y-107539730D01*
X149583462Y-107539730D01*
X149325662Y-107460209D01*
X149325656Y-107460207D01*
X149058898Y-107420000D01*
X148789101Y-107420000D01*
X148522343Y-107460207D01*
X148522337Y-107460209D01*
X148264538Y-107539730D01*
X148021485Y-107656778D01*
X148021476Y-107656783D01*
X147838848Y-107781296D01*
X148676465Y-108618913D01*
X148608371Y-108645874D01*
X148475508Y-108742405D01*
X148370825Y-108868945D01*
X148322368Y-108971921D01*
X147486295Y-108135848D01*
X147432600Y-108203180D01*
X147297709Y-108436818D01*
X147199148Y-108687947D01*
X147199142Y-108687966D01*
X147139113Y-108950971D01*
X147139113Y-108950973D01*
X147118953Y-109219995D01*
X147118953Y-109220004D01*
X145729549Y-109220004D01*
X145729549Y-109220000D01*
X145726466Y-109178862D01*
X145709389Y-108950973D01*
X145709383Y-108950897D01*
X145649334Y-108687805D01*
X145550743Y-108436602D01*
X145415815Y-108202898D01*
X145247561Y-107991915D01*
X145247560Y-107991914D01*
X145247557Y-107991910D01*
X145049741Y-107808365D01*
X145010038Y-107781296D01*
X144826775Y-107656349D01*
X144826769Y-107656346D01*
X144826768Y-107656345D01*
X144826767Y-107656344D01*
X144583643Y-107539263D01*
X144583645Y-107539263D01*
X144325773Y-107459720D01*
X144325767Y-107459718D01*
X144058936Y-107419500D01*
X144058929Y-107419500D01*
X143789071Y-107419500D01*
X143789063Y-107419500D01*
X143522232Y-107459718D01*
X143522226Y-107459720D01*
X143264358Y-107539262D01*
X143021230Y-107656346D01*
X142798258Y-107808365D01*
X142600442Y-107991910D01*
X142432185Y-108202898D01*
X142297258Y-108436599D01*
X142297256Y-108436603D01*
X142198666Y-108687804D01*
X142198664Y-108687811D01*
X142138616Y-108950898D01*
X142118451Y-109219995D01*
X142118451Y-109220004D01*
X140729549Y-109220004D01*
X140729549Y-109220000D01*
X140726466Y-109178862D01*
X140709389Y-108950973D01*
X140709383Y-108950897D01*
X140649334Y-108687805D01*
X140550743Y-108436602D01*
X140415815Y-108202898D01*
X140247561Y-107991915D01*
X140247560Y-107991914D01*
X140247557Y-107991910D01*
X140049741Y-107808365D01*
X140010038Y-107781296D01*
X139826775Y-107656349D01*
X139826769Y-107656346D01*
X139826768Y-107656345D01*
X139826767Y-107656344D01*
X139583643Y-107539263D01*
X139583645Y-107539263D01*
X139325773Y-107459720D01*
X139325767Y-107459718D01*
X139058936Y-107419500D01*
X139058929Y-107419500D01*
X138789071Y-107419500D01*
X138789063Y-107419500D01*
X138522232Y-107459718D01*
X138522226Y-107459720D01*
X138264358Y-107539262D01*
X138021230Y-107656346D01*
X137798258Y-107808365D01*
X137600442Y-107991910D01*
X137432185Y-108202898D01*
X137297258Y-108436599D01*
X137297256Y-108436603D01*
X137198666Y-108687804D01*
X137198664Y-108687811D01*
X137138616Y-108950898D01*
X137118451Y-109219995D01*
X137118451Y-109220004D01*
X135729549Y-109220004D01*
X135729549Y-109220000D01*
X135726466Y-109178862D01*
X135709389Y-108950973D01*
X135709383Y-108950897D01*
X135649334Y-108687805D01*
X135550743Y-108436602D01*
X135415815Y-108202898D01*
X135247561Y-107991915D01*
X135247560Y-107991914D01*
X135247557Y-107991910D01*
X135049741Y-107808365D01*
X135010038Y-107781296D01*
X134826775Y-107656349D01*
X134826769Y-107656346D01*
X134826768Y-107656345D01*
X134826767Y-107656344D01*
X134583643Y-107539263D01*
X134583645Y-107539263D01*
X134325773Y-107459720D01*
X134325767Y-107459718D01*
X134058936Y-107419500D01*
X134058929Y-107419500D01*
X133789071Y-107419500D01*
X133789063Y-107419500D01*
X133522232Y-107459718D01*
X133522226Y-107459720D01*
X133264358Y-107539262D01*
X133021230Y-107656346D01*
X132798258Y-107808365D01*
X132600442Y-107991910D01*
X132432185Y-108202898D01*
X132297258Y-108436599D01*
X132297256Y-108436603D01*
X132198666Y-108687804D01*
X132198664Y-108687811D01*
X132169391Y-108816065D01*
X132135282Y-108877043D01*
X132073621Y-108909901D01*
X132003984Y-108904206D01*
X131948480Y-108861766D01*
X131924732Y-108796056D01*
X131924500Y-108788472D01*
X131924500Y-99339870D01*
X149714300Y-99339870D01*
X149714301Y-99339876D01*
X149720708Y-99399483D01*
X149771002Y-99534328D01*
X149771006Y-99534335D01*
X149857252Y-99649544D01*
X149857255Y-99649547D01*
X149972464Y-99735793D01*
X149972471Y-99735797D01*
X150107317Y-99786091D01*
X150107316Y-99786091D01*
X150114244Y-99786835D01*
X150166927Y-99792500D01*
X152862672Y-99792499D01*
X152922283Y-99786091D01*
X153057131Y-99735796D01*
X153172346Y-99649546D01*
X153258596Y-99534331D01*
X153308891Y-99399483D01*
X153315300Y-99339873D01*
X153315299Y-96644128D01*
X153308891Y-96584517D01*
X153279369Y-96505365D01*
X153258597Y-96449671D01*
X153258593Y-96449664D01*
X153172347Y-96334455D01*
X153172344Y-96334452D01*
X153057135Y-96248206D01*
X153057128Y-96248202D01*
X152922282Y-96197908D01*
X152922283Y-96197908D01*
X152862683Y-96191501D01*
X152862681Y-96191500D01*
X152862673Y-96191500D01*
X152862664Y-96191500D01*
X150166929Y-96191500D01*
X150166923Y-96191501D01*
X150107316Y-96197908D01*
X149972471Y-96248202D01*
X149972464Y-96248206D01*
X149857255Y-96334452D01*
X149857252Y-96334455D01*
X149771006Y-96449664D01*
X149771002Y-96449671D01*
X149720708Y-96584517D01*
X149714301Y-96644116D01*
X149714301Y-96644123D01*
X149714300Y-96644135D01*
X149714300Y-99339870D01*
X131924500Y-99339870D01*
X131924500Y-93018428D01*
X133139686Y-93018428D01*
X133170148Y-93366601D01*
X133170148Y-93366604D01*
X133240825Y-93708898D01*
X133337668Y-94001150D01*
X133350767Y-94040681D01*
X133498480Y-94357452D01*
X133498481Y-94357453D01*
X133498485Y-94357462D01*
X133620733Y-94555655D01*
X133681969Y-94654933D01*
X133790743Y-94792500D01*
X133898758Y-94929107D01*
X134145892Y-95176241D01*
X134145896Y-95176244D01*
X134145899Y-95176247D01*
X134420067Y-95393031D01*
X134420072Y-95393034D01*
X134717537Y-95576514D01*
X134717541Y-95576516D01*
X134717548Y-95576520D01*
X135034319Y-95724233D01*
X135366098Y-95834173D01*
X135366100Y-95834173D01*
X135366102Y-95834174D01*
X135366100Y-95834174D01*
X135619327Y-95886460D01*
X135708395Y-95904851D01*
X136056584Y-95935314D01*
X136405954Y-95925148D01*
X136751782Y-95874492D01*
X137089391Y-95784029D01*
X137414215Y-95654985D01*
X137721861Y-95489104D01*
X138008170Y-95288628D01*
X138203940Y-95114408D01*
X142289529Y-91028819D01*
X142350852Y-90995334D01*
X142377210Y-90992500D01*
X151065873Y-90992500D01*
X151132912Y-91012185D01*
X151178667Y-91064989D01*
X151188611Y-91134147D01*
X151159586Y-91197703D01*
X151102423Y-91234991D01*
X150855158Y-91311262D01*
X150612030Y-91428346D01*
X150389058Y-91580365D01*
X150191242Y-91763910D01*
X150022985Y-91974898D01*
X149888058Y-92208599D01*
X149888056Y-92208603D01*
X149789466Y-92459804D01*
X149789464Y-92459811D01*
X149729416Y-92722898D01*
X149709251Y-92991995D01*
X149709251Y-92992004D01*
X149729416Y-93261101D01*
X149772315Y-93449052D01*
X149789466Y-93524195D01*
X149888057Y-93775398D01*
X150022985Y-94009102D01*
X150048169Y-94040681D01*
X150191242Y-94220089D01*
X150339296Y-94357462D01*
X150389059Y-94403635D01*
X150612026Y-94555651D01*
X150855159Y-94672738D01*
X151113028Y-94752280D01*
X151113029Y-94752280D01*
X151113032Y-94752281D01*
X151379863Y-94792499D01*
X151379868Y-94792499D01*
X151379871Y-94792500D01*
X151379872Y-94792500D01*
X151649728Y-94792500D01*
X151649729Y-94792500D01*
X151649736Y-94792499D01*
X151916567Y-94752281D01*
X151916568Y-94752280D01*
X151916572Y-94752280D01*
X152174441Y-94672738D01*
X152417575Y-94555651D01*
X152640541Y-94403635D01*
X152838361Y-94220085D01*
X153006615Y-94009102D01*
X153141543Y-93775398D01*
X153240134Y-93524195D01*
X153300183Y-93261103D01*
X153318369Y-93018428D01*
X153320349Y-92992004D01*
X153320349Y-92991995D01*
X153300183Y-92722898D01*
X153283082Y-92647973D01*
X153240134Y-92459805D01*
X153141543Y-92208602D01*
X153006615Y-91974898D01*
X152838361Y-91763915D01*
X152838360Y-91763914D01*
X152838357Y-91763910D01*
X152640541Y-91580365D01*
X152417575Y-91428349D01*
X152417569Y-91428346D01*
X152417568Y-91428345D01*
X152417567Y-91428344D01*
X152174443Y-91311263D01*
X152174445Y-91311263D01*
X151916573Y-91231720D01*
X151916567Y-91231718D01*
X151859267Y-91223082D01*
X151795910Y-91193625D01*
X151758536Y-91134592D01*
X151759011Y-91064724D01*
X151797185Y-91006204D01*
X151860184Y-90977949D01*
X151860174Y-90977889D01*
X151860411Y-90977847D01*
X151860936Y-90977612D01*
X151863372Y-90977303D01*
X151863706Y-90977263D01*
X151863727Y-90977262D01*
X152022850Y-90949204D01*
X152207927Y-90916571D01*
X152207930Y-90916569D01*
X152207936Y-90916569D01*
X152542771Y-90816326D01*
X152863704Y-90677889D01*
X153166396Y-90503130D01*
X153446753Y-90294412D01*
X153700983Y-90054558D01*
X153925649Y-89786811D01*
X154117713Y-89494793D01*
X154274577Y-89182451D01*
X154394119Y-88854011D01*
X154474723Y-88513914D01*
X154515300Y-88166759D01*
X154515300Y-87817241D01*
X154474723Y-87470086D01*
X154394119Y-87129989D01*
X154274577Y-86801549D01*
X154117713Y-86489207D01*
X154117711Y-86489203D01*
X153925653Y-86197194D01*
X153925647Y-86197186D01*
X153849051Y-86105903D01*
X153700983Y-85929442D01*
X153540815Y-85778331D01*
X153446755Y-85689589D01*
X153446749Y-85689584D01*
X153166397Y-85480870D01*
X152863708Y-85306113D01*
X152863695Y-85306107D01*
X152542772Y-85167674D01*
X152207934Y-85067430D01*
X152207927Y-85067428D01*
X151863721Y-85006736D01*
X151863341Y-85006692D01*
X151863250Y-85006653D01*
X151860174Y-85006111D01*
X151860299Y-85005398D01*
X151799043Y-84979352D01*
X151759733Y-84921589D01*
X151757892Y-84851744D01*
X151794104Y-84791991D01*
X151856873Y-84761302D01*
X151859251Y-84760919D01*
X151895497Y-84755456D01*
X151916566Y-84752281D01*
X151916566Y-84752280D01*
X151916572Y-84752280D01*
X152174441Y-84672738D01*
X152417575Y-84555651D01*
X152640541Y-84403635D01*
X152838361Y-84220085D01*
X153006615Y-84009102D01*
X153141543Y-83775398D01*
X153240134Y-83524195D01*
X153300183Y-83261103D01*
X153320349Y-82992000D01*
X153314728Y-82916995D01*
X153300183Y-82722898D01*
X153283065Y-82647898D01*
X153240134Y-82459805D01*
X153141543Y-82208602D01*
X153006615Y-81974898D01*
X152838361Y-81763915D01*
X152838360Y-81763914D01*
X152838357Y-81763910D01*
X152640541Y-81580365D01*
X152530536Y-81505365D01*
X152417575Y-81428349D01*
X152417569Y-81428346D01*
X152417568Y-81428345D01*
X152417567Y-81428344D01*
X152174443Y-81311263D01*
X152174445Y-81311263D01*
X151916573Y-81231720D01*
X151916567Y-81231718D01*
X151649736Y-81191500D01*
X151649729Y-81191500D01*
X151379871Y-81191500D01*
X151379863Y-81191500D01*
X151113032Y-81231718D01*
X151113026Y-81231720D01*
X150855158Y-81311262D01*
X150612030Y-81428346D01*
X150389058Y-81580365D01*
X150191242Y-81763910D01*
X150022985Y-81974898D01*
X149888058Y-82208599D01*
X149888056Y-82208603D01*
X149789466Y-82459804D01*
X149789464Y-82459811D01*
X149729416Y-82722898D01*
X149709251Y-82991995D01*
X149709251Y-82992004D01*
X149729416Y-83261101D01*
X149789464Y-83524188D01*
X149789466Y-83524195D01*
X149858620Y-83700396D01*
X149888057Y-83775398D01*
X150022985Y-84009102D01*
X150158880Y-84179509D01*
X150191242Y-84220089D01*
X150308227Y-84328634D01*
X150389059Y-84403635D01*
X150612026Y-84555651D01*
X150855159Y-84672738D01*
X151000271Y-84717499D01*
X151102423Y-84749009D01*
X151160682Y-84787579D01*
X151188840Y-84851524D01*
X151177956Y-84920541D01*
X151131487Y-84972718D01*
X151065873Y-84991500D01*
X141219423Y-84991500D01*
X141208616Y-84991028D01*
X141203663Y-84990594D01*
X141170423Y-84987686D01*
X141170417Y-84987686D01*
X141170416Y-84987686D01*
X141058136Y-84990953D01*
X141041128Y-84991448D01*
X141037522Y-84991500D01*
X140995690Y-84991500D01*
X140953947Y-84993930D01*
X140950349Y-84994087D01*
X140821059Y-84997850D01*
X140821047Y-84997851D01*
X140783100Y-85003410D01*
X140772340Y-85004509D01*
X140734071Y-85006738D01*
X140734058Y-85006739D01*
X140606760Y-85029185D01*
X140603202Y-85029760D01*
X140475214Y-85048508D01*
X140438176Y-85058433D01*
X140427615Y-85060774D01*
X140389872Y-85067428D01*
X140389860Y-85067431D01*
X140266004Y-85104511D01*
X140262536Y-85105494D01*
X140137625Y-85138964D01*
X140137597Y-85138974D01*
X140101970Y-85153127D01*
X140091758Y-85156677D01*
X140055029Y-85167673D01*
X139936311Y-85218882D01*
X139932982Y-85220261D01*
X139812787Y-85268013D01*
X139812785Y-85268014D01*
X139779040Y-85286209D01*
X139769309Y-85290920D01*
X139734104Y-85306107D01*
X139734092Y-85306113D01*
X139622102Y-85370768D01*
X139618956Y-85372524D01*
X139505139Y-85433895D01*
X139473730Y-85455887D01*
X139464614Y-85461695D01*
X139431400Y-85480872D01*
X139431397Y-85480874D01*
X139327694Y-85558079D01*
X139324770Y-85560190D01*
X139218840Y-85634363D01*
X139218835Y-85634367D01*
X139190194Y-85659854D01*
X139181816Y-85666678D01*
X139151057Y-85689579D01*
X139151050Y-85689585D01*
X139056982Y-85778331D01*
X139054329Y-85780762D01*
X139023076Y-85808576D01*
X139023062Y-85808590D01*
X138993462Y-85838188D01*
X138990881Y-85840695D01*
X138924113Y-85903688D01*
X138896820Y-85929440D01*
X138896809Y-85929450D01*
X138872169Y-85958814D01*
X138864863Y-85966787D01*
X133960610Y-90871040D01*
X133960594Y-90871057D01*
X133786375Y-91066826D01*
X133786372Y-91066828D01*
X133786372Y-91066830D01*
X133585896Y-91353139D01*
X133585893Y-91353142D01*
X133585891Y-91353147D01*
X133420017Y-91660779D01*
X133420010Y-91660796D01*
X133290973Y-91985602D01*
X133290969Y-91985613D01*
X133200508Y-92323214D01*
X133200508Y-92323215D01*
X133149852Y-92669044D01*
X133139686Y-93018428D01*
X131924500Y-93018428D01*
X131924500Y-77992004D01*
X149709251Y-77992004D01*
X149729416Y-78261101D01*
X149789464Y-78524188D01*
X149789466Y-78524195D01*
X149858620Y-78700396D01*
X149888057Y-78775398D01*
X150022985Y-79009102D01*
X150158880Y-79179509D01*
X150191242Y-79220089D01*
X150308227Y-79328634D01*
X150389059Y-79403635D01*
X150612026Y-79555651D01*
X150855159Y-79672738D01*
X151113028Y-79752280D01*
X151113029Y-79752280D01*
X151113032Y-79752281D01*
X151379863Y-79792499D01*
X151379868Y-79792499D01*
X151379871Y-79792500D01*
X151379872Y-79792500D01*
X151649728Y-79792500D01*
X151649729Y-79792500D01*
X151649736Y-79792499D01*
X151916567Y-79752281D01*
X151916568Y-79752280D01*
X151916572Y-79752280D01*
X152174441Y-79672738D01*
X152417575Y-79555651D01*
X152640541Y-79403635D01*
X152838361Y-79220085D01*
X153006615Y-79009102D01*
X153141543Y-78775398D01*
X153240134Y-78524195D01*
X153300183Y-78261103D01*
X153320349Y-77992000D01*
X153314728Y-77916995D01*
X153300183Y-77722898D01*
X153283065Y-77647898D01*
X153240134Y-77459805D01*
X153141543Y-77208602D01*
X153006615Y-76974898D01*
X152838361Y-76763915D01*
X152838360Y-76763914D01*
X152838357Y-76763910D01*
X152640541Y-76580365D01*
X152530536Y-76505365D01*
X152417575Y-76428349D01*
X152417569Y-76428346D01*
X152417568Y-76428345D01*
X152417567Y-76428344D01*
X152174443Y-76311263D01*
X152174445Y-76311263D01*
X151916573Y-76231720D01*
X151916567Y-76231718D01*
X151649736Y-76191500D01*
X151649729Y-76191500D01*
X151379871Y-76191500D01*
X151379863Y-76191500D01*
X151113032Y-76231718D01*
X151113026Y-76231720D01*
X150855158Y-76311262D01*
X150612030Y-76428346D01*
X150389058Y-76580365D01*
X150191242Y-76763910D01*
X150022985Y-76974898D01*
X149888058Y-77208599D01*
X149888056Y-77208603D01*
X149789466Y-77459804D01*
X149789464Y-77459811D01*
X149729416Y-77722898D01*
X149709251Y-77991995D01*
X149709251Y-77992004D01*
X131924500Y-77992004D01*
X131924500Y-76041500D01*
X131944185Y-75974461D01*
X131996989Y-75928706D01*
X132048500Y-75917500D01*
X135820798Y-75917500D01*
X135838769Y-75918809D01*
X135843273Y-75919468D01*
X135882046Y-75925148D01*
X135965871Y-75927586D01*
X135973052Y-75928005D01*
X136056584Y-75935314D01*
X136140426Y-75932874D01*
X136147574Y-75932874D01*
X136231416Y-75935314D01*
X136314950Y-75928004D01*
X136322127Y-75927586D01*
X136405954Y-75925148D01*
X136488956Y-75912989D01*
X136496065Y-75912159D01*
X136545586Y-75907827D01*
X136579599Y-75904852D01*
X136579602Y-75904851D01*
X136579605Y-75904851D01*
X136661751Y-75887888D01*
X136668785Y-75886648D01*
X136751782Y-75874492D01*
X136832788Y-75852785D01*
X136839752Y-75851134D01*
X136921902Y-75834173D01*
X136921901Y-75834173D01*
X136921907Y-75834172D01*
X137001506Y-75807794D01*
X137008408Y-75805727D01*
X137089391Y-75784029D01*
X137167326Y-75753066D01*
X137174057Y-75750616D01*
X137253681Y-75724233D01*
X137329688Y-75688788D01*
X137336291Y-75685941D01*
X137414215Y-75654985D01*
X137488014Y-75615191D01*
X137494451Y-75611959D01*
X137499127Y-75609778D01*
X137570452Y-75576520D01*
X137641813Y-75532502D01*
X137648060Y-75528896D01*
X137721861Y-75489104D01*
X137790575Y-75440988D01*
X137796540Y-75437065D01*
X137846498Y-75406251D01*
X137867924Y-75393037D01*
X137867926Y-75393034D01*
X137867933Y-75393031D01*
X137933726Y-75341007D01*
X137939486Y-75336719D01*
X137974456Y-75312234D01*
X138008162Y-75288634D01*
X138008164Y-75288632D01*
X138008170Y-75288628D01*
X138070829Y-75232864D01*
X138076302Y-75228273D01*
X138142101Y-75176247D01*
X138389247Y-74929101D01*
X140326342Y-72992004D01*
X149709251Y-72992004D01*
X149729416Y-73261101D01*
X149789464Y-73524188D01*
X149789466Y-73524195D01*
X149888056Y-73775396D01*
X149888058Y-73775400D01*
X149916570Y-73824784D01*
X150022985Y-74009102D01*
X150101416Y-74107451D01*
X150191242Y-74220089D01*
X150377983Y-74393358D01*
X150389059Y-74403635D01*
X150612026Y-74555651D01*
X150855159Y-74672738D01*
X151113028Y-74752280D01*
X151113029Y-74752280D01*
X151113032Y-74752281D01*
X151379863Y-74792499D01*
X151379868Y-74792499D01*
X151379871Y-74792500D01*
X151379872Y-74792500D01*
X151649728Y-74792500D01*
X151649729Y-74792500D01*
X151649736Y-74792499D01*
X151916567Y-74752281D01*
X151916568Y-74752280D01*
X151916572Y-74752280D01*
X152174441Y-74672738D01*
X152417575Y-74555651D01*
X152640541Y-74403635D01*
X152838361Y-74220085D01*
X153006615Y-74009102D01*
X153141543Y-73775398D01*
X153240134Y-73524195D01*
X153300183Y-73261103D01*
X153320349Y-72992000D01*
X153300183Y-72722897D01*
X153240134Y-72459805D01*
X153141543Y-72208602D01*
X153006615Y-71974898D01*
X152838361Y-71763915D01*
X152838360Y-71763914D01*
X152838357Y-71763910D01*
X152640541Y-71580365D01*
X152505901Y-71488569D01*
X152417575Y-71428349D01*
X152417569Y-71428346D01*
X152417568Y-71428345D01*
X152417567Y-71428344D01*
X152174443Y-71311263D01*
X152174445Y-71311263D01*
X151916573Y-71231720D01*
X151916567Y-71231718D01*
X151649736Y-71191500D01*
X151649729Y-71191500D01*
X151379871Y-71191500D01*
X151379863Y-71191500D01*
X151113032Y-71231718D01*
X151113026Y-71231720D01*
X150855158Y-71311262D01*
X150612030Y-71428346D01*
X150389058Y-71580365D01*
X150191242Y-71763910D01*
X150022985Y-71974898D01*
X149888058Y-72208599D01*
X149888056Y-72208603D01*
X149789466Y-72459804D01*
X149789464Y-72459811D01*
X149729416Y-72722898D01*
X149709251Y-72991995D01*
X149709251Y-72992004D01*
X140326342Y-72992004D01*
X140760018Y-72558328D01*
X140767971Y-72551040D01*
X140797358Y-72526383D01*
X140886134Y-72432284D01*
X140888580Y-72429766D01*
X140918208Y-72400140D01*
X140946059Y-72368841D01*
X140948463Y-72366220D01*
X141037213Y-72272152D01*
X141060106Y-72241399D01*
X141066937Y-72233011D01*
X141092427Y-72204371D01*
X141166620Y-72098409D01*
X141168666Y-72095577D01*
X141245930Y-71991796D01*
X141265108Y-71958576D01*
X141270908Y-71949472D01*
X141292903Y-71918062D01*
X141354302Y-71804187D01*
X141356016Y-71801119D01*
X141420680Y-71689120D01*
X141420681Y-71689117D01*
X141420689Y-71689104D01*
X141435878Y-71653889D01*
X141440576Y-71644183D01*
X141458785Y-71610415D01*
X141506528Y-71490237D01*
X141507898Y-71486929D01*
X141559126Y-71368171D01*
X141570127Y-71331422D01*
X141573675Y-71321217D01*
X141587827Y-71285598D01*
X141587827Y-71285595D01*
X141587829Y-71285592D01*
X141621304Y-71160657D01*
X141622276Y-71157233D01*
X141659366Y-71033348D01*
X141659366Y-71033343D01*
X141659369Y-71033336D01*
X141666030Y-70995553D01*
X141668360Y-70985041D01*
X141678291Y-70947983D01*
X141697039Y-70819989D01*
X141697601Y-70816503D01*
X141720062Y-70689127D01*
X141722291Y-70650836D01*
X141723390Y-70640090D01*
X141728948Y-70602154D01*
X141732709Y-70472866D01*
X141732867Y-70469269D01*
X141735300Y-70427505D01*
X141735300Y-70385654D01*
X141735352Y-70382049D01*
X141735370Y-70381399D01*
X141739113Y-70252784D01*
X141735771Y-70214595D01*
X141735300Y-70203788D01*
X141735300Y-67992004D01*
X149709753Y-67992004D01*
X149729913Y-68261026D01*
X149729913Y-68261028D01*
X149789942Y-68524033D01*
X149789948Y-68524052D01*
X149888509Y-68775181D01*
X149888508Y-68775181D01*
X150023402Y-69008822D01*
X150077094Y-69076151D01*
X150077095Y-69076151D01*
X150912252Y-68240993D01*
X150921988Y-68270956D01*
X151009986Y-68409619D01*
X151129703Y-68522040D01*
X151264310Y-68596041D01*
X150429648Y-69430702D01*
X150612283Y-69555220D01*
X150612285Y-69555221D01*
X150855339Y-69672269D01*
X150855337Y-69672269D01*
X151113137Y-69751790D01*
X151113143Y-69751792D01*
X151379901Y-69791999D01*
X151379910Y-69792000D01*
X151649690Y-69792000D01*
X151649698Y-69791999D01*
X151916456Y-69751792D01*
X151916462Y-69751790D01*
X152174261Y-69672269D01*
X152417321Y-69555218D01*
X152599950Y-69430702D01*
X151762334Y-68593086D01*
X151830429Y-68566126D01*
X151963292Y-68469595D01*
X152067975Y-68343055D01*
X152116431Y-68240079D01*
X152952503Y-69076151D01*
X152952504Y-69076150D01*
X153006193Y-69008828D01*
X153006200Y-69008817D01*
X153141090Y-68775181D01*
X153239651Y-68524052D01*
X153239657Y-68524033D01*
X153299686Y-68261028D01*
X153299686Y-68261026D01*
X153319847Y-67992004D01*
X153319847Y-67991995D01*
X153299686Y-67722973D01*
X153299686Y-67722971D01*
X153239657Y-67459966D01*
X153239651Y-67459947D01*
X153141090Y-67208818D01*
X153141091Y-67208818D01*
X153006197Y-66975177D01*
X152952504Y-66907847D01*
X152117346Y-67743004D01*
X152107612Y-67713044D01*
X152019614Y-67574381D01*
X151899897Y-67461960D01*
X151765289Y-67387958D01*
X152599950Y-66553296D01*
X152417317Y-66428779D01*
X152417316Y-66428778D01*
X152174260Y-66311730D01*
X152174262Y-66311730D01*
X151916462Y-66232209D01*
X151916456Y-66232207D01*
X151649698Y-66192000D01*
X151379901Y-66192000D01*
X151113143Y-66232207D01*
X151113137Y-66232209D01*
X150855338Y-66311730D01*
X150612285Y-66428778D01*
X150612276Y-66428783D01*
X150429648Y-66553296D01*
X151267265Y-67390913D01*
X151199171Y-67417874D01*
X151066308Y-67514405D01*
X150961625Y-67640945D01*
X150913168Y-67743921D01*
X150077095Y-66907848D01*
X150023400Y-66975180D01*
X149888509Y-67208818D01*
X149789948Y-67459947D01*
X149789942Y-67459966D01*
X149729913Y-67722971D01*
X149729913Y-67722973D01*
X149709753Y-67991995D01*
X149709753Y-67992004D01*
X141735300Y-67992004D01*
X141735300Y-62992004D01*
X149709251Y-62992004D01*
X149729416Y-63261101D01*
X149789464Y-63524188D01*
X149789466Y-63524195D01*
X149888057Y-63775398D01*
X150022985Y-64009102D01*
X150158880Y-64179509D01*
X150191242Y-64220089D01*
X150303752Y-64324482D01*
X150389059Y-64403635D01*
X150612026Y-64555651D01*
X150855159Y-64672738D01*
X151113028Y-64752280D01*
X151113029Y-64752280D01*
X151113032Y-64752281D01*
X151379863Y-64792499D01*
X151379868Y-64792499D01*
X151379871Y-64792500D01*
X151379872Y-64792500D01*
X151649728Y-64792500D01*
X151649729Y-64792500D01*
X151649736Y-64792499D01*
X151916567Y-64752281D01*
X151916568Y-64752280D01*
X151916572Y-64752280D01*
X152174441Y-64672738D01*
X152417575Y-64555651D01*
X152640541Y-64403635D01*
X152838361Y-64220085D01*
X153006615Y-64009102D01*
X153141543Y-63775398D01*
X153240134Y-63524195D01*
X153300183Y-63261103D01*
X153320349Y-62992000D01*
X153300183Y-62722897D01*
X153240134Y-62459805D01*
X153141543Y-62208602D01*
X153006615Y-61974898D01*
X152838361Y-61763915D01*
X152838360Y-61763914D01*
X152838357Y-61763910D01*
X152640541Y-61580365D01*
X152536626Y-61509517D01*
X152417575Y-61428349D01*
X152417569Y-61428346D01*
X152417568Y-61428345D01*
X152417567Y-61428344D01*
X152174443Y-61311263D01*
X152174445Y-61311263D01*
X151916573Y-61231720D01*
X151916567Y-61231718D01*
X151649736Y-61191500D01*
X151649729Y-61191500D01*
X151379871Y-61191500D01*
X151379863Y-61191500D01*
X151113032Y-61231718D01*
X151113026Y-61231720D01*
X150855158Y-61311262D01*
X150612030Y-61428346D01*
X150389058Y-61580365D01*
X150191242Y-61763910D01*
X150022985Y-61974898D01*
X149888058Y-62208599D01*
X149888056Y-62208603D01*
X149789466Y-62459804D01*
X149789464Y-62459811D01*
X149729416Y-62722898D01*
X149709251Y-62991995D01*
X149709251Y-62992004D01*
X141735300Y-62992004D01*
X141735300Y-52033493D01*
X141726706Y-51885947D01*
X141720062Y-51771873D01*
X141708011Y-51703527D01*
X141659371Y-51427672D01*
X141659369Y-51427665D01*
X141631231Y-51333678D01*
X141575437Y-51147312D01*
X147981374Y-51147312D01*
X148011145Y-51519270D01*
X148080285Y-51885947D01*
X148188004Y-52243191D01*
X148333091Y-52586970D01*
X148513891Y-52913370D01*
X148513894Y-52913374D01*
X148728369Y-53218713D01*
X148974084Y-53499525D01*
X149115124Y-53629727D01*
X149248256Y-53752629D01*
X149474615Y-53920800D01*
X149547777Y-53975155D01*
X149869255Y-54164584D01*
X150209047Y-54318769D01*
X150563302Y-54435963D01*
X150928008Y-54514838D01*
X151299031Y-54554500D01*
X151578809Y-54554500D01*
X151578813Y-54554500D01*
X151759819Y-54544852D01*
X151858194Y-54539610D01*
X151858198Y-54539609D01*
X151858208Y-54539609D01*
X152226595Y-54480256D01*
X152586586Y-54382083D01*
X152934102Y-54246201D01*
X153265206Y-54074150D01*
X153576147Y-53867880D01*
X153863400Y-53629727D01*
X154123713Y-53362391D01*
X154354134Y-53068899D01*
X154552054Y-52752578D01*
X154715230Y-52417011D01*
X154841812Y-52066000D01*
X154930368Y-51703524D01*
X154979893Y-51333688D01*
X154989826Y-50960683D01*
X154960055Y-50588735D01*
X154890916Y-50222059D01*
X154880901Y-50188844D01*
X154783195Y-49864808D01*
X154638108Y-49521029D01*
X154457308Y-49194629D01*
X154457305Y-49194625D01*
X154348065Y-49039105D01*
X154242831Y-48889287D01*
X153997116Y-48608475D01*
X153722945Y-48355372D01*
X153722943Y-48355370D01*
X153423433Y-48132852D01*
X153423430Y-48132850D01*
X153423423Y-48132845D01*
X153101945Y-47943416D01*
X152762153Y-47789231D01*
X152762149Y-47789229D01*
X152762143Y-47789227D01*
X152407902Y-47672038D01*
X152407889Y-47672035D01*
X152043195Y-47593162D01*
X152043188Y-47593161D01*
X151672169Y-47553500D01*
X151392387Y-47553500D01*
X151392376Y-47553500D01*
X151113005Y-47568389D01*
X151112979Y-47568392D01*
X150744607Y-47627743D01*
X150744604Y-47627744D01*
X150384613Y-47725917D01*
X150222689Y-47789231D01*
X150037098Y-47861799D01*
X150037096Y-47861799D01*
X150037096Y-47861800D01*
X149705998Y-48033847D01*
X149395058Y-48240116D01*
X149395049Y-48240122D01*
X149107811Y-48478263D01*
X149107796Y-48478277D01*
X148847488Y-48745607D01*
X148617069Y-49039095D01*
X148617062Y-49039105D01*
X148419148Y-49355416D01*
X148419146Y-49355421D01*
X148255967Y-49690994D01*
X148129386Y-50042004D01*
X148040832Y-50404472D01*
X148040831Y-50404480D01*
X148016158Y-50588735D01*
X147991630Y-50771904D01*
X147991308Y-50774305D01*
X147991306Y-50774321D01*
X147981374Y-51147312D01*
X141575437Y-51147312D01*
X141559126Y-51092829D01*
X141420689Y-50771896D01*
X141245930Y-50469204D01*
X141245929Y-50469202D01*
X141037215Y-50188850D01*
X141037210Y-50188844D01*
X140921233Y-50065917D01*
X140797358Y-49934617D01*
X140649288Y-49810372D01*
X140529613Y-49709952D01*
X140529605Y-49709946D01*
X140237596Y-49517888D01*
X139925258Y-49361026D01*
X139925252Y-49361023D01*
X139596812Y-49241481D01*
X139596809Y-49241480D01*
X139256715Y-49160877D01*
X139213319Y-49155804D01*
X138909559Y-49120300D01*
X138560041Y-49120300D01*
X138256280Y-49155804D01*
X138212885Y-49160877D01*
X138212883Y-49160877D01*
X137872790Y-49241480D01*
X137872787Y-49241481D01*
X137544347Y-49361023D01*
X137544341Y-49361026D01*
X137232003Y-49517888D01*
X136939994Y-49709946D01*
X136939986Y-49709952D01*
X136672242Y-49934617D01*
X136672240Y-49934619D01*
X136432389Y-50188844D01*
X136432384Y-50188850D01*
X136223670Y-50469202D01*
X136048913Y-50771891D01*
X136048907Y-50771904D01*
X135910474Y-51092827D01*
X135810230Y-51427665D01*
X135810228Y-51427672D01*
X135749540Y-51771857D01*
X135749193Y-51774830D01*
X135721863Y-51839133D01*
X135664107Y-51878452D01*
X135594262Y-51880304D01*
X135534503Y-51844102D01*
X135505139Y-51788035D01*
X135459657Y-51588766D01*
X135459651Y-51588747D01*
X135361090Y-51337618D01*
X135361091Y-51337618D01*
X135226197Y-51103977D01*
X135172504Y-51036647D01*
X134337346Y-51871804D01*
X134327612Y-51841844D01*
X134239614Y-51703181D01*
X134119897Y-51590760D01*
X133985289Y-51516758D01*
X134819950Y-50682096D01*
X134637317Y-50557579D01*
X134637316Y-50557578D01*
X134394260Y-50440530D01*
X134394262Y-50440530D01*
X134136462Y-50361009D01*
X134136456Y-50361007D01*
X133869698Y-50320800D01*
X133599901Y-50320800D01*
X133333143Y-50361007D01*
X133333137Y-50361009D01*
X133075338Y-50440530D01*
X132832285Y-50557578D01*
X132832276Y-50557583D01*
X132649648Y-50682096D01*
X133487265Y-51519713D01*
X133419171Y-51546674D01*
X133286308Y-51643205D01*
X133181625Y-51769745D01*
X133133168Y-51872721D01*
X132297095Y-51036648D01*
X132243400Y-51103980D01*
X132108509Y-51337618D01*
X132009948Y-51588747D01*
X132009942Y-51588766D01*
X131949913Y-51851771D01*
X131949913Y-51851773D01*
X131929753Y-52120795D01*
X131929753Y-52120804D01*
X131949913Y-52389826D01*
X131949913Y-52389828D01*
X132009942Y-52652833D01*
X132009948Y-52652852D01*
X132108509Y-52903981D01*
X132108508Y-52903981D01*
X132243402Y-53137622D01*
X132297094Y-53204951D01*
X132297095Y-53204951D01*
X133132252Y-52369793D01*
X133141988Y-52399756D01*
X133229986Y-52538419D01*
X133349703Y-52650840D01*
X133484310Y-52724841D01*
X132649648Y-53559502D01*
X132832283Y-53684020D01*
X132832285Y-53684021D01*
X133075339Y-53801069D01*
X133075337Y-53801069D01*
X133333137Y-53880590D01*
X133333143Y-53880592D01*
X133599901Y-53920799D01*
X133599910Y-53920800D01*
X133869690Y-53920800D01*
X133869698Y-53920799D01*
X134136456Y-53880592D01*
X134136462Y-53880590D01*
X134394261Y-53801069D01*
X134637321Y-53684018D01*
X134819950Y-53559502D01*
X133982334Y-52721886D01*
X134050429Y-52694926D01*
X134183292Y-52598395D01*
X134287975Y-52471855D01*
X134336431Y-52368879D01*
X135172503Y-53204951D01*
X135172504Y-53204950D01*
X135226193Y-53137628D01*
X135226200Y-53137617D01*
X135361090Y-52903981D01*
X135459651Y-52652852D01*
X135459657Y-52652833D01*
X135489409Y-52522483D01*
X135523517Y-52461504D01*
X135585179Y-52428646D01*
X135654816Y-52434341D01*
X135710320Y-52476781D01*
X135734068Y-52542491D01*
X135734300Y-52550075D01*
X135734300Y-69045990D01*
X135714615Y-69113029D01*
X135697981Y-69133671D01*
X134951471Y-69880181D01*
X134890148Y-69913666D01*
X134863790Y-69916500D01*
X129676423Y-69916500D01*
X129665616Y-69916028D01*
X129660663Y-69915594D01*
X129627423Y-69912686D01*
X129627417Y-69912686D01*
X129627416Y-69912686D01*
X129512552Y-69916028D01*
X129498116Y-69916448D01*
X129494511Y-69916500D01*
X121911727Y-69916500D01*
X121844688Y-69896815D01*
X121798933Y-69844011D01*
X121788989Y-69774853D01*
X121818014Y-69711297D01*
X121875177Y-69674009D01*
X121915134Y-69661683D01*
X122122441Y-69597738D01*
X122365575Y-69480651D01*
X122588541Y-69328635D01*
X122786361Y-69145085D01*
X122954615Y-68934102D01*
X123089543Y-68700398D01*
X123188134Y-68449195D01*
X123248183Y-68186103D01*
X123259646Y-68033138D01*
X123268349Y-67917004D01*
X123268349Y-67916995D01*
X123248183Y-67647898D01*
X123205289Y-67459966D01*
X123188134Y-67384805D01*
X123089543Y-67133602D01*
X122954615Y-66899898D01*
X122786361Y-66688915D01*
X122786360Y-66688914D01*
X122786357Y-66688910D01*
X122588541Y-66505365D01*
X122476210Y-66428779D01*
X122365575Y-66353349D01*
X122365569Y-66353346D01*
X122365568Y-66353345D01*
X122365567Y-66353344D01*
X122122443Y-66236263D01*
X122122445Y-66236263D01*
X121864573Y-66156720D01*
X121864567Y-66156718D01*
X121597736Y-66116500D01*
X121597729Y-66116500D01*
X121327871Y-66116500D01*
X121327863Y-66116500D01*
X121061032Y-66156718D01*
X121061026Y-66156720D01*
X120803158Y-66236262D01*
X120560030Y-66353346D01*
X120337058Y-66505365D01*
X120139242Y-66688910D01*
X119970985Y-66899898D01*
X119836058Y-67133599D01*
X119836056Y-67133603D01*
X119737466Y-67384804D01*
X119737464Y-67384811D01*
X119677416Y-67647898D01*
X119657251Y-67916995D01*
X119657251Y-67917004D01*
X119677416Y-68186101D01*
X119737464Y-68449188D01*
X119737466Y-68449195D01*
X119783358Y-68566126D01*
X119836057Y-68700398D01*
X119970985Y-68934102D01*
X120060213Y-69045990D01*
X120139242Y-69145089D01*
X120325983Y-69318358D01*
X120337059Y-69328635D01*
X120560026Y-69480651D01*
X120803159Y-69597738D01*
X121061028Y-69677280D01*
X121061033Y-69677280D01*
X121061034Y-69677281D01*
X121118331Y-69685917D01*
X121181688Y-69715372D01*
X121219063Y-69774406D01*
X121218588Y-69844274D01*
X121180416Y-69902794D01*
X121117415Y-69931050D01*
X121117426Y-69931111D01*
X121117184Y-69931153D01*
X121116664Y-69931387D01*
X121114262Y-69931692D01*
X121113872Y-69931737D01*
X120769672Y-69992428D01*
X120769665Y-69992430D01*
X120434827Y-70092674D01*
X120113904Y-70231107D01*
X120113891Y-70231113D01*
X119811202Y-70405870D01*
X119530850Y-70614584D01*
X119530844Y-70614589D01*
X119276619Y-70854440D01*
X119276617Y-70854442D01*
X119051952Y-71122186D01*
X119051946Y-71122194D01*
X118859888Y-71414203D01*
X118703026Y-71726541D01*
X118703023Y-71726547D01*
X118583481Y-72054987D01*
X118583480Y-72054990D01*
X118502877Y-72395083D01*
X118502877Y-72395085D01*
X118502877Y-72395086D01*
X118462300Y-72742241D01*
X118462300Y-73091759D01*
X111760500Y-73091759D01*
X111760500Y-64264870D01*
X119662300Y-64264870D01*
X119662301Y-64264876D01*
X119668708Y-64324483D01*
X119719002Y-64459328D01*
X119719006Y-64459335D01*
X119805252Y-64574544D01*
X119805255Y-64574547D01*
X119920464Y-64660793D01*
X119920471Y-64660797D01*
X120055317Y-64711091D01*
X120055316Y-64711091D01*
X120062244Y-64711835D01*
X120114927Y-64717500D01*
X122810672Y-64717499D01*
X122870283Y-64711091D01*
X123005131Y-64660796D01*
X123120346Y-64574546D01*
X123206596Y-64459331D01*
X123256891Y-64324483D01*
X123263300Y-64264873D01*
X123263299Y-61569128D01*
X123256891Y-61509517D01*
X123226617Y-61428349D01*
X123206597Y-61374671D01*
X123206593Y-61374664D01*
X123120347Y-61259455D01*
X123120344Y-61259452D01*
X123005135Y-61173206D01*
X123005128Y-61173202D01*
X122870282Y-61122908D01*
X122870283Y-61122908D01*
X122810683Y-61116501D01*
X122810681Y-61116500D01*
X122810673Y-61116500D01*
X122810664Y-61116500D01*
X120114929Y-61116500D01*
X120114923Y-61116501D01*
X120055316Y-61122908D01*
X119920471Y-61173202D01*
X119920464Y-61173206D01*
X119805255Y-61259452D01*
X119805252Y-61259455D01*
X119719006Y-61374664D01*
X119719002Y-61374671D01*
X119668708Y-61509517D01*
X119662301Y-61569116D01*
X119662301Y-61569123D01*
X119662300Y-61569135D01*
X119662300Y-64264870D01*
X111760500Y-64264870D01*
X111760500Y-51147312D01*
X117653774Y-51147312D01*
X117683545Y-51519270D01*
X117752685Y-51885947D01*
X117860404Y-52243191D01*
X118005491Y-52586970D01*
X118186291Y-52913370D01*
X118186294Y-52913374D01*
X118400769Y-53218713D01*
X118646484Y-53499525D01*
X118787524Y-53629727D01*
X118920656Y-53752629D01*
X119147015Y-53920800D01*
X119220177Y-53975155D01*
X119541655Y-54164584D01*
X119881447Y-54318769D01*
X120235702Y-54435963D01*
X120600408Y-54514838D01*
X120971431Y-54554500D01*
X121251209Y-54554500D01*
X121251213Y-54554500D01*
X121432219Y-54544852D01*
X121530594Y-54539610D01*
X121530598Y-54539609D01*
X121530608Y-54539609D01*
X121898995Y-54480256D01*
X122258986Y-54382083D01*
X122606502Y-54246201D01*
X122937606Y-54074150D01*
X123248547Y-53867880D01*
X123535800Y-53629727D01*
X123796113Y-53362391D01*
X124026534Y-53068899D01*
X124224454Y-52752578D01*
X124387630Y-52417011D01*
X124514212Y-52066000D01*
X124602768Y-51703524D01*
X124652293Y-51333688D01*
X124662226Y-50960683D01*
X124632455Y-50588735D01*
X124563316Y-50222059D01*
X124553301Y-50188844D01*
X124455595Y-49864808D01*
X124310508Y-49521029D01*
X124129708Y-49194629D01*
X124129705Y-49194625D01*
X124020465Y-49039105D01*
X123915231Y-48889287D01*
X123669516Y-48608475D01*
X123395345Y-48355372D01*
X123395343Y-48355370D01*
X123095833Y-48132852D01*
X123095830Y-48132850D01*
X123095823Y-48132845D01*
X122774345Y-47943416D01*
X122434553Y-47789231D01*
X122434549Y-47789229D01*
X122434543Y-47789227D01*
X122080302Y-47672038D01*
X122080289Y-47672035D01*
X121715595Y-47593162D01*
X121715588Y-47593161D01*
X121344569Y-47553500D01*
X121064787Y-47553500D01*
X121064776Y-47553500D01*
X120785405Y-47568389D01*
X120785379Y-47568392D01*
X120417007Y-47627743D01*
X120417004Y-47627744D01*
X120057013Y-47725917D01*
X119895089Y-47789231D01*
X119709498Y-47861799D01*
X119709496Y-47861799D01*
X119709496Y-47861800D01*
X119378398Y-48033847D01*
X119067458Y-48240116D01*
X119067449Y-48240122D01*
X118780211Y-48478263D01*
X118780196Y-48478277D01*
X118519888Y-48745607D01*
X118289469Y-49039095D01*
X118289462Y-49039105D01*
X118091548Y-49355416D01*
X118091546Y-49355421D01*
X117928367Y-49690994D01*
X117801786Y-50042004D01*
X117713232Y-50404472D01*
X117713231Y-50404480D01*
X117688558Y-50588735D01*
X117664030Y-50771904D01*
X117663708Y-50774305D01*
X117663706Y-50774321D01*
X117653774Y-51147312D01*
X111760500Y-51147312D01*
X111760500Y-45723479D01*
X111760695Y-45716528D01*
X111760773Y-45715123D01*
X111766989Y-45604450D01*
X111777200Y-45435642D01*
X111778719Y-45422413D01*
X111801169Y-45290282D01*
X111801388Y-45289044D01*
X111828009Y-45143780D01*
X111830812Y-45131855D01*
X111869040Y-44999161D01*
X111869757Y-44996772D01*
X111912427Y-44859839D01*
X111916231Y-44849330D01*
X111969714Y-44720214D01*
X111971109Y-44716984D01*
X112029307Y-44587673D01*
X112033821Y-44578650D01*
X112101820Y-44455615D01*
X112104172Y-44451549D01*
X112177051Y-44330991D01*
X112182027Y-44323406D01*
X112263605Y-44208431D01*
X112267048Y-44203815D01*
X112353697Y-44093215D01*
X112358797Y-44087122D01*
X112452892Y-43981829D01*
X112457603Y-43976847D01*
X112556847Y-43877603D01*
X112561829Y-43872892D01*
X112667122Y-43778797D01*
X112673215Y-43773697D01*
X112783815Y-43687048D01*
X112788431Y-43683605D01*
X112903410Y-43602024D01*
X112910991Y-43597051D01*
X113031549Y-43524172D01*
X113035615Y-43521820D01*
X113158650Y-43453821D01*
X113167673Y-43449307D01*
X113296984Y-43391109D01*
X113300214Y-43389714D01*
X113429330Y-43336231D01*
X113439839Y-43332427D01*
X113576772Y-43289757D01*
X113579161Y-43289040D01*
X113711855Y-43250812D01*
X113723780Y-43248009D01*
X113869044Y-43221388D01*
X113870282Y-43221169D01*
X114002413Y-43198719D01*
X114015642Y-43197200D01*
X114184450Y-43186989D01*
X114296528Y-43180695D01*
X114303479Y-43180500D01*
X157476521Y-43180500D01*
X157483471Y-43180694D01*
G37*
%TD.AperFunction*%
%TD*%
M02*
