M48
; DRILL file {KiCad 7.0.10-7.0.10~ubuntu22.04.1} date Tue 30 Jan 2024 10:17:08 AM EST
; FORMAT={-:-/ absolute / inch / decimal}
; #@! TF.CreationDate,2024-01-30T10:17:08-05:00
; #@! TF.GenerationSoftware,Kicad,Pcbnew,7.0.10-7.0.10~ubuntu22.04.1
; #@! TF.FileFunction,Plated,1,2,PTH
FMAT,2
INCH
; #@! TA.AperFunction,Plated,PTH,ComponentDrill
T1C0.0512
; #@! TA.AperFunction,Plated,PTH,ComponentDrill
T2C0.0630
%
G90
G05
T1
X4.682Y-4.3
X4.782Y-2.477
X4.782Y-2.6739
X4.782Y-2.8707
X4.782Y-3.0676
X4.782Y-3.2644
X4.782Y-3.4613
X4.782Y-3.6581
X4.782Y-3.855
X4.8789Y-4.3
X5.0757Y-4.3
X5.2651Y-2.052
X5.2726Y-4.3
X5.462Y-2.052
X5.4694Y-4.3
X5.6663Y-4.3
X5.8631Y-4.3
X5.9651Y-2.48
X5.9651Y-2.6769
X5.9651Y-2.8737
X5.9651Y-3.0706
X5.9651Y-3.2674
X5.9651Y-3.4643
X5.9651Y-3.6611
X5.9651Y-3.858
X6.06Y-4.3
T2
X5.36Y-2.8713
X5.36Y-3.6587
M30
