%TF.GenerationSoftware,KiCad,Pcbnew,7.0.8-7.0.8~ubuntu22.04.1*%
%TF.CreationDate,2023-10-05T10:52:53-04:00*%
%TF.ProjectId,ladcp_interface_box,6c616463-705f-4696-9e74-657266616365,rev?*%
%TF.SameCoordinates,Original*%
%TF.FileFunction,Legend,Top*%
%TF.FilePolarity,Positive*%
%FSLAX46Y46*%
G04 Gerber Fmt 4.6, Leading zero omitted, Abs format (unit mm)*
G04 Created by KiCad (PCBNEW 7.0.8-7.0.8~ubuntu22.04.1) date 2023-10-05 10:52:53*
%MOMM*%
%LPD*%
G01*
G04 APERTURE LIST*
%ADD10C,0.150000*%
%ADD11C,0.120000*%
G04 APERTURE END LIST*
D10*
X122316666Y-71354819D02*
X122316666Y-72069104D01*
X122316666Y-72069104D02*
X122269047Y-72211961D01*
X122269047Y-72211961D02*
X122173809Y-72307200D01*
X122173809Y-72307200D02*
X122030952Y-72354819D01*
X122030952Y-72354819D02*
X121935714Y-72354819D01*
X123316666Y-72354819D02*
X122745238Y-72354819D01*
X123030952Y-72354819D02*
X123030952Y-71354819D01*
X123030952Y-71354819D02*
X122935714Y-71497676D01*
X122935714Y-71497676D02*
X122840476Y-71592914D01*
X122840476Y-71592914D02*
X122745238Y-71640533D01*
X122474286Y-82504819D02*
X122664762Y-82504819D01*
X122664762Y-82504819D02*
X122760000Y-82552438D01*
X122760000Y-82552438D02*
X122855238Y-82647676D01*
X122855238Y-82647676D02*
X122902857Y-82838152D01*
X122902857Y-82838152D02*
X122902857Y-83171485D01*
X122902857Y-83171485D02*
X122855238Y-83361961D01*
X122855238Y-83361961D02*
X122760000Y-83457200D01*
X122760000Y-83457200D02*
X122664762Y-83504819D01*
X122664762Y-83504819D02*
X122474286Y-83504819D01*
X122474286Y-83504819D02*
X122379048Y-83457200D01*
X122379048Y-83457200D02*
X122283810Y-83361961D01*
X122283810Y-83361961D02*
X122236191Y-83171485D01*
X122236191Y-83171485D02*
X122236191Y-82838152D01*
X122236191Y-82838152D02*
X122283810Y-82647676D01*
X122283810Y-82647676D02*
X122379048Y-82552438D01*
X122379048Y-82552438D02*
X122474286Y-82504819D01*
X123331429Y-82504819D02*
X123331429Y-83314342D01*
X123331429Y-83314342D02*
X123379048Y-83409580D01*
X123379048Y-83409580D02*
X123426667Y-83457200D01*
X123426667Y-83457200D02*
X123521905Y-83504819D01*
X123521905Y-83504819D02*
X123712381Y-83504819D01*
X123712381Y-83504819D02*
X123807619Y-83457200D01*
X123807619Y-83457200D02*
X123855238Y-83409580D01*
X123855238Y-83409580D02*
X123902857Y-83314342D01*
X123902857Y-83314342D02*
X123902857Y-82504819D01*
X124236191Y-82504819D02*
X124807619Y-82504819D01*
X124521905Y-83504819D02*
X124521905Y-82504819D01*
X124902858Y-83600057D02*
X125664762Y-83600057D01*
X125855239Y-83457200D02*
X125998096Y-83504819D01*
X125998096Y-83504819D02*
X126236191Y-83504819D01*
X126236191Y-83504819D02*
X126331429Y-83457200D01*
X126331429Y-83457200D02*
X126379048Y-83409580D01*
X126379048Y-83409580D02*
X126426667Y-83314342D01*
X126426667Y-83314342D02*
X126426667Y-83219104D01*
X126426667Y-83219104D02*
X126379048Y-83123866D01*
X126379048Y-83123866D02*
X126331429Y-83076247D01*
X126331429Y-83076247D02*
X126236191Y-83028628D01*
X126236191Y-83028628D02*
X126045715Y-82981009D01*
X126045715Y-82981009D02*
X125950477Y-82933390D01*
X125950477Y-82933390D02*
X125902858Y-82885771D01*
X125902858Y-82885771D02*
X125855239Y-82790533D01*
X125855239Y-82790533D02*
X125855239Y-82695295D01*
X125855239Y-82695295D02*
X125902858Y-82600057D01*
X125902858Y-82600057D02*
X125950477Y-82552438D01*
X125950477Y-82552438D02*
X126045715Y-82504819D01*
X126045715Y-82504819D02*
X126283810Y-82504819D01*
X126283810Y-82504819D02*
X126426667Y-82552438D01*
X120756667Y-97294819D02*
X121375714Y-97294819D01*
X121375714Y-97294819D02*
X121042381Y-97675771D01*
X121042381Y-97675771D02*
X121185238Y-97675771D01*
X121185238Y-97675771D02*
X121280476Y-97723390D01*
X121280476Y-97723390D02*
X121328095Y-97771009D01*
X121328095Y-97771009D02*
X121375714Y-97866247D01*
X121375714Y-97866247D02*
X121375714Y-98104342D01*
X121375714Y-98104342D02*
X121328095Y-98199580D01*
X121328095Y-98199580D02*
X121280476Y-98247200D01*
X121280476Y-98247200D02*
X121185238Y-98294819D01*
X121185238Y-98294819D02*
X120899524Y-98294819D01*
X120899524Y-98294819D02*
X120804286Y-98247200D01*
X120804286Y-98247200D02*
X120756667Y-98199580D01*
X122283810Y-97913866D02*
X123045715Y-97913866D01*
X122664762Y-98294819D02*
X122664762Y-97532914D01*
X123950476Y-97628152D02*
X123950476Y-98294819D01*
X123712381Y-97247200D02*
X123474286Y-97961485D01*
X123474286Y-97961485D02*
X124093333Y-97961485D01*
X124617143Y-97723390D02*
X124521905Y-97675771D01*
X124521905Y-97675771D02*
X124474286Y-97628152D01*
X124474286Y-97628152D02*
X124426667Y-97532914D01*
X124426667Y-97532914D02*
X124426667Y-97485295D01*
X124426667Y-97485295D02*
X124474286Y-97390057D01*
X124474286Y-97390057D02*
X124521905Y-97342438D01*
X124521905Y-97342438D02*
X124617143Y-97294819D01*
X124617143Y-97294819D02*
X124807619Y-97294819D01*
X124807619Y-97294819D02*
X124902857Y-97342438D01*
X124902857Y-97342438D02*
X124950476Y-97390057D01*
X124950476Y-97390057D02*
X124998095Y-97485295D01*
X124998095Y-97485295D02*
X124998095Y-97532914D01*
X124998095Y-97532914D02*
X124950476Y-97628152D01*
X124950476Y-97628152D02*
X124902857Y-97675771D01*
X124902857Y-97675771D02*
X124807619Y-97723390D01*
X124807619Y-97723390D02*
X124617143Y-97723390D01*
X124617143Y-97723390D02*
X124521905Y-97771009D01*
X124521905Y-97771009D02*
X124474286Y-97818628D01*
X124474286Y-97818628D02*
X124426667Y-97913866D01*
X124426667Y-97913866D02*
X124426667Y-98104342D01*
X124426667Y-98104342D02*
X124474286Y-98199580D01*
X124474286Y-98199580D02*
X124521905Y-98247200D01*
X124521905Y-98247200D02*
X124617143Y-98294819D01*
X124617143Y-98294819D02*
X124807619Y-98294819D01*
X124807619Y-98294819D02*
X124902857Y-98247200D01*
X124902857Y-98247200D02*
X124950476Y-98199580D01*
X124950476Y-98199580D02*
X124998095Y-98104342D01*
X124998095Y-98104342D02*
X124998095Y-97913866D01*
X124998095Y-97913866D02*
X124950476Y-97818628D01*
X124950476Y-97818628D02*
X124902857Y-97771009D01*
X124902857Y-97771009D02*
X124807619Y-97723390D01*
X125283810Y-97294819D02*
X125617143Y-98294819D01*
X125617143Y-98294819D02*
X125950476Y-97294819D01*
X121280476Y-82504819D02*
X121090000Y-82504819D01*
X121090000Y-82504819D02*
X120994762Y-82552438D01*
X120994762Y-82552438D02*
X120947143Y-82600057D01*
X120947143Y-82600057D02*
X120851905Y-82742914D01*
X120851905Y-82742914D02*
X120804286Y-82933390D01*
X120804286Y-82933390D02*
X120804286Y-83314342D01*
X120804286Y-83314342D02*
X120851905Y-83409580D01*
X120851905Y-83409580D02*
X120899524Y-83457200D01*
X120899524Y-83457200D02*
X120994762Y-83504819D01*
X120994762Y-83504819D02*
X121185238Y-83504819D01*
X121185238Y-83504819D02*
X121280476Y-83457200D01*
X121280476Y-83457200D02*
X121328095Y-83409580D01*
X121328095Y-83409580D02*
X121375714Y-83314342D01*
X121375714Y-83314342D02*
X121375714Y-83076247D01*
X121375714Y-83076247D02*
X121328095Y-82981009D01*
X121328095Y-82981009D02*
X121280476Y-82933390D01*
X121280476Y-82933390D02*
X121185238Y-82885771D01*
X121185238Y-82885771D02*
X120994762Y-82885771D01*
X120994762Y-82885771D02*
X120899524Y-82933390D01*
X120899524Y-82933390D02*
X120851905Y-82981009D01*
X120851905Y-82981009D02*
X120804286Y-83076247D01*
X121375714Y-108504819D02*
X120804286Y-108504819D01*
X121090000Y-108504819D02*
X121090000Y-107504819D01*
X121090000Y-107504819D02*
X120994762Y-107647676D01*
X120994762Y-107647676D02*
X120899524Y-107742914D01*
X120899524Y-107742914D02*
X120804286Y-107790533D01*
X122283810Y-88304819D02*
X122283810Y-87304819D01*
X122760000Y-88304819D02*
X122760000Y-87304819D01*
X122760000Y-87304819D02*
X123331428Y-88304819D01*
X123331428Y-88304819D02*
X123331428Y-87304819D01*
X123569524Y-88400057D02*
X124331428Y-88400057D01*
X124521905Y-88257200D02*
X124664762Y-88304819D01*
X124664762Y-88304819D02*
X124902857Y-88304819D01*
X124902857Y-88304819D02*
X124998095Y-88257200D01*
X124998095Y-88257200D02*
X125045714Y-88209580D01*
X125045714Y-88209580D02*
X125093333Y-88114342D01*
X125093333Y-88114342D02*
X125093333Y-88019104D01*
X125093333Y-88019104D02*
X125045714Y-87923866D01*
X125045714Y-87923866D02*
X124998095Y-87876247D01*
X124998095Y-87876247D02*
X124902857Y-87828628D01*
X124902857Y-87828628D02*
X124712381Y-87781009D01*
X124712381Y-87781009D02*
X124617143Y-87733390D01*
X124617143Y-87733390D02*
X124569524Y-87685771D01*
X124569524Y-87685771D02*
X124521905Y-87590533D01*
X124521905Y-87590533D02*
X124521905Y-87495295D01*
X124521905Y-87495295D02*
X124569524Y-87400057D01*
X124569524Y-87400057D02*
X124617143Y-87352438D01*
X124617143Y-87352438D02*
X124712381Y-87304819D01*
X124712381Y-87304819D02*
X124950476Y-87304819D01*
X124950476Y-87304819D02*
X125093333Y-87352438D01*
X122283810Y-108504819D02*
X122283810Y-107504819D01*
X122760000Y-108504819D02*
X122760000Y-107504819D01*
X122760000Y-107504819D02*
X123331428Y-108504819D01*
X123331428Y-108504819D02*
X123331428Y-107504819D01*
X123569524Y-108600057D02*
X124331428Y-108600057D01*
X124569524Y-108504819D02*
X124569524Y-107504819D01*
X124569524Y-107504819D02*
X124902857Y-108219104D01*
X124902857Y-108219104D02*
X125236190Y-107504819D01*
X125236190Y-107504819D02*
X125236190Y-108504819D01*
X120804286Y-102070057D02*
X120851905Y-102022438D01*
X120851905Y-102022438D02*
X120947143Y-101974819D01*
X120947143Y-101974819D02*
X121185238Y-101974819D01*
X121185238Y-101974819D02*
X121280476Y-102022438D01*
X121280476Y-102022438D02*
X121328095Y-102070057D01*
X121328095Y-102070057D02*
X121375714Y-102165295D01*
X121375714Y-102165295D02*
X121375714Y-102260533D01*
X121375714Y-102260533D02*
X121328095Y-102403390D01*
X121328095Y-102403390D02*
X120756667Y-102974819D01*
X120756667Y-102974819D02*
X121375714Y-102974819D01*
X121328095Y-87304819D02*
X120851905Y-87304819D01*
X120851905Y-87304819D02*
X120804286Y-87781009D01*
X120804286Y-87781009D02*
X120851905Y-87733390D01*
X120851905Y-87733390D02*
X120947143Y-87685771D01*
X120947143Y-87685771D02*
X121185238Y-87685771D01*
X121185238Y-87685771D02*
X121280476Y-87733390D01*
X121280476Y-87733390D02*
X121328095Y-87781009D01*
X121328095Y-87781009D02*
X121375714Y-87876247D01*
X121375714Y-87876247D02*
X121375714Y-88114342D01*
X121375714Y-88114342D02*
X121328095Y-88209580D01*
X121328095Y-88209580D02*
X121280476Y-88257200D01*
X121280476Y-88257200D02*
X121185238Y-88304819D01*
X121185238Y-88304819D02*
X120947143Y-88304819D01*
X120947143Y-88304819D02*
X120851905Y-88257200D01*
X120851905Y-88257200D02*
X120804286Y-88209580D01*
X122807619Y-77942438D02*
X122712381Y-77894819D01*
X122712381Y-77894819D02*
X122569524Y-77894819D01*
X122569524Y-77894819D02*
X122426667Y-77942438D01*
X122426667Y-77942438D02*
X122331429Y-78037676D01*
X122331429Y-78037676D02*
X122283810Y-78132914D01*
X122283810Y-78132914D02*
X122236191Y-78323390D01*
X122236191Y-78323390D02*
X122236191Y-78466247D01*
X122236191Y-78466247D02*
X122283810Y-78656723D01*
X122283810Y-78656723D02*
X122331429Y-78751961D01*
X122331429Y-78751961D02*
X122426667Y-78847200D01*
X122426667Y-78847200D02*
X122569524Y-78894819D01*
X122569524Y-78894819D02*
X122664762Y-78894819D01*
X122664762Y-78894819D02*
X122807619Y-78847200D01*
X122807619Y-78847200D02*
X122855238Y-78799580D01*
X122855238Y-78799580D02*
X122855238Y-78466247D01*
X122855238Y-78466247D02*
X122664762Y-78466247D01*
X123283810Y-78894819D02*
X123283810Y-77894819D01*
X123283810Y-77894819D02*
X123855238Y-78894819D01*
X123855238Y-78894819D02*
X123855238Y-77894819D01*
X124331429Y-78894819D02*
X124331429Y-77894819D01*
X124331429Y-77894819D02*
X124569524Y-77894819D01*
X124569524Y-77894819D02*
X124712381Y-77942438D01*
X124712381Y-77942438D02*
X124807619Y-78037676D01*
X124807619Y-78037676D02*
X124855238Y-78132914D01*
X124855238Y-78132914D02*
X124902857Y-78323390D01*
X124902857Y-78323390D02*
X124902857Y-78466247D01*
X124902857Y-78466247D02*
X124855238Y-78656723D01*
X124855238Y-78656723D02*
X124807619Y-78751961D01*
X124807619Y-78751961D02*
X124712381Y-78847200D01*
X124712381Y-78847200D02*
X124569524Y-78894819D01*
X124569524Y-78894819D02*
X124331429Y-78894819D01*
X120756667Y-77894819D02*
X121423333Y-77894819D01*
X121423333Y-77894819D02*
X120994762Y-78894819D01*
X122902857Y-92282438D02*
X122807619Y-92234819D01*
X122807619Y-92234819D02*
X122664762Y-92234819D01*
X122664762Y-92234819D02*
X122521905Y-92282438D01*
X122521905Y-92282438D02*
X122426667Y-92377676D01*
X122426667Y-92377676D02*
X122379048Y-92472914D01*
X122379048Y-92472914D02*
X122331429Y-92663390D01*
X122331429Y-92663390D02*
X122331429Y-92806247D01*
X122331429Y-92806247D02*
X122379048Y-92996723D01*
X122379048Y-92996723D02*
X122426667Y-93091961D01*
X122426667Y-93091961D02*
X122521905Y-93187200D01*
X122521905Y-93187200D02*
X122664762Y-93234819D01*
X122664762Y-93234819D02*
X122760000Y-93234819D01*
X122760000Y-93234819D02*
X122902857Y-93187200D01*
X122902857Y-93187200D02*
X122950476Y-93139580D01*
X122950476Y-93139580D02*
X122950476Y-92806247D01*
X122950476Y-92806247D02*
X122760000Y-92806247D01*
X123379048Y-93234819D02*
X123379048Y-92234819D01*
X123379048Y-92234819D02*
X123950476Y-93234819D01*
X123950476Y-93234819D02*
X123950476Y-92234819D01*
X124426667Y-93234819D02*
X124426667Y-92234819D01*
X124426667Y-92234819D02*
X124664762Y-92234819D01*
X124664762Y-92234819D02*
X124807619Y-92282438D01*
X124807619Y-92282438D02*
X124902857Y-92377676D01*
X124902857Y-92377676D02*
X124950476Y-92472914D01*
X124950476Y-92472914D02*
X124998095Y-92663390D01*
X124998095Y-92663390D02*
X124998095Y-92806247D01*
X124998095Y-92806247D02*
X124950476Y-92996723D01*
X124950476Y-92996723D02*
X124902857Y-93091961D01*
X124902857Y-93091961D02*
X124807619Y-93187200D01*
X124807619Y-93187200D02*
X124664762Y-93234819D01*
X124664762Y-93234819D02*
X124426667Y-93234819D01*
X116954819Y-90833333D02*
X117669104Y-90833333D01*
X117669104Y-90833333D02*
X117811961Y-90880952D01*
X117811961Y-90880952D02*
X117907200Y-90976190D01*
X117907200Y-90976190D02*
X117954819Y-91119047D01*
X117954819Y-91119047D02*
X117954819Y-91214285D01*
X117954819Y-89833333D02*
X117954819Y-90404761D01*
X117954819Y-90119047D02*
X116954819Y-90119047D01*
X116954819Y-90119047D02*
X117097676Y-90214285D01*
X117097676Y-90214285D02*
X117192914Y-90309523D01*
X117192914Y-90309523D02*
X117240533Y-90404761D01*
X121280476Y-92568152D02*
X121280476Y-93234819D01*
X121042381Y-92187200D02*
X120804286Y-92901485D01*
X120804286Y-92901485D02*
X121423333Y-92901485D01*
X122474286Y-101974819D02*
X122664762Y-101974819D01*
X122664762Y-101974819D02*
X122760000Y-102022438D01*
X122760000Y-102022438D02*
X122855238Y-102117676D01*
X122855238Y-102117676D02*
X122902857Y-102308152D01*
X122902857Y-102308152D02*
X122902857Y-102641485D01*
X122902857Y-102641485D02*
X122855238Y-102831961D01*
X122855238Y-102831961D02*
X122760000Y-102927200D01*
X122760000Y-102927200D02*
X122664762Y-102974819D01*
X122664762Y-102974819D02*
X122474286Y-102974819D01*
X122474286Y-102974819D02*
X122379048Y-102927200D01*
X122379048Y-102927200D02*
X122283810Y-102831961D01*
X122283810Y-102831961D02*
X122236191Y-102641485D01*
X122236191Y-102641485D02*
X122236191Y-102308152D01*
X122236191Y-102308152D02*
X122283810Y-102117676D01*
X122283810Y-102117676D02*
X122379048Y-102022438D01*
X122379048Y-102022438D02*
X122474286Y-101974819D01*
X123331429Y-101974819D02*
X123331429Y-102784342D01*
X123331429Y-102784342D02*
X123379048Y-102879580D01*
X123379048Y-102879580D02*
X123426667Y-102927200D01*
X123426667Y-102927200D02*
X123521905Y-102974819D01*
X123521905Y-102974819D02*
X123712381Y-102974819D01*
X123712381Y-102974819D02*
X123807619Y-102927200D01*
X123807619Y-102927200D02*
X123855238Y-102879580D01*
X123855238Y-102879580D02*
X123902857Y-102784342D01*
X123902857Y-102784342D02*
X123902857Y-101974819D01*
X124236191Y-101974819D02*
X124807619Y-101974819D01*
X124521905Y-102974819D02*
X124521905Y-101974819D01*
X125140953Y-102593866D02*
X125902858Y-102593866D01*
X126379048Y-102974819D02*
X126379048Y-101974819D01*
X126379048Y-101974819D02*
X126712381Y-102689104D01*
X126712381Y-102689104D02*
X127045714Y-101974819D01*
X127045714Y-101974819D02*
X127045714Y-102974819D01*
X161966666Y-83254819D02*
X161966666Y-83969104D01*
X161966666Y-83969104D02*
X161919047Y-84111961D01*
X161919047Y-84111961D02*
X161823809Y-84207200D01*
X161823809Y-84207200D02*
X161680952Y-84254819D01*
X161680952Y-84254819D02*
X161585714Y-84254819D01*
X162919047Y-83254819D02*
X162442857Y-83254819D01*
X162442857Y-83254819D02*
X162395238Y-83731009D01*
X162395238Y-83731009D02*
X162442857Y-83683390D01*
X162442857Y-83683390D02*
X162538095Y-83635771D01*
X162538095Y-83635771D02*
X162776190Y-83635771D01*
X162776190Y-83635771D02*
X162871428Y-83683390D01*
X162871428Y-83683390D02*
X162919047Y-83731009D01*
X162919047Y-83731009D02*
X162966666Y-83826247D01*
X162966666Y-83826247D02*
X162966666Y-84064342D01*
X162966666Y-84064342D02*
X162919047Y-84159580D01*
X162919047Y-84159580D02*
X162871428Y-84207200D01*
X162871428Y-84207200D02*
X162776190Y-84254819D01*
X162776190Y-84254819D02*
X162538095Y-84254819D01*
X162538095Y-84254819D02*
X162442857Y-84207200D01*
X162442857Y-84207200D02*
X162395238Y-84159580D01*
X159533333Y-82469104D02*
X160009523Y-82469104D01*
X159438095Y-82754819D02*
X159771428Y-81754819D01*
X159771428Y-81754819D02*
X160104761Y-82754819D01*
X160438095Y-82754819D02*
X160438095Y-81754819D01*
X160438095Y-81754819D02*
X160771428Y-82469104D01*
X160771428Y-82469104D02*
X161104761Y-81754819D01*
X161104761Y-81754819D02*
X161104761Y-82754819D01*
X161580952Y-82754819D02*
X161580952Y-81754819D01*
X161580952Y-81754819D02*
X161914285Y-82469104D01*
X161914285Y-82469104D02*
X162247618Y-81754819D01*
X162247618Y-81754819D02*
X162247618Y-82754819D01*
X162723809Y-82231009D02*
X163057142Y-82231009D01*
X163199999Y-82754819D02*
X162723809Y-82754819D01*
X162723809Y-82754819D02*
X162723809Y-81754819D01*
X162723809Y-81754819D02*
X163199999Y-81754819D01*
X163485714Y-81754819D02*
X164057142Y-81754819D01*
X163771428Y-82754819D02*
X163771428Y-81754819D01*
X164390476Y-82231009D02*
X164723809Y-82231009D01*
X164866666Y-82754819D02*
X164390476Y-82754819D01*
X164390476Y-82754819D02*
X164390476Y-81754819D01*
X164390476Y-81754819D02*
X164866666Y-81754819D01*
X165866666Y-82754819D02*
X165533333Y-82278628D01*
X165295238Y-82754819D02*
X165295238Y-81754819D01*
X165295238Y-81754819D02*
X165676190Y-81754819D01*
X165676190Y-81754819D02*
X165771428Y-81802438D01*
X165771428Y-81802438D02*
X165819047Y-81850057D01*
X165819047Y-81850057D02*
X165866666Y-81945295D01*
X165866666Y-81945295D02*
X165866666Y-82088152D01*
X165866666Y-82088152D02*
X165819047Y-82183390D01*
X165819047Y-82183390D02*
X165771428Y-82231009D01*
X165771428Y-82231009D02*
X165676190Y-82278628D01*
X165676190Y-82278628D02*
X165295238Y-82278628D01*
X152578095Y-94804819D02*
X152578095Y-95614342D01*
X152578095Y-95614342D02*
X152625714Y-95709580D01*
X152625714Y-95709580D02*
X152673333Y-95757200D01*
X152673333Y-95757200D02*
X152768571Y-95804819D01*
X152768571Y-95804819D02*
X152959047Y-95804819D01*
X152959047Y-95804819D02*
X153054285Y-95757200D01*
X153054285Y-95757200D02*
X153101904Y-95709580D01*
X153101904Y-95709580D02*
X153149523Y-95614342D01*
X153149523Y-95614342D02*
X153149523Y-94804819D01*
X153530476Y-94804819D02*
X154149523Y-94804819D01*
X154149523Y-94804819D02*
X153816190Y-95185771D01*
X153816190Y-95185771D02*
X153959047Y-95185771D01*
X153959047Y-95185771D02*
X154054285Y-95233390D01*
X154054285Y-95233390D02*
X154101904Y-95281009D01*
X154101904Y-95281009D02*
X154149523Y-95376247D01*
X154149523Y-95376247D02*
X154149523Y-95614342D01*
X154149523Y-95614342D02*
X154101904Y-95709580D01*
X154101904Y-95709580D02*
X154054285Y-95757200D01*
X154054285Y-95757200D02*
X153959047Y-95804819D01*
X153959047Y-95804819D02*
X153673333Y-95804819D01*
X153673333Y-95804819D02*
X153578095Y-95757200D01*
X153578095Y-95757200D02*
X153530476Y-95709580D01*
X150564819Y-102902856D02*
X149564819Y-102902856D01*
X149564819Y-102902856D02*
X150279104Y-102569523D01*
X150279104Y-102569523D02*
X149564819Y-102236190D01*
X149564819Y-102236190D02*
X150564819Y-102236190D01*
X150279104Y-101807618D02*
X150279104Y-101331428D01*
X150564819Y-101902856D02*
X149564819Y-101569523D01*
X149564819Y-101569523D02*
X150564819Y-101236190D01*
X149564819Y-100998094D02*
X150564819Y-100331428D01*
X149564819Y-100331428D02*
X150564819Y-100998094D01*
X149564819Y-100045713D02*
X149564819Y-99426666D01*
X149564819Y-99426666D02*
X149945771Y-99759999D01*
X149945771Y-99759999D02*
X149945771Y-99617142D01*
X149945771Y-99617142D02*
X149993390Y-99521904D01*
X149993390Y-99521904D02*
X150041009Y-99474285D01*
X150041009Y-99474285D02*
X150136247Y-99426666D01*
X150136247Y-99426666D02*
X150374342Y-99426666D01*
X150374342Y-99426666D02*
X150469580Y-99474285D01*
X150469580Y-99474285D02*
X150517200Y-99521904D01*
X150517200Y-99521904D02*
X150564819Y-99617142D01*
X150564819Y-99617142D02*
X150564819Y-99902856D01*
X150564819Y-99902856D02*
X150517200Y-99998094D01*
X150517200Y-99998094D02*
X150469580Y-100045713D01*
X149660057Y-99045713D02*
X149612438Y-98998094D01*
X149612438Y-98998094D02*
X149564819Y-98902856D01*
X149564819Y-98902856D02*
X149564819Y-98664761D01*
X149564819Y-98664761D02*
X149612438Y-98569523D01*
X149612438Y-98569523D02*
X149660057Y-98521904D01*
X149660057Y-98521904D02*
X149755295Y-98474285D01*
X149755295Y-98474285D02*
X149850533Y-98474285D01*
X149850533Y-98474285D02*
X149993390Y-98521904D01*
X149993390Y-98521904D02*
X150564819Y-99093332D01*
X150564819Y-99093332D02*
X150564819Y-98474285D01*
X149564819Y-98140951D02*
X149564819Y-97521904D01*
X149564819Y-97521904D02*
X149945771Y-97855237D01*
X149945771Y-97855237D02*
X149945771Y-97712380D01*
X149945771Y-97712380D02*
X149993390Y-97617142D01*
X149993390Y-97617142D02*
X150041009Y-97569523D01*
X150041009Y-97569523D02*
X150136247Y-97521904D01*
X150136247Y-97521904D02*
X150374342Y-97521904D01*
X150374342Y-97521904D02*
X150469580Y-97569523D01*
X150469580Y-97569523D02*
X150517200Y-97617142D01*
X150517200Y-97617142D02*
X150564819Y-97712380D01*
X150564819Y-97712380D02*
X150564819Y-97998094D01*
X150564819Y-97998094D02*
X150517200Y-98093332D01*
X150517200Y-98093332D02*
X150469580Y-98140951D01*
X149660057Y-97140951D02*
X149612438Y-97093332D01*
X149612438Y-97093332D02*
X149564819Y-96998094D01*
X149564819Y-96998094D02*
X149564819Y-96759999D01*
X149564819Y-96759999D02*
X149612438Y-96664761D01*
X149612438Y-96664761D02*
X149660057Y-96617142D01*
X149660057Y-96617142D02*
X149755295Y-96569523D01*
X149755295Y-96569523D02*
X149850533Y-96569523D01*
X149850533Y-96569523D02*
X149993390Y-96617142D01*
X149993390Y-96617142D02*
X150564819Y-97188570D01*
X150564819Y-97188570D02*
X150564819Y-96569523D01*
X131833333Y-85354819D02*
X131500000Y-84878628D01*
X131261905Y-85354819D02*
X131261905Y-84354819D01*
X131261905Y-84354819D02*
X131642857Y-84354819D01*
X131642857Y-84354819D02*
X131738095Y-84402438D01*
X131738095Y-84402438D02*
X131785714Y-84450057D01*
X131785714Y-84450057D02*
X131833333Y-84545295D01*
X131833333Y-84545295D02*
X131833333Y-84688152D01*
X131833333Y-84688152D02*
X131785714Y-84783390D01*
X131785714Y-84783390D02*
X131738095Y-84831009D01*
X131738095Y-84831009D02*
X131642857Y-84878628D01*
X131642857Y-84878628D02*
X131261905Y-84878628D01*
X132214286Y-84450057D02*
X132261905Y-84402438D01*
X132261905Y-84402438D02*
X132357143Y-84354819D01*
X132357143Y-84354819D02*
X132595238Y-84354819D01*
X132595238Y-84354819D02*
X132690476Y-84402438D01*
X132690476Y-84402438D02*
X132738095Y-84450057D01*
X132738095Y-84450057D02*
X132785714Y-84545295D01*
X132785714Y-84545295D02*
X132785714Y-84640533D01*
X132785714Y-84640533D02*
X132738095Y-84783390D01*
X132738095Y-84783390D02*
X132166667Y-85354819D01*
X132166667Y-85354819D02*
X132785714Y-85354819D01*
X124839523Y-85514819D02*
X124268095Y-85514819D01*
X124553809Y-85514819D02*
X124553809Y-84514819D01*
X124553809Y-84514819D02*
X124458571Y-84657676D01*
X124458571Y-84657676D02*
X124363333Y-84752914D01*
X124363333Y-84752914D02*
X124268095Y-84800533D01*
X125220476Y-84610057D02*
X125268095Y-84562438D01*
X125268095Y-84562438D02*
X125363333Y-84514819D01*
X125363333Y-84514819D02*
X125601428Y-84514819D01*
X125601428Y-84514819D02*
X125696666Y-84562438D01*
X125696666Y-84562438D02*
X125744285Y-84610057D01*
X125744285Y-84610057D02*
X125791904Y-84705295D01*
X125791904Y-84705295D02*
X125791904Y-84800533D01*
X125791904Y-84800533D02*
X125744285Y-84943390D01*
X125744285Y-84943390D02*
X125172857Y-85514819D01*
X125172857Y-85514819D02*
X125791904Y-85514819D01*
X126220476Y-85514819D02*
X126220476Y-84514819D01*
X126791904Y-85514819D02*
X126363333Y-84943390D01*
X126791904Y-84514819D02*
X126220476Y-85086247D01*
X143109580Y-106576666D02*
X143157200Y-106624285D01*
X143157200Y-106624285D02*
X143204819Y-106767142D01*
X143204819Y-106767142D02*
X143204819Y-106862380D01*
X143204819Y-106862380D02*
X143157200Y-107005237D01*
X143157200Y-107005237D02*
X143061961Y-107100475D01*
X143061961Y-107100475D02*
X142966723Y-107148094D01*
X142966723Y-107148094D02*
X142776247Y-107195713D01*
X142776247Y-107195713D02*
X142633390Y-107195713D01*
X142633390Y-107195713D02*
X142442914Y-107148094D01*
X142442914Y-107148094D02*
X142347676Y-107100475D01*
X142347676Y-107100475D02*
X142252438Y-107005237D01*
X142252438Y-107005237D02*
X142204819Y-106862380D01*
X142204819Y-106862380D02*
X142204819Y-106767142D01*
X142204819Y-106767142D02*
X142252438Y-106624285D01*
X142252438Y-106624285D02*
X142300057Y-106576666D01*
X143204819Y-105624285D02*
X143204819Y-106195713D01*
X143204819Y-105909999D02*
X142204819Y-105909999D01*
X142204819Y-105909999D02*
X142347676Y-106005237D01*
X142347676Y-106005237D02*
X142442914Y-106100475D01*
X142442914Y-106100475D02*
X142490533Y-106195713D01*
X141279580Y-104619642D02*
X141327200Y-104572023D01*
X141327200Y-104572023D02*
X141374819Y-104619642D01*
X141374819Y-104619642D02*
X141327200Y-104667261D01*
X141327200Y-104667261D02*
X141279580Y-104619642D01*
X141279580Y-104619642D02*
X141374819Y-104619642D01*
X141374819Y-103619643D02*
X141374819Y-104191071D01*
X141374819Y-103905357D02*
X140374819Y-103905357D01*
X140374819Y-103905357D02*
X140517676Y-104000595D01*
X140517676Y-104000595D02*
X140612914Y-104095833D01*
X140612914Y-104095833D02*
X140660533Y-104191071D01*
X140708152Y-102762500D02*
X141374819Y-102762500D01*
X140708152Y-103191071D02*
X141231961Y-103191071D01*
X141231961Y-103191071D02*
X141327200Y-103143452D01*
X141327200Y-103143452D02*
X141374819Y-103048214D01*
X141374819Y-103048214D02*
X141374819Y-102905357D01*
X141374819Y-102905357D02*
X141327200Y-102810119D01*
X141327200Y-102810119D02*
X141279580Y-102762500D01*
X140851009Y-101952976D02*
X140851009Y-102286309D01*
X141374819Y-102286309D02*
X140374819Y-102286309D01*
X140374819Y-102286309D02*
X140374819Y-101810119D01*
X180679819Y-102433333D02*
X181394104Y-102433333D01*
X181394104Y-102433333D02*
X181536961Y-102480952D01*
X181536961Y-102480952D02*
X181632200Y-102576190D01*
X181632200Y-102576190D02*
X181679819Y-102719047D01*
X181679819Y-102719047D02*
X181679819Y-102814285D01*
X180775057Y-102004761D02*
X180727438Y-101957142D01*
X180727438Y-101957142D02*
X180679819Y-101861904D01*
X180679819Y-101861904D02*
X180679819Y-101623809D01*
X180679819Y-101623809D02*
X180727438Y-101528571D01*
X180727438Y-101528571D02*
X180775057Y-101480952D01*
X180775057Y-101480952D02*
X180870295Y-101433333D01*
X180870295Y-101433333D02*
X180965533Y-101433333D01*
X180965533Y-101433333D02*
X181108390Y-101480952D01*
X181108390Y-101480952D02*
X181679819Y-102052380D01*
X181679819Y-102052380D02*
X181679819Y-101433333D01*
X131906666Y-87271009D02*
X131573333Y-87271009D01*
X131573333Y-87794819D02*
X131573333Y-86794819D01*
X131573333Y-86794819D02*
X132049523Y-86794819D01*
X132763809Y-87271009D02*
X132906666Y-87318628D01*
X132906666Y-87318628D02*
X132954285Y-87366247D01*
X132954285Y-87366247D02*
X133001904Y-87461485D01*
X133001904Y-87461485D02*
X133001904Y-87604342D01*
X133001904Y-87604342D02*
X132954285Y-87699580D01*
X132954285Y-87699580D02*
X132906666Y-87747200D01*
X132906666Y-87747200D02*
X132811428Y-87794819D01*
X132811428Y-87794819D02*
X132430476Y-87794819D01*
X132430476Y-87794819D02*
X132430476Y-86794819D01*
X132430476Y-86794819D02*
X132763809Y-86794819D01*
X132763809Y-86794819D02*
X132859047Y-86842438D01*
X132859047Y-86842438D02*
X132906666Y-86890057D01*
X132906666Y-86890057D02*
X132954285Y-86985295D01*
X132954285Y-86985295D02*
X132954285Y-87080533D01*
X132954285Y-87080533D02*
X132906666Y-87175771D01*
X132906666Y-87175771D02*
X132859047Y-87223390D01*
X132859047Y-87223390D02*
X132763809Y-87271009D01*
X132763809Y-87271009D02*
X132430476Y-87271009D01*
X133382857Y-86890057D02*
X133430476Y-86842438D01*
X133430476Y-86842438D02*
X133525714Y-86794819D01*
X133525714Y-86794819D02*
X133763809Y-86794819D01*
X133763809Y-86794819D02*
X133859047Y-86842438D01*
X133859047Y-86842438D02*
X133906666Y-86890057D01*
X133906666Y-86890057D02*
X133954285Y-86985295D01*
X133954285Y-86985295D02*
X133954285Y-87080533D01*
X133954285Y-87080533D02*
X133906666Y-87223390D01*
X133906666Y-87223390D02*
X133335238Y-87794819D01*
X133335238Y-87794819D02*
X133954285Y-87794819D01*
X132424819Y-92126666D02*
X131948628Y-92459999D01*
X132424819Y-92698094D02*
X131424819Y-92698094D01*
X131424819Y-92698094D02*
X131424819Y-92317142D01*
X131424819Y-92317142D02*
X131472438Y-92221904D01*
X131472438Y-92221904D02*
X131520057Y-92174285D01*
X131520057Y-92174285D02*
X131615295Y-92126666D01*
X131615295Y-92126666D02*
X131758152Y-92126666D01*
X131758152Y-92126666D02*
X131853390Y-92174285D01*
X131853390Y-92174285D02*
X131901009Y-92221904D01*
X131901009Y-92221904D02*
X131948628Y-92317142D01*
X131948628Y-92317142D02*
X131948628Y-92698094D01*
X132424819Y-91174285D02*
X132424819Y-91745713D01*
X132424819Y-91459999D02*
X131424819Y-91459999D01*
X131424819Y-91459999D02*
X131567676Y-91555237D01*
X131567676Y-91555237D02*
X131662914Y-91650475D01*
X131662914Y-91650475D02*
X131710533Y-91745713D01*
X127054819Y-92644285D02*
X127054819Y-93215713D01*
X127054819Y-92929999D02*
X126054819Y-92929999D01*
X126054819Y-92929999D02*
X126197676Y-93025237D01*
X126197676Y-93025237D02*
X126292914Y-93120475D01*
X126292914Y-93120475D02*
X126340533Y-93215713D01*
X127054819Y-92215713D02*
X126054819Y-92215713D01*
X127054819Y-91644285D02*
X126483390Y-92072856D01*
X126054819Y-91644285D02*
X126626247Y-92215713D01*
X159294642Y-92539580D02*
X159247023Y-92587200D01*
X159247023Y-92587200D02*
X159104166Y-92634819D01*
X159104166Y-92634819D02*
X159008928Y-92634819D01*
X159008928Y-92634819D02*
X158866071Y-92587200D01*
X158866071Y-92587200D02*
X158770833Y-92491961D01*
X158770833Y-92491961D02*
X158723214Y-92396723D01*
X158723214Y-92396723D02*
X158675595Y-92206247D01*
X158675595Y-92206247D02*
X158675595Y-92063390D01*
X158675595Y-92063390D02*
X158723214Y-91872914D01*
X158723214Y-91872914D02*
X158770833Y-91777676D01*
X158770833Y-91777676D02*
X158866071Y-91682438D01*
X158866071Y-91682438D02*
X159008928Y-91634819D01*
X159008928Y-91634819D02*
X159104166Y-91634819D01*
X159104166Y-91634819D02*
X159247023Y-91682438D01*
X159247023Y-91682438D02*
X159294642Y-91730057D01*
X160247023Y-92634819D02*
X159675595Y-92634819D01*
X159961309Y-92634819D02*
X159961309Y-91634819D01*
X159961309Y-91634819D02*
X159866071Y-91777676D01*
X159866071Y-91777676D02*
X159770833Y-91872914D01*
X159770833Y-91872914D02*
X159675595Y-91920533D01*
X160580357Y-91634819D02*
X161199404Y-91634819D01*
X161199404Y-91634819D02*
X160866071Y-92015771D01*
X160866071Y-92015771D02*
X161008928Y-92015771D01*
X161008928Y-92015771D02*
X161104166Y-92063390D01*
X161104166Y-92063390D02*
X161151785Y-92111009D01*
X161151785Y-92111009D02*
X161199404Y-92206247D01*
X161199404Y-92206247D02*
X161199404Y-92444342D01*
X161199404Y-92444342D02*
X161151785Y-92539580D01*
X161151785Y-92539580D02*
X161104166Y-92587200D01*
X161104166Y-92587200D02*
X161008928Y-92634819D01*
X161008928Y-92634819D02*
X160723214Y-92634819D01*
X160723214Y-92634819D02*
X160627976Y-92587200D01*
X160627976Y-92587200D02*
X160580357Y-92539580D01*
X158532738Y-88808152D02*
X158532738Y-89474819D01*
X158294643Y-88427200D02*
X158056548Y-89141485D01*
X158056548Y-89141485D02*
X158675595Y-89141485D01*
X159056548Y-89379580D02*
X159104167Y-89427200D01*
X159104167Y-89427200D02*
X159056548Y-89474819D01*
X159056548Y-89474819D02*
X159008929Y-89427200D01*
X159008929Y-89427200D02*
X159056548Y-89379580D01*
X159056548Y-89379580D02*
X159056548Y-89474819D01*
X159437500Y-88474819D02*
X160104166Y-88474819D01*
X160104166Y-88474819D02*
X159675595Y-89474819D01*
X160913690Y-88808152D02*
X160913690Y-89474819D01*
X160485119Y-88808152D02*
X160485119Y-89331961D01*
X160485119Y-89331961D02*
X160532738Y-89427200D01*
X160532738Y-89427200D02*
X160627976Y-89474819D01*
X160627976Y-89474819D02*
X160770833Y-89474819D01*
X160770833Y-89474819D02*
X160866071Y-89427200D01*
X160866071Y-89427200D02*
X160913690Y-89379580D01*
X161723214Y-88951009D02*
X161389881Y-88951009D01*
X161389881Y-89474819D02*
X161389881Y-88474819D01*
X161389881Y-88474819D02*
X161866071Y-88474819D01*
X152869642Y-90679580D02*
X152822023Y-90727200D01*
X152822023Y-90727200D02*
X152679166Y-90774819D01*
X152679166Y-90774819D02*
X152583928Y-90774819D01*
X152583928Y-90774819D02*
X152441071Y-90727200D01*
X152441071Y-90727200D02*
X152345833Y-90631961D01*
X152345833Y-90631961D02*
X152298214Y-90536723D01*
X152298214Y-90536723D02*
X152250595Y-90346247D01*
X152250595Y-90346247D02*
X152250595Y-90203390D01*
X152250595Y-90203390D02*
X152298214Y-90012914D01*
X152298214Y-90012914D02*
X152345833Y-89917676D01*
X152345833Y-89917676D02*
X152441071Y-89822438D01*
X152441071Y-89822438D02*
X152583928Y-89774819D01*
X152583928Y-89774819D02*
X152679166Y-89774819D01*
X152679166Y-89774819D02*
X152822023Y-89822438D01*
X152822023Y-89822438D02*
X152869642Y-89870057D01*
X153822023Y-90774819D02*
X153250595Y-90774819D01*
X153536309Y-90774819D02*
X153536309Y-89774819D01*
X153536309Y-89774819D02*
X153441071Y-89917676D01*
X153441071Y-89917676D02*
X153345833Y-90012914D01*
X153345833Y-90012914D02*
X153250595Y-90060533D01*
X154155357Y-89774819D02*
X154822023Y-89774819D01*
X154822023Y-89774819D02*
X154393452Y-90774819D01*
X152155357Y-94039580D02*
X152202976Y-94087200D01*
X152202976Y-94087200D02*
X152155357Y-94134819D01*
X152155357Y-94134819D02*
X152107738Y-94087200D01*
X152107738Y-94087200D02*
X152155357Y-94039580D01*
X152155357Y-94039580D02*
X152155357Y-94134819D01*
X153155356Y-94134819D02*
X152583928Y-94134819D01*
X152869642Y-94134819D02*
X152869642Y-93134819D01*
X152869642Y-93134819D02*
X152774404Y-93277676D01*
X152774404Y-93277676D02*
X152679166Y-93372914D01*
X152679166Y-93372914D02*
X152583928Y-93420533D01*
X154012499Y-93468152D02*
X154012499Y-94134819D01*
X153583928Y-93468152D02*
X153583928Y-93991961D01*
X153583928Y-93991961D02*
X153631547Y-94087200D01*
X153631547Y-94087200D02*
X153726785Y-94134819D01*
X153726785Y-94134819D02*
X153869642Y-94134819D01*
X153869642Y-94134819D02*
X153964880Y-94087200D01*
X153964880Y-94087200D02*
X154012499Y-94039580D01*
X154822023Y-93611009D02*
X154488690Y-93611009D01*
X154488690Y-94134819D02*
X154488690Y-93134819D01*
X154488690Y-93134819D02*
X154964880Y-93134819D01*
X145429580Y-107692857D02*
X145477200Y-107740476D01*
X145477200Y-107740476D02*
X145524819Y-107883333D01*
X145524819Y-107883333D02*
X145524819Y-107978571D01*
X145524819Y-107978571D02*
X145477200Y-108121428D01*
X145477200Y-108121428D02*
X145381961Y-108216666D01*
X145381961Y-108216666D02*
X145286723Y-108264285D01*
X145286723Y-108264285D02*
X145096247Y-108311904D01*
X145096247Y-108311904D02*
X144953390Y-108311904D01*
X144953390Y-108311904D02*
X144762914Y-108264285D01*
X144762914Y-108264285D02*
X144667676Y-108216666D01*
X144667676Y-108216666D02*
X144572438Y-108121428D01*
X144572438Y-108121428D02*
X144524819Y-107978571D01*
X144524819Y-107978571D02*
X144524819Y-107883333D01*
X144524819Y-107883333D02*
X144572438Y-107740476D01*
X144572438Y-107740476D02*
X144620057Y-107692857D01*
X145524819Y-106740476D02*
X145524819Y-107311904D01*
X145524819Y-107026190D02*
X144524819Y-107026190D01*
X144524819Y-107026190D02*
X144667676Y-107121428D01*
X144667676Y-107121428D02*
X144762914Y-107216666D01*
X144762914Y-107216666D02*
X144810533Y-107311904D01*
X144524819Y-105883333D02*
X144524819Y-106073809D01*
X144524819Y-106073809D02*
X144572438Y-106169047D01*
X144572438Y-106169047D02*
X144620057Y-106216666D01*
X144620057Y-106216666D02*
X144762914Y-106311904D01*
X144762914Y-106311904D02*
X144953390Y-106359523D01*
X144953390Y-106359523D02*
X145334342Y-106359523D01*
X145334342Y-106359523D02*
X145429580Y-106311904D01*
X145429580Y-106311904D02*
X145477200Y-106264285D01*
X145477200Y-106264285D02*
X145524819Y-106169047D01*
X145524819Y-106169047D02*
X145524819Y-105978571D01*
X145524819Y-105978571D02*
X145477200Y-105883333D01*
X145477200Y-105883333D02*
X145429580Y-105835714D01*
X145429580Y-105835714D02*
X145334342Y-105788095D01*
X145334342Y-105788095D02*
X145096247Y-105788095D01*
X145096247Y-105788095D02*
X145001009Y-105835714D01*
X145001009Y-105835714D02*
X144953390Y-105883333D01*
X144953390Y-105883333D02*
X144905771Y-105978571D01*
X144905771Y-105978571D02*
X144905771Y-106169047D01*
X144905771Y-106169047D02*
X144953390Y-106264285D01*
X144953390Y-106264285D02*
X145001009Y-106311904D01*
X145001009Y-106311904D02*
X145096247Y-106359523D01*
X147199580Y-104667142D02*
X147247200Y-104619523D01*
X147247200Y-104619523D02*
X147294819Y-104667142D01*
X147294819Y-104667142D02*
X147247200Y-104714761D01*
X147247200Y-104714761D02*
X147199580Y-104667142D01*
X147199580Y-104667142D02*
X147294819Y-104667142D01*
X147294819Y-103667143D02*
X147294819Y-104238571D01*
X147294819Y-103952857D02*
X146294819Y-103952857D01*
X146294819Y-103952857D02*
X146437676Y-104048095D01*
X146437676Y-104048095D02*
X146532914Y-104143333D01*
X146532914Y-104143333D02*
X146580533Y-104238571D01*
X146628152Y-102810000D02*
X147294819Y-102810000D01*
X146628152Y-103238571D02*
X147151961Y-103238571D01*
X147151961Y-103238571D02*
X147247200Y-103190952D01*
X147247200Y-103190952D02*
X147294819Y-103095714D01*
X147294819Y-103095714D02*
X147294819Y-102952857D01*
X147294819Y-102952857D02*
X147247200Y-102857619D01*
X147247200Y-102857619D02*
X147199580Y-102810000D01*
X146771009Y-102000476D02*
X146771009Y-102333809D01*
X147294819Y-102333809D02*
X146294819Y-102333809D01*
X146294819Y-102333809D02*
X146294819Y-101857619D01*
X153345833Y-80679580D02*
X153298214Y-80727200D01*
X153298214Y-80727200D02*
X153155357Y-80774819D01*
X153155357Y-80774819D02*
X153060119Y-80774819D01*
X153060119Y-80774819D02*
X152917262Y-80727200D01*
X152917262Y-80727200D02*
X152822024Y-80631961D01*
X152822024Y-80631961D02*
X152774405Y-80536723D01*
X152774405Y-80536723D02*
X152726786Y-80346247D01*
X152726786Y-80346247D02*
X152726786Y-80203390D01*
X152726786Y-80203390D02*
X152774405Y-80012914D01*
X152774405Y-80012914D02*
X152822024Y-79917676D01*
X152822024Y-79917676D02*
X152917262Y-79822438D01*
X152917262Y-79822438D02*
X153060119Y-79774819D01*
X153060119Y-79774819D02*
X153155357Y-79774819D01*
X153155357Y-79774819D02*
X153298214Y-79822438D01*
X153298214Y-79822438D02*
X153345833Y-79870057D01*
X153917262Y-80203390D02*
X153822024Y-80155771D01*
X153822024Y-80155771D02*
X153774405Y-80108152D01*
X153774405Y-80108152D02*
X153726786Y-80012914D01*
X153726786Y-80012914D02*
X153726786Y-79965295D01*
X153726786Y-79965295D02*
X153774405Y-79870057D01*
X153774405Y-79870057D02*
X153822024Y-79822438D01*
X153822024Y-79822438D02*
X153917262Y-79774819D01*
X153917262Y-79774819D02*
X154107738Y-79774819D01*
X154107738Y-79774819D02*
X154202976Y-79822438D01*
X154202976Y-79822438D02*
X154250595Y-79870057D01*
X154250595Y-79870057D02*
X154298214Y-79965295D01*
X154298214Y-79965295D02*
X154298214Y-80012914D01*
X154298214Y-80012914D02*
X154250595Y-80108152D01*
X154250595Y-80108152D02*
X154202976Y-80155771D01*
X154202976Y-80155771D02*
X154107738Y-80203390D01*
X154107738Y-80203390D02*
X153917262Y-80203390D01*
X153917262Y-80203390D02*
X153822024Y-80251009D01*
X153822024Y-80251009D02*
X153774405Y-80298628D01*
X153774405Y-80298628D02*
X153726786Y-80393866D01*
X153726786Y-80393866D02*
X153726786Y-80584342D01*
X153726786Y-80584342D02*
X153774405Y-80679580D01*
X153774405Y-80679580D02*
X153822024Y-80727200D01*
X153822024Y-80727200D02*
X153917262Y-80774819D01*
X153917262Y-80774819D02*
X154107738Y-80774819D01*
X154107738Y-80774819D02*
X154202976Y-80727200D01*
X154202976Y-80727200D02*
X154250595Y-80679580D01*
X154250595Y-80679580D02*
X154298214Y-80584342D01*
X154298214Y-80584342D02*
X154298214Y-80393866D01*
X154298214Y-80393866D02*
X154250595Y-80298628D01*
X154250595Y-80298628D02*
X154202976Y-80251009D01*
X154202976Y-80251009D02*
X154107738Y-80203390D01*
X152155357Y-84039580D02*
X152202976Y-84087200D01*
X152202976Y-84087200D02*
X152155357Y-84134819D01*
X152155357Y-84134819D02*
X152107738Y-84087200D01*
X152107738Y-84087200D02*
X152155357Y-84039580D01*
X152155357Y-84039580D02*
X152155357Y-84134819D01*
X153155356Y-84134819D02*
X152583928Y-84134819D01*
X152869642Y-84134819D02*
X152869642Y-83134819D01*
X152869642Y-83134819D02*
X152774404Y-83277676D01*
X152774404Y-83277676D02*
X152679166Y-83372914D01*
X152679166Y-83372914D02*
X152583928Y-83420533D01*
X154012499Y-83468152D02*
X154012499Y-84134819D01*
X153583928Y-83468152D02*
X153583928Y-83991961D01*
X153583928Y-83991961D02*
X153631547Y-84087200D01*
X153631547Y-84087200D02*
X153726785Y-84134819D01*
X153726785Y-84134819D02*
X153869642Y-84134819D01*
X153869642Y-84134819D02*
X153964880Y-84087200D01*
X153964880Y-84087200D02*
X154012499Y-84039580D01*
X154822023Y-83611009D02*
X154488690Y-83611009D01*
X154488690Y-84134819D02*
X154488690Y-83134819D01*
X154488690Y-83134819D02*
X154964880Y-83134819D01*
X185738095Y-87754819D02*
X185738095Y-86754819D01*
X185738095Y-87231009D02*
X186309523Y-87231009D01*
X186309523Y-87754819D02*
X186309523Y-86754819D01*
X186738095Y-86850057D02*
X186785714Y-86802438D01*
X186785714Y-86802438D02*
X186880952Y-86754819D01*
X186880952Y-86754819D02*
X187119047Y-86754819D01*
X187119047Y-86754819D02*
X187214285Y-86802438D01*
X187214285Y-86802438D02*
X187261904Y-86850057D01*
X187261904Y-86850057D02*
X187309523Y-86945295D01*
X187309523Y-86945295D02*
X187309523Y-87040533D01*
X187309523Y-87040533D02*
X187261904Y-87183390D01*
X187261904Y-87183390D02*
X186690476Y-87754819D01*
X186690476Y-87754819D02*
X187309523Y-87754819D01*
X182332142Y-93879580D02*
X182284523Y-93927200D01*
X182284523Y-93927200D02*
X182141666Y-93974819D01*
X182141666Y-93974819D02*
X182046428Y-93974819D01*
X182046428Y-93974819D02*
X181903571Y-93927200D01*
X181903571Y-93927200D02*
X181808333Y-93831961D01*
X181808333Y-93831961D02*
X181760714Y-93736723D01*
X181760714Y-93736723D02*
X181713095Y-93546247D01*
X181713095Y-93546247D02*
X181713095Y-93403390D01*
X181713095Y-93403390D02*
X181760714Y-93212914D01*
X181760714Y-93212914D02*
X181808333Y-93117676D01*
X181808333Y-93117676D02*
X181903571Y-93022438D01*
X181903571Y-93022438D02*
X182046428Y-92974819D01*
X182046428Y-92974819D02*
X182141666Y-92974819D01*
X182141666Y-92974819D02*
X182284523Y-93022438D01*
X182284523Y-93022438D02*
X182332142Y-93070057D01*
X182713095Y-93070057D02*
X182760714Y-93022438D01*
X182760714Y-93022438D02*
X182855952Y-92974819D01*
X182855952Y-92974819D02*
X183094047Y-92974819D01*
X183094047Y-92974819D02*
X183189285Y-93022438D01*
X183189285Y-93022438D02*
X183236904Y-93070057D01*
X183236904Y-93070057D02*
X183284523Y-93165295D01*
X183284523Y-93165295D02*
X183284523Y-93260533D01*
X183284523Y-93260533D02*
X183236904Y-93403390D01*
X183236904Y-93403390D02*
X182665476Y-93974819D01*
X182665476Y-93974819D02*
X183284523Y-93974819D01*
X183903571Y-92974819D02*
X183998809Y-92974819D01*
X183998809Y-92974819D02*
X184094047Y-93022438D01*
X184094047Y-93022438D02*
X184141666Y-93070057D01*
X184141666Y-93070057D02*
X184189285Y-93165295D01*
X184189285Y-93165295D02*
X184236904Y-93355771D01*
X184236904Y-93355771D02*
X184236904Y-93593866D01*
X184236904Y-93593866D02*
X184189285Y-93784342D01*
X184189285Y-93784342D02*
X184141666Y-93879580D01*
X184141666Y-93879580D02*
X184094047Y-93927200D01*
X184094047Y-93927200D02*
X183998809Y-93974819D01*
X183998809Y-93974819D02*
X183903571Y-93974819D01*
X183903571Y-93974819D02*
X183808333Y-93927200D01*
X183808333Y-93927200D02*
X183760714Y-93879580D01*
X183760714Y-93879580D02*
X183713095Y-93784342D01*
X183713095Y-93784342D02*
X183665476Y-93593866D01*
X183665476Y-93593866D02*
X183665476Y-93355771D01*
X183665476Y-93355771D02*
X183713095Y-93165295D01*
X183713095Y-93165295D02*
X183760714Y-93070057D01*
X183760714Y-93070057D02*
X183808333Y-93022438D01*
X183808333Y-93022438D02*
X183903571Y-92974819D01*
X185935238Y-94918152D02*
X185935238Y-95584819D01*
X185697143Y-94537200D02*
X185459048Y-95251485D01*
X185459048Y-95251485D02*
X186078095Y-95251485D01*
X186459048Y-95489580D02*
X186506667Y-95537200D01*
X186506667Y-95537200D02*
X186459048Y-95584819D01*
X186459048Y-95584819D02*
X186411429Y-95537200D01*
X186411429Y-95537200D02*
X186459048Y-95489580D01*
X186459048Y-95489580D02*
X186459048Y-95584819D01*
X186840000Y-94584819D02*
X187506666Y-94584819D01*
X187506666Y-94584819D02*
X187078095Y-95584819D01*
X188316190Y-94918152D02*
X188316190Y-95584819D01*
X187887619Y-94918152D02*
X187887619Y-95441961D01*
X187887619Y-95441961D02*
X187935238Y-95537200D01*
X187935238Y-95537200D02*
X188030476Y-95584819D01*
X188030476Y-95584819D02*
X188173333Y-95584819D01*
X188173333Y-95584819D02*
X188268571Y-95537200D01*
X188268571Y-95537200D02*
X188316190Y-95489580D01*
X189125714Y-95061009D02*
X188792381Y-95061009D01*
X188792381Y-95584819D02*
X188792381Y-94584819D01*
X188792381Y-94584819D02*
X189268571Y-94584819D01*
X182366666Y-83354819D02*
X182366666Y-84069104D01*
X182366666Y-84069104D02*
X182319047Y-84211961D01*
X182319047Y-84211961D02*
X182223809Y-84307200D01*
X182223809Y-84307200D02*
X182080952Y-84354819D01*
X182080952Y-84354819D02*
X181985714Y-84354819D01*
X182747619Y-83354819D02*
X183366666Y-83354819D01*
X183366666Y-83354819D02*
X183033333Y-83735771D01*
X183033333Y-83735771D02*
X183176190Y-83735771D01*
X183176190Y-83735771D02*
X183271428Y-83783390D01*
X183271428Y-83783390D02*
X183319047Y-83831009D01*
X183319047Y-83831009D02*
X183366666Y-83926247D01*
X183366666Y-83926247D02*
X183366666Y-84164342D01*
X183366666Y-84164342D02*
X183319047Y-84259580D01*
X183319047Y-84259580D02*
X183271428Y-84307200D01*
X183271428Y-84307200D02*
X183176190Y-84354819D01*
X183176190Y-84354819D02*
X182890476Y-84354819D01*
X182890476Y-84354819D02*
X182795238Y-84307200D01*
X182795238Y-84307200D02*
X182747619Y-84259580D01*
X184904761Y-84859580D02*
X184857142Y-84907200D01*
X184857142Y-84907200D02*
X184714285Y-84954819D01*
X184714285Y-84954819D02*
X184619047Y-84954819D01*
X184619047Y-84954819D02*
X184476190Y-84907200D01*
X184476190Y-84907200D02*
X184380952Y-84811961D01*
X184380952Y-84811961D02*
X184333333Y-84716723D01*
X184333333Y-84716723D02*
X184285714Y-84526247D01*
X184285714Y-84526247D02*
X184285714Y-84383390D01*
X184285714Y-84383390D02*
X184333333Y-84192914D01*
X184333333Y-84192914D02*
X184380952Y-84097676D01*
X184380952Y-84097676D02*
X184476190Y-84002438D01*
X184476190Y-84002438D02*
X184619047Y-83954819D01*
X184619047Y-83954819D02*
X184714285Y-83954819D01*
X184714285Y-83954819D02*
X184857142Y-84002438D01*
X184857142Y-84002438D02*
X184904761Y-84050057D01*
X185333333Y-84954819D02*
X185333333Y-83954819D01*
X185333333Y-84431009D02*
X185904761Y-84431009D01*
X185904761Y-84954819D02*
X185904761Y-83954819D01*
X186333333Y-84669104D02*
X186809523Y-84669104D01*
X186238095Y-84954819D02*
X186571428Y-83954819D01*
X186571428Y-83954819D02*
X186904761Y-84954819D01*
X187809523Y-84954819D02*
X187476190Y-84478628D01*
X187238095Y-84954819D02*
X187238095Y-83954819D01*
X187238095Y-83954819D02*
X187619047Y-83954819D01*
X187619047Y-83954819D02*
X187714285Y-84002438D01*
X187714285Y-84002438D02*
X187761904Y-84050057D01*
X187761904Y-84050057D02*
X187809523Y-84145295D01*
X187809523Y-84145295D02*
X187809523Y-84288152D01*
X187809523Y-84288152D02*
X187761904Y-84383390D01*
X187761904Y-84383390D02*
X187714285Y-84431009D01*
X187714285Y-84431009D02*
X187619047Y-84478628D01*
X187619047Y-84478628D02*
X187238095Y-84478628D01*
X188761904Y-84002438D02*
X188666666Y-83954819D01*
X188666666Y-83954819D02*
X188523809Y-83954819D01*
X188523809Y-83954819D02*
X188380952Y-84002438D01*
X188380952Y-84002438D02*
X188285714Y-84097676D01*
X188285714Y-84097676D02*
X188238095Y-84192914D01*
X188238095Y-84192914D02*
X188190476Y-84383390D01*
X188190476Y-84383390D02*
X188190476Y-84526247D01*
X188190476Y-84526247D02*
X188238095Y-84716723D01*
X188238095Y-84716723D02*
X188285714Y-84811961D01*
X188285714Y-84811961D02*
X188380952Y-84907200D01*
X188380952Y-84907200D02*
X188523809Y-84954819D01*
X188523809Y-84954819D02*
X188619047Y-84954819D01*
X188619047Y-84954819D02*
X188761904Y-84907200D01*
X188761904Y-84907200D02*
X188809523Y-84859580D01*
X188809523Y-84859580D02*
X188809523Y-84526247D01*
X188809523Y-84526247D02*
X188619047Y-84526247D01*
X189238095Y-84431009D02*
X189571428Y-84431009D01*
X189714285Y-84954819D02*
X189238095Y-84954819D01*
X189238095Y-84954819D02*
X189238095Y-83954819D01*
X189238095Y-83954819D02*
X189714285Y-83954819D01*
X190714285Y-84954819D02*
X190380952Y-84478628D01*
X190142857Y-84954819D02*
X190142857Y-83954819D01*
X190142857Y-83954819D02*
X190523809Y-83954819D01*
X190523809Y-83954819D02*
X190619047Y-84002438D01*
X190619047Y-84002438D02*
X190666666Y-84050057D01*
X190666666Y-84050057D02*
X190714285Y-84145295D01*
X190714285Y-84145295D02*
X190714285Y-84288152D01*
X190714285Y-84288152D02*
X190666666Y-84383390D01*
X190666666Y-84383390D02*
X190619047Y-84431009D01*
X190619047Y-84431009D02*
X190523809Y-84478628D01*
X190523809Y-84478628D02*
X190142857Y-84478628D01*
X181438095Y-82173866D02*
X182200000Y-82173866D01*
X181819047Y-82554819D02*
X181819047Y-81792914D01*
X183104761Y-81888152D02*
X183104761Y-82554819D01*
X182866666Y-81507200D02*
X182628571Y-82221485D01*
X182628571Y-82221485D02*
X183247618Y-82221485D01*
X183771428Y-81983390D02*
X183676190Y-81935771D01*
X183676190Y-81935771D02*
X183628571Y-81888152D01*
X183628571Y-81888152D02*
X183580952Y-81792914D01*
X183580952Y-81792914D02*
X183580952Y-81745295D01*
X183580952Y-81745295D02*
X183628571Y-81650057D01*
X183628571Y-81650057D02*
X183676190Y-81602438D01*
X183676190Y-81602438D02*
X183771428Y-81554819D01*
X183771428Y-81554819D02*
X183961904Y-81554819D01*
X183961904Y-81554819D02*
X184057142Y-81602438D01*
X184057142Y-81602438D02*
X184104761Y-81650057D01*
X184104761Y-81650057D02*
X184152380Y-81745295D01*
X184152380Y-81745295D02*
X184152380Y-81792914D01*
X184152380Y-81792914D02*
X184104761Y-81888152D01*
X184104761Y-81888152D02*
X184057142Y-81935771D01*
X184057142Y-81935771D02*
X183961904Y-81983390D01*
X183961904Y-81983390D02*
X183771428Y-81983390D01*
X183771428Y-81983390D02*
X183676190Y-82031009D01*
X183676190Y-82031009D02*
X183628571Y-82078628D01*
X183628571Y-82078628D02*
X183580952Y-82173866D01*
X183580952Y-82173866D02*
X183580952Y-82364342D01*
X183580952Y-82364342D02*
X183628571Y-82459580D01*
X183628571Y-82459580D02*
X183676190Y-82507200D01*
X183676190Y-82507200D02*
X183771428Y-82554819D01*
X183771428Y-82554819D02*
X183961904Y-82554819D01*
X183961904Y-82554819D02*
X184057142Y-82507200D01*
X184057142Y-82507200D02*
X184104761Y-82459580D01*
X184104761Y-82459580D02*
X184152380Y-82364342D01*
X184152380Y-82364342D02*
X184152380Y-82173866D01*
X184152380Y-82173866D02*
X184104761Y-82078628D01*
X184104761Y-82078628D02*
X184057142Y-82031009D01*
X184057142Y-82031009D02*
X183961904Y-81983390D01*
X184438095Y-81554819D02*
X184771428Y-82554819D01*
X184771428Y-82554819D02*
X185104761Y-81554819D01*
X134438095Y-78154819D02*
X134438095Y-78964342D01*
X134438095Y-78964342D02*
X134485714Y-79059580D01*
X134485714Y-79059580D02*
X134533333Y-79107200D01*
X134533333Y-79107200D02*
X134628571Y-79154819D01*
X134628571Y-79154819D02*
X134819047Y-79154819D01*
X134819047Y-79154819D02*
X134914285Y-79107200D01*
X134914285Y-79107200D02*
X134961904Y-79059580D01*
X134961904Y-79059580D02*
X135009523Y-78964342D01*
X135009523Y-78964342D02*
X135009523Y-78154819D01*
X136009523Y-79154819D02*
X135438095Y-79154819D01*
X135723809Y-79154819D02*
X135723809Y-78154819D01*
X135723809Y-78154819D02*
X135628571Y-78297676D01*
X135628571Y-78297676D02*
X135533333Y-78392914D01*
X135533333Y-78392914D02*
X135438095Y-78440533D01*
X139323333Y-93021009D02*
X138990000Y-93021009D01*
X138990000Y-93544819D02*
X138990000Y-92544819D01*
X138990000Y-92544819D02*
X139466190Y-92544819D01*
X139704286Y-92544819D02*
X140275714Y-92544819D01*
X139990000Y-93544819D02*
X139990000Y-92544819D01*
X141037619Y-92878152D02*
X141037619Y-93544819D01*
X140799524Y-92497200D02*
X140561429Y-93211485D01*
X140561429Y-93211485D02*
X141180476Y-93211485D01*
X141513810Y-92640057D02*
X141561429Y-92592438D01*
X141561429Y-92592438D02*
X141656667Y-92544819D01*
X141656667Y-92544819D02*
X141894762Y-92544819D01*
X141894762Y-92544819D02*
X141990000Y-92592438D01*
X141990000Y-92592438D02*
X142037619Y-92640057D01*
X142037619Y-92640057D02*
X142085238Y-92735295D01*
X142085238Y-92735295D02*
X142085238Y-92830533D01*
X142085238Y-92830533D02*
X142037619Y-92973390D01*
X142037619Y-92973390D02*
X141466191Y-93544819D01*
X141466191Y-93544819D02*
X142085238Y-93544819D01*
X142418572Y-92544819D02*
X143037619Y-92544819D01*
X143037619Y-92544819D02*
X142704286Y-92925771D01*
X142704286Y-92925771D02*
X142847143Y-92925771D01*
X142847143Y-92925771D02*
X142942381Y-92973390D01*
X142942381Y-92973390D02*
X142990000Y-93021009D01*
X142990000Y-93021009D02*
X143037619Y-93116247D01*
X143037619Y-93116247D02*
X143037619Y-93354342D01*
X143037619Y-93354342D02*
X142990000Y-93449580D01*
X142990000Y-93449580D02*
X142942381Y-93497200D01*
X142942381Y-93497200D02*
X142847143Y-93544819D01*
X142847143Y-93544819D02*
X142561429Y-93544819D01*
X142561429Y-93544819D02*
X142466191Y-93497200D01*
X142466191Y-93497200D02*
X142418572Y-93449580D01*
X143418572Y-92640057D02*
X143466191Y-92592438D01*
X143466191Y-92592438D02*
X143561429Y-92544819D01*
X143561429Y-92544819D02*
X143799524Y-92544819D01*
X143799524Y-92544819D02*
X143894762Y-92592438D01*
X143894762Y-92592438D02*
X143942381Y-92640057D01*
X143942381Y-92640057D02*
X143990000Y-92735295D01*
X143990000Y-92735295D02*
X143990000Y-92830533D01*
X143990000Y-92830533D02*
X143942381Y-92973390D01*
X143942381Y-92973390D02*
X143370953Y-93544819D01*
X143370953Y-93544819D02*
X143990000Y-93544819D01*
X144418572Y-93544819D02*
X144418572Y-92544819D01*
X144418572Y-93021009D02*
X144990000Y-93021009D01*
X144990000Y-93544819D02*
X144990000Y-92544819D01*
X142419580Y-72856666D02*
X142467200Y-72904285D01*
X142467200Y-72904285D02*
X142514819Y-73047142D01*
X142514819Y-73047142D02*
X142514819Y-73142380D01*
X142514819Y-73142380D02*
X142467200Y-73285237D01*
X142467200Y-73285237D02*
X142371961Y-73380475D01*
X142371961Y-73380475D02*
X142276723Y-73428094D01*
X142276723Y-73428094D02*
X142086247Y-73475713D01*
X142086247Y-73475713D02*
X141943390Y-73475713D01*
X141943390Y-73475713D02*
X141752914Y-73428094D01*
X141752914Y-73428094D02*
X141657676Y-73380475D01*
X141657676Y-73380475D02*
X141562438Y-73285237D01*
X141562438Y-73285237D02*
X141514819Y-73142380D01*
X141514819Y-73142380D02*
X141514819Y-73047142D01*
X141514819Y-73047142D02*
X141562438Y-72904285D01*
X141562438Y-72904285D02*
X141610057Y-72856666D01*
X142514819Y-72380475D02*
X142514819Y-72189999D01*
X142514819Y-72189999D02*
X142467200Y-72094761D01*
X142467200Y-72094761D02*
X142419580Y-72047142D01*
X142419580Y-72047142D02*
X142276723Y-71951904D01*
X142276723Y-71951904D02*
X142086247Y-71904285D01*
X142086247Y-71904285D02*
X141705295Y-71904285D01*
X141705295Y-71904285D02*
X141610057Y-71951904D01*
X141610057Y-71951904D02*
X141562438Y-71999523D01*
X141562438Y-71999523D02*
X141514819Y-72094761D01*
X141514819Y-72094761D02*
X141514819Y-72285237D01*
X141514819Y-72285237D02*
X141562438Y-72380475D01*
X141562438Y-72380475D02*
X141610057Y-72428094D01*
X141610057Y-72428094D02*
X141705295Y-72475713D01*
X141705295Y-72475713D02*
X141943390Y-72475713D01*
X141943390Y-72475713D02*
X142038628Y-72428094D01*
X142038628Y-72428094D02*
X142086247Y-72380475D01*
X142086247Y-72380475D02*
X142133866Y-72285237D01*
X142133866Y-72285237D02*
X142133866Y-72094761D01*
X142133866Y-72094761D02*
X142086247Y-71999523D01*
X142086247Y-71999523D02*
X142038628Y-71951904D01*
X142038628Y-71951904D02*
X141943390Y-71904285D01*
X140619580Y-76867142D02*
X140667200Y-76819523D01*
X140667200Y-76819523D02*
X140714819Y-76867142D01*
X140714819Y-76867142D02*
X140667200Y-76914761D01*
X140667200Y-76914761D02*
X140619580Y-76867142D01*
X140619580Y-76867142D02*
X140714819Y-76867142D01*
X140714819Y-75867143D02*
X140714819Y-76438571D01*
X140714819Y-76152857D02*
X139714819Y-76152857D01*
X139714819Y-76152857D02*
X139857676Y-76248095D01*
X139857676Y-76248095D02*
X139952914Y-76343333D01*
X139952914Y-76343333D02*
X140000533Y-76438571D01*
X140048152Y-75010000D02*
X140714819Y-75010000D01*
X140048152Y-75438571D02*
X140571961Y-75438571D01*
X140571961Y-75438571D02*
X140667200Y-75390952D01*
X140667200Y-75390952D02*
X140714819Y-75295714D01*
X140714819Y-75295714D02*
X140714819Y-75152857D01*
X140714819Y-75152857D02*
X140667200Y-75057619D01*
X140667200Y-75057619D02*
X140619580Y-75010000D01*
X140191009Y-74200476D02*
X140191009Y-74533809D01*
X140714819Y-74533809D02*
X139714819Y-74533809D01*
X139714819Y-74533809D02*
X139714819Y-74057619D01*
X154287142Y-105249580D02*
X154239523Y-105297200D01*
X154239523Y-105297200D02*
X154096666Y-105344819D01*
X154096666Y-105344819D02*
X154001428Y-105344819D01*
X154001428Y-105344819D02*
X153858571Y-105297200D01*
X153858571Y-105297200D02*
X153763333Y-105201961D01*
X153763333Y-105201961D02*
X153715714Y-105106723D01*
X153715714Y-105106723D02*
X153668095Y-104916247D01*
X153668095Y-104916247D02*
X153668095Y-104773390D01*
X153668095Y-104773390D02*
X153715714Y-104582914D01*
X153715714Y-104582914D02*
X153763333Y-104487676D01*
X153763333Y-104487676D02*
X153858571Y-104392438D01*
X153858571Y-104392438D02*
X154001428Y-104344819D01*
X154001428Y-104344819D02*
X154096666Y-104344819D01*
X154096666Y-104344819D02*
X154239523Y-104392438D01*
X154239523Y-104392438D02*
X154287142Y-104440057D01*
X155239523Y-105344819D02*
X154668095Y-105344819D01*
X154953809Y-105344819D02*
X154953809Y-104344819D01*
X154953809Y-104344819D02*
X154858571Y-104487676D01*
X154858571Y-104487676D02*
X154763333Y-104582914D01*
X154763333Y-104582914D02*
X154668095Y-104630533D01*
X155715714Y-105344819D02*
X155906190Y-105344819D01*
X155906190Y-105344819D02*
X156001428Y-105297200D01*
X156001428Y-105297200D02*
X156049047Y-105249580D01*
X156049047Y-105249580D02*
X156144285Y-105106723D01*
X156144285Y-105106723D02*
X156191904Y-104916247D01*
X156191904Y-104916247D02*
X156191904Y-104535295D01*
X156191904Y-104535295D02*
X156144285Y-104440057D01*
X156144285Y-104440057D02*
X156096666Y-104392438D01*
X156096666Y-104392438D02*
X156001428Y-104344819D01*
X156001428Y-104344819D02*
X155810952Y-104344819D01*
X155810952Y-104344819D02*
X155715714Y-104392438D01*
X155715714Y-104392438D02*
X155668095Y-104440057D01*
X155668095Y-104440057D02*
X155620476Y-104535295D01*
X155620476Y-104535295D02*
X155620476Y-104773390D01*
X155620476Y-104773390D02*
X155668095Y-104868628D01*
X155668095Y-104868628D02*
X155715714Y-104916247D01*
X155715714Y-104916247D02*
X155810952Y-104963866D01*
X155810952Y-104963866D02*
X156001428Y-104963866D01*
X156001428Y-104963866D02*
X156096666Y-104916247D01*
X156096666Y-104916247D02*
X156144285Y-104868628D01*
X156144285Y-104868628D02*
X156191904Y-104773390D01*
X153572857Y-108609580D02*
X153620476Y-108657200D01*
X153620476Y-108657200D02*
X153572857Y-108704819D01*
X153572857Y-108704819D02*
X153525238Y-108657200D01*
X153525238Y-108657200D02*
X153572857Y-108609580D01*
X153572857Y-108609580D02*
X153572857Y-108704819D01*
X154572856Y-108704819D02*
X154001428Y-108704819D01*
X154287142Y-108704819D02*
X154287142Y-107704819D01*
X154287142Y-107704819D02*
X154191904Y-107847676D01*
X154191904Y-107847676D02*
X154096666Y-107942914D01*
X154096666Y-107942914D02*
X154001428Y-107990533D01*
X155429999Y-108038152D02*
X155429999Y-108704819D01*
X155001428Y-108038152D02*
X155001428Y-108561961D01*
X155001428Y-108561961D02*
X155049047Y-108657200D01*
X155049047Y-108657200D02*
X155144285Y-108704819D01*
X155144285Y-108704819D02*
X155287142Y-108704819D01*
X155287142Y-108704819D02*
X155382380Y-108657200D01*
X155382380Y-108657200D02*
X155429999Y-108609580D01*
X156239523Y-108181009D02*
X155906190Y-108181009D01*
X155906190Y-108704819D02*
X155906190Y-107704819D01*
X155906190Y-107704819D02*
X156382380Y-107704819D01*
X131796666Y-82471009D02*
X131463333Y-82471009D01*
X131463333Y-82994819D02*
X131463333Y-81994819D01*
X131463333Y-81994819D02*
X131939523Y-81994819D01*
X132653809Y-82471009D02*
X132796666Y-82518628D01*
X132796666Y-82518628D02*
X132844285Y-82566247D01*
X132844285Y-82566247D02*
X132891904Y-82661485D01*
X132891904Y-82661485D02*
X132891904Y-82804342D01*
X132891904Y-82804342D02*
X132844285Y-82899580D01*
X132844285Y-82899580D02*
X132796666Y-82947200D01*
X132796666Y-82947200D02*
X132701428Y-82994819D01*
X132701428Y-82994819D02*
X132320476Y-82994819D01*
X132320476Y-82994819D02*
X132320476Y-81994819D01*
X132320476Y-81994819D02*
X132653809Y-81994819D01*
X132653809Y-81994819D02*
X132749047Y-82042438D01*
X132749047Y-82042438D02*
X132796666Y-82090057D01*
X132796666Y-82090057D02*
X132844285Y-82185295D01*
X132844285Y-82185295D02*
X132844285Y-82280533D01*
X132844285Y-82280533D02*
X132796666Y-82375771D01*
X132796666Y-82375771D02*
X132749047Y-82423390D01*
X132749047Y-82423390D02*
X132653809Y-82471009D01*
X132653809Y-82471009D02*
X132320476Y-82471009D01*
X133844285Y-82994819D02*
X133272857Y-82994819D01*
X133558571Y-82994819D02*
X133558571Y-81994819D01*
X133558571Y-81994819D02*
X133463333Y-82137676D01*
X133463333Y-82137676D02*
X133368095Y-82232914D01*
X133368095Y-82232914D02*
X133272857Y-82280533D01*
X126354819Y-79319523D02*
X127354819Y-78652857D01*
X126354819Y-78652857D02*
X127354819Y-79319523D01*
X127354819Y-77748095D02*
X127354819Y-78319523D01*
X127354819Y-78033809D02*
X126354819Y-78033809D01*
X126354819Y-78033809D02*
X126497676Y-78129047D01*
X126497676Y-78129047D02*
X126592914Y-78224285D01*
X126592914Y-78224285D02*
X126640533Y-78319523D01*
X128300475Y-77179580D02*
X128252856Y-77227200D01*
X128252856Y-77227200D02*
X128109999Y-77274819D01*
X128109999Y-77274819D02*
X128014761Y-77274819D01*
X128014761Y-77274819D02*
X127871904Y-77227200D01*
X127871904Y-77227200D02*
X127776666Y-77131961D01*
X127776666Y-77131961D02*
X127729047Y-77036723D01*
X127729047Y-77036723D02*
X127681428Y-76846247D01*
X127681428Y-76846247D02*
X127681428Y-76703390D01*
X127681428Y-76703390D02*
X127729047Y-76512914D01*
X127729047Y-76512914D02*
X127776666Y-76417676D01*
X127776666Y-76417676D02*
X127871904Y-76322438D01*
X127871904Y-76322438D02*
X128014761Y-76274819D01*
X128014761Y-76274819D02*
X128109999Y-76274819D01*
X128109999Y-76274819D02*
X128252856Y-76322438D01*
X128252856Y-76322438D02*
X128300475Y-76370057D01*
X129300475Y-77274819D02*
X128967142Y-76798628D01*
X128729047Y-77274819D02*
X128729047Y-76274819D01*
X128729047Y-76274819D02*
X129109999Y-76274819D01*
X129109999Y-76274819D02*
X129205237Y-76322438D01*
X129205237Y-76322438D02*
X129252856Y-76370057D01*
X129252856Y-76370057D02*
X129300475Y-76465295D01*
X129300475Y-76465295D02*
X129300475Y-76608152D01*
X129300475Y-76608152D02*
X129252856Y-76703390D01*
X129252856Y-76703390D02*
X129205237Y-76751009D01*
X129205237Y-76751009D02*
X129109999Y-76798628D01*
X129109999Y-76798628D02*
X128729047Y-76798628D01*
X129919523Y-76798628D02*
X129919523Y-77274819D01*
X129586190Y-76274819D02*
X129919523Y-76798628D01*
X129919523Y-76798628D02*
X130252856Y-76274819D01*
X130538571Y-77227200D02*
X130681428Y-77274819D01*
X130681428Y-77274819D02*
X130919523Y-77274819D01*
X130919523Y-77274819D02*
X131014761Y-77227200D01*
X131014761Y-77227200D02*
X131062380Y-77179580D01*
X131062380Y-77179580D02*
X131109999Y-77084342D01*
X131109999Y-77084342D02*
X131109999Y-76989104D01*
X131109999Y-76989104D02*
X131062380Y-76893866D01*
X131062380Y-76893866D02*
X131014761Y-76846247D01*
X131014761Y-76846247D02*
X130919523Y-76798628D01*
X130919523Y-76798628D02*
X130729047Y-76751009D01*
X130729047Y-76751009D02*
X130633809Y-76703390D01*
X130633809Y-76703390D02*
X130586190Y-76655771D01*
X130586190Y-76655771D02*
X130538571Y-76560533D01*
X130538571Y-76560533D02*
X130538571Y-76465295D01*
X130538571Y-76465295D02*
X130586190Y-76370057D01*
X130586190Y-76370057D02*
X130633809Y-76322438D01*
X130633809Y-76322438D02*
X130729047Y-76274819D01*
X130729047Y-76274819D02*
X130967142Y-76274819D01*
X130967142Y-76274819D02*
X131109999Y-76322438D01*
X131395714Y-76274819D02*
X131967142Y-76274819D01*
X131681428Y-77274819D02*
X131681428Y-76274819D01*
X132252857Y-76989104D02*
X132729047Y-76989104D01*
X132157619Y-77274819D02*
X132490952Y-76274819D01*
X132490952Y-76274819D02*
X132824285Y-77274819D01*
X133633809Y-77274819D02*
X133157619Y-77274819D01*
X133157619Y-77274819D02*
X133157619Y-76274819D01*
X138839580Y-72896666D02*
X138887200Y-72944285D01*
X138887200Y-72944285D02*
X138934819Y-73087142D01*
X138934819Y-73087142D02*
X138934819Y-73182380D01*
X138934819Y-73182380D02*
X138887200Y-73325237D01*
X138887200Y-73325237D02*
X138791961Y-73420475D01*
X138791961Y-73420475D02*
X138696723Y-73468094D01*
X138696723Y-73468094D02*
X138506247Y-73515713D01*
X138506247Y-73515713D02*
X138363390Y-73515713D01*
X138363390Y-73515713D02*
X138172914Y-73468094D01*
X138172914Y-73468094D02*
X138077676Y-73420475D01*
X138077676Y-73420475D02*
X137982438Y-73325237D01*
X137982438Y-73325237D02*
X137934819Y-73182380D01*
X137934819Y-73182380D02*
X137934819Y-73087142D01*
X137934819Y-73087142D02*
X137982438Y-72944285D01*
X137982438Y-72944285D02*
X138030057Y-72896666D01*
X138268152Y-72039523D02*
X138934819Y-72039523D01*
X137887200Y-72277618D02*
X138601485Y-72515713D01*
X138601485Y-72515713D02*
X138601485Y-71896666D01*
X136929580Y-76837142D02*
X136977200Y-76789523D01*
X136977200Y-76789523D02*
X137024819Y-76837142D01*
X137024819Y-76837142D02*
X136977200Y-76884761D01*
X136977200Y-76884761D02*
X136929580Y-76837142D01*
X136929580Y-76837142D02*
X137024819Y-76837142D01*
X137024819Y-75837143D02*
X137024819Y-76408571D01*
X137024819Y-76122857D02*
X136024819Y-76122857D01*
X136024819Y-76122857D02*
X136167676Y-76218095D01*
X136167676Y-76218095D02*
X136262914Y-76313333D01*
X136262914Y-76313333D02*
X136310533Y-76408571D01*
X136358152Y-74980000D02*
X137024819Y-74980000D01*
X136358152Y-75408571D02*
X136881961Y-75408571D01*
X136881961Y-75408571D02*
X136977200Y-75360952D01*
X136977200Y-75360952D02*
X137024819Y-75265714D01*
X137024819Y-75265714D02*
X137024819Y-75122857D01*
X137024819Y-75122857D02*
X136977200Y-75027619D01*
X136977200Y-75027619D02*
X136929580Y-74980000D01*
X136501009Y-74170476D02*
X136501009Y-74503809D01*
X137024819Y-74503809D02*
X136024819Y-74503809D01*
X136024819Y-74503809D02*
X136024819Y-74027619D01*
X183059580Y-87812857D02*
X183107200Y-87860476D01*
X183107200Y-87860476D02*
X183154819Y-88003333D01*
X183154819Y-88003333D02*
X183154819Y-88098571D01*
X183154819Y-88098571D02*
X183107200Y-88241428D01*
X183107200Y-88241428D02*
X183011961Y-88336666D01*
X183011961Y-88336666D02*
X182916723Y-88384285D01*
X182916723Y-88384285D02*
X182726247Y-88431904D01*
X182726247Y-88431904D02*
X182583390Y-88431904D01*
X182583390Y-88431904D02*
X182392914Y-88384285D01*
X182392914Y-88384285D02*
X182297676Y-88336666D01*
X182297676Y-88336666D02*
X182202438Y-88241428D01*
X182202438Y-88241428D02*
X182154819Y-88098571D01*
X182154819Y-88098571D02*
X182154819Y-88003333D01*
X182154819Y-88003333D02*
X182202438Y-87860476D01*
X182202438Y-87860476D02*
X182250057Y-87812857D01*
X183154819Y-86860476D02*
X183154819Y-87431904D01*
X183154819Y-87146190D02*
X182154819Y-87146190D01*
X182154819Y-87146190D02*
X182297676Y-87241428D01*
X182297676Y-87241428D02*
X182392914Y-87336666D01*
X182392914Y-87336666D02*
X182440533Y-87431904D01*
X182250057Y-86479523D02*
X182202438Y-86431904D01*
X182202438Y-86431904D02*
X182154819Y-86336666D01*
X182154819Y-86336666D02*
X182154819Y-86098571D01*
X182154819Y-86098571D02*
X182202438Y-86003333D01*
X182202438Y-86003333D02*
X182250057Y-85955714D01*
X182250057Y-85955714D02*
X182345295Y-85908095D01*
X182345295Y-85908095D02*
X182440533Y-85908095D01*
X182440533Y-85908095D02*
X182583390Y-85955714D01*
X182583390Y-85955714D02*
X183154819Y-86527142D01*
X183154819Y-86527142D02*
X183154819Y-85908095D01*
X181479580Y-92057142D02*
X181527200Y-92009523D01*
X181527200Y-92009523D02*
X181574819Y-92057142D01*
X181574819Y-92057142D02*
X181527200Y-92104761D01*
X181527200Y-92104761D02*
X181479580Y-92057142D01*
X181479580Y-92057142D02*
X181574819Y-92057142D01*
X181574819Y-91057143D02*
X181574819Y-91628571D01*
X181574819Y-91342857D02*
X180574819Y-91342857D01*
X180574819Y-91342857D02*
X180717676Y-91438095D01*
X180717676Y-91438095D02*
X180812914Y-91533333D01*
X180812914Y-91533333D02*
X180860533Y-91628571D01*
X180908152Y-90200000D02*
X181574819Y-90200000D01*
X180908152Y-90628571D02*
X181431961Y-90628571D01*
X181431961Y-90628571D02*
X181527200Y-90580952D01*
X181527200Y-90580952D02*
X181574819Y-90485714D01*
X181574819Y-90485714D02*
X181574819Y-90342857D01*
X181574819Y-90342857D02*
X181527200Y-90247619D01*
X181527200Y-90247619D02*
X181479580Y-90200000D01*
X181051009Y-89390476D02*
X181051009Y-89723809D01*
X181574819Y-89723809D02*
X180574819Y-89723809D01*
X180574819Y-89723809D02*
X180574819Y-89247619D01*
X133409580Y-101192857D02*
X133457200Y-101240476D01*
X133457200Y-101240476D02*
X133504819Y-101383333D01*
X133504819Y-101383333D02*
X133504819Y-101478571D01*
X133504819Y-101478571D02*
X133457200Y-101621428D01*
X133457200Y-101621428D02*
X133361961Y-101716666D01*
X133361961Y-101716666D02*
X133266723Y-101764285D01*
X133266723Y-101764285D02*
X133076247Y-101811904D01*
X133076247Y-101811904D02*
X132933390Y-101811904D01*
X132933390Y-101811904D02*
X132742914Y-101764285D01*
X132742914Y-101764285D02*
X132647676Y-101716666D01*
X132647676Y-101716666D02*
X132552438Y-101621428D01*
X132552438Y-101621428D02*
X132504819Y-101478571D01*
X132504819Y-101478571D02*
X132504819Y-101383333D01*
X132504819Y-101383333D02*
X132552438Y-101240476D01*
X132552438Y-101240476D02*
X132600057Y-101192857D01*
X132600057Y-100811904D02*
X132552438Y-100764285D01*
X132552438Y-100764285D02*
X132504819Y-100669047D01*
X132504819Y-100669047D02*
X132504819Y-100430952D01*
X132504819Y-100430952D02*
X132552438Y-100335714D01*
X132552438Y-100335714D02*
X132600057Y-100288095D01*
X132600057Y-100288095D02*
X132695295Y-100240476D01*
X132695295Y-100240476D02*
X132790533Y-100240476D01*
X132790533Y-100240476D02*
X132933390Y-100288095D01*
X132933390Y-100288095D02*
X133504819Y-100859523D01*
X133504819Y-100859523D02*
X133504819Y-100240476D01*
X133504819Y-99288095D02*
X133504819Y-99859523D01*
X133504819Y-99573809D02*
X132504819Y-99573809D01*
X132504819Y-99573809D02*
X132647676Y-99669047D01*
X132647676Y-99669047D02*
X132742914Y-99764285D01*
X132742914Y-99764285D02*
X132790533Y-99859523D01*
X132275237Y-97604819D02*
X131799047Y-97604819D01*
X131799047Y-97604819D02*
X131751428Y-98081009D01*
X131751428Y-98081009D02*
X131799047Y-98033390D01*
X131799047Y-98033390D02*
X131894285Y-97985771D01*
X131894285Y-97985771D02*
X132132380Y-97985771D01*
X132132380Y-97985771D02*
X132227618Y-98033390D01*
X132227618Y-98033390D02*
X132275237Y-98081009D01*
X132275237Y-98081009D02*
X132322856Y-98176247D01*
X132322856Y-98176247D02*
X132322856Y-98414342D01*
X132322856Y-98414342D02*
X132275237Y-98509580D01*
X132275237Y-98509580D02*
X132227618Y-98557200D01*
X132227618Y-98557200D02*
X132132380Y-98604819D01*
X132132380Y-98604819D02*
X131894285Y-98604819D01*
X131894285Y-98604819D02*
X131799047Y-98557200D01*
X131799047Y-98557200D02*
X131751428Y-98509580D01*
X132941904Y-97604819D02*
X133037142Y-97604819D01*
X133037142Y-97604819D02*
X133132380Y-97652438D01*
X133132380Y-97652438D02*
X133179999Y-97700057D01*
X133179999Y-97700057D02*
X133227618Y-97795295D01*
X133227618Y-97795295D02*
X133275237Y-97985771D01*
X133275237Y-97985771D02*
X133275237Y-98223866D01*
X133275237Y-98223866D02*
X133227618Y-98414342D01*
X133227618Y-98414342D02*
X133179999Y-98509580D01*
X133179999Y-98509580D02*
X133132380Y-98557200D01*
X133132380Y-98557200D02*
X133037142Y-98604819D01*
X133037142Y-98604819D02*
X132941904Y-98604819D01*
X132941904Y-98604819D02*
X132846666Y-98557200D01*
X132846666Y-98557200D02*
X132799047Y-98509580D01*
X132799047Y-98509580D02*
X132751428Y-98414342D01*
X132751428Y-98414342D02*
X132703809Y-98223866D01*
X132703809Y-98223866D02*
X132703809Y-97985771D01*
X132703809Y-97985771D02*
X132751428Y-97795295D01*
X132751428Y-97795295D02*
X132799047Y-97700057D01*
X132799047Y-97700057D02*
X132846666Y-97652438D01*
X132846666Y-97652438D02*
X132941904Y-97604819D01*
X133560952Y-97604819D02*
X133894285Y-98604819D01*
X133894285Y-98604819D02*
X134227618Y-97604819D01*
X135846666Y-98604819D02*
X135275238Y-98604819D01*
X135560952Y-98604819D02*
X135560952Y-97604819D01*
X135560952Y-97604819D02*
X135465714Y-97747676D01*
X135465714Y-97747676D02*
X135370476Y-97842914D01*
X135370476Y-97842914D02*
X135275238Y-97890533D01*
X136703809Y-97938152D02*
X136703809Y-98604819D01*
X136275238Y-97938152D02*
X136275238Y-98461961D01*
X136275238Y-98461961D02*
X136322857Y-98557200D01*
X136322857Y-98557200D02*
X136418095Y-98604819D01*
X136418095Y-98604819D02*
X136560952Y-98604819D01*
X136560952Y-98604819D02*
X136656190Y-98557200D01*
X136656190Y-98557200D02*
X136703809Y-98509580D01*
X137513333Y-98081009D02*
X137180000Y-98081009D01*
X137180000Y-98604819D02*
X137180000Y-97604819D01*
X137180000Y-97604819D02*
X137656190Y-97604819D01*
X153345833Y-85679580D02*
X153298214Y-85727200D01*
X153298214Y-85727200D02*
X153155357Y-85774819D01*
X153155357Y-85774819D02*
X153060119Y-85774819D01*
X153060119Y-85774819D02*
X152917262Y-85727200D01*
X152917262Y-85727200D02*
X152822024Y-85631961D01*
X152822024Y-85631961D02*
X152774405Y-85536723D01*
X152774405Y-85536723D02*
X152726786Y-85346247D01*
X152726786Y-85346247D02*
X152726786Y-85203390D01*
X152726786Y-85203390D02*
X152774405Y-85012914D01*
X152774405Y-85012914D02*
X152822024Y-84917676D01*
X152822024Y-84917676D02*
X152917262Y-84822438D01*
X152917262Y-84822438D02*
X153060119Y-84774819D01*
X153060119Y-84774819D02*
X153155357Y-84774819D01*
X153155357Y-84774819D02*
X153298214Y-84822438D01*
X153298214Y-84822438D02*
X153345833Y-84870057D01*
X154250595Y-84774819D02*
X153774405Y-84774819D01*
X153774405Y-84774819D02*
X153726786Y-85251009D01*
X153726786Y-85251009D02*
X153774405Y-85203390D01*
X153774405Y-85203390D02*
X153869643Y-85155771D01*
X153869643Y-85155771D02*
X154107738Y-85155771D01*
X154107738Y-85155771D02*
X154202976Y-85203390D01*
X154202976Y-85203390D02*
X154250595Y-85251009D01*
X154250595Y-85251009D02*
X154298214Y-85346247D01*
X154298214Y-85346247D02*
X154298214Y-85584342D01*
X154298214Y-85584342D02*
X154250595Y-85679580D01*
X154250595Y-85679580D02*
X154202976Y-85727200D01*
X154202976Y-85727200D02*
X154107738Y-85774819D01*
X154107738Y-85774819D02*
X153869643Y-85774819D01*
X153869643Y-85774819D02*
X153774405Y-85727200D01*
X153774405Y-85727200D02*
X153726786Y-85679580D01*
X152155357Y-89039580D02*
X152202976Y-89087200D01*
X152202976Y-89087200D02*
X152155357Y-89134819D01*
X152155357Y-89134819D02*
X152107738Y-89087200D01*
X152107738Y-89087200D02*
X152155357Y-89039580D01*
X152155357Y-89039580D02*
X152155357Y-89134819D01*
X153155356Y-89134819D02*
X152583928Y-89134819D01*
X152869642Y-89134819D02*
X152869642Y-88134819D01*
X152869642Y-88134819D02*
X152774404Y-88277676D01*
X152774404Y-88277676D02*
X152679166Y-88372914D01*
X152679166Y-88372914D02*
X152583928Y-88420533D01*
X154012499Y-88468152D02*
X154012499Y-89134819D01*
X153583928Y-88468152D02*
X153583928Y-88991961D01*
X153583928Y-88991961D02*
X153631547Y-89087200D01*
X153631547Y-89087200D02*
X153726785Y-89134819D01*
X153726785Y-89134819D02*
X153869642Y-89134819D01*
X153869642Y-89134819D02*
X153964880Y-89087200D01*
X153964880Y-89087200D02*
X154012499Y-89039580D01*
X154822023Y-88611009D02*
X154488690Y-88611009D01*
X154488690Y-89134819D02*
X154488690Y-88134819D01*
X154488690Y-88134819D02*
X154964880Y-88134819D01*
X131248095Y-94314819D02*
X131248095Y-95124342D01*
X131248095Y-95124342D02*
X131295714Y-95219580D01*
X131295714Y-95219580D02*
X131343333Y-95267200D01*
X131343333Y-95267200D02*
X131438571Y-95314819D01*
X131438571Y-95314819D02*
X131629047Y-95314819D01*
X131629047Y-95314819D02*
X131724285Y-95267200D01*
X131724285Y-95267200D02*
X131771904Y-95219580D01*
X131771904Y-95219580D02*
X131819523Y-95124342D01*
X131819523Y-95124342D02*
X131819523Y-94314819D01*
X132771904Y-94314819D02*
X132295714Y-94314819D01*
X132295714Y-94314819D02*
X132248095Y-94791009D01*
X132248095Y-94791009D02*
X132295714Y-94743390D01*
X132295714Y-94743390D02*
X132390952Y-94695771D01*
X132390952Y-94695771D02*
X132629047Y-94695771D01*
X132629047Y-94695771D02*
X132724285Y-94743390D01*
X132724285Y-94743390D02*
X132771904Y-94791009D01*
X132771904Y-94791009D02*
X132819523Y-94886247D01*
X132819523Y-94886247D02*
X132819523Y-95124342D01*
X132819523Y-95124342D02*
X132771904Y-95219580D01*
X132771904Y-95219580D02*
X132724285Y-95267200D01*
X132724285Y-95267200D02*
X132629047Y-95314819D01*
X132629047Y-95314819D02*
X132390952Y-95314819D01*
X132390952Y-95314819D02*
X132295714Y-95267200D01*
X132295714Y-95267200D02*
X132248095Y-95219580D01*
X131641428Y-96554819D02*
X131070000Y-96554819D01*
X131355714Y-96554819D02*
X131355714Y-95554819D01*
X131355714Y-95554819D02*
X131260476Y-95697676D01*
X131260476Y-95697676D02*
X131165238Y-95792914D01*
X131165238Y-95792914D02*
X131070000Y-95840533D01*
X132022381Y-95650057D02*
X132070000Y-95602438D01*
X132070000Y-95602438D02*
X132165238Y-95554819D01*
X132165238Y-95554819D02*
X132403333Y-95554819D01*
X132403333Y-95554819D02*
X132498571Y-95602438D01*
X132498571Y-95602438D02*
X132546190Y-95650057D01*
X132546190Y-95650057D02*
X132593809Y-95745295D01*
X132593809Y-95745295D02*
X132593809Y-95840533D01*
X132593809Y-95840533D02*
X132546190Y-95983390D01*
X132546190Y-95983390D02*
X131974762Y-96554819D01*
X131974762Y-96554819D02*
X132593809Y-96554819D01*
X132879524Y-95554819D02*
X133212857Y-96554819D01*
X133212857Y-96554819D02*
X133546190Y-95554819D01*
X135117619Y-96554819D02*
X134641429Y-96554819D01*
X134641429Y-96554819D02*
X134641429Y-95554819D01*
X135450953Y-96554819D02*
X135450953Y-95554819D01*
X135450953Y-95554819D02*
X135689048Y-95554819D01*
X135689048Y-95554819D02*
X135831905Y-95602438D01*
X135831905Y-95602438D02*
X135927143Y-95697676D01*
X135927143Y-95697676D02*
X135974762Y-95792914D01*
X135974762Y-95792914D02*
X136022381Y-95983390D01*
X136022381Y-95983390D02*
X136022381Y-96126247D01*
X136022381Y-96126247D02*
X135974762Y-96316723D01*
X135974762Y-96316723D02*
X135927143Y-96411961D01*
X135927143Y-96411961D02*
X135831905Y-96507200D01*
X135831905Y-96507200D02*
X135689048Y-96554819D01*
X135689048Y-96554819D02*
X135450953Y-96554819D01*
X136641429Y-95554819D02*
X136831905Y-95554819D01*
X136831905Y-95554819D02*
X136927143Y-95602438D01*
X136927143Y-95602438D02*
X137022381Y-95697676D01*
X137022381Y-95697676D02*
X137070000Y-95888152D01*
X137070000Y-95888152D02*
X137070000Y-96221485D01*
X137070000Y-96221485D02*
X137022381Y-96411961D01*
X137022381Y-96411961D02*
X136927143Y-96507200D01*
X136927143Y-96507200D02*
X136831905Y-96554819D01*
X136831905Y-96554819D02*
X136641429Y-96554819D01*
X136641429Y-96554819D02*
X136546191Y-96507200D01*
X136546191Y-96507200D02*
X136450953Y-96411961D01*
X136450953Y-96411961D02*
X136403334Y-96221485D01*
X136403334Y-96221485D02*
X136403334Y-95888152D01*
X136403334Y-95888152D02*
X136450953Y-95697676D01*
X136450953Y-95697676D02*
X136546191Y-95602438D01*
X136546191Y-95602438D02*
X136641429Y-95554819D01*
X144639580Y-98829166D02*
X144687200Y-98876785D01*
X144687200Y-98876785D02*
X144734819Y-99019642D01*
X144734819Y-99019642D02*
X144734819Y-99114880D01*
X144734819Y-99114880D02*
X144687200Y-99257737D01*
X144687200Y-99257737D02*
X144591961Y-99352975D01*
X144591961Y-99352975D02*
X144496723Y-99400594D01*
X144496723Y-99400594D02*
X144306247Y-99448213D01*
X144306247Y-99448213D02*
X144163390Y-99448213D01*
X144163390Y-99448213D02*
X143972914Y-99400594D01*
X143972914Y-99400594D02*
X143877676Y-99352975D01*
X143877676Y-99352975D02*
X143782438Y-99257737D01*
X143782438Y-99257737D02*
X143734819Y-99114880D01*
X143734819Y-99114880D02*
X143734819Y-99019642D01*
X143734819Y-99019642D02*
X143782438Y-98876785D01*
X143782438Y-98876785D02*
X143830057Y-98829166D01*
X143830057Y-98448213D02*
X143782438Y-98400594D01*
X143782438Y-98400594D02*
X143734819Y-98305356D01*
X143734819Y-98305356D02*
X143734819Y-98067261D01*
X143734819Y-98067261D02*
X143782438Y-97972023D01*
X143782438Y-97972023D02*
X143830057Y-97924404D01*
X143830057Y-97924404D02*
X143925295Y-97876785D01*
X143925295Y-97876785D02*
X144020533Y-97876785D01*
X144020533Y-97876785D02*
X144163390Y-97924404D01*
X144163390Y-97924404D02*
X144734819Y-98495832D01*
X144734819Y-98495832D02*
X144734819Y-97876785D01*
X141279580Y-100019642D02*
X141327200Y-99972023D01*
X141327200Y-99972023D02*
X141374819Y-100019642D01*
X141374819Y-100019642D02*
X141327200Y-100067261D01*
X141327200Y-100067261D02*
X141279580Y-100019642D01*
X141279580Y-100019642D02*
X141374819Y-100019642D01*
X141374819Y-99019643D02*
X141374819Y-99591071D01*
X141374819Y-99305357D02*
X140374819Y-99305357D01*
X140374819Y-99305357D02*
X140517676Y-99400595D01*
X140517676Y-99400595D02*
X140612914Y-99495833D01*
X140612914Y-99495833D02*
X140660533Y-99591071D01*
X140708152Y-98162500D02*
X141374819Y-98162500D01*
X140708152Y-98591071D02*
X141231961Y-98591071D01*
X141231961Y-98591071D02*
X141327200Y-98543452D01*
X141327200Y-98543452D02*
X141374819Y-98448214D01*
X141374819Y-98448214D02*
X141374819Y-98305357D01*
X141374819Y-98305357D02*
X141327200Y-98210119D01*
X141327200Y-98210119D02*
X141279580Y-98162500D01*
X140851009Y-97352976D02*
X140851009Y-97686309D01*
X141374819Y-97686309D02*
X140374819Y-97686309D01*
X140374819Y-97686309D02*
X140374819Y-97210119D01*
X132539580Y-89866666D02*
X132587200Y-89914285D01*
X132587200Y-89914285D02*
X132634819Y-90057142D01*
X132634819Y-90057142D02*
X132634819Y-90152380D01*
X132634819Y-90152380D02*
X132587200Y-90295237D01*
X132587200Y-90295237D02*
X132491961Y-90390475D01*
X132491961Y-90390475D02*
X132396723Y-90438094D01*
X132396723Y-90438094D02*
X132206247Y-90485713D01*
X132206247Y-90485713D02*
X132063390Y-90485713D01*
X132063390Y-90485713D02*
X131872914Y-90438094D01*
X131872914Y-90438094D02*
X131777676Y-90390475D01*
X131777676Y-90390475D02*
X131682438Y-90295237D01*
X131682438Y-90295237D02*
X131634819Y-90152380D01*
X131634819Y-90152380D02*
X131634819Y-90057142D01*
X131634819Y-90057142D02*
X131682438Y-89914285D01*
X131682438Y-89914285D02*
X131730057Y-89866666D01*
X131634819Y-89009523D02*
X131634819Y-89199999D01*
X131634819Y-89199999D02*
X131682438Y-89295237D01*
X131682438Y-89295237D02*
X131730057Y-89342856D01*
X131730057Y-89342856D02*
X131872914Y-89438094D01*
X131872914Y-89438094D02*
X132063390Y-89485713D01*
X132063390Y-89485713D02*
X132444342Y-89485713D01*
X132444342Y-89485713D02*
X132539580Y-89438094D01*
X132539580Y-89438094D02*
X132587200Y-89390475D01*
X132587200Y-89390475D02*
X132634819Y-89295237D01*
X132634819Y-89295237D02*
X132634819Y-89104761D01*
X132634819Y-89104761D02*
X132587200Y-89009523D01*
X132587200Y-89009523D02*
X132539580Y-88961904D01*
X132539580Y-88961904D02*
X132444342Y-88914285D01*
X132444342Y-88914285D02*
X132206247Y-88914285D01*
X132206247Y-88914285D02*
X132111009Y-88961904D01*
X132111009Y-88961904D02*
X132063390Y-89009523D01*
X132063390Y-89009523D02*
X132015771Y-89104761D01*
X132015771Y-89104761D02*
X132015771Y-89295237D01*
X132015771Y-89295237D02*
X132063390Y-89390475D01*
X132063390Y-89390475D02*
X132111009Y-89438094D01*
X132111009Y-89438094D02*
X132206247Y-89485713D01*
X126809580Y-90677142D02*
X126857200Y-90629523D01*
X126857200Y-90629523D02*
X126904819Y-90677142D01*
X126904819Y-90677142D02*
X126857200Y-90724761D01*
X126857200Y-90724761D02*
X126809580Y-90677142D01*
X126809580Y-90677142D02*
X126904819Y-90677142D01*
X126904819Y-89677143D02*
X126904819Y-90248571D01*
X126904819Y-89962857D02*
X125904819Y-89962857D01*
X125904819Y-89962857D02*
X126047676Y-90058095D01*
X126047676Y-90058095D02*
X126142914Y-90153333D01*
X126142914Y-90153333D02*
X126190533Y-90248571D01*
X126238152Y-88820000D02*
X126904819Y-88820000D01*
X126238152Y-89248571D02*
X126761961Y-89248571D01*
X126761961Y-89248571D02*
X126857200Y-89200952D01*
X126857200Y-89200952D02*
X126904819Y-89105714D01*
X126904819Y-89105714D02*
X126904819Y-88962857D01*
X126904819Y-88962857D02*
X126857200Y-88867619D01*
X126857200Y-88867619D02*
X126809580Y-88820000D01*
X126381009Y-88010476D02*
X126381009Y-88343809D01*
X126904819Y-88343809D02*
X125904819Y-88343809D01*
X125904819Y-88343809D02*
X125904819Y-87867619D01*
X127557142Y-106419580D02*
X127509523Y-106467200D01*
X127509523Y-106467200D02*
X127366666Y-106514819D01*
X127366666Y-106514819D02*
X127271428Y-106514819D01*
X127271428Y-106514819D02*
X127128571Y-106467200D01*
X127128571Y-106467200D02*
X127033333Y-106371961D01*
X127033333Y-106371961D02*
X126985714Y-106276723D01*
X126985714Y-106276723D02*
X126938095Y-106086247D01*
X126938095Y-106086247D02*
X126938095Y-105943390D01*
X126938095Y-105943390D02*
X126985714Y-105752914D01*
X126985714Y-105752914D02*
X127033333Y-105657676D01*
X127033333Y-105657676D02*
X127128571Y-105562438D01*
X127128571Y-105562438D02*
X127271428Y-105514819D01*
X127271428Y-105514819D02*
X127366666Y-105514819D01*
X127366666Y-105514819D02*
X127509523Y-105562438D01*
X127509523Y-105562438D02*
X127557142Y-105610057D01*
X127938095Y-105610057D02*
X127985714Y-105562438D01*
X127985714Y-105562438D02*
X128080952Y-105514819D01*
X128080952Y-105514819D02*
X128319047Y-105514819D01*
X128319047Y-105514819D02*
X128414285Y-105562438D01*
X128414285Y-105562438D02*
X128461904Y-105610057D01*
X128461904Y-105610057D02*
X128509523Y-105705295D01*
X128509523Y-105705295D02*
X128509523Y-105800533D01*
X128509523Y-105800533D02*
X128461904Y-105943390D01*
X128461904Y-105943390D02*
X127890476Y-106514819D01*
X127890476Y-106514819D02*
X128509523Y-106514819D01*
X128890476Y-105610057D02*
X128938095Y-105562438D01*
X128938095Y-105562438D02*
X129033333Y-105514819D01*
X129033333Y-105514819D02*
X129271428Y-105514819D01*
X129271428Y-105514819D02*
X129366666Y-105562438D01*
X129366666Y-105562438D02*
X129414285Y-105610057D01*
X129414285Y-105610057D02*
X129461904Y-105705295D01*
X129461904Y-105705295D02*
X129461904Y-105800533D01*
X129461904Y-105800533D02*
X129414285Y-105943390D01*
X129414285Y-105943390D02*
X128842857Y-106514819D01*
X128842857Y-106514819D02*
X129461904Y-106514819D01*
X135089047Y-109364819D02*
X134612857Y-109364819D01*
X134612857Y-109364819D02*
X134565238Y-109841009D01*
X134565238Y-109841009D02*
X134612857Y-109793390D01*
X134612857Y-109793390D02*
X134708095Y-109745771D01*
X134708095Y-109745771D02*
X134946190Y-109745771D01*
X134946190Y-109745771D02*
X135041428Y-109793390D01*
X135041428Y-109793390D02*
X135089047Y-109841009D01*
X135089047Y-109841009D02*
X135136666Y-109936247D01*
X135136666Y-109936247D02*
X135136666Y-110174342D01*
X135136666Y-110174342D02*
X135089047Y-110269580D01*
X135089047Y-110269580D02*
X135041428Y-110317200D01*
X135041428Y-110317200D02*
X134946190Y-110364819D01*
X134946190Y-110364819D02*
X134708095Y-110364819D01*
X134708095Y-110364819D02*
X134612857Y-110317200D01*
X134612857Y-110317200D02*
X134565238Y-110269580D01*
X135755714Y-109364819D02*
X135850952Y-109364819D01*
X135850952Y-109364819D02*
X135946190Y-109412438D01*
X135946190Y-109412438D02*
X135993809Y-109460057D01*
X135993809Y-109460057D02*
X136041428Y-109555295D01*
X136041428Y-109555295D02*
X136089047Y-109745771D01*
X136089047Y-109745771D02*
X136089047Y-109983866D01*
X136089047Y-109983866D02*
X136041428Y-110174342D01*
X136041428Y-110174342D02*
X135993809Y-110269580D01*
X135993809Y-110269580D02*
X135946190Y-110317200D01*
X135946190Y-110317200D02*
X135850952Y-110364819D01*
X135850952Y-110364819D02*
X135755714Y-110364819D01*
X135755714Y-110364819D02*
X135660476Y-110317200D01*
X135660476Y-110317200D02*
X135612857Y-110269580D01*
X135612857Y-110269580D02*
X135565238Y-110174342D01*
X135565238Y-110174342D02*
X135517619Y-109983866D01*
X135517619Y-109983866D02*
X135517619Y-109745771D01*
X135517619Y-109745771D02*
X135565238Y-109555295D01*
X135565238Y-109555295D02*
X135612857Y-109460057D01*
X135612857Y-109460057D02*
X135660476Y-109412438D01*
X135660476Y-109412438D02*
X135755714Y-109364819D01*
X136374762Y-109364819D02*
X136708095Y-110364819D01*
X136708095Y-110364819D02*
X137041428Y-109364819D01*
X138660476Y-110364819D02*
X138089048Y-110364819D01*
X138374762Y-110364819D02*
X138374762Y-109364819D01*
X138374762Y-109364819D02*
X138279524Y-109507676D01*
X138279524Y-109507676D02*
X138184286Y-109602914D01*
X138184286Y-109602914D02*
X138089048Y-109650533D01*
X139279524Y-109364819D02*
X139374762Y-109364819D01*
X139374762Y-109364819D02*
X139470000Y-109412438D01*
X139470000Y-109412438D02*
X139517619Y-109460057D01*
X139517619Y-109460057D02*
X139565238Y-109555295D01*
X139565238Y-109555295D02*
X139612857Y-109745771D01*
X139612857Y-109745771D02*
X139612857Y-109983866D01*
X139612857Y-109983866D02*
X139565238Y-110174342D01*
X139565238Y-110174342D02*
X139517619Y-110269580D01*
X139517619Y-110269580D02*
X139470000Y-110317200D01*
X139470000Y-110317200D02*
X139374762Y-110364819D01*
X139374762Y-110364819D02*
X139279524Y-110364819D01*
X139279524Y-110364819D02*
X139184286Y-110317200D01*
X139184286Y-110317200D02*
X139136667Y-110269580D01*
X139136667Y-110269580D02*
X139089048Y-110174342D01*
X139089048Y-110174342D02*
X139041429Y-109983866D01*
X139041429Y-109983866D02*
X139041429Y-109745771D01*
X139041429Y-109745771D02*
X139089048Y-109555295D01*
X139089048Y-109555295D02*
X139136667Y-109460057D01*
X139136667Y-109460057D02*
X139184286Y-109412438D01*
X139184286Y-109412438D02*
X139279524Y-109364819D01*
X140470000Y-109698152D02*
X140470000Y-110364819D01*
X140041429Y-109698152D02*
X140041429Y-110221961D01*
X140041429Y-110221961D02*
X140089048Y-110317200D01*
X140089048Y-110317200D02*
X140184286Y-110364819D01*
X140184286Y-110364819D02*
X140327143Y-110364819D01*
X140327143Y-110364819D02*
X140422381Y-110317200D01*
X140422381Y-110317200D02*
X140470000Y-110269580D01*
X141279524Y-109841009D02*
X140946191Y-109841009D01*
X140946191Y-110364819D02*
X140946191Y-109364819D01*
X140946191Y-109364819D02*
X141422381Y-109364819D01*
X158879580Y-97042857D02*
X158927200Y-97090476D01*
X158927200Y-97090476D02*
X158974819Y-97233333D01*
X158974819Y-97233333D02*
X158974819Y-97328571D01*
X158974819Y-97328571D02*
X158927200Y-97471428D01*
X158927200Y-97471428D02*
X158831961Y-97566666D01*
X158831961Y-97566666D02*
X158736723Y-97614285D01*
X158736723Y-97614285D02*
X158546247Y-97661904D01*
X158546247Y-97661904D02*
X158403390Y-97661904D01*
X158403390Y-97661904D02*
X158212914Y-97614285D01*
X158212914Y-97614285D02*
X158117676Y-97566666D01*
X158117676Y-97566666D02*
X158022438Y-97471428D01*
X158022438Y-97471428D02*
X157974819Y-97328571D01*
X157974819Y-97328571D02*
X157974819Y-97233333D01*
X157974819Y-97233333D02*
X158022438Y-97090476D01*
X158022438Y-97090476D02*
X158070057Y-97042857D01*
X158974819Y-96090476D02*
X158974819Y-96661904D01*
X158974819Y-96376190D02*
X157974819Y-96376190D01*
X157974819Y-96376190D02*
X158117676Y-96471428D01*
X158117676Y-96471428D02*
X158212914Y-96566666D01*
X158212914Y-96566666D02*
X158260533Y-96661904D01*
X158403390Y-95519047D02*
X158355771Y-95614285D01*
X158355771Y-95614285D02*
X158308152Y-95661904D01*
X158308152Y-95661904D02*
X158212914Y-95709523D01*
X158212914Y-95709523D02*
X158165295Y-95709523D01*
X158165295Y-95709523D02*
X158070057Y-95661904D01*
X158070057Y-95661904D02*
X158022438Y-95614285D01*
X158022438Y-95614285D02*
X157974819Y-95519047D01*
X157974819Y-95519047D02*
X157974819Y-95328571D01*
X157974819Y-95328571D02*
X158022438Y-95233333D01*
X158022438Y-95233333D02*
X158070057Y-95185714D01*
X158070057Y-95185714D02*
X158165295Y-95138095D01*
X158165295Y-95138095D02*
X158212914Y-95138095D01*
X158212914Y-95138095D02*
X158308152Y-95185714D01*
X158308152Y-95185714D02*
X158355771Y-95233333D01*
X158355771Y-95233333D02*
X158403390Y-95328571D01*
X158403390Y-95328571D02*
X158403390Y-95519047D01*
X158403390Y-95519047D02*
X158451009Y-95614285D01*
X158451009Y-95614285D02*
X158498628Y-95661904D01*
X158498628Y-95661904D02*
X158593866Y-95709523D01*
X158593866Y-95709523D02*
X158784342Y-95709523D01*
X158784342Y-95709523D02*
X158879580Y-95661904D01*
X158879580Y-95661904D02*
X158927200Y-95614285D01*
X158927200Y-95614285D02*
X158974819Y-95519047D01*
X158974819Y-95519047D02*
X158974819Y-95328571D01*
X158974819Y-95328571D02*
X158927200Y-95233333D01*
X158927200Y-95233333D02*
X158879580Y-95185714D01*
X158879580Y-95185714D02*
X158784342Y-95138095D01*
X158784342Y-95138095D02*
X158593866Y-95138095D01*
X158593866Y-95138095D02*
X158498628Y-95185714D01*
X158498628Y-95185714D02*
X158451009Y-95233333D01*
X158451009Y-95233333D02*
X158403390Y-95328571D01*
X162239580Y-97757142D02*
X162287200Y-97709523D01*
X162287200Y-97709523D02*
X162334819Y-97757142D01*
X162334819Y-97757142D02*
X162287200Y-97804761D01*
X162287200Y-97804761D02*
X162239580Y-97757142D01*
X162239580Y-97757142D02*
X162334819Y-97757142D01*
X162334819Y-96757143D02*
X162334819Y-97328571D01*
X162334819Y-97042857D02*
X161334819Y-97042857D01*
X161334819Y-97042857D02*
X161477676Y-97138095D01*
X161477676Y-97138095D02*
X161572914Y-97233333D01*
X161572914Y-97233333D02*
X161620533Y-97328571D01*
X161668152Y-95900000D02*
X162334819Y-95900000D01*
X161668152Y-96328571D02*
X162191961Y-96328571D01*
X162191961Y-96328571D02*
X162287200Y-96280952D01*
X162287200Y-96280952D02*
X162334819Y-96185714D01*
X162334819Y-96185714D02*
X162334819Y-96042857D01*
X162334819Y-96042857D02*
X162287200Y-95947619D01*
X162287200Y-95947619D02*
X162239580Y-95900000D01*
X161811009Y-95090476D02*
X161811009Y-95423809D01*
X162334819Y-95423809D02*
X161334819Y-95423809D01*
X161334819Y-95423809D02*
X161334819Y-94947619D01*
X179886666Y-98494819D02*
X179886666Y-99209104D01*
X179886666Y-99209104D02*
X179839047Y-99351961D01*
X179839047Y-99351961D02*
X179743809Y-99447200D01*
X179743809Y-99447200D02*
X179600952Y-99494819D01*
X179600952Y-99494819D02*
X179505714Y-99494819D01*
X180791428Y-98494819D02*
X180600952Y-98494819D01*
X180600952Y-98494819D02*
X180505714Y-98542438D01*
X180505714Y-98542438D02*
X180458095Y-98590057D01*
X180458095Y-98590057D02*
X180362857Y-98732914D01*
X180362857Y-98732914D02*
X180315238Y-98923390D01*
X180315238Y-98923390D02*
X180315238Y-99304342D01*
X180315238Y-99304342D02*
X180362857Y-99399580D01*
X180362857Y-99399580D02*
X180410476Y-99447200D01*
X180410476Y-99447200D02*
X180505714Y-99494819D01*
X180505714Y-99494819D02*
X180696190Y-99494819D01*
X180696190Y-99494819D02*
X180791428Y-99447200D01*
X180791428Y-99447200D02*
X180839047Y-99399580D01*
X180839047Y-99399580D02*
X180886666Y-99304342D01*
X180886666Y-99304342D02*
X180886666Y-99066247D01*
X180886666Y-99066247D02*
X180839047Y-98971009D01*
X180839047Y-98971009D02*
X180791428Y-98923390D01*
X180791428Y-98923390D02*
X180696190Y-98875771D01*
X180696190Y-98875771D02*
X180505714Y-98875771D01*
X180505714Y-98875771D02*
X180410476Y-98923390D01*
X180410476Y-98923390D02*
X180362857Y-98971009D01*
X180362857Y-98971009D02*
X180315238Y-99066247D01*
X169919047Y-98554819D02*
X170252380Y-99554819D01*
X170252380Y-99554819D02*
X170585713Y-98554819D01*
X171109523Y-98554819D02*
X171299999Y-98554819D01*
X171299999Y-98554819D02*
X171395237Y-98602438D01*
X171395237Y-98602438D02*
X171490475Y-98697676D01*
X171490475Y-98697676D02*
X171538094Y-98888152D01*
X171538094Y-98888152D02*
X171538094Y-99221485D01*
X171538094Y-99221485D02*
X171490475Y-99411961D01*
X171490475Y-99411961D02*
X171395237Y-99507200D01*
X171395237Y-99507200D02*
X171299999Y-99554819D01*
X171299999Y-99554819D02*
X171109523Y-99554819D01*
X171109523Y-99554819D02*
X171014285Y-99507200D01*
X171014285Y-99507200D02*
X170919047Y-99411961D01*
X170919047Y-99411961D02*
X170871428Y-99221485D01*
X170871428Y-99221485D02*
X170871428Y-98888152D01*
X170871428Y-98888152D02*
X170919047Y-98697676D01*
X170919047Y-98697676D02*
X171014285Y-98602438D01*
X171014285Y-98602438D02*
X171109523Y-98554819D01*
X172442856Y-99554819D02*
X171966666Y-99554819D01*
X171966666Y-99554819D02*
X171966666Y-98554819D01*
X172633333Y-98554819D02*
X173204761Y-98554819D01*
X172919047Y-99554819D02*
X172919047Y-98554819D01*
X174300000Y-99554819D02*
X174300000Y-98554819D01*
X174300000Y-98554819D02*
X174633333Y-99269104D01*
X174633333Y-99269104D02*
X174966666Y-98554819D01*
X174966666Y-98554819D02*
X174966666Y-99554819D01*
X175442857Y-99031009D02*
X175776190Y-99031009D01*
X175919047Y-99554819D02*
X175442857Y-99554819D01*
X175442857Y-99554819D02*
X175442857Y-98554819D01*
X175442857Y-98554819D02*
X175919047Y-98554819D01*
X176204762Y-98554819D02*
X176776190Y-98554819D01*
X176490476Y-99554819D02*
X176490476Y-98554819D01*
X177109524Y-99031009D02*
X177442857Y-99031009D01*
X177585714Y-99554819D02*
X177109524Y-99554819D01*
X177109524Y-99554819D02*
X177109524Y-98554819D01*
X177109524Y-98554819D02*
X177585714Y-98554819D01*
X178585714Y-99554819D02*
X178252381Y-99078628D01*
X178014286Y-99554819D02*
X178014286Y-98554819D01*
X178014286Y-98554819D02*
X178395238Y-98554819D01*
X178395238Y-98554819D02*
X178490476Y-98602438D01*
X178490476Y-98602438D02*
X178538095Y-98650057D01*
X178538095Y-98650057D02*
X178585714Y-98745295D01*
X178585714Y-98745295D02*
X178585714Y-98888152D01*
X178585714Y-98888152D02*
X178538095Y-98983390D01*
X178538095Y-98983390D02*
X178490476Y-99031009D01*
X178490476Y-99031009D02*
X178395238Y-99078628D01*
X178395238Y-99078628D02*
X178014286Y-99078628D01*
X149007142Y-105179580D02*
X148959523Y-105227200D01*
X148959523Y-105227200D02*
X148816666Y-105274819D01*
X148816666Y-105274819D02*
X148721428Y-105274819D01*
X148721428Y-105274819D02*
X148578571Y-105227200D01*
X148578571Y-105227200D02*
X148483333Y-105131961D01*
X148483333Y-105131961D02*
X148435714Y-105036723D01*
X148435714Y-105036723D02*
X148388095Y-104846247D01*
X148388095Y-104846247D02*
X148388095Y-104703390D01*
X148388095Y-104703390D02*
X148435714Y-104512914D01*
X148435714Y-104512914D02*
X148483333Y-104417676D01*
X148483333Y-104417676D02*
X148578571Y-104322438D01*
X148578571Y-104322438D02*
X148721428Y-104274819D01*
X148721428Y-104274819D02*
X148816666Y-104274819D01*
X148816666Y-104274819D02*
X148959523Y-104322438D01*
X148959523Y-104322438D02*
X149007142Y-104370057D01*
X149959523Y-105274819D02*
X149388095Y-105274819D01*
X149673809Y-105274819D02*
X149673809Y-104274819D01*
X149673809Y-104274819D02*
X149578571Y-104417676D01*
X149578571Y-104417676D02*
X149483333Y-104512914D01*
X149483333Y-104512914D02*
X149388095Y-104560533D01*
X150864285Y-104274819D02*
X150388095Y-104274819D01*
X150388095Y-104274819D02*
X150340476Y-104751009D01*
X150340476Y-104751009D02*
X150388095Y-104703390D01*
X150388095Y-104703390D02*
X150483333Y-104655771D01*
X150483333Y-104655771D02*
X150721428Y-104655771D01*
X150721428Y-104655771D02*
X150816666Y-104703390D01*
X150816666Y-104703390D02*
X150864285Y-104751009D01*
X150864285Y-104751009D02*
X150911904Y-104846247D01*
X150911904Y-104846247D02*
X150911904Y-105084342D01*
X150911904Y-105084342D02*
X150864285Y-105179580D01*
X150864285Y-105179580D02*
X150816666Y-105227200D01*
X150816666Y-105227200D02*
X150721428Y-105274819D01*
X150721428Y-105274819D02*
X150483333Y-105274819D01*
X150483333Y-105274819D02*
X150388095Y-105227200D01*
X150388095Y-105227200D02*
X150340476Y-105179580D01*
X148292857Y-108539580D02*
X148340476Y-108587200D01*
X148340476Y-108587200D02*
X148292857Y-108634819D01*
X148292857Y-108634819D02*
X148245238Y-108587200D01*
X148245238Y-108587200D02*
X148292857Y-108539580D01*
X148292857Y-108539580D02*
X148292857Y-108634819D01*
X149292856Y-108634819D02*
X148721428Y-108634819D01*
X149007142Y-108634819D02*
X149007142Y-107634819D01*
X149007142Y-107634819D02*
X148911904Y-107777676D01*
X148911904Y-107777676D02*
X148816666Y-107872914D01*
X148816666Y-107872914D02*
X148721428Y-107920533D01*
X150149999Y-107968152D02*
X150149999Y-108634819D01*
X149721428Y-107968152D02*
X149721428Y-108491961D01*
X149721428Y-108491961D02*
X149769047Y-108587200D01*
X149769047Y-108587200D02*
X149864285Y-108634819D01*
X149864285Y-108634819D02*
X150007142Y-108634819D01*
X150007142Y-108634819D02*
X150102380Y-108587200D01*
X150102380Y-108587200D02*
X150149999Y-108539580D01*
X150959523Y-108111009D02*
X150626190Y-108111009D01*
X150626190Y-108634819D02*
X150626190Y-107634819D01*
X150626190Y-107634819D02*
X151102380Y-107634819D01*
X163089580Y-90862857D02*
X163137200Y-90910476D01*
X163137200Y-90910476D02*
X163184819Y-91053333D01*
X163184819Y-91053333D02*
X163184819Y-91148571D01*
X163184819Y-91148571D02*
X163137200Y-91291428D01*
X163137200Y-91291428D02*
X163041961Y-91386666D01*
X163041961Y-91386666D02*
X162946723Y-91434285D01*
X162946723Y-91434285D02*
X162756247Y-91481904D01*
X162756247Y-91481904D02*
X162613390Y-91481904D01*
X162613390Y-91481904D02*
X162422914Y-91434285D01*
X162422914Y-91434285D02*
X162327676Y-91386666D01*
X162327676Y-91386666D02*
X162232438Y-91291428D01*
X162232438Y-91291428D02*
X162184819Y-91148571D01*
X162184819Y-91148571D02*
X162184819Y-91053333D01*
X162184819Y-91053333D02*
X162232438Y-90910476D01*
X162232438Y-90910476D02*
X162280057Y-90862857D01*
X163184819Y-89910476D02*
X163184819Y-90481904D01*
X163184819Y-90196190D02*
X162184819Y-90196190D01*
X162184819Y-90196190D02*
X162327676Y-90291428D01*
X162327676Y-90291428D02*
X162422914Y-90386666D01*
X162422914Y-90386666D02*
X162470533Y-90481904D01*
X162184819Y-89291428D02*
X162184819Y-89196190D01*
X162184819Y-89196190D02*
X162232438Y-89100952D01*
X162232438Y-89100952D02*
X162280057Y-89053333D01*
X162280057Y-89053333D02*
X162375295Y-89005714D01*
X162375295Y-89005714D02*
X162565771Y-88958095D01*
X162565771Y-88958095D02*
X162803866Y-88958095D01*
X162803866Y-88958095D02*
X162994342Y-89005714D01*
X162994342Y-89005714D02*
X163089580Y-89053333D01*
X163089580Y-89053333D02*
X163137200Y-89100952D01*
X163137200Y-89100952D02*
X163184819Y-89196190D01*
X163184819Y-89196190D02*
X163184819Y-89291428D01*
X163184819Y-89291428D02*
X163137200Y-89386666D01*
X163137200Y-89386666D02*
X163089580Y-89434285D01*
X163089580Y-89434285D02*
X162994342Y-89481904D01*
X162994342Y-89481904D02*
X162803866Y-89529523D01*
X162803866Y-89529523D02*
X162565771Y-89529523D01*
X162565771Y-89529523D02*
X162375295Y-89481904D01*
X162375295Y-89481904D02*
X162280057Y-89434285D01*
X162280057Y-89434285D02*
X162232438Y-89386666D01*
X162232438Y-89386666D02*
X162184819Y-89291428D01*
X164279580Y-91767142D02*
X164327200Y-91719523D01*
X164327200Y-91719523D02*
X164374819Y-91767142D01*
X164374819Y-91767142D02*
X164327200Y-91814761D01*
X164327200Y-91814761D02*
X164279580Y-91767142D01*
X164279580Y-91767142D02*
X164374819Y-91767142D01*
X164374819Y-90767143D02*
X164374819Y-91338571D01*
X164374819Y-91052857D02*
X163374819Y-91052857D01*
X163374819Y-91052857D02*
X163517676Y-91148095D01*
X163517676Y-91148095D02*
X163612914Y-91243333D01*
X163612914Y-91243333D02*
X163660533Y-91338571D01*
X163708152Y-89910000D02*
X164374819Y-89910000D01*
X163708152Y-90338571D02*
X164231961Y-90338571D01*
X164231961Y-90338571D02*
X164327200Y-90290952D01*
X164327200Y-90290952D02*
X164374819Y-90195714D01*
X164374819Y-90195714D02*
X164374819Y-90052857D01*
X164374819Y-90052857D02*
X164327200Y-89957619D01*
X164327200Y-89957619D02*
X164279580Y-89910000D01*
X163851009Y-89100476D02*
X163851009Y-89433809D01*
X164374819Y-89433809D02*
X163374819Y-89433809D01*
X163374819Y-89433809D02*
X163374819Y-88957619D01*
X163919580Y-94432857D02*
X163967200Y-94480476D01*
X163967200Y-94480476D02*
X164014819Y-94623333D01*
X164014819Y-94623333D02*
X164014819Y-94718571D01*
X164014819Y-94718571D02*
X163967200Y-94861428D01*
X163967200Y-94861428D02*
X163871961Y-94956666D01*
X163871961Y-94956666D02*
X163776723Y-95004285D01*
X163776723Y-95004285D02*
X163586247Y-95051904D01*
X163586247Y-95051904D02*
X163443390Y-95051904D01*
X163443390Y-95051904D02*
X163252914Y-95004285D01*
X163252914Y-95004285D02*
X163157676Y-94956666D01*
X163157676Y-94956666D02*
X163062438Y-94861428D01*
X163062438Y-94861428D02*
X163014819Y-94718571D01*
X163014819Y-94718571D02*
X163014819Y-94623333D01*
X163014819Y-94623333D02*
X163062438Y-94480476D01*
X163062438Y-94480476D02*
X163110057Y-94432857D01*
X164014819Y-93480476D02*
X164014819Y-94051904D01*
X164014819Y-93766190D02*
X163014819Y-93766190D01*
X163014819Y-93766190D02*
X163157676Y-93861428D01*
X163157676Y-93861428D02*
X163252914Y-93956666D01*
X163252914Y-93956666D02*
X163300533Y-94051904D01*
X163348152Y-92623333D02*
X164014819Y-92623333D01*
X162967200Y-92861428D02*
X163681485Y-93099523D01*
X163681485Y-93099523D02*
X163681485Y-92480476D01*
X165020238Y-94448152D02*
X165020238Y-95114819D01*
X164782143Y-94067200D02*
X164544048Y-94781485D01*
X164544048Y-94781485D02*
X165163095Y-94781485D01*
X165544048Y-95019580D02*
X165591667Y-95067200D01*
X165591667Y-95067200D02*
X165544048Y-95114819D01*
X165544048Y-95114819D02*
X165496429Y-95067200D01*
X165496429Y-95067200D02*
X165544048Y-95019580D01*
X165544048Y-95019580D02*
X165544048Y-95114819D01*
X165925000Y-94114819D02*
X166591666Y-94114819D01*
X166591666Y-94114819D02*
X166163095Y-95114819D01*
X167401190Y-94448152D02*
X167401190Y-95114819D01*
X166972619Y-94448152D02*
X166972619Y-94971961D01*
X166972619Y-94971961D02*
X167020238Y-95067200D01*
X167020238Y-95067200D02*
X167115476Y-95114819D01*
X167115476Y-95114819D02*
X167258333Y-95114819D01*
X167258333Y-95114819D02*
X167353571Y-95067200D01*
X167353571Y-95067200D02*
X167401190Y-95019580D01*
X168210714Y-94591009D02*
X167877381Y-94591009D01*
X167877381Y-95114819D02*
X167877381Y-94114819D01*
X167877381Y-94114819D02*
X168353571Y-94114819D01*
X139579580Y-101946666D02*
X139627200Y-101994285D01*
X139627200Y-101994285D02*
X139674819Y-102137142D01*
X139674819Y-102137142D02*
X139674819Y-102232380D01*
X139674819Y-102232380D02*
X139627200Y-102375237D01*
X139627200Y-102375237D02*
X139531961Y-102470475D01*
X139531961Y-102470475D02*
X139436723Y-102518094D01*
X139436723Y-102518094D02*
X139246247Y-102565713D01*
X139246247Y-102565713D02*
X139103390Y-102565713D01*
X139103390Y-102565713D02*
X138912914Y-102518094D01*
X138912914Y-102518094D02*
X138817676Y-102470475D01*
X138817676Y-102470475D02*
X138722438Y-102375237D01*
X138722438Y-102375237D02*
X138674819Y-102232380D01*
X138674819Y-102232380D02*
X138674819Y-102137142D01*
X138674819Y-102137142D02*
X138722438Y-101994285D01*
X138722438Y-101994285D02*
X138770057Y-101946666D01*
X138674819Y-101613332D02*
X138674819Y-100946666D01*
X138674819Y-100946666D02*
X139674819Y-101375237D01*
X135112857Y-100109580D02*
X135160476Y-100157200D01*
X135160476Y-100157200D02*
X135112857Y-100204819D01*
X135112857Y-100204819D02*
X135065238Y-100157200D01*
X135065238Y-100157200D02*
X135112857Y-100109580D01*
X135112857Y-100109580D02*
X135112857Y-100204819D01*
X136112856Y-100204819D02*
X135541428Y-100204819D01*
X135827142Y-100204819D02*
X135827142Y-99204819D01*
X135827142Y-99204819D02*
X135731904Y-99347676D01*
X135731904Y-99347676D02*
X135636666Y-99442914D01*
X135636666Y-99442914D02*
X135541428Y-99490533D01*
X136969999Y-99538152D02*
X136969999Y-100204819D01*
X136541428Y-99538152D02*
X136541428Y-100061961D01*
X136541428Y-100061961D02*
X136589047Y-100157200D01*
X136589047Y-100157200D02*
X136684285Y-100204819D01*
X136684285Y-100204819D02*
X136827142Y-100204819D01*
X136827142Y-100204819D02*
X136922380Y-100157200D01*
X136922380Y-100157200D02*
X136969999Y-100109580D01*
X137779523Y-99681009D02*
X137446190Y-99681009D01*
X137446190Y-100204819D02*
X137446190Y-99204819D01*
X137446190Y-99204819D02*
X137922380Y-99204819D01*
X160916666Y-98864819D02*
X160916666Y-99579104D01*
X160916666Y-99579104D02*
X160869047Y-99721961D01*
X160869047Y-99721961D02*
X160773809Y-99817200D01*
X160773809Y-99817200D02*
X160630952Y-99864819D01*
X160630952Y-99864819D02*
X160535714Y-99864819D01*
X161297619Y-98864819D02*
X161964285Y-98864819D01*
X161964285Y-98864819D02*
X161535714Y-99864819D01*
X164168095Y-99273866D02*
X164930000Y-99273866D01*
X164549047Y-99654819D02*
X164549047Y-98892914D01*
X165929999Y-99654819D02*
X165358571Y-99654819D01*
X165644285Y-99654819D02*
X165644285Y-98654819D01*
X165644285Y-98654819D02*
X165549047Y-98797676D01*
X165549047Y-98797676D02*
X165453809Y-98892914D01*
X165453809Y-98892914D02*
X165358571Y-98940533D01*
X166310952Y-98750057D02*
X166358571Y-98702438D01*
X166358571Y-98702438D02*
X166453809Y-98654819D01*
X166453809Y-98654819D02*
X166691904Y-98654819D01*
X166691904Y-98654819D02*
X166787142Y-98702438D01*
X166787142Y-98702438D02*
X166834761Y-98750057D01*
X166834761Y-98750057D02*
X166882380Y-98845295D01*
X166882380Y-98845295D02*
X166882380Y-98940533D01*
X166882380Y-98940533D02*
X166834761Y-99083390D01*
X166834761Y-99083390D02*
X166263333Y-99654819D01*
X166263333Y-99654819D02*
X166882380Y-99654819D01*
X167168095Y-98654819D02*
X167501428Y-99654819D01*
X167501428Y-99654819D02*
X167834761Y-98654819D01*
X145789580Y-72856666D02*
X145837200Y-72904285D01*
X145837200Y-72904285D02*
X145884819Y-73047142D01*
X145884819Y-73047142D02*
X145884819Y-73142380D01*
X145884819Y-73142380D02*
X145837200Y-73285237D01*
X145837200Y-73285237D02*
X145741961Y-73380475D01*
X145741961Y-73380475D02*
X145646723Y-73428094D01*
X145646723Y-73428094D02*
X145456247Y-73475713D01*
X145456247Y-73475713D02*
X145313390Y-73475713D01*
X145313390Y-73475713D02*
X145122914Y-73428094D01*
X145122914Y-73428094D02*
X145027676Y-73380475D01*
X145027676Y-73380475D02*
X144932438Y-73285237D01*
X144932438Y-73285237D02*
X144884819Y-73142380D01*
X144884819Y-73142380D02*
X144884819Y-73047142D01*
X144884819Y-73047142D02*
X144932438Y-72904285D01*
X144932438Y-72904285D02*
X144980057Y-72856666D01*
X144884819Y-72523332D02*
X144884819Y-71904285D01*
X144884819Y-71904285D02*
X145265771Y-72237618D01*
X145265771Y-72237618D02*
X145265771Y-72094761D01*
X145265771Y-72094761D02*
X145313390Y-71999523D01*
X145313390Y-71999523D02*
X145361009Y-71951904D01*
X145361009Y-71951904D02*
X145456247Y-71904285D01*
X145456247Y-71904285D02*
X145694342Y-71904285D01*
X145694342Y-71904285D02*
X145789580Y-71951904D01*
X145789580Y-71951904D02*
X145837200Y-71999523D01*
X145837200Y-71999523D02*
X145884819Y-72094761D01*
X145884819Y-72094761D02*
X145884819Y-72380475D01*
X145884819Y-72380475D02*
X145837200Y-72475713D01*
X145837200Y-72475713D02*
X145789580Y-72523332D01*
X146764819Y-77888570D02*
X146764819Y-77269523D01*
X146764819Y-77269523D02*
X147145771Y-77602856D01*
X147145771Y-77602856D02*
X147145771Y-77459999D01*
X147145771Y-77459999D02*
X147193390Y-77364761D01*
X147193390Y-77364761D02*
X147241009Y-77317142D01*
X147241009Y-77317142D02*
X147336247Y-77269523D01*
X147336247Y-77269523D02*
X147574342Y-77269523D01*
X147574342Y-77269523D02*
X147669580Y-77317142D01*
X147669580Y-77317142D02*
X147717200Y-77364761D01*
X147717200Y-77364761D02*
X147764819Y-77459999D01*
X147764819Y-77459999D02*
X147764819Y-77745713D01*
X147764819Y-77745713D02*
X147717200Y-77840951D01*
X147717200Y-77840951D02*
X147669580Y-77888570D01*
X147669580Y-76840951D02*
X147717200Y-76793332D01*
X147717200Y-76793332D02*
X147764819Y-76840951D01*
X147764819Y-76840951D02*
X147717200Y-76888570D01*
X147717200Y-76888570D02*
X147669580Y-76840951D01*
X147669580Y-76840951D02*
X147764819Y-76840951D01*
X146764819Y-76459999D02*
X146764819Y-75840952D01*
X146764819Y-75840952D02*
X147145771Y-76174285D01*
X147145771Y-76174285D02*
X147145771Y-76031428D01*
X147145771Y-76031428D02*
X147193390Y-75936190D01*
X147193390Y-75936190D02*
X147241009Y-75888571D01*
X147241009Y-75888571D02*
X147336247Y-75840952D01*
X147336247Y-75840952D02*
X147574342Y-75840952D01*
X147574342Y-75840952D02*
X147669580Y-75888571D01*
X147669580Y-75888571D02*
X147717200Y-75936190D01*
X147717200Y-75936190D02*
X147764819Y-76031428D01*
X147764819Y-76031428D02*
X147764819Y-76317142D01*
X147764819Y-76317142D02*
X147717200Y-76412380D01*
X147717200Y-76412380D02*
X147669580Y-76459999D01*
X147098152Y-74983809D02*
X147764819Y-74983809D01*
X147098152Y-75412380D02*
X147621961Y-75412380D01*
X147621961Y-75412380D02*
X147717200Y-75364761D01*
X147717200Y-75364761D02*
X147764819Y-75269523D01*
X147764819Y-75269523D02*
X147764819Y-75126666D01*
X147764819Y-75126666D02*
X147717200Y-75031428D01*
X147717200Y-75031428D02*
X147669580Y-74983809D01*
X147241009Y-74174285D02*
X147241009Y-74507618D01*
X147764819Y-74507618D02*
X146764819Y-74507618D01*
X146764819Y-74507618D02*
X146764819Y-74031428D01*
X174266666Y-83054819D02*
X174266666Y-83769104D01*
X174266666Y-83769104D02*
X174219047Y-83911961D01*
X174219047Y-83911961D02*
X174123809Y-84007200D01*
X174123809Y-84007200D02*
X173980952Y-84054819D01*
X173980952Y-84054819D02*
X173885714Y-84054819D01*
X175171428Y-83388152D02*
X175171428Y-84054819D01*
X174933333Y-83007200D02*
X174695238Y-83721485D01*
X174695238Y-83721485D02*
X175314285Y-83721485D01*
X172500000Y-82407200D02*
X172642857Y-82454819D01*
X172642857Y-82454819D02*
X172880952Y-82454819D01*
X172880952Y-82454819D02*
X172976190Y-82407200D01*
X172976190Y-82407200D02*
X173023809Y-82359580D01*
X173023809Y-82359580D02*
X173071428Y-82264342D01*
X173071428Y-82264342D02*
X173071428Y-82169104D01*
X173071428Y-82169104D02*
X173023809Y-82073866D01*
X173023809Y-82073866D02*
X172976190Y-82026247D01*
X172976190Y-82026247D02*
X172880952Y-81978628D01*
X172880952Y-81978628D02*
X172690476Y-81931009D01*
X172690476Y-81931009D02*
X172595238Y-81883390D01*
X172595238Y-81883390D02*
X172547619Y-81835771D01*
X172547619Y-81835771D02*
X172500000Y-81740533D01*
X172500000Y-81740533D02*
X172500000Y-81645295D01*
X172500000Y-81645295D02*
X172547619Y-81550057D01*
X172547619Y-81550057D02*
X172595238Y-81502438D01*
X172595238Y-81502438D02*
X172690476Y-81454819D01*
X172690476Y-81454819D02*
X172928571Y-81454819D01*
X172928571Y-81454819D02*
X173071428Y-81502438D01*
X173404762Y-81454819D02*
X173642857Y-82454819D01*
X173642857Y-82454819D02*
X173833333Y-81740533D01*
X173833333Y-81740533D02*
X174023809Y-82454819D01*
X174023809Y-82454819D02*
X174261905Y-81454819D01*
X174642857Y-82454819D02*
X174642857Y-81454819D01*
X174976190Y-81454819D02*
X175547618Y-81454819D01*
X175261904Y-82454819D02*
X175261904Y-81454819D01*
X176452380Y-82359580D02*
X176404761Y-82407200D01*
X176404761Y-82407200D02*
X176261904Y-82454819D01*
X176261904Y-82454819D02*
X176166666Y-82454819D01*
X176166666Y-82454819D02*
X176023809Y-82407200D01*
X176023809Y-82407200D02*
X175928571Y-82311961D01*
X175928571Y-82311961D02*
X175880952Y-82216723D01*
X175880952Y-82216723D02*
X175833333Y-82026247D01*
X175833333Y-82026247D02*
X175833333Y-81883390D01*
X175833333Y-81883390D02*
X175880952Y-81692914D01*
X175880952Y-81692914D02*
X175928571Y-81597676D01*
X175928571Y-81597676D02*
X176023809Y-81502438D01*
X176023809Y-81502438D02*
X176166666Y-81454819D01*
X176166666Y-81454819D02*
X176261904Y-81454819D01*
X176261904Y-81454819D02*
X176404761Y-81502438D01*
X176404761Y-81502438D02*
X176452380Y-81550057D01*
X176880952Y-82454819D02*
X176880952Y-81454819D01*
X176880952Y-81931009D02*
X177452380Y-81931009D01*
X177452380Y-82454819D02*
X177452380Y-81454819D01*
X165757142Y-85619580D02*
X165709523Y-85667200D01*
X165709523Y-85667200D02*
X165566666Y-85714819D01*
X165566666Y-85714819D02*
X165471428Y-85714819D01*
X165471428Y-85714819D02*
X165328571Y-85667200D01*
X165328571Y-85667200D02*
X165233333Y-85571961D01*
X165233333Y-85571961D02*
X165185714Y-85476723D01*
X165185714Y-85476723D02*
X165138095Y-85286247D01*
X165138095Y-85286247D02*
X165138095Y-85143390D01*
X165138095Y-85143390D02*
X165185714Y-84952914D01*
X165185714Y-84952914D02*
X165233333Y-84857676D01*
X165233333Y-84857676D02*
X165328571Y-84762438D01*
X165328571Y-84762438D02*
X165471428Y-84714819D01*
X165471428Y-84714819D02*
X165566666Y-84714819D01*
X165566666Y-84714819D02*
X165709523Y-84762438D01*
X165709523Y-84762438D02*
X165757142Y-84810057D01*
X166709523Y-85714819D02*
X166138095Y-85714819D01*
X166423809Y-85714819D02*
X166423809Y-84714819D01*
X166423809Y-84714819D02*
X166328571Y-84857676D01*
X166328571Y-84857676D02*
X166233333Y-84952914D01*
X166233333Y-84952914D02*
X166138095Y-85000533D01*
X167661904Y-85714819D02*
X167090476Y-85714819D01*
X167376190Y-85714819D02*
X167376190Y-84714819D01*
X167376190Y-84714819D02*
X167280952Y-84857676D01*
X167280952Y-84857676D02*
X167185714Y-84952914D01*
X167185714Y-84952914D02*
X167090476Y-85000533D01*
X165022857Y-87129580D02*
X165070476Y-87177200D01*
X165070476Y-87177200D02*
X165022857Y-87224819D01*
X165022857Y-87224819D02*
X164975238Y-87177200D01*
X164975238Y-87177200D02*
X165022857Y-87129580D01*
X165022857Y-87129580D02*
X165022857Y-87224819D01*
X166022856Y-87224819D02*
X165451428Y-87224819D01*
X165737142Y-87224819D02*
X165737142Y-86224819D01*
X165737142Y-86224819D02*
X165641904Y-86367676D01*
X165641904Y-86367676D02*
X165546666Y-86462914D01*
X165546666Y-86462914D02*
X165451428Y-86510533D01*
X166879999Y-86558152D02*
X166879999Y-87224819D01*
X166451428Y-86558152D02*
X166451428Y-87081961D01*
X166451428Y-87081961D02*
X166499047Y-87177200D01*
X166499047Y-87177200D02*
X166594285Y-87224819D01*
X166594285Y-87224819D02*
X166737142Y-87224819D01*
X166737142Y-87224819D02*
X166832380Y-87177200D01*
X166832380Y-87177200D02*
X166879999Y-87129580D01*
X167689523Y-86701009D02*
X167356190Y-86701009D01*
X167356190Y-87224819D02*
X167356190Y-86224819D01*
X167356190Y-86224819D02*
X167832380Y-86224819D01*
X172998095Y-97034819D02*
X172998095Y-97844342D01*
X172998095Y-97844342D02*
X173045714Y-97939580D01*
X173045714Y-97939580D02*
X173093333Y-97987200D01*
X173093333Y-97987200D02*
X173188571Y-98034819D01*
X173188571Y-98034819D02*
X173379047Y-98034819D01*
X173379047Y-98034819D02*
X173474285Y-97987200D01*
X173474285Y-97987200D02*
X173521904Y-97939580D01*
X173521904Y-97939580D02*
X173569523Y-97844342D01*
X173569523Y-97844342D02*
X173569523Y-97034819D01*
X173998095Y-97130057D02*
X174045714Y-97082438D01*
X174045714Y-97082438D02*
X174140952Y-97034819D01*
X174140952Y-97034819D02*
X174379047Y-97034819D01*
X174379047Y-97034819D02*
X174474285Y-97082438D01*
X174474285Y-97082438D02*
X174521904Y-97130057D01*
X174521904Y-97130057D02*
X174569523Y-97225295D01*
X174569523Y-97225295D02*
X174569523Y-97320533D01*
X174569523Y-97320533D02*
X174521904Y-97463390D01*
X174521904Y-97463390D02*
X173950476Y-98034819D01*
X173950476Y-98034819D02*
X174569523Y-98034819D01*
X168498094Y-88034819D02*
X169117141Y-88034819D01*
X169117141Y-88034819D02*
X168783808Y-88415771D01*
X168783808Y-88415771D02*
X168926665Y-88415771D01*
X168926665Y-88415771D02*
X169021903Y-88463390D01*
X169021903Y-88463390D02*
X169069522Y-88511009D01*
X169069522Y-88511009D02*
X169117141Y-88606247D01*
X169117141Y-88606247D02*
X169117141Y-88844342D01*
X169117141Y-88844342D02*
X169069522Y-88939580D01*
X169069522Y-88939580D02*
X169021903Y-88987200D01*
X169021903Y-88987200D02*
X168926665Y-89034819D01*
X168926665Y-89034819D02*
X168640951Y-89034819D01*
X168640951Y-89034819D02*
X168545713Y-88987200D01*
X168545713Y-88987200D02*
X168498094Y-88939580D01*
X169545713Y-88939580D02*
X169593332Y-88987200D01*
X169593332Y-88987200D02*
X169545713Y-89034819D01*
X169545713Y-89034819D02*
X169498094Y-88987200D01*
X169498094Y-88987200D02*
X169545713Y-88939580D01*
X169545713Y-88939580D02*
X169545713Y-89034819D01*
X169926665Y-88034819D02*
X170545712Y-88034819D01*
X170545712Y-88034819D02*
X170212379Y-88415771D01*
X170212379Y-88415771D02*
X170355236Y-88415771D01*
X170355236Y-88415771D02*
X170450474Y-88463390D01*
X170450474Y-88463390D02*
X170498093Y-88511009D01*
X170498093Y-88511009D02*
X170545712Y-88606247D01*
X170545712Y-88606247D02*
X170545712Y-88844342D01*
X170545712Y-88844342D02*
X170498093Y-88939580D01*
X170498093Y-88939580D02*
X170450474Y-88987200D01*
X170450474Y-88987200D02*
X170355236Y-89034819D01*
X170355236Y-89034819D02*
X170069522Y-89034819D01*
X170069522Y-89034819D02*
X169974284Y-88987200D01*
X169974284Y-88987200D02*
X169926665Y-88939580D01*
X170831427Y-88034819D02*
X171164760Y-89034819D01*
X171164760Y-89034819D02*
X171498093Y-88034819D01*
X172593332Y-89034819D02*
X172593332Y-88368152D01*
X172593332Y-88558628D02*
X172640951Y-88463390D01*
X172640951Y-88463390D02*
X172688570Y-88415771D01*
X172688570Y-88415771D02*
X172783808Y-88368152D01*
X172783808Y-88368152D02*
X172879046Y-88368152D01*
X173593332Y-88987200D02*
X173498094Y-89034819D01*
X173498094Y-89034819D02*
X173307618Y-89034819D01*
X173307618Y-89034819D02*
X173212380Y-88987200D01*
X173212380Y-88987200D02*
X173164761Y-88891961D01*
X173164761Y-88891961D02*
X173164761Y-88511009D01*
X173164761Y-88511009D02*
X173212380Y-88415771D01*
X173212380Y-88415771D02*
X173307618Y-88368152D01*
X173307618Y-88368152D02*
X173498094Y-88368152D01*
X173498094Y-88368152D02*
X173593332Y-88415771D01*
X173593332Y-88415771D02*
X173640951Y-88511009D01*
X173640951Y-88511009D02*
X173640951Y-88606247D01*
X173640951Y-88606247D02*
X173164761Y-88701485D01*
X174498094Y-88368152D02*
X174498094Y-89177676D01*
X174498094Y-89177676D02*
X174450475Y-89272914D01*
X174450475Y-89272914D02*
X174402856Y-89320533D01*
X174402856Y-89320533D02*
X174307618Y-89368152D01*
X174307618Y-89368152D02*
X174164761Y-89368152D01*
X174164761Y-89368152D02*
X174069523Y-89320533D01*
X174498094Y-88987200D02*
X174402856Y-89034819D01*
X174402856Y-89034819D02*
X174212380Y-89034819D01*
X174212380Y-89034819D02*
X174117142Y-88987200D01*
X174117142Y-88987200D02*
X174069523Y-88939580D01*
X174069523Y-88939580D02*
X174021904Y-88844342D01*
X174021904Y-88844342D02*
X174021904Y-88558628D01*
X174021904Y-88558628D02*
X174069523Y-88463390D01*
X174069523Y-88463390D02*
X174117142Y-88415771D01*
X174117142Y-88415771D02*
X174212380Y-88368152D01*
X174212380Y-88368152D02*
X174402856Y-88368152D01*
X174402856Y-88368152D02*
X174498094Y-88415771D01*
X175402856Y-88368152D02*
X175402856Y-89034819D01*
X174974285Y-88368152D02*
X174974285Y-88891961D01*
X174974285Y-88891961D02*
X175021904Y-88987200D01*
X175021904Y-88987200D02*
X175117142Y-89034819D01*
X175117142Y-89034819D02*
X175259999Y-89034819D01*
X175259999Y-89034819D02*
X175355237Y-88987200D01*
X175355237Y-88987200D02*
X175402856Y-88939580D01*
X176021904Y-89034819D02*
X175926666Y-88987200D01*
X175926666Y-88987200D02*
X175879047Y-88891961D01*
X175879047Y-88891961D02*
X175879047Y-88034819D01*
X176831428Y-89034819D02*
X176831428Y-88511009D01*
X176831428Y-88511009D02*
X176783809Y-88415771D01*
X176783809Y-88415771D02*
X176688571Y-88368152D01*
X176688571Y-88368152D02*
X176498095Y-88368152D01*
X176498095Y-88368152D02*
X176402857Y-88415771D01*
X176831428Y-88987200D02*
X176736190Y-89034819D01*
X176736190Y-89034819D02*
X176498095Y-89034819D01*
X176498095Y-89034819D02*
X176402857Y-88987200D01*
X176402857Y-88987200D02*
X176355238Y-88891961D01*
X176355238Y-88891961D02*
X176355238Y-88796723D01*
X176355238Y-88796723D02*
X176402857Y-88701485D01*
X176402857Y-88701485D02*
X176498095Y-88653866D01*
X176498095Y-88653866D02*
X176736190Y-88653866D01*
X176736190Y-88653866D02*
X176831428Y-88606247D01*
X177164762Y-88368152D02*
X177545714Y-88368152D01*
X177307619Y-88034819D02*
X177307619Y-88891961D01*
X177307619Y-88891961D02*
X177355238Y-88987200D01*
X177355238Y-88987200D02*
X177450476Y-89034819D01*
X177450476Y-89034819D02*
X177545714Y-89034819D01*
X178021905Y-89034819D02*
X177926667Y-88987200D01*
X177926667Y-88987200D02*
X177879048Y-88939580D01*
X177879048Y-88939580D02*
X177831429Y-88844342D01*
X177831429Y-88844342D02*
X177831429Y-88558628D01*
X177831429Y-88558628D02*
X177879048Y-88463390D01*
X177879048Y-88463390D02*
X177926667Y-88415771D01*
X177926667Y-88415771D02*
X178021905Y-88368152D01*
X178021905Y-88368152D02*
X178164762Y-88368152D01*
X178164762Y-88368152D02*
X178260000Y-88415771D01*
X178260000Y-88415771D02*
X178307619Y-88463390D01*
X178307619Y-88463390D02*
X178355238Y-88558628D01*
X178355238Y-88558628D02*
X178355238Y-88844342D01*
X178355238Y-88844342D02*
X178307619Y-88939580D01*
X178307619Y-88939580D02*
X178260000Y-88987200D01*
X178260000Y-88987200D02*
X178164762Y-89034819D01*
X178164762Y-89034819D02*
X178021905Y-89034819D01*
X178783810Y-89034819D02*
X178783810Y-88368152D01*
X178783810Y-88558628D02*
X178831429Y-88463390D01*
X178831429Y-88463390D02*
X178879048Y-88415771D01*
X178879048Y-88415771D02*
X178974286Y-88368152D01*
X178974286Y-88368152D02*
X179069524Y-88368152D01*
D11*
%TO.C,J1*%
X119260000Y-110800000D02*
X119900000Y-110800000D01*
X119900000Y-110800000D02*
X119900000Y-110400000D01*
X110540000Y-110560000D02*
X119660000Y-110560000D01*
X110540000Y-110560000D02*
X110540000Y-70440000D01*
X118100000Y-110560000D02*
X118100000Y-70440000D01*
X119200000Y-110560000D02*
X119200000Y-70440000D01*
X119660000Y-110560000D02*
X119660000Y-70440000D01*
X115881000Y-109548000D02*
X115988000Y-109654000D01*
X116147000Y-109282000D02*
X116254000Y-109388000D01*
X112946000Y-106612000D02*
X113053000Y-106719000D01*
X113212000Y-106346000D02*
X113319000Y-106453000D01*
X115592000Y-104258000D02*
X115988000Y-104653000D01*
X115874000Y-104007000D02*
X116254000Y-104387000D01*
X112946000Y-101612000D02*
X113326000Y-101992000D01*
X113212000Y-101346000D02*
X113608000Y-101741000D01*
X115592000Y-99258000D02*
X115988000Y-99653000D01*
X115874000Y-99007000D02*
X116254000Y-99387000D01*
X112946000Y-96612000D02*
X113326000Y-96992000D01*
X113212000Y-96346000D02*
X113608000Y-96741000D01*
X115592000Y-94258000D02*
X115988000Y-94653000D01*
X115874000Y-94007000D02*
X116254000Y-94387000D01*
X112946000Y-91612000D02*
X113326000Y-91992000D01*
X113212000Y-91346000D02*
X113608000Y-91741000D01*
X115592000Y-89258000D02*
X115988000Y-89653000D01*
X115874000Y-89007000D02*
X116254000Y-89387000D01*
X112946000Y-86612000D02*
X113326000Y-86992000D01*
X113212000Y-86346000D02*
X113608000Y-86741000D01*
X115592000Y-84258000D02*
X115988000Y-84653000D01*
X115874000Y-84007000D02*
X116254000Y-84387000D01*
X112946000Y-81612000D02*
X113326000Y-81992000D01*
X113212000Y-81346000D02*
X113608000Y-81741000D01*
X115592000Y-79258000D02*
X115988000Y-79653000D01*
X115874000Y-79007000D02*
X116254000Y-79387000D01*
X112946000Y-76612000D02*
X113326000Y-76992000D01*
X113212000Y-76346000D02*
X113608000Y-76741000D01*
X115592000Y-74258000D02*
X115988000Y-74653000D01*
X115874000Y-74007000D02*
X116254000Y-74387000D01*
X112946000Y-71612000D02*
X113326000Y-71992000D01*
X113212000Y-71346000D02*
X113608000Y-71741000D01*
X110540000Y-70440000D02*
X119660000Y-70440000D01*
X116780000Y-108000000D02*
G75*
G03*
X116780000Y-108000000I-2180000J0D01*
G01*
X116780000Y-103000000D02*
G75*
G03*
X116780000Y-103000000I-2180000J0D01*
G01*
X116780000Y-98000000D02*
G75*
G03*
X116780000Y-98000000I-2180000J0D01*
G01*
X116780000Y-93000000D02*
G75*
G03*
X116780000Y-93000000I-2180000J0D01*
G01*
X116780000Y-88000000D02*
G75*
G03*
X116780000Y-88000000I-2180000J0D01*
G01*
X116780000Y-83000000D02*
G75*
G03*
X116780000Y-83000000I-2180000J0D01*
G01*
X116780000Y-78000000D02*
G75*
G03*
X116780000Y-78000000I-2180000J0D01*
G01*
X116780000Y-73000000D02*
G75*
G03*
X116780000Y-73000000I-2180000J0D01*
G01*
%TO.C,J5*%
X157900000Y-80060000D02*
X157900000Y-80700000D01*
X157900000Y-80700000D02*
X158300000Y-80700000D01*
X158140000Y-71340000D02*
X158140000Y-80460000D01*
X158140000Y-71340000D02*
X168260000Y-71340000D01*
X158140000Y-78900000D02*
X168260000Y-78900000D01*
X158140000Y-80000000D02*
X168260000Y-80000000D01*
X158140000Y-80460000D02*
X168260000Y-80460000D01*
X159152000Y-76681000D02*
X159046000Y-76788000D01*
X159418000Y-76947000D02*
X159312000Y-77054000D01*
X162088000Y-73746000D02*
X161981000Y-73853000D01*
X162354000Y-74012000D02*
X162247000Y-74119000D01*
X164442000Y-76392000D02*
X164047000Y-76788000D01*
X164693000Y-76674000D02*
X164313000Y-77054000D01*
X167088000Y-73746000D02*
X166708000Y-74126000D01*
X167354000Y-74012000D02*
X166959000Y-74408000D01*
X168260000Y-71340000D02*
X168260000Y-80460000D01*
X162880000Y-75400000D02*
G75*
G03*
X162880000Y-75400000I-2180000J0D01*
G01*
X167880000Y-75400000D02*
G75*
G03*
X167880000Y-75400000I-2180000J0D01*
G01*
%TO.C,U3*%
X150865000Y-99900000D02*
X150865000Y-103500000D01*
X150865000Y-99900000D02*
X150865000Y-97700000D01*
X156335000Y-99900000D02*
X156335000Y-102100000D01*
X156335000Y-99900000D02*
X156335000Y-97700000D01*
%TO.C,R2*%
X129427064Y-85514000D02*
X128972936Y-85514000D01*
X129427064Y-84044000D02*
X128972936Y-84044000D01*
%TO.C,C1*%
X143335000Y-103001248D02*
X143335000Y-103523752D01*
X141865000Y-103001248D02*
X141865000Y-103523752D01*
%TO.C,J2*%
X187925000Y-106060000D02*
X185325000Y-106060000D01*
X190825000Y-106060000D02*
X192485000Y-106060000D01*
X192485000Y-106060000D02*
X192485000Y-98140000D01*
X183015000Y-105300000D02*
X183015000Y-104150000D01*
X182425000Y-104150000D02*
X182425000Y-103450000D01*
X183015000Y-104150000D02*
X182425000Y-104150000D01*
X183015000Y-100050000D02*
X183015000Y-98900000D01*
X185325000Y-98140000D02*
X187925000Y-98140000D01*
X192485000Y-98140000D02*
X190825000Y-98140000D01*
%TO.C,FB2*%
X128963748Y-86481000D02*
X129486252Y-86481000D01*
X128963748Y-87901000D02*
X129486252Y-87901000D01*
%TO.C,R1*%
X129452064Y-92810000D02*
X128997936Y-92810000D01*
X129452064Y-91340000D02*
X128997936Y-91340000D01*
%TO.C,C13*%
X161822500Y-91385000D02*
X161822500Y-89815000D01*
X161822500Y-89815000D02*
X158937500Y-89815000D01*
X158937500Y-91385000D02*
X161822500Y-91385000D01*
%TO.C,C17*%
X153251248Y-91265000D02*
X153773752Y-91265000D01*
X153251248Y-92735000D02*
X153773752Y-92735000D01*
%TO.C,C16*%
X145735000Y-103001248D02*
X145735000Y-103523752D01*
X144265000Y-103001248D02*
X144265000Y-103523752D01*
%TO.C,C8*%
X153251248Y-81265000D02*
X153773752Y-81265000D01*
X153251248Y-82735000D02*
X153773752Y-82735000D01*
%TO.C,C20*%
X181090000Y-94315000D02*
X181090000Y-95885000D01*
X181090000Y-95885000D02*
X183975000Y-95885000D01*
X183975000Y-94315000D02*
X181090000Y-94315000D01*
%TO.C,J3*%
X181000000Y-80060000D02*
X181000000Y-80700000D01*
X181000000Y-80700000D02*
X181400000Y-80700000D01*
X181240000Y-71340000D02*
X181240000Y-80460000D01*
X181240000Y-71340000D02*
X191360000Y-71340000D01*
X181240000Y-78900000D02*
X191360000Y-78900000D01*
X181240000Y-80000000D02*
X191360000Y-80000000D01*
X181240000Y-80460000D02*
X191360000Y-80460000D01*
X182252000Y-76681000D02*
X182146000Y-76788000D01*
X182518000Y-76947000D02*
X182412000Y-77054000D01*
X185188000Y-73746000D02*
X185081000Y-73853000D01*
X185454000Y-74012000D02*
X185347000Y-74119000D01*
X187542000Y-76392000D02*
X187147000Y-76788000D01*
X187793000Y-76674000D02*
X187413000Y-77054000D01*
X190188000Y-73746000D02*
X189808000Y-74126000D01*
X190454000Y-74012000D02*
X190059000Y-74408000D01*
X191360000Y-71340000D02*
X191360000Y-80460000D01*
X185980000Y-75400000D02*
G75*
G03*
X185980000Y-75400000I-2180000J0D01*
G01*
X190980000Y-75400000D02*
G75*
G03*
X190980000Y-75400000I-2180000J0D01*
G01*
%TO.C,U1*%
X136590000Y-79790000D02*
X136590000Y-80740000D01*
X136590000Y-80740000D02*
X135250000Y-80740000D01*
X136590000Y-90010000D02*
X136590000Y-89060000D01*
X137540000Y-79790000D02*
X136590000Y-79790000D01*
X137540000Y-90010000D02*
X136590000Y-90010000D01*
X145860000Y-79790000D02*
X146810000Y-79790000D01*
X145860000Y-90010000D02*
X146810000Y-90010000D01*
X146810000Y-79790000D02*
X146810000Y-80740000D01*
X146810000Y-90010000D02*
X146810000Y-89060000D01*
%TO.C,C9*%
X141165000Y-76123752D02*
X141165000Y-75601248D01*
X142635000Y-76123752D02*
X142635000Y-75601248D01*
%TO.C,C19*%
X154668748Y-105835000D02*
X155191252Y-105835000D01*
X154668748Y-107305000D02*
X155191252Y-107305000D01*
%TO.C,FB1*%
X128963748Y-81657000D02*
X129486252Y-81657000D01*
X128963748Y-83077000D02*
X129486252Y-83077000D01*
%TO.C,X1*%
X129765000Y-80635000D02*
X129125000Y-80635000D01*
X127885000Y-79905000D02*
X127885000Y-80595000D01*
X130805000Y-79695000D02*
X130805000Y-79355000D01*
X128085000Y-79685000D02*
X128085000Y-79355000D01*
X129765000Y-78415000D02*
X129125000Y-78415000D01*
X128085000Y-79685000D02*
G75*
G03*
X127885001Y-79905000I120002J-310001D01*
G01*
%TO.C,C4*%
X137765000Y-76123752D02*
X137765000Y-75601248D01*
X139235000Y-76123752D02*
X139235000Y-75601248D01*
%TO.C,C12*%
X183535000Y-90438748D02*
X183535000Y-90961252D01*
X182065000Y-90438748D02*
X182065000Y-90961252D01*
%TO.C,C21*%
X130995000Y-98280199D02*
X130995000Y-98680199D01*
X131195000Y-98480199D02*
X130795000Y-98480199D01*
X131880000Y-100550000D02*
X130640000Y-100550000D01*
X128960000Y-100550000D02*
X127720000Y-100550000D01*
X131880000Y-100590000D02*
X130640000Y-100590000D01*
X128960000Y-100590000D02*
X127720000Y-100590000D01*
X131879000Y-100630000D02*
X130640000Y-100630000D01*
X128960000Y-100630000D02*
X127721000Y-100630000D01*
X131877000Y-100670000D02*
X130640000Y-100670000D01*
X128960000Y-100670000D02*
X127723000Y-100670000D01*
X131874000Y-100710000D02*
X130640000Y-100710000D01*
X128960000Y-100710000D02*
X127726000Y-100710000D01*
X131871000Y-100750000D02*
X130640000Y-100750000D01*
X128960000Y-100750000D02*
X127729000Y-100750000D01*
X131867000Y-100790000D02*
X130640000Y-100790000D01*
X128960000Y-100790000D02*
X127733000Y-100790000D01*
X131862000Y-100830000D02*
X130640000Y-100830000D01*
X128960000Y-100830000D02*
X127738000Y-100830000D01*
X131856000Y-100870000D02*
X130640000Y-100870000D01*
X128960000Y-100870000D02*
X127744000Y-100870000D01*
X131850000Y-100910000D02*
X130640000Y-100910000D01*
X128960000Y-100910000D02*
X127750000Y-100910000D01*
X131842000Y-100950000D02*
X130640000Y-100950000D01*
X128960000Y-100950000D02*
X127758000Y-100950000D01*
X131834000Y-100990000D02*
X130640000Y-100990000D01*
X128960000Y-100990000D02*
X127766000Y-100990000D01*
X131825000Y-101030000D02*
X130640000Y-101030000D01*
X128960000Y-101030000D02*
X127775000Y-101030000D01*
X131816000Y-101070000D02*
X130640000Y-101070000D01*
X128960000Y-101070000D02*
X127784000Y-101070000D01*
X131805000Y-101110000D02*
X130640000Y-101110000D01*
X128960000Y-101110000D02*
X127795000Y-101110000D01*
X131794000Y-101150000D02*
X130640000Y-101150000D01*
X128960000Y-101150000D02*
X127806000Y-101150000D01*
X131782000Y-101190000D02*
X130640000Y-101190000D01*
X128960000Y-101190000D02*
X127818000Y-101190000D01*
X131768000Y-101230000D02*
X130640000Y-101230000D01*
X128960000Y-101230000D02*
X127832000Y-101230000D01*
X131754000Y-101271000D02*
X130640000Y-101271000D01*
X128960000Y-101271000D02*
X127846000Y-101271000D01*
X131740000Y-101311000D02*
X130640000Y-101311000D01*
X128960000Y-101311000D02*
X127860000Y-101311000D01*
X131724000Y-101351000D02*
X130640000Y-101351000D01*
X128960000Y-101351000D02*
X127876000Y-101351000D01*
X131707000Y-101391000D02*
X130640000Y-101391000D01*
X128960000Y-101391000D02*
X127893000Y-101391000D01*
X131689000Y-101431000D02*
X130640000Y-101431000D01*
X128960000Y-101431000D02*
X127911000Y-101431000D01*
X131670000Y-101471000D02*
X130640000Y-101471000D01*
X128960000Y-101471000D02*
X127930000Y-101471000D01*
X131651000Y-101511000D02*
X130640000Y-101511000D01*
X128960000Y-101511000D02*
X127949000Y-101511000D01*
X131630000Y-101551000D02*
X130640000Y-101551000D01*
X128960000Y-101551000D02*
X127970000Y-101551000D01*
X131608000Y-101591000D02*
X130640000Y-101591000D01*
X128960000Y-101591000D02*
X127992000Y-101591000D01*
X131585000Y-101631000D02*
X130640000Y-101631000D01*
X128960000Y-101631000D02*
X128015000Y-101631000D01*
X131560000Y-101671000D02*
X130640000Y-101671000D01*
X128960000Y-101671000D02*
X128040000Y-101671000D01*
X131535000Y-101711000D02*
X130640000Y-101711000D01*
X128960000Y-101711000D02*
X128065000Y-101711000D01*
X131508000Y-101751000D02*
X130640000Y-101751000D01*
X128960000Y-101751000D02*
X128092000Y-101751000D01*
X131480000Y-101791000D02*
X130640000Y-101791000D01*
X128960000Y-101791000D02*
X128120000Y-101791000D01*
X131450000Y-101831000D02*
X130640000Y-101831000D01*
X128960000Y-101831000D02*
X128150000Y-101831000D01*
X131419000Y-101871000D02*
X130640000Y-101871000D01*
X128960000Y-101871000D02*
X128181000Y-101871000D01*
X131387000Y-101911000D02*
X130640000Y-101911000D01*
X128960000Y-101911000D02*
X128213000Y-101911000D01*
X131352000Y-101951000D02*
X130640000Y-101951000D01*
X128960000Y-101951000D02*
X128248000Y-101951000D01*
X131316000Y-101991000D02*
X130640000Y-101991000D01*
X128960000Y-101991000D02*
X128284000Y-101991000D01*
X131278000Y-102031000D02*
X130640000Y-102031000D01*
X128960000Y-102031000D02*
X128322000Y-102031000D01*
X131238000Y-102071000D02*
X130640000Y-102071000D01*
X128960000Y-102071000D02*
X128362000Y-102071000D01*
X131196000Y-102111000D02*
X130640000Y-102111000D01*
X128960000Y-102111000D02*
X128404000Y-102111000D01*
X131151000Y-102151000D02*
X128449000Y-102151000D01*
X131104000Y-102191000D02*
X128496000Y-102191000D01*
X131054000Y-102231000D02*
X128546000Y-102231000D01*
X131000000Y-102271000D02*
X128600000Y-102271000D01*
X130942000Y-102311000D02*
X128658000Y-102311000D01*
X130880000Y-102351000D02*
X128720000Y-102351000D01*
X130813000Y-102391000D02*
X128787000Y-102391000D01*
X130740000Y-102431000D02*
X128860000Y-102431000D01*
X130659000Y-102471000D02*
X128941000Y-102471000D01*
X130568000Y-102511000D02*
X129032000Y-102511000D01*
X130464000Y-102551000D02*
X129136000Y-102551000D01*
X130337000Y-102591000D02*
X129263000Y-102591000D01*
X130170000Y-102631000D02*
X129430000Y-102631000D01*
X131920000Y-100550000D02*
G75*
G03*
X131920000Y-100550000I-2120000J0D01*
G01*
%TO.C,C5*%
X153251248Y-86265000D02*
X153773752Y-86265000D01*
X153251248Y-87735000D02*
X153773752Y-87735000D01*
%TO.C,U5*%
X128600000Y-97660000D02*
X130275000Y-97660000D01*
X128600000Y-97660000D02*
X127950000Y-97660000D01*
X128600000Y-94540000D02*
X129250000Y-94540000D01*
X128600000Y-94540000D02*
X127950000Y-94540000D01*
%TO.C,C2*%
X143335000Y-98401248D02*
X143335000Y-98923752D01*
X141865000Y-98401248D02*
X141865000Y-98923752D01*
%TO.C,C6*%
X129456252Y-90368000D02*
X128933748Y-90368000D01*
X129456252Y-88898000D02*
X128933748Y-88898000D01*
%TO.C,C22*%
X129599759Y-103981000D02*
X130229759Y-103981000D01*
X129914759Y-103666000D02*
X129914759Y-104296000D01*
X133100000Y-102590000D02*
X133100000Y-109050000D01*
X133140000Y-102590000D02*
X133140000Y-109050000D01*
X133180000Y-102590000D02*
X133180000Y-109050000D01*
X133220000Y-102592000D02*
X133220000Y-109048000D01*
X133260000Y-102593000D02*
X133260000Y-109047000D01*
X133300000Y-102596000D02*
X133300000Y-109044000D01*
X133340000Y-102598000D02*
X133340000Y-104780000D01*
X133340000Y-106860000D02*
X133340000Y-109042000D01*
X133380000Y-102602000D02*
X133380000Y-104780000D01*
X133380000Y-106860000D02*
X133380000Y-109038000D01*
X133420000Y-102605000D02*
X133420000Y-104780000D01*
X133420000Y-106860000D02*
X133420000Y-109035000D01*
X133460000Y-102609000D02*
X133460000Y-104780000D01*
X133460000Y-106860000D02*
X133460000Y-109031000D01*
X133500000Y-102614000D02*
X133500000Y-104780000D01*
X133500000Y-106860000D02*
X133500000Y-109026000D01*
X133540000Y-102619000D02*
X133540000Y-104780000D01*
X133540000Y-106860000D02*
X133540000Y-109021000D01*
X133580000Y-102625000D02*
X133580000Y-104780000D01*
X133580000Y-106860000D02*
X133580000Y-109015000D01*
X133620000Y-102631000D02*
X133620000Y-104780000D01*
X133620000Y-106860000D02*
X133620000Y-109009000D01*
X133660000Y-102638000D02*
X133660000Y-104780000D01*
X133660000Y-106860000D02*
X133660000Y-109002000D01*
X133700000Y-102645000D02*
X133700000Y-104780000D01*
X133700000Y-106860000D02*
X133700000Y-108995000D01*
X133740000Y-102653000D02*
X133740000Y-104780000D01*
X133740000Y-106860000D02*
X133740000Y-108987000D01*
X133780000Y-102661000D02*
X133780000Y-104780000D01*
X133780000Y-106860000D02*
X133780000Y-108979000D01*
X133821000Y-102670000D02*
X133821000Y-104780000D01*
X133821000Y-106860000D02*
X133821000Y-108970000D01*
X133861000Y-102679000D02*
X133861000Y-104780000D01*
X133861000Y-106860000D02*
X133861000Y-108961000D01*
X133901000Y-102689000D02*
X133901000Y-104780000D01*
X133901000Y-106860000D02*
X133901000Y-108951000D01*
X133941000Y-102699000D02*
X133941000Y-104780000D01*
X133941000Y-106860000D02*
X133941000Y-108941000D01*
X133981000Y-102710000D02*
X133981000Y-104780000D01*
X133981000Y-106860000D02*
X133981000Y-108930000D01*
X134021000Y-102722000D02*
X134021000Y-104780000D01*
X134021000Y-106860000D02*
X134021000Y-108918000D01*
X134061000Y-102734000D02*
X134061000Y-104780000D01*
X134061000Y-106860000D02*
X134061000Y-108906000D01*
X134101000Y-102746000D02*
X134101000Y-104780000D01*
X134101000Y-106860000D02*
X134101000Y-108894000D01*
X134141000Y-102759000D02*
X134141000Y-104780000D01*
X134141000Y-106860000D02*
X134141000Y-108881000D01*
X134181000Y-102773000D02*
X134181000Y-104780000D01*
X134181000Y-106860000D02*
X134181000Y-108867000D01*
X134221000Y-102787000D02*
X134221000Y-104780000D01*
X134221000Y-106860000D02*
X134221000Y-108853000D01*
X134261000Y-102802000D02*
X134261000Y-104780000D01*
X134261000Y-106860000D02*
X134261000Y-108838000D01*
X134301000Y-102818000D02*
X134301000Y-104780000D01*
X134301000Y-106860000D02*
X134301000Y-108822000D01*
X134341000Y-102834000D02*
X134341000Y-104780000D01*
X134341000Y-106860000D02*
X134341000Y-108806000D01*
X134381000Y-102850000D02*
X134381000Y-104780000D01*
X134381000Y-106860000D02*
X134381000Y-108790000D01*
X134421000Y-102868000D02*
X134421000Y-104780000D01*
X134421000Y-106860000D02*
X134421000Y-108772000D01*
X134461000Y-102886000D02*
X134461000Y-104780000D01*
X134461000Y-106860000D02*
X134461000Y-108754000D01*
X134501000Y-102904000D02*
X134501000Y-104780000D01*
X134501000Y-106860000D02*
X134501000Y-108736000D01*
X134541000Y-102924000D02*
X134541000Y-104780000D01*
X134541000Y-106860000D02*
X134541000Y-108716000D01*
X134581000Y-102944000D02*
X134581000Y-104780000D01*
X134581000Y-106860000D02*
X134581000Y-108696000D01*
X134621000Y-102964000D02*
X134621000Y-104780000D01*
X134621000Y-106860000D02*
X134621000Y-108676000D01*
X134661000Y-102986000D02*
X134661000Y-104780000D01*
X134661000Y-106860000D02*
X134661000Y-108654000D01*
X134701000Y-103008000D02*
X134701000Y-104780000D01*
X134701000Y-106860000D02*
X134701000Y-108632000D01*
X134741000Y-103030000D02*
X134741000Y-104780000D01*
X134741000Y-106860000D02*
X134741000Y-108610000D01*
X134781000Y-103054000D02*
X134781000Y-104780000D01*
X134781000Y-106860000D02*
X134781000Y-108586000D01*
X134821000Y-103078000D02*
X134821000Y-104780000D01*
X134821000Y-106860000D02*
X134821000Y-108562000D01*
X134861000Y-103104000D02*
X134861000Y-104780000D01*
X134861000Y-106860000D02*
X134861000Y-108536000D01*
X134901000Y-103130000D02*
X134901000Y-104780000D01*
X134901000Y-106860000D02*
X134901000Y-108510000D01*
X134941000Y-103156000D02*
X134941000Y-104780000D01*
X134941000Y-106860000D02*
X134941000Y-108484000D01*
X134981000Y-103184000D02*
X134981000Y-104780000D01*
X134981000Y-106860000D02*
X134981000Y-108456000D01*
X135021000Y-103213000D02*
X135021000Y-104780000D01*
X135021000Y-106860000D02*
X135021000Y-108427000D01*
X135061000Y-103242000D02*
X135061000Y-104780000D01*
X135061000Y-106860000D02*
X135061000Y-108398000D01*
X135101000Y-103272000D02*
X135101000Y-104780000D01*
X135101000Y-106860000D02*
X135101000Y-108368000D01*
X135141000Y-103304000D02*
X135141000Y-104780000D01*
X135141000Y-106860000D02*
X135141000Y-108336000D01*
X135181000Y-103336000D02*
X135181000Y-104780000D01*
X135181000Y-106860000D02*
X135181000Y-108304000D01*
X135221000Y-103370000D02*
X135221000Y-104780000D01*
X135221000Y-106860000D02*
X135221000Y-108270000D01*
X135261000Y-103404000D02*
X135261000Y-104780000D01*
X135261000Y-106860000D02*
X135261000Y-108236000D01*
X135301000Y-103440000D02*
X135301000Y-104780000D01*
X135301000Y-106860000D02*
X135301000Y-108200000D01*
X135341000Y-103477000D02*
X135341000Y-104780000D01*
X135341000Y-106860000D02*
X135341000Y-108163000D01*
X135381000Y-103515000D02*
X135381000Y-104780000D01*
X135381000Y-106860000D02*
X135381000Y-108125000D01*
X135421000Y-103555000D02*
X135421000Y-108085000D01*
X135461000Y-103596000D02*
X135461000Y-108044000D01*
X135501000Y-103638000D02*
X135501000Y-108002000D01*
X135541000Y-103683000D02*
X135541000Y-107957000D01*
X135581000Y-103728000D02*
X135581000Y-107912000D01*
X135621000Y-103776000D02*
X135621000Y-107864000D01*
X135661000Y-103825000D02*
X135661000Y-107815000D01*
X135701000Y-103876000D02*
X135701000Y-107764000D01*
X135741000Y-103930000D02*
X135741000Y-107710000D01*
X135781000Y-103986000D02*
X135781000Y-107654000D01*
X135821000Y-104044000D02*
X135821000Y-107596000D01*
X135861000Y-104106000D02*
X135861000Y-107534000D01*
X135901000Y-104170000D02*
X135901000Y-107470000D01*
X135941000Y-104239000D02*
X135941000Y-107401000D01*
X135981000Y-104311000D02*
X135981000Y-107329000D01*
X136021000Y-104388000D02*
X136021000Y-107252000D01*
X136061000Y-104470000D02*
X136061000Y-107170000D01*
X136101000Y-104558000D02*
X136101000Y-107082000D01*
X136141000Y-104655000D02*
X136141000Y-106985000D01*
X136181000Y-104761000D02*
X136181000Y-106879000D01*
X136221000Y-104880000D02*
X136221000Y-106760000D01*
X136261000Y-105018000D02*
X136261000Y-106622000D01*
X136301000Y-105187000D02*
X136301000Y-106453000D01*
X136341000Y-105418000D02*
X136341000Y-106222000D01*
X136370000Y-105820000D02*
G75*
G03*
X136370000Y-105820000I-3270000J0D01*
G01*
%TO.C,C18*%
X159465000Y-96661252D02*
X159465000Y-96138748D01*
X160935000Y-96661252D02*
X160935000Y-96138748D01*
%TO.C,J6*%
X179600000Y-100940000D02*
X179600000Y-100300000D01*
X179600000Y-100300000D02*
X179200000Y-100300000D01*
X179360000Y-109660000D02*
X179360000Y-100540000D01*
X179360000Y-109660000D02*
X169240000Y-109660000D01*
X179360000Y-102100000D02*
X169240000Y-102100000D01*
X179360000Y-101000000D02*
X169240000Y-101000000D01*
X179360000Y-100540000D02*
X169240000Y-100540000D01*
X178348000Y-104319000D02*
X178454000Y-104212000D01*
X178082000Y-104053000D02*
X178188000Y-103946000D01*
X175412000Y-107254000D02*
X175519000Y-107147000D01*
X175146000Y-106988000D02*
X175253000Y-106881000D01*
X173058000Y-104608000D02*
X173453000Y-104212000D01*
X172807000Y-104326000D02*
X173187000Y-103946000D01*
X170412000Y-107254000D02*
X170792000Y-106874000D01*
X170146000Y-106988000D02*
X170541000Y-106592000D01*
X169240000Y-109660000D02*
X169240000Y-100540000D01*
X178980000Y-105600000D02*
G75*
G03*
X178980000Y-105600000I-2180000J0D01*
G01*
X173980000Y-105600000D02*
G75*
G03*
X173980000Y-105600000I-2180000J0D01*
G01*
%TO.C,C15*%
X149388748Y-105765000D02*
X149911252Y-105765000D01*
X149388748Y-107235000D02*
X149911252Y-107235000D01*
%TO.C,C10*%
X166163748Y-89865000D02*
X166686252Y-89865000D01*
X166163748Y-91335000D02*
X166686252Y-91335000D01*
%TO.C,C14*%
X164540000Y-91915000D02*
X164540000Y-93485000D01*
X164540000Y-93485000D02*
X167425000Y-93485000D01*
X167425000Y-91915000D02*
X164540000Y-91915000D01*
%TO.C,C7*%
X136301248Y-100965000D02*
X136823752Y-100965000D01*
X136301248Y-102435000D02*
X136823752Y-102435000D01*
%TO.C,J7*%
X168430000Y-100940000D02*
X168430000Y-100300000D01*
X168430000Y-100300000D02*
X168030000Y-100300000D01*
X168190000Y-109660000D02*
X168190000Y-100540000D01*
X168190000Y-109660000D02*
X158070000Y-109660000D01*
X168190000Y-102100000D02*
X158070000Y-102100000D01*
X168190000Y-101000000D02*
X158070000Y-101000000D01*
X168190000Y-100540000D02*
X158070000Y-100540000D01*
X167178000Y-104319000D02*
X167284000Y-104212000D01*
X166912000Y-104053000D02*
X167018000Y-103946000D01*
X164242000Y-107254000D02*
X164349000Y-107147000D01*
X163976000Y-106988000D02*
X164083000Y-106881000D01*
X161888000Y-104608000D02*
X162283000Y-104212000D01*
X161637000Y-104326000D02*
X162017000Y-103946000D01*
X159242000Y-107254000D02*
X159622000Y-106874000D01*
X158976000Y-106988000D02*
X159371000Y-106592000D01*
X158070000Y-109660000D02*
X158070000Y-100540000D01*
X167810000Y-105600000D02*
G75*
G03*
X167810000Y-105600000I-2180000J0D01*
G01*
X162810000Y-105600000D02*
G75*
G03*
X162810000Y-105600000I-2180000J0D01*
G01*
%TO.C,C3*%
X144565000Y-76123752D02*
X144565000Y-75601248D01*
X146035000Y-76123752D02*
X146035000Y-75601248D01*
%TO.C,J4*%
X169450000Y-80060000D02*
X169450000Y-80700000D01*
X169450000Y-80700000D02*
X169850000Y-80700000D01*
X169690000Y-71340000D02*
X169690000Y-80460000D01*
X169690000Y-71340000D02*
X179810000Y-71340000D01*
X169690000Y-78900000D02*
X179810000Y-78900000D01*
X169690000Y-80000000D02*
X179810000Y-80000000D01*
X169690000Y-80460000D02*
X179810000Y-80460000D01*
X170702000Y-76681000D02*
X170596000Y-76788000D01*
X170968000Y-76947000D02*
X170862000Y-77054000D01*
X173638000Y-73746000D02*
X173531000Y-73853000D01*
X173904000Y-74012000D02*
X173797000Y-74119000D01*
X175992000Y-76392000D02*
X175597000Y-76788000D01*
X176243000Y-76674000D02*
X175863000Y-77054000D01*
X178638000Y-73746000D02*
X178258000Y-74126000D01*
X178904000Y-74012000D02*
X178509000Y-74408000D01*
X179810000Y-71340000D02*
X179810000Y-80460000D01*
X174430000Y-75400000D02*
G75*
G03*
X174430000Y-75400000I-2180000J0D01*
G01*
X179430000Y-75400000D02*
G75*
G03*
X179430000Y-75400000I-2180000J0D01*
G01*
%TO.C,C11*%
X166163748Y-87665000D02*
X166686252Y-87665000D01*
X166163748Y-89135000D02*
X166686252Y-89135000D01*
%TO.C,U2*%
X177070000Y-96530000D02*
X177070000Y-96260000D01*
X177070000Y-96260000D02*
X179900000Y-96260000D01*
X177070000Y-89900000D02*
X178170000Y-89900000D01*
X177070000Y-89630000D02*
X177070000Y-89900000D01*
X170650000Y-96530000D02*
X177070000Y-96530000D01*
X170650000Y-89630000D02*
X177070000Y-89630000D01*
%TD*%
M02*
