%TF.GenerationSoftware,KiCad,Pcbnew,7.0.8-7.0.8~ubuntu22.04.1*%
%TF.CreationDate,2023-10-05T10:52:52-04:00*%
%TF.ProjectId,ladcp_interface_box,6c616463-705f-4696-9e74-657266616365,rev?*%
%TF.SameCoordinates,Original*%
%TF.FileFunction,Copper,L2,Bot*%
%TF.FilePolarity,Positive*%
%FSLAX46Y46*%
G04 Gerber Fmt 4.6, Leading zero omitted, Abs format (unit mm)*
G04 Created by KiCad (PCBNEW 7.0.8-7.0.8~ubuntu22.04.1) date 2023-10-05 10:52:52*
%MOMM*%
%LPD*%
G01*
G04 APERTURE LIST*
%TA.AperFunction,ComponentPad*%
%ADD10R,2.600000X2.600000*%
%TD*%
%TA.AperFunction,ComponentPad*%
%ADD11C,2.600000*%
%TD*%
%TA.AperFunction,ComponentPad*%
%ADD12R,1.200000X1.200000*%
%TD*%
%TA.AperFunction,ComponentPad*%
%ADD13C,1.200000*%
%TD*%
%TA.AperFunction,ComponentPad*%
%ADD14R,1.600000X1.600000*%
%TD*%
%TA.AperFunction,ComponentPad*%
%ADD15C,1.600000*%
%TD*%
%TA.AperFunction,ViaPad*%
%ADD16C,0.800000*%
%TD*%
%TA.AperFunction,Conductor*%
%ADD17C,0.250000*%
%TD*%
%TA.AperFunction,Conductor*%
%ADD18C,3.500000*%
%TD*%
G04 APERTURE END LIST*
D10*
%TO.P,J1,1,Pin_1*%
%TO.N,/RS232_ADCP_IN_MASTER*%
X114600000Y-108000000D03*
D11*
%TO.P,J1,2,Pin_2*%
%TO.N,/RS232_ADCP_OUT_MASTER*%
X114600000Y-103000000D03*
%TO.P,J1,3,Pin_3*%
%TO.N,/+48V*%
X114600000Y-98000000D03*
%TO.P,J1,4,Pin_4*%
%TO.N,GNDD*%
X114600000Y-93000000D03*
%TO.P,J1,5,Pin_5*%
%TO.N,/RS232_ADCP_IN_SLAVE*%
X114600000Y-88000000D03*
%TO.P,J1,6,Pin_6*%
%TO.N,/RS232_ADCP_OUT_SLAVE*%
X114600000Y-83000000D03*
%TO.P,J1,7,Pin_7*%
%TO.N,GNDD*%
X114600000Y-78000000D03*
%TO.P,J1,8,Pin_8*%
%TO.N,unconnected-(J1-Pin_8-Pad8)*%
X114600000Y-73000000D03*
%TD*%
D10*
%TO.P,J5,1,Pin_1*%
%TO.N,/+48V*%
X160700000Y-75400000D03*
D11*
%TO.P,J5,2,Pin_2*%
%TO.N,Net-(J4-Pin_1)*%
X165700000Y-75400000D03*
%TD*%
D10*
%TO.P,J3,1,Pin_1*%
%TO.N,Net-(J3-Pin_1)*%
X183800000Y-75400000D03*
D11*
%TO.P,J3,2,Pin_2*%
%TO.N,GNDD*%
X188800000Y-75400000D03*
%TD*%
D12*
%TO.P,C21,1*%
%TO.N,/+48V*%
X129800000Y-99800000D03*
D13*
%TO.P,C21,2*%
%TO.N,GNDD*%
X129800000Y-101300000D03*
%TD*%
D14*
%TO.P,C22,1*%
%TO.N,/+12V*%
X131850000Y-105820000D03*
D15*
%TO.P,C22,2*%
%TO.N,GNDD*%
X134350000Y-105820000D03*
%TD*%
D10*
%TO.P,J6,1,Pin_1*%
%TO.N,Net-(J3-Pin_1)*%
X176800000Y-105600000D03*
D11*
%TO.P,J6,2,Pin_2*%
%TO.N,GNDD*%
X171800000Y-105600000D03*
%TD*%
D10*
%TO.P,J7,1,Pin_1*%
%TO.N,/+12V*%
X165630000Y-105600000D03*
D11*
%TO.P,J7,2,Pin_2*%
%TO.N,GNDD*%
X160630000Y-105600000D03*
%TD*%
D10*
%TO.P,J4,1,Pin_1*%
%TO.N,Net-(J4-Pin_1)*%
X172250000Y-75400000D03*
D11*
%TO.P,J4,2,Pin_2*%
%TO.N,Net-(J3-Pin_1)*%
X177250000Y-75400000D03*
%TD*%
D16*
%TO.N,GNDD*%
X129400000Y-77400000D03*
X138100000Y-83200000D03*
X150500000Y-83500000D03*
X126000000Y-97500000D03*
X124200000Y-84400000D03*
X123400000Y-96000000D03*
X145200000Y-82200000D03*
X123700000Y-93500000D03*
X143100000Y-81100000D03*
X167600000Y-83000000D03*
X124460000Y-81280000D03*
X137800000Y-85600000D03*
X137700000Y-87600000D03*
X133800000Y-91100000D03*
X126300000Y-75900000D03*
X142800000Y-106300000D03*
X126000000Y-91600000D03*
X152300000Y-78900000D03*
%TO.N,/+3.3V*%
X145989600Y-83615700D03*
X140674200Y-93247200D03*
X143989600Y-91958800D03*
X149400000Y-80000000D03*
%TO.N,/+1.8V*%
X139000000Y-86650000D03*
X147000000Y-78000000D03*
%TO.N,/RS232_ADCP_IN_MASTER*%
X152953000Y-98420300D03*
%TO.N,/RS232_ADCP_OUT_MASTER*%
X152203000Y-95694100D03*
%TO.N,/RS232_ADCP_IN_SLAVE*%
X133454000Y-95593400D03*
X155225000Y-100750000D03*
%TO.N,/RS232_ADCP_OUT_SLAVE*%
X156014000Y-101421000D03*
%TO.N,Net-(J2-D-)*%
X179568000Y-102900000D03*
X144122000Y-84150000D03*
%TO.N,Net-(J2-D+)*%
X180902000Y-102070000D03*
X145984000Y-84876900D03*
%TO.N,/TTL_TX_A*%
X154575000Y-95630500D03*
X141196000Y-88650000D03*
%TO.N,/TTL_RX_A*%
X157162000Y-99043900D03*
X140021000Y-88947500D03*
%TO.N,/TTL_TX_B*%
X154498000Y-98584100D03*
X149682000Y-98703700D03*
%TO.N,/+12V*%
X137710000Y-108290000D03*
X165630000Y-110270000D03*
%TD*%
D17*
%TO.N,/+3.3V*%
X149400000Y-80000000D02*
X149112500Y-80000000D01*
X139294100Y-89290300D02*
X139294100Y-87990000D01*
X141962600Y-91958800D02*
X140674200Y-93247200D01*
X141962600Y-91958800D02*
X143989600Y-91958800D01*
X143397000Y-83849695D02*
X143877395Y-83369300D01*
X143397000Y-83887100D02*
X143397000Y-83849695D01*
X139294100Y-87990000D02*
X143397000Y-83887100D01*
X141962600Y-91958800D02*
X139294100Y-89290300D01*
X149112500Y-80000000D02*
X145743200Y-83369300D01*
X145743200Y-83369300D02*
X145989600Y-83615700D01*
X143877395Y-83369300D02*
X145743200Y-83369300D01*
%TO.N,/+1.8V*%
X147000000Y-78000000D02*
X147000000Y-78650000D01*
X147000000Y-78650000D02*
X139000000Y-86650000D01*
%TO.N,/RS232_ADCP_IN_MASTER*%
X142073300Y-109300000D02*
X152953000Y-98420300D01*
X115900000Y-109300000D02*
X142073300Y-109300000D01*
X114600000Y-108000000D02*
X115900000Y-109300000D01*
%TO.N,/RS232_ADCP_OUT_MASTER*%
X120600000Y-97000000D02*
X114600000Y-103000000D01*
X125100000Y-96600000D02*
X124700000Y-97000000D01*
X151664000Y-95694100D02*
X150758100Y-96600000D01*
X124700000Y-97000000D02*
X120600000Y-97000000D01*
X152203000Y-95694100D02*
X151664000Y-95694100D01*
X150758100Y-96600000D02*
X125100000Y-96600000D01*
D18*
%TO.N,/+48V*%
X114900000Y-98000000D02*
X114600000Y-98000000D01*
X160626000Y-75474500D02*
X137425500Y-75474500D01*
X160700000Y-75400000D02*
X160626000Y-75474500D01*
X137425500Y-75474500D02*
X114900000Y-98000000D01*
D17*
%TO.N,/RS232_ADCP_IN_SLAVE*%
X155225000Y-98283100D02*
X153245000Y-96302800D01*
X134102000Y-94945300D02*
X133454000Y-95593400D01*
X152514000Y-94945300D02*
X134102000Y-94945300D01*
X155225000Y-100750000D02*
X155225000Y-98283100D01*
X153245000Y-96302800D02*
X153245000Y-95676000D01*
X153245000Y-95676000D02*
X152514000Y-94945300D01*
%TO.N,/RS232_ADCP_OUT_SLAVE*%
X104400000Y-84900000D02*
X104400000Y-108800000D01*
X106300000Y-83000000D02*
X104400000Y-84900000D01*
X104400000Y-108800000D02*
X106000000Y-110400000D01*
X114600000Y-83000000D02*
X106300000Y-83000000D01*
X156300000Y-101707000D02*
X156014000Y-101421000D01*
X106000000Y-110400000D02*
X151400000Y-110400000D01*
X156300000Y-105500000D02*
X156300000Y-101707000D01*
X151400000Y-110400000D02*
X156300000Y-105500000D01*
%TO.N,Net-(J2-D-)*%
X163726000Y-87058400D02*
X147031000Y-87058400D01*
X147031000Y-87058400D02*
X144122000Y-84150000D01*
X179568000Y-102900000D02*
X163726000Y-87058400D01*
%TO.N,Net-(J2-D+)*%
X163708000Y-84876900D02*
X145984000Y-84876900D01*
X180902000Y-102070000D02*
X163708000Y-84876900D01*
D18*
%TO.N,Net-(J3-Pin_1)*%
X187500000Y-106750000D02*
X191250000Y-103000000D01*
X191250000Y-82850000D02*
X183800000Y-75400000D01*
X177950000Y-106750000D02*
X187500000Y-106750000D01*
X177250000Y-75400000D02*
X183800000Y-75400000D01*
X191250000Y-103000000D02*
X191250000Y-82850000D01*
X176800000Y-105600000D02*
X177950000Y-106750000D01*
%TO.N,Net-(J4-Pin_1)*%
X172250000Y-75400000D02*
X165700000Y-75400000D01*
D17*
%TO.N,/TTL_TX_A*%
X141196000Y-88650000D02*
X147594000Y-88650000D01*
X147594000Y-88650000D02*
X154575000Y-95630500D01*
%TO.N,/TTL_RX_A*%
X147886000Y-87913800D02*
X140789000Y-87913800D01*
X140021000Y-88681900D02*
X140021000Y-88947500D01*
X140789000Y-87913800D02*
X140021000Y-88681900D01*
X157162000Y-99043900D02*
X157162000Y-97189000D01*
X157162000Y-97189000D02*
X147886000Y-87913800D01*
%TO.N,/TTL_TX_B*%
X150693000Y-97693300D02*
X153607000Y-97693300D01*
X149682000Y-98703700D02*
X150693000Y-97693300D01*
X153607000Y-97693300D02*
X154498000Y-98584100D01*
%TO.N,/+12V*%
X131850000Y-105820000D02*
X131850000Y-106480000D01*
X165630000Y-110270000D02*
X165630000Y-105600000D01*
X131850000Y-106480000D02*
X133660000Y-108290000D01*
X133660000Y-108290000D02*
X137710000Y-108290000D01*
%TD*%
%TA.AperFunction,Conductor*%
%TO.N,GNDD*%
G36*
X191002019Y-70000633D02*
G01*
X191037198Y-70002938D01*
X191083708Y-70005986D01*
X191265459Y-70018985D01*
X191273100Y-70020015D01*
X191366738Y-70038641D01*
X191389420Y-70043153D01*
X191415023Y-70048722D01*
X191533666Y-70074531D01*
X191540383Y-70076395D01*
X191659437Y-70116809D01*
X191756671Y-70153076D01*
X191791741Y-70166157D01*
X191797499Y-70168643D01*
X191912952Y-70225578D01*
X192034906Y-70292170D01*
X192039634Y-70295032D01*
X192096571Y-70333076D01*
X192146649Y-70366537D01*
X192149358Y-70368454D01*
X192258652Y-70450271D01*
X192262345Y-70453265D01*
X192359502Y-70538469D01*
X192362448Y-70541228D01*
X192458769Y-70637549D01*
X192461526Y-70640492D01*
X192546729Y-70737648D01*
X192549732Y-70741353D01*
X192601564Y-70810592D01*
X192631543Y-70850639D01*
X192633461Y-70853349D01*
X192704962Y-70960357D01*
X192707828Y-70965091D01*
X192774421Y-71087047D01*
X192831355Y-71202499D01*
X192833841Y-71208257D01*
X192870212Y-71305768D01*
X192883196Y-71340578D01*
X192888289Y-71355581D01*
X192923597Y-71459596D01*
X192925472Y-71466352D01*
X192956846Y-71610579D01*
X192979980Y-71726880D01*
X192981015Y-71734560D01*
X192994017Y-71916350D01*
X192999367Y-71997966D01*
X192999500Y-72002023D01*
X192999500Y-81114875D01*
X192979815Y-81181914D01*
X192927011Y-81227669D01*
X192857853Y-81237613D01*
X192795443Y-81209568D01*
X192776804Y-81193811D01*
X192772991Y-81190303D01*
X190909799Y-79327111D01*
X188976309Y-77393621D01*
X188942825Y-77332300D01*
X188947809Y-77262608D01*
X188989681Y-77206675D01*
X189045510Y-77183327D01*
X189201656Y-77159792D01*
X189201662Y-77159790D01*
X189459461Y-77080269D01*
X189702521Y-76963218D01*
X189885150Y-76838702D01*
X189047534Y-76001086D01*
X189115629Y-75974126D01*
X189248492Y-75877595D01*
X189353175Y-75751055D01*
X189401631Y-75648079D01*
X190237703Y-76484151D01*
X190237704Y-76484150D01*
X190291393Y-76416828D01*
X190291400Y-76416817D01*
X190426290Y-76183181D01*
X190524851Y-75932052D01*
X190524857Y-75932033D01*
X190584886Y-75669028D01*
X190584886Y-75669026D01*
X190605047Y-75400004D01*
X190605047Y-75399995D01*
X190584886Y-75130973D01*
X190584886Y-75130971D01*
X190524857Y-74867966D01*
X190524851Y-74867947D01*
X190426290Y-74616818D01*
X190426291Y-74616818D01*
X190291397Y-74383177D01*
X190237704Y-74315847D01*
X189402546Y-75151004D01*
X189392812Y-75121044D01*
X189304814Y-74982381D01*
X189185097Y-74869960D01*
X189050489Y-74795958D01*
X189885150Y-73961296D01*
X189702517Y-73836779D01*
X189702516Y-73836778D01*
X189459460Y-73719730D01*
X189459462Y-73719730D01*
X189201662Y-73640209D01*
X189201656Y-73640207D01*
X188934898Y-73600000D01*
X188665101Y-73600000D01*
X188398343Y-73640207D01*
X188398337Y-73640209D01*
X188140538Y-73719730D01*
X187897485Y-73836778D01*
X187897476Y-73836783D01*
X187714848Y-73961296D01*
X188552465Y-74798913D01*
X188484371Y-74825874D01*
X188351508Y-74922405D01*
X188246825Y-75048945D01*
X188198368Y-75151921D01*
X187362295Y-74315848D01*
X187308600Y-74383180D01*
X187173709Y-74616818D01*
X187075148Y-74867947D01*
X187075142Y-74867966D01*
X187015113Y-75130971D01*
X187015113Y-75130972D01*
X187014297Y-75141863D01*
X186989657Y-75207244D01*
X186933581Y-75248924D01*
X186863872Y-75253670D01*
X186802963Y-75220276D01*
X185624400Y-74041713D01*
X185595899Y-73997365D01*
X185543797Y-73857671D01*
X185543793Y-73857664D01*
X185457547Y-73742455D01*
X185457544Y-73742452D01*
X185342335Y-73656206D01*
X185342328Y-73656202D01*
X185207483Y-73605908D01*
X185188977Y-73603919D01*
X185133778Y-73584022D01*
X185123076Y-73576936D01*
X185118888Y-73573904D01*
X185076515Y-73540442D01*
X184996776Y-73493213D01*
X184994147Y-73491565D01*
X184916875Y-73440399D01*
X184916877Y-73440399D01*
X184868281Y-73416852D01*
X184863719Y-73414401D01*
X184817281Y-73386897D01*
X184817273Y-73386892D01*
X184817270Y-73386891D01*
X184817267Y-73386890D01*
X184817262Y-73386887D01*
X184769053Y-73366445D01*
X184731933Y-73350704D01*
X184729121Y-73349427D01*
X184645712Y-73309015D01*
X184645705Y-73309012D01*
X184594419Y-73292158D01*
X184589572Y-73290337D01*
X184553251Y-73274937D01*
X184539872Y-73269264D01*
X184539868Y-73269263D01*
X184539866Y-73269262D01*
X184450498Y-73244782D01*
X184447522Y-73243886D01*
X184421721Y-73235407D01*
X184359469Y-73214950D01*
X184359464Y-73214949D01*
X184306379Y-73205079D01*
X184301334Y-73203921D01*
X184282063Y-73198642D01*
X184249269Y-73189659D01*
X184157422Y-73177306D01*
X184154354Y-73176815D01*
X184063240Y-73159877D01*
X184063245Y-73159877D01*
X184009321Y-73157170D01*
X184004166Y-73156695D01*
X183950657Y-73149500D01*
X183950653Y-73149500D01*
X183857973Y-73149500D01*
X183854869Y-73149422D01*
X183839256Y-73148638D01*
X183762323Y-73144778D01*
X183762302Y-73144778D01*
X183735188Y-73147049D01*
X183708498Y-73149284D01*
X183703340Y-73149500D01*
X177174748Y-73149500D01*
X176949368Y-73164587D01*
X176949359Y-73164589D01*
X176654094Y-73224604D01*
X176369464Y-73323439D01*
X176369459Y-73323441D01*
X176100546Y-73459328D01*
X175852125Y-73629860D01*
X175628665Y-73831969D01*
X175434132Y-74062064D01*
X175272006Y-74316030D01*
X175272005Y-74316032D01*
X175196865Y-74477956D01*
X175145177Y-74589342D01*
X175145176Y-74589346D01*
X175055907Y-74877118D01*
X175011251Y-75141863D01*
X175005791Y-75174230D01*
X174996868Y-75441138D01*
X174995723Y-75475373D01*
X175025881Y-75775160D01*
X175025882Y-75775162D01*
X175095728Y-76068252D01*
X175095733Y-76068266D01*
X175204020Y-76349427D01*
X175204024Y-76349436D01*
X175348825Y-76613665D01*
X175348829Y-76613671D01*
X175456648Y-76760004D01*
X175527554Y-76856238D01*
X175610814Y-76942328D01*
X175737019Y-77072823D01*
X175973478Y-77259553D01*
X175973480Y-77259554D01*
X175973485Y-77259558D01*
X176232730Y-77413109D01*
X176510128Y-77530736D01*
X176800729Y-77610340D01*
X177099347Y-77650500D01*
X182816450Y-77650500D01*
X182883489Y-77670185D01*
X182904131Y-77686819D01*
X188963181Y-83745868D01*
X188996666Y-83807191D01*
X188999500Y-83833549D01*
X188999500Y-102016450D01*
X188979815Y-102083489D01*
X188963181Y-102104131D01*
X187201693Y-103865618D01*
X187140370Y-103899103D01*
X187070678Y-103894119D01*
X187021199Y-103860166D01*
X186942929Y-103771817D01*
X186893177Y-103737475D01*
X186802931Y-103675182D01*
X186643874Y-103614860D01*
X186643868Y-103614859D01*
X186517374Y-103599500D01*
X186517372Y-103599500D01*
X186432628Y-103599500D01*
X186432626Y-103599500D01*
X186306131Y-103614859D01*
X186306125Y-103614860D01*
X186147068Y-103675182D01*
X186007072Y-103771816D01*
X185894263Y-103899150D01*
X185815210Y-104049773D01*
X185774500Y-104214944D01*
X185774500Y-104375500D01*
X185754815Y-104442539D01*
X185702011Y-104488294D01*
X185650500Y-104499500D01*
X178933549Y-104499500D01*
X178866510Y-104479815D01*
X178845868Y-104463181D01*
X178624400Y-104241713D01*
X178595899Y-104197365D01*
X178594090Y-104192516D01*
X178546885Y-104065951D01*
X178543797Y-104057671D01*
X178543793Y-104057664D01*
X178457547Y-103942455D01*
X178457544Y-103942452D01*
X178342335Y-103856206D01*
X178342328Y-103856202D01*
X178207482Y-103805908D01*
X178207484Y-103805908D01*
X178188976Y-103803919D01*
X178133775Y-103784020D01*
X177916870Y-103640396D01*
X177916868Y-103640395D01*
X177916865Y-103640393D01*
X177645720Y-103509019D01*
X177645712Y-103509015D01*
X177359477Y-103414952D01*
X177359471Y-103414950D01*
X177063245Y-103359878D01*
X177063238Y-103359877D01*
X176762323Y-103344778D01*
X176762302Y-103344778D01*
X176462058Y-103369923D01*
X176167828Y-103434865D01*
X176167826Y-103434866D01*
X175884887Y-103538443D01*
X175884884Y-103538445D01*
X175618277Y-103678808D01*
X175618269Y-103678813D01*
X175474382Y-103781164D01*
X175415762Y-103803410D01*
X175392516Y-103805909D01*
X175257671Y-103856202D01*
X175257664Y-103856206D01*
X175142455Y-103942452D01*
X175142452Y-103942455D01*
X175056206Y-104057664D01*
X175056201Y-104057673D01*
X175005910Y-104192512D01*
X175005908Y-104192522D01*
X175004107Y-104209270D01*
X174977366Y-104273820D01*
X174976839Y-104274468D01*
X174962034Y-104292586D01*
X174962030Y-104292591D01*
X174804170Y-104549233D01*
X174681924Y-104824626D01*
X174597476Y-105113854D01*
X174597475Y-105113858D01*
X174552331Y-105411758D01*
X174547609Y-105694272D01*
X174547296Y-105713027D01*
X174582462Y-106012274D01*
X174594181Y-106058045D01*
X174657196Y-106304159D01*
X174657201Y-106304175D01*
X174770172Y-106583487D01*
X174916663Y-106840513D01*
X174919371Y-106845264D01*
X174978801Y-106923163D01*
X175003505Y-106985121D01*
X175005908Y-107007483D01*
X175056202Y-107142328D01*
X175056206Y-107142335D01*
X175142452Y-107257544D01*
X175142455Y-107257547D01*
X175257664Y-107343793D01*
X175257671Y-107343797D01*
X175397363Y-107395899D01*
X175441711Y-107424400D01*
X176345349Y-108328037D01*
X176437019Y-108422823D01*
X176509748Y-108480256D01*
X176512138Y-108482243D01*
X176581907Y-108543257D01*
X176592846Y-108550500D01*
X176626926Y-108573066D01*
X176631116Y-108576100D01*
X176653573Y-108593834D01*
X176673485Y-108609558D01*
X176753223Y-108656787D01*
X176755835Y-108658424D01*
X176833130Y-108709605D01*
X176880323Y-108732471D01*
X176881719Y-108733147D01*
X176886273Y-108735592D01*
X176908527Y-108748774D01*
X176932717Y-108763102D01*
X176932724Y-108763105D01*
X176932730Y-108763109D01*
X177018030Y-108799279D01*
X177020852Y-108800561D01*
X177100897Y-108839343D01*
X177104284Y-108840984D01*
X177128489Y-108848938D01*
X177155586Y-108857843D01*
X177160438Y-108859665D01*
X177210125Y-108880735D01*
X177210126Y-108880735D01*
X177210128Y-108880736D01*
X177299539Y-108905228D01*
X177302440Y-108906101D01*
X177390531Y-108935050D01*
X177443644Y-108944924D01*
X177448651Y-108946074D01*
X177500729Y-108960340D01*
X177553931Y-108967494D01*
X177592573Y-108972692D01*
X177595628Y-108973180D01*
X177686762Y-108990124D01*
X177740714Y-108992830D01*
X177745825Y-108993301D01*
X177799347Y-109000500D01*
X177892023Y-109000500D01*
X177895124Y-109000577D01*
X177987690Y-109005222D01*
X178041502Y-109000715D01*
X178046661Y-109000500D01*
X187481153Y-109000500D01*
X187613027Y-109002704D01*
X187705125Y-108991880D01*
X187708140Y-108991603D01*
X187800634Y-108985412D01*
X187853567Y-108974651D01*
X187858629Y-108973840D01*
X187912274Y-108967538D01*
X188002070Y-108944545D01*
X188005042Y-108943863D01*
X188095903Y-108925396D01*
X188146929Y-108907677D01*
X188151847Y-108906197D01*
X188204165Y-108892802D01*
X188290129Y-108858031D01*
X188292938Y-108856976D01*
X188380537Y-108826560D01*
X188428738Y-108802202D01*
X188433440Y-108800069D01*
X188443204Y-108796119D01*
X188483489Y-108779826D01*
X188563999Y-108733938D01*
X188566731Y-108732471D01*
X188569751Y-108730945D01*
X188649459Y-108690668D01*
X188694003Y-108660089D01*
X188698330Y-108657377D01*
X188745264Y-108630629D01*
X188818976Y-108574391D01*
X188821444Y-108572605D01*
X188897869Y-108520144D01*
X188937926Y-108483913D01*
X188941871Y-108480634D01*
X188984816Y-108447872D01*
X189050360Y-108382326D01*
X189052594Y-108380201D01*
X189121333Y-108318032D01*
X189156202Y-108276786D01*
X189159684Y-108273002D01*
X192787819Y-104644866D01*
X192849142Y-104611382D01*
X192918834Y-104616366D01*
X192974767Y-104658238D01*
X192999184Y-104723702D01*
X192999500Y-104732548D01*
X192999500Y-108997975D01*
X192999367Y-109002032D01*
X192994017Y-109083648D01*
X192981015Y-109265438D01*
X192979980Y-109273118D01*
X192956846Y-109389420D01*
X192925472Y-109533646D01*
X192923597Y-109540401D01*
X192896947Y-109618912D01*
X192883208Y-109659388D01*
X192883195Y-109659425D01*
X192833841Y-109791741D01*
X192831355Y-109797499D01*
X192774421Y-109912952D01*
X192707828Y-110034907D01*
X192704961Y-110039641D01*
X192633461Y-110146649D01*
X192631543Y-110149359D01*
X192549744Y-110258631D01*
X192546723Y-110262357D01*
X192461529Y-110359502D01*
X192458755Y-110362464D01*
X192362464Y-110458755D01*
X192359502Y-110461529D01*
X192262357Y-110546723D01*
X192258631Y-110549744D01*
X192149359Y-110631543D01*
X192146649Y-110633461D01*
X192039641Y-110704961D01*
X192034907Y-110707828D01*
X191912952Y-110774421D01*
X191797499Y-110831355D01*
X191791741Y-110833841D01*
X191670956Y-110878893D01*
X191659418Y-110883197D01*
X191540401Y-110923597D01*
X191533646Y-110925472D01*
X191389420Y-110956846D01*
X191273118Y-110979980D01*
X191265438Y-110981015D01*
X191083648Y-110994017D01*
X191032582Y-110997364D01*
X191002025Y-110999367D01*
X190997976Y-110999500D01*
X166462561Y-110999500D01*
X166395522Y-110979815D01*
X166349767Y-110927011D01*
X166339823Y-110857853D01*
X166359963Y-110808236D01*
X166359284Y-110807844D01*
X166362110Y-110802948D01*
X166362249Y-110802607D01*
X166362525Y-110802224D01*
X166362533Y-110802216D01*
X166457179Y-110638284D01*
X166515674Y-110458256D01*
X166535460Y-110270000D01*
X166515674Y-110081744D01*
X166457179Y-109901716D01*
X166362533Y-109737784D01*
X166330323Y-109702011D01*
X166287350Y-109654284D01*
X166257120Y-109591292D01*
X166255500Y-109571312D01*
X166255500Y-107524499D01*
X166275185Y-107457460D01*
X166327989Y-107411705D01*
X166379500Y-107400499D01*
X166977871Y-107400499D01*
X166977872Y-107400499D01*
X167037483Y-107394091D01*
X167172331Y-107343796D01*
X167287546Y-107257546D01*
X167373796Y-107142331D01*
X167424091Y-107007483D01*
X167430500Y-106947873D01*
X167430500Y-105600004D01*
X169994953Y-105600004D01*
X170015113Y-105869026D01*
X170015113Y-105869028D01*
X170075142Y-106132033D01*
X170075148Y-106132052D01*
X170173709Y-106383181D01*
X170173708Y-106383181D01*
X170308602Y-106616822D01*
X170362294Y-106684151D01*
X170362295Y-106684151D01*
X171197452Y-105848993D01*
X171207188Y-105878956D01*
X171295186Y-106017619D01*
X171414903Y-106130040D01*
X171549510Y-106204041D01*
X170714848Y-107038702D01*
X170897483Y-107163220D01*
X170897485Y-107163221D01*
X171140539Y-107280269D01*
X171140537Y-107280269D01*
X171398337Y-107359790D01*
X171398343Y-107359792D01*
X171665101Y-107399999D01*
X171665110Y-107400000D01*
X171934890Y-107400000D01*
X171934898Y-107399999D01*
X172201656Y-107359792D01*
X172201662Y-107359790D01*
X172459461Y-107280269D01*
X172702521Y-107163218D01*
X172885150Y-107038702D01*
X172047534Y-106201086D01*
X172115629Y-106174126D01*
X172248492Y-106077595D01*
X172353175Y-105951055D01*
X172401631Y-105848079D01*
X173237703Y-106684151D01*
X173237704Y-106684150D01*
X173291393Y-106616828D01*
X173291400Y-106616817D01*
X173426290Y-106383181D01*
X173524851Y-106132052D01*
X173524857Y-106132033D01*
X173584886Y-105869028D01*
X173584886Y-105869026D01*
X173605047Y-105600004D01*
X173605047Y-105599995D01*
X173584886Y-105330973D01*
X173584886Y-105330971D01*
X173524857Y-105067966D01*
X173524851Y-105067947D01*
X173426290Y-104816818D01*
X173426291Y-104816818D01*
X173291397Y-104583177D01*
X173237704Y-104515847D01*
X172402546Y-105351004D01*
X172392812Y-105321044D01*
X172304814Y-105182381D01*
X172185097Y-105069960D01*
X172050489Y-104995958D01*
X172885150Y-104161296D01*
X172702517Y-104036779D01*
X172702516Y-104036778D01*
X172459460Y-103919730D01*
X172459462Y-103919730D01*
X172201662Y-103840209D01*
X172201656Y-103840207D01*
X171934898Y-103800000D01*
X171665101Y-103800000D01*
X171398343Y-103840207D01*
X171398337Y-103840209D01*
X171140538Y-103919730D01*
X170897485Y-104036778D01*
X170897476Y-104036783D01*
X170714848Y-104161296D01*
X171552465Y-104998913D01*
X171484371Y-105025874D01*
X171351508Y-105122405D01*
X171246825Y-105248945D01*
X171198368Y-105351921D01*
X170362295Y-104515848D01*
X170308600Y-104583180D01*
X170173709Y-104816818D01*
X170075148Y-105067947D01*
X170075142Y-105067966D01*
X170015113Y-105330971D01*
X170015113Y-105330973D01*
X169994953Y-105599995D01*
X169994953Y-105600004D01*
X167430500Y-105600004D01*
X167430499Y-104252128D01*
X167424091Y-104192517D01*
X167424089Y-104192512D01*
X167373797Y-104057671D01*
X167373793Y-104057664D01*
X167287547Y-103942455D01*
X167287544Y-103942452D01*
X167172335Y-103856206D01*
X167172328Y-103856202D01*
X167037482Y-103805908D01*
X167037483Y-103805908D01*
X166977883Y-103799501D01*
X166977881Y-103799500D01*
X166977873Y-103799500D01*
X166977864Y-103799500D01*
X164282129Y-103799500D01*
X164282123Y-103799501D01*
X164222516Y-103805908D01*
X164087671Y-103856202D01*
X164087664Y-103856206D01*
X163972455Y-103942452D01*
X163972452Y-103942455D01*
X163886206Y-104057664D01*
X163886202Y-104057671D01*
X163835908Y-104192517D01*
X163830167Y-104245924D01*
X163829501Y-104252123D01*
X163829500Y-104252135D01*
X163829500Y-106947870D01*
X163829501Y-106947876D01*
X163835908Y-107007483D01*
X163886202Y-107142328D01*
X163886206Y-107142335D01*
X163972452Y-107257544D01*
X163972455Y-107257547D01*
X164087664Y-107343793D01*
X164087671Y-107343797D01*
X164130551Y-107359790D01*
X164222517Y-107394091D01*
X164282127Y-107400500D01*
X164880500Y-107400499D01*
X164947539Y-107420183D01*
X164993294Y-107472987D01*
X165004500Y-107524499D01*
X165004500Y-109571312D01*
X164984815Y-109638351D01*
X164972650Y-109654284D01*
X164897466Y-109737784D01*
X164802821Y-109901715D01*
X164802818Y-109901722D01*
X164759544Y-110034907D01*
X164744326Y-110081744D01*
X164724540Y-110270000D01*
X164744326Y-110458256D01*
X164744327Y-110458259D01*
X164802818Y-110638277D01*
X164802821Y-110638284D01*
X164841317Y-110704962D01*
X164897466Y-110802214D01*
X164897751Y-110802607D01*
X164897845Y-110802872D01*
X164900716Y-110807844D01*
X164899807Y-110808368D01*
X164921236Y-110868411D01*
X164905416Y-110936466D01*
X164855314Y-110985165D01*
X164797439Y-110999500D01*
X151984451Y-110999500D01*
X151917412Y-110979815D01*
X151871657Y-110927011D01*
X151861713Y-110857853D01*
X151890738Y-110794297D01*
X151896770Y-110787819D01*
X154261766Y-108422823D01*
X156683788Y-106000801D01*
X156696042Y-105990986D01*
X156695859Y-105990764D01*
X156701866Y-105985792D01*
X156701877Y-105985786D01*
X156734491Y-105951055D01*
X156749227Y-105935364D01*
X156759671Y-105924918D01*
X156770120Y-105914471D01*
X156774379Y-105908978D01*
X156778152Y-105904561D01*
X156810062Y-105870582D01*
X156819713Y-105853024D01*
X156830396Y-105836761D01*
X156842673Y-105820936D01*
X156861185Y-105778153D01*
X156863738Y-105772941D01*
X156886197Y-105732092D01*
X156891180Y-105712680D01*
X156897481Y-105694280D01*
X156905437Y-105675896D01*
X156912729Y-105629852D01*
X156913906Y-105624171D01*
X156920112Y-105600004D01*
X158824953Y-105600004D01*
X158845113Y-105869026D01*
X158845113Y-105869028D01*
X158905142Y-106132033D01*
X158905148Y-106132052D01*
X159003709Y-106383181D01*
X159003708Y-106383181D01*
X159138602Y-106616822D01*
X159192294Y-106684151D01*
X159192295Y-106684151D01*
X160027452Y-105848993D01*
X160037188Y-105878956D01*
X160125186Y-106017619D01*
X160244903Y-106130040D01*
X160379510Y-106204041D01*
X159544848Y-107038702D01*
X159727483Y-107163220D01*
X159727485Y-107163221D01*
X159970539Y-107280269D01*
X159970537Y-107280269D01*
X160228337Y-107359790D01*
X160228343Y-107359792D01*
X160495101Y-107399999D01*
X160495110Y-107400000D01*
X160764890Y-107400000D01*
X160764898Y-107399999D01*
X161031656Y-107359792D01*
X161031662Y-107359790D01*
X161289461Y-107280269D01*
X161532521Y-107163218D01*
X161715150Y-107038702D01*
X160877534Y-106201086D01*
X160945629Y-106174126D01*
X161078492Y-106077595D01*
X161183175Y-105951055D01*
X161231631Y-105848079D01*
X162067703Y-106684151D01*
X162067704Y-106684150D01*
X162121393Y-106616828D01*
X162121400Y-106616817D01*
X162256290Y-106383181D01*
X162354851Y-106132052D01*
X162354857Y-106132033D01*
X162414886Y-105869028D01*
X162414886Y-105869026D01*
X162435047Y-105600004D01*
X162435047Y-105599995D01*
X162414886Y-105330973D01*
X162414886Y-105330971D01*
X162354857Y-105067966D01*
X162354851Y-105067947D01*
X162256290Y-104816818D01*
X162256291Y-104816818D01*
X162121397Y-104583177D01*
X162067704Y-104515847D01*
X161232546Y-105351004D01*
X161222812Y-105321044D01*
X161134814Y-105182381D01*
X161015097Y-105069960D01*
X160880489Y-104995958D01*
X161715150Y-104161296D01*
X161532517Y-104036779D01*
X161532516Y-104036778D01*
X161289460Y-103919730D01*
X161289462Y-103919730D01*
X161031662Y-103840209D01*
X161031656Y-103840207D01*
X160764898Y-103800000D01*
X160495101Y-103800000D01*
X160228343Y-103840207D01*
X160228337Y-103840209D01*
X159970538Y-103919730D01*
X159727485Y-104036778D01*
X159727476Y-104036783D01*
X159544848Y-104161296D01*
X160382465Y-104998913D01*
X160314371Y-105025874D01*
X160181508Y-105122405D01*
X160076825Y-105248945D01*
X160028368Y-105351920D01*
X159192295Y-104515848D01*
X159138600Y-104583180D01*
X159003709Y-104816818D01*
X158905148Y-105067947D01*
X158905142Y-105067966D01*
X158845113Y-105330971D01*
X158845113Y-105330973D01*
X158824953Y-105599995D01*
X158824953Y-105600004D01*
X156920112Y-105600004D01*
X156925500Y-105579019D01*
X156925500Y-105558983D01*
X156927027Y-105539582D01*
X156930160Y-105519804D01*
X156925775Y-105473415D01*
X156925500Y-105467577D01*
X156925500Y-101789738D01*
X156927224Y-101774124D01*
X156926938Y-101774097D01*
X156927672Y-101766334D01*
X156925500Y-101697203D01*
X156925500Y-101667651D01*
X156925500Y-101667650D01*
X156924629Y-101660759D01*
X156924172Y-101654945D01*
X156924032Y-101650500D01*
X156922709Y-101608373D01*
X156917122Y-101589144D01*
X156913175Y-101570088D01*
X156912320Y-101563326D01*
X156910664Y-101550208D01*
X156910663Y-101550206D01*
X156909850Y-101543769D01*
X156909551Y-101515274D01*
X156919460Y-101421000D01*
X156899674Y-101232744D01*
X156841179Y-101052716D01*
X156746533Y-100888784D01*
X156619871Y-100748112D01*
X156547362Y-100695431D01*
X156466734Y-100636851D01*
X156466729Y-100636848D01*
X156293807Y-100559857D01*
X156293802Y-100559855D01*
X156166456Y-100532787D01*
X156104974Y-100499594D01*
X156074306Y-100449815D01*
X156052181Y-100381721D01*
X156052178Y-100381715D01*
X156005490Y-100300849D01*
X155957533Y-100217784D01*
X155950830Y-100210340D01*
X155882350Y-100134284D01*
X155852120Y-100071292D01*
X155850500Y-100051312D01*
X155850500Y-98365870D01*
X155852222Y-98350272D01*
X155851934Y-98350245D01*
X155852668Y-98342482D01*
X155850500Y-98273310D01*
X155850500Y-98243754D01*
X155850500Y-98243750D01*
X155849631Y-98236881D01*
X155849176Y-98231092D01*
X155847717Y-98184520D01*
X155842122Y-98165256D01*
X155838177Y-98146206D01*
X155835664Y-98126309D01*
X155835664Y-98126308D01*
X155818512Y-98082988D01*
X155816630Y-98077491D01*
X155803637Y-98032754D01*
X155793422Y-98015479D01*
X155784870Y-97998019D01*
X155777486Y-97979368D01*
X155750110Y-97941687D01*
X155746900Y-97936800D01*
X155723199Y-97896717D01*
X155709012Y-97882527D01*
X155696389Y-97867747D01*
X155684594Y-97851513D01*
X155648701Y-97821820D01*
X155644392Y-97817898D01*
X155629696Y-97803200D01*
X154569332Y-96742675D01*
X154535852Y-96681349D01*
X154540842Y-96611658D01*
X154582717Y-96555727D01*
X154648183Y-96531315D01*
X154657020Y-96531000D01*
X154669644Y-96531000D01*
X154669646Y-96531000D01*
X154854803Y-96491644D01*
X155027730Y-96414651D01*
X155180871Y-96303388D01*
X155193315Y-96289567D01*
X155252799Y-96252918D01*
X155322656Y-96254245D01*
X155373144Y-96284852D01*
X156500177Y-97411787D01*
X156533665Y-97473109D01*
X156536500Y-97499472D01*
X156536500Y-98345212D01*
X156516815Y-98412251D01*
X156504650Y-98428184D01*
X156429466Y-98511684D01*
X156334821Y-98675615D01*
X156334818Y-98675622D01*
X156280611Y-98842455D01*
X156276326Y-98855644D01*
X156256540Y-99043900D01*
X156276326Y-99232156D01*
X156276327Y-99232159D01*
X156334818Y-99412177D01*
X156334821Y-99412184D01*
X156429467Y-99576116D01*
X156495790Y-99649775D01*
X156556129Y-99716788D01*
X156709265Y-99828048D01*
X156709270Y-99828051D01*
X156882192Y-99905042D01*
X156882197Y-99905044D01*
X157067354Y-99944400D01*
X157067355Y-99944400D01*
X157256644Y-99944400D01*
X157256646Y-99944400D01*
X157441803Y-99905044D01*
X157614730Y-99828051D01*
X157767871Y-99716788D01*
X157894533Y-99576116D01*
X157989179Y-99412184D01*
X158047674Y-99232156D01*
X158067460Y-99043900D01*
X158047674Y-98855644D01*
X157989179Y-98675616D01*
X157894533Y-98511684D01*
X157829254Y-98439184D01*
X157819350Y-98428184D01*
X157789120Y-98365192D01*
X157787500Y-98345212D01*
X157787500Y-97271724D01*
X157789224Y-97256097D01*
X157788941Y-97256071D01*
X157789673Y-97248312D01*
X157789675Y-97248305D01*
X157787500Y-97179178D01*
X157787500Y-97149650D01*
X157786628Y-97142751D01*
X157786170Y-97136934D01*
X157784705Y-97090346D01*
X157779118Y-97071121D01*
X157775173Y-97052069D01*
X157772664Y-97032208D01*
X157755505Y-96988869D01*
X157753613Y-96983345D01*
X157740607Y-96938585D01*
X157730415Y-96921352D01*
X157721857Y-96903885D01*
X157714486Y-96885268D01*
X157698015Y-96862597D01*
X157687082Y-96847549D01*
X157683883Y-96842681D01*
X157660153Y-96802558D01*
X157645996Y-96788402D01*
X157633359Y-96773606D01*
X157621596Y-96757415D01*
X157621593Y-96757412D01*
X157585678Y-96727701D01*
X157581376Y-96723788D01*
X148752411Y-87895584D01*
X148718924Y-87834263D01*
X148723905Y-87764571D01*
X148765774Y-87708636D01*
X148831238Y-87684216D01*
X148840089Y-87683900D01*
X163415553Y-87683900D01*
X163482592Y-87703585D01*
X163503232Y-87720217D01*
X168580686Y-92797543D01*
X178629039Y-102845643D01*
X178662525Y-102906965D01*
X178664680Y-102920363D01*
X178682326Y-103088256D01*
X178682327Y-103088258D01*
X178682327Y-103088259D01*
X178740818Y-103268277D01*
X178740821Y-103268284D01*
X178835467Y-103432216D01*
X178962129Y-103572888D01*
X179115265Y-103684148D01*
X179115270Y-103684151D01*
X179288192Y-103761142D01*
X179288197Y-103761144D01*
X179473354Y-103800500D01*
X179473355Y-103800500D01*
X179662644Y-103800500D01*
X179662646Y-103800500D01*
X179847803Y-103761144D01*
X180020730Y-103684151D01*
X180173871Y-103572888D01*
X180300533Y-103432216D01*
X180395179Y-103268284D01*
X180453674Y-103088256D01*
X180459200Y-103035669D01*
X180485782Y-102971059D01*
X180543079Y-102931073D01*
X180612898Y-102928412D01*
X180620844Y-102930704D01*
X180622194Y-102931142D01*
X180622197Y-102931144D01*
X180622199Y-102931144D01*
X180622201Y-102931145D01*
X180698739Y-102947413D01*
X180807354Y-102970500D01*
X180807355Y-102970500D01*
X180996644Y-102970500D01*
X180996646Y-102970500D01*
X181181803Y-102931144D01*
X181354730Y-102854151D01*
X181507871Y-102742888D01*
X181634533Y-102602216D01*
X181729179Y-102438284D01*
X181787674Y-102258256D01*
X181807460Y-102070000D01*
X181787674Y-101881744D01*
X181729179Y-101701716D01*
X181634533Y-101537784D01*
X181507871Y-101397112D01*
X181461790Y-101363632D01*
X181354734Y-101285851D01*
X181354729Y-101285848D01*
X181181807Y-101208857D01*
X181181802Y-101208855D01*
X181036001Y-101177865D01*
X180996646Y-101169500D01*
X180996645Y-101169500D01*
X180937427Y-101169500D01*
X180870388Y-101149815D01*
X180849748Y-101133184D01*
X180610642Y-100894091D01*
X179701560Y-99985056D01*
X185774500Y-99985056D01*
X185785534Y-100029824D01*
X185815210Y-100150226D01*
X185894263Y-100300849D01*
X185894266Y-100300852D01*
X186007071Y-100428183D01*
X186097318Y-100490476D01*
X186147068Y-100524817D01*
X186147069Y-100524817D01*
X186147070Y-100524818D01*
X186306128Y-100585140D01*
X186382028Y-100594356D01*
X186432626Y-100600500D01*
X186432628Y-100600500D01*
X186517374Y-100600500D01*
X186559538Y-100595380D01*
X186643872Y-100585140D01*
X186802930Y-100524818D01*
X186942929Y-100428183D01*
X187055734Y-100300852D01*
X187134790Y-100150225D01*
X187175500Y-99985056D01*
X187175500Y-99814944D01*
X187134790Y-99649775D01*
X187134789Y-99649773D01*
X187055736Y-99499150D01*
X187017719Y-99456238D01*
X186942929Y-99371817D01*
X186893177Y-99337475D01*
X186802931Y-99275182D01*
X186643874Y-99214860D01*
X186643868Y-99214859D01*
X186517374Y-99199500D01*
X186517372Y-99199500D01*
X186432628Y-99199500D01*
X186432626Y-99199500D01*
X186306131Y-99214859D01*
X186306125Y-99214860D01*
X186147068Y-99275182D01*
X186007072Y-99371816D01*
X185894263Y-99499150D01*
X185815210Y-99649773D01*
X185774500Y-99814944D01*
X185774500Y-99985056D01*
X179701560Y-99985056D01*
X177483295Y-97766907D01*
X170216009Y-90500001D01*
X185194532Y-90500001D01*
X185214364Y-90726686D01*
X185214366Y-90726697D01*
X185273258Y-90946488D01*
X185273261Y-90946497D01*
X185369431Y-91152732D01*
X185369432Y-91152734D01*
X185499954Y-91339141D01*
X185660858Y-91500045D01*
X185660861Y-91500047D01*
X185847266Y-91630568D01*
X186053504Y-91726739D01*
X186273308Y-91785635D01*
X186443216Y-91800500D01*
X186556784Y-91800500D01*
X186726692Y-91785635D01*
X186946496Y-91726739D01*
X187152734Y-91630568D01*
X187339139Y-91500047D01*
X187500047Y-91339139D01*
X187630568Y-91152734D01*
X187726739Y-90946496D01*
X187785635Y-90726692D01*
X187805468Y-90500000D01*
X187785635Y-90273308D01*
X187726739Y-90053504D01*
X187630568Y-89847266D01*
X187513964Y-89680737D01*
X187500045Y-89660858D01*
X187339141Y-89499954D01*
X187152734Y-89369432D01*
X187152732Y-89369431D01*
X186946497Y-89273261D01*
X186946488Y-89273258D01*
X186726697Y-89214366D01*
X186726687Y-89214364D01*
X186556784Y-89199500D01*
X186443216Y-89199500D01*
X186273312Y-89214364D01*
X186273302Y-89214366D01*
X186053511Y-89273258D01*
X186053502Y-89273261D01*
X185847267Y-89369431D01*
X185847265Y-89369432D01*
X185660858Y-89499954D01*
X185499954Y-89660858D01*
X185369432Y-89847265D01*
X185369431Y-89847267D01*
X185273261Y-90053502D01*
X185273258Y-90053511D01*
X185214366Y-90273302D01*
X185214364Y-90273313D01*
X185194532Y-90499998D01*
X185194532Y-90500001D01*
X170216009Y-90500001D01*
X164208799Y-84493105D01*
X164198983Y-84480853D01*
X164198761Y-84481037D01*
X164193785Y-84475022D01*
X164143349Y-84427659D01*
X164122460Y-84406771D01*
X164122458Y-84406769D01*
X164116983Y-84402522D01*
X164112540Y-84398727D01*
X164088782Y-84376417D01*
X164078582Y-84366838D01*
X164078579Y-84366836D01*
X164078577Y-84366834D01*
X164061015Y-84357179D01*
X164044758Y-84346501D01*
X164028919Y-84334216D01*
X163986158Y-84315713D01*
X163980909Y-84313142D01*
X163940090Y-84290702D01*
X163920677Y-84285717D01*
X163902276Y-84279418D01*
X163901934Y-84279270D01*
X163883880Y-84271458D01*
X163878132Y-84270547D01*
X163837856Y-84264168D01*
X163832135Y-84262983D01*
X163787026Y-84251400D01*
X163787019Y-84251400D01*
X163766978Y-84251400D01*
X163747584Y-84249874D01*
X163743107Y-84249165D01*
X163727787Y-84246739D01*
X163727786Y-84246739D01*
X163727782Y-84246738D01*
X163681413Y-84251124D01*
X163675573Y-84251400D01*
X146877161Y-84251400D01*
X146810122Y-84231715D01*
X146764367Y-84178911D01*
X146754423Y-84109753D01*
X146769773Y-84065401D01*
X146770712Y-84063773D01*
X146816779Y-83983984D01*
X146875274Y-83803956D01*
X146895060Y-83615700D01*
X146875274Y-83427444D01*
X146823802Y-83269033D01*
X146821808Y-83199193D01*
X146854051Y-83143037D01*
X149085579Y-80911509D01*
X149146900Y-80878026D01*
X149199039Y-80877902D01*
X149305354Y-80900500D01*
X149494644Y-80900500D01*
X149494646Y-80900500D01*
X149679803Y-80861144D01*
X149852730Y-80784151D01*
X150005871Y-80672888D01*
X150132533Y-80532216D01*
X150227179Y-80368284D01*
X150285674Y-80188256D01*
X150305460Y-80000000D01*
X150285674Y-79811744D01*
X150227179Y-79631716D01*
X150132533Y-79467784D01*
X150005871Y-79327112D01*
X150005870Y-79327111D01*
X149852734Y-79215851D01*
X149852729Y-79215848D01*
X149679807Y-79138857D01*
X149679802Y-79138855D01*
X149534001Y-79107865D01*
X149494646Y-79099500D01*
X149305354Y-79099500D01*
X149272897Y-79106398D01*
X149120197Y-79138855D01*
X149120192Y-79138857D01*
X148947270Y-79215848D01*
X148947265Y-79215851D01*
X148794129Y-79327111D01*
X148667466Y-79467785D01*
X148572821Y-79631714D01*
X148572820Y-79631717D01*
X148570769Y-79638031D01*
X148540521Y-79687387D01*
X145520428Y-82707481D01*
X145459105Y-82740966D01*
X145432747Y-82743800D01*
X144090152Y-82743800D01*
X144023113Y-82724115D01*
X143977358Y-82671311D01*
X143967414Y-82602153D01*
X143996439Y-82538597D01*
X144002471Y-82532119D01*
X145673448Y-80861142D01*
X147383788Y-79150801D01*
X147396042Y-79140986D01*
X147395859Y-79140764D01*
X147401866Y-79135792D01*
X147401877Y-79135786D01*
X147435952Y-79099500D01*
X147449227Y-79085364D01*
X147459671Y-79074918D01*
X147470120Y-79064471D01*
X147474379Y-79058978D01*
X147478152Y-79054561D01*
X147510062Y-79020582D01*
X147519713Y-79003024D01*
X147530396Y-78986761D01*
X147542673Y-78970936D01*
X147561185Y-78928153D01*
X147563738Y-78922941D01*
X147586197Y-78882092D01*
X147591180Y-78862680D01*
X147597481Y-78844280D01*
X147605437Y-78825896D01*
X147612729Y-78779852D01*
X147613906Y-78774171D01*
X147625500Y-78729019D01*
X147625500Y-78708983D01*
X147627025Y-78689594D01*
X147629006Y-78677088D01*
X147658934Y-78613956D01*
X147659184Y-78613676D01*
X147732533Y-78532216D01*
X147827179Y-78368284D01*
X147885674Y-78188256D01*
X147905460Y-78000000D01*
X147890951Y-77861958D01*
X147903520Y-77793232D01*
X147951252Y-77742208D01*
X148014272Y-77725000D01*
X160610960Y-77725000D01*
X160746611Y-77726810D01*
X160834758Y-77716149D01*
X160838046Y-77715841D01*
X160926634Y-77709912D01*
X160983382Y-77698377D01*
X160988236Y-77697591D01*
X161045738Y-77690638D01*
X161131681Y-77668323D01*
X161134874Y-77667584D01*
X161221903Y-77649896D01*
X161263620Y-77635410D01*
X161276597Y-77630904D01*
X161281349Y-77629464D01*
X161337375Y-77614918D01*
X161337385Y-77614913D01*
X161337388Y-77614913D01*
X161352913Y-77608572D01*
X161419588Y-77581342D01*
X161422620Y-77580198D01*
X161506537Y-77551060D01*
X161558236Y-77524934D01*
X161562710Y-77522895D01*
X161616318Y-77501003D01*
X161693327Y-77456766D01*
X161696178Y-77455229D01*
X161775459Y-77415168D01*
X161823197Y-77382396D01*
X161827372Y-77379770D01*
X161877589Y-77350926D01*
X161948008Y-77296825D01*
X161950659Y-77294898D01*
X162023869Y-77244644D01*
X162046313Y-77224342D01*
X162100986Y-77195626D01*
X162107483Y-77194091D01*
X162242328Y-77143797D01*
X162242327Y-77143797D01*
X162242331Y-77143796D01*
X162357546Y-77057546D01*
X162443796Y-76942331D01*
X162494091Y-76807483D01*
X162495990Y-76789812D01*
X162515658Y-76734957D01*
X162663354Y-76510266D01*
X162793819Y-76238671D01*
X162886921Y-75952109D01*
X162940997Y-75655694D01*
X162942398Y-75625770D01*
X162949436Y-75475373D01*
X163445723Y-75475373D01*
X163475881Y-75775160D01*
X163475882Y-75775162D01*
X163545728Y-76068252D01*
X163545733Y-76068266D01*
X163654020Y-76349427D01*
X163654024Y-76349436D01*
X163798825Y-76613665D01*
X163798829Y-76613671D01*
X163906648Y-76760004D01*
X163977554Y-76856238D01*
X164060814Y-76942328D01*
X164187019Y-77072823D01*
X164423478Y-77259553D01*
X164423480Y-77259554D01*
X164423485Y-77259558D01*
X164682730Y-77413109D01*
X164960128Y-77530736D01*
X165250729Y-77610340D01*
X165549347Y-77650500D01*
X165549351Y-77650500D01*
X172325252Y-77650500D01*
X172489164Y-77639526D01*
X172550634Y-77635412D01*
X172845903Y-77575396D01*
X173130537Y-77476560D01*
X173399459Y-77340668D01*
X173578917Y-77217475D01*
X173635844Y-77196416D01*
X173657483Y-77194091D01*
X173792331Y-77143796D01*
X173907546Y-77057546D01*
X173993796Y-76942331D01*
X174044091Y-76807483D01*
X174045561Y-76793807D01*
X174064331Y-76740341D01*
X174065862Y-76737941D01*
X174065865Y-76737939D01*
X174227993Y-76483970D01*
X174354823Y-76210658D01*
X174444093Y-75922879D01*
X174494209Y-75625770D01*
X174504277Y-75324631D01*
X174474118Y-75024838D01*
X174404269Y-74731739D01*
X174295977Y-74450566D01*
X174151175Y-74186335D01*
X174151172Y-74186331D01*
X174151169Y-74186326D01*
X174070072Y-74076262D01*
X174046610Y-74015956D01*
X174044091Y-73992518D01*
X173993797Y-73857671D01*
X173993793Y-73857664D01*
X173907547Y-73742455D01*
X173907544Y-73742452D01*
X173792335Y-73656206D01*
X173792326Y-73656201D01*
X173657487Y-73605910D01*
X173657484Y-73605909D01*
X173657483Y-73605909D01*
X173657480Y-73605908D01*
X173657477Y-73605908D01*
X173637379Y-73603747D01*
X173573788Y-73577773D01*
X173568878Y-73573896D01*
X173526515Y-73540442D01*
X173267270Y-73386891D01*
X172989872Y-73269264D01*
X172989863Y-73269261D01*
X172699272Y-73189660D01*
X172603759Y-73176815D01*
X172400653Y-73149500D01*
X165624756Y-73149500D01*
X165624748Y-73149500D01*
X165399368Y-73164587D01*
X165399359Y-73164589D01*
X165104094Y-73224604D01*
X164819464Y-73323439D01*
X164819459Y-73323441D01*
X164550546Y-73459328D01*
X164302125Y-73629860D01*
X164078665Y-73831969D01*
X163884132Y-74062064D01*
X163722006Y-74316030D01*
X163722005Y-74316032D01*
X163646865Y-74477956D01*
X163595177Y-74589342D01*
X163595176Y-74589346D01*
X163505907Y-74877118D01*
X163461251Y-75141863D01*
X163455791Y-75174230D01*
X163446868Y-75441138D01*
X163445723Y-75475373D01*
X162949436Y-75475373D01*
X162955082Y-75354718D01*
X162955082Y-75354717D01*
X162943367Y-75220276D01*
X162928926Y-75054549D01*
X162862994Y-74760544D01*
X162758464Y-74477951D01*
X162617200Y-74211811D01*
X162519094Y-74074873D01*
X162496605Y-74015908D01*
X162494091Y-73992517D01*
X162443797Y-73857671D01*
X162443793Y-73857664D01*
X162357547Y-73742455D01*
X162357544Y-73742452D01*
X162242335Y-73656206D01*
X162242328Y-73656202D01*
X162107483Y-73605908D01*
X162107485Y-73605908D01*
X162089974Y-73604026D01*
X162025423Y-73577287D01*
X162025201Y-73577108D01*
X162001214Y-73557640D01*
X162001213Y-73557639D01*
X162001209Y-73557636D01*
X161744047Y-73400647D01*
X161744042Y-73400644D01*
X161737888Y-73397937D01*
X161468237Y-73279326D01*
X161468232Y-73279324D01*
X161468231Y-73279324D01*
X161468228Y-73279322D01*
X161178736Y-73195854D01*
X161178728Y-73195852D01*
X161178724Y-73195851D01*
X161178720Y-73195850D01*
X161178714Y-73195849D01*
X160880671Y-73151710D01*
X160880656Y-73151709D01*
X160588809Y-73147815D01*
X160579389Y-73147690D01*
X160579388Y-73147690D01*
X160579387Y-73147690D01*
X160579382Y-73147690D01*
X160280258Y-73183862D01*
X160140993Y-73220021D01*
X160109831Y-73224000D01*
X137444348Y-73224000D01*
X137312474Y-73221796D01*
X137312473Y-73221796D01*
X137312471Y-73221796D01*
X137312468Y-73221796D01*
X137220413Y-73232613D01*
X137217319Y-73232898D01*
X137124868Y-73239087D01*
X137124866Y-73239088D01*
X137071961Y-73249840D01*
X137066847Y-73250659D01*
X137013232Y-73256959D01*
X136923443Y-73279949D01*
X136920415Y-73280643D01*
X136844174Y-73296140D01*
X136829597Y-73299104D01*
X136829595Y-73299104D01*
X136829593Y-73299105D01*
X136778597Y-73316812D01*
X136773638Y-73318305D01*
X136721351Y-73331692D01*
X136721345Y-73331695D01*
X136721340Y-73331696D01*
X136721336Y-73331698D01*
X136687256Y-73345481D01*
X136635422Y-73366445D01*
X136632514Y-73367537D01*
X136544969Y-73397937D01*
X136496768Y-73422293D01*
X136492052Y-73424433D01*
X136442014Y-73444671D01*
X136361497Y-73490560D01*
X136358761Y-73492030D01*
X136276042Y-73533831D01*
X136231533Y-73564384D01*
X136227144Y-73567135D01*
X136180236Y-73593870D01*
X136106545Y-73650090D01*
X136104031Y-73651909D01*
X136097776Y-73656204D01*
X136027630Y-73704356D01*
X135987588Y-73740570D01*
X135983608Y-73743879D01*
X135940681Y-73776630D01*
X135875137Y-73842173D01*
X135872886Y-73844314D01*
X135804167Y-73906467D01*
X135769310Y-73947695D01*
X135765803Y-73951507D01*
X116616058Y-93101252D01*
X116554735Y-93134737D01*
X116485043Y-93129753D01*
X116429110Y-93087881D01*
X116404693Y-93022417D01*
X116404724Y-93004295D01*
X116405046Y-92999992D01*
X116384886Y-92730973D01*
X116384886Y-92730971D01*
X116324857Y-92467966D01*
X116324851Y-92467947D01*
X116226290Y-92216818D01*
X116226291Y-92216818D01*
X116091397Y-91983177D01*
X116037704Y-91915847D01*
X115202546Y-92751005D01*
X115192812Y-92721044D01*
X115104814Y-92582381D01*
X114985097Y-92469960D01*
X114850489Y-92395958D01*
X115685150Y-91561296D01*
X115502517Y-91436779D01*
X115502516Y-91436778D01*
X115259460Y-91319730D01*
X115259462Y-91319730D01*
X115001662Y-91240209D01*
X115001656Y-91240207D01*
X114734898Y-91200000D01*
X114465101Y-91200000D01*
X114198343Y-91240207D01*
X114198337Y-91240209D01*
X113940538Y-91319730D01*
X113697485Y-91436778D01*
X113697476Y-91436783D01*
X113514848Y-91561296D01*
X114352465Y-92398913D01*
X114284371Y-92425874D01*
X114151508Y-92522405D01*
X114046825Y-92648945D01*
X113998368Y-92751921D01*
X113162295Y-91915848D01*
X113108600Y-91983180D01*
X112973709Y-92216818D01*
X112875148Y-92467947D01*
X112875142Y-92467966D01*
X112815113Y-92730971D01*
X112815113Y-92730973D01*
X112794953Y-92999995D01*
X112794953Y-93000004D01*
X112815113Y-93269026D01*
X112815113Y-93269028D01*
X112875142Y-93532033D01*
X112875148Y-93532052D01*
X112973709Y-93783181D01*
X112973708Y-93783181D01*
X113108602Y-94016822D01*
X113162294Y-94084151D01*
X113997452Y-93248992D01*
X114007188Y-93278956D01*
X114095186Y-93417619D01*
X114214903Y-93530040D01*
X114349510Y-93604041D01*
X113514848Y-94438702D01*
X113697483Y-94563220D01*
X113697485Y-94563221D01*
X113940539Y-94680269D01*
X113940537Y-94680269D01*
X114198337Y-94759790D01*
X114198343Y-94759792D01*
X114465101Y-94799999D01*
X114465110Y-94800000D01*
X114617949Y-94800000D01*
X114684988Y-94819685D01*
X114730743Y-94872489D01*
X114740687Y-94941647D01*
X114711662Y-95005203D01*
X114705630Y-95011681D01*
X113853578Y-95863733D01*
X113806574Y-95893190D01*
X113719469Y-95923437D01*
X113719459Y-95923441D01*
X113450546Y-96059328D01*
X113202125Y-96229860D01*
X112978665Y-96431969D01*
X112784132Y-96662064D01*
X112622006Y-96916030D01*
X112622005Y-96916032D01*
X112495181Y-97189333D01*
X112495177Y-97189342D01*
X112495176Y-97189346D01*
X112405907Y-97477118D01*
X112374752Y-97661819D01*
X112355791Y-97774230D01*
X112350272Y-97939323D01*
X112345723Y-98075373D01*
X112375881Y-98375160D01*
X112375882Y-98375162D01*
X112445728Y-98668252D01*
X112445733Y-98668266D01*
X112554020Y-98949427D01*
X112554024Y-98949436D01*
X112698825Y-99213665D01*
X112698829Y-99213671D01*
X112877551Y-99456234D01*
X112877554Y-99456238D01*
X113087020Y-99672824D01*
X113154390Y-99726026D01*
X113323478Y-99859553D01*
X113323480Y-99859554D01*
X113323485Y-99859558D01*
X113582730Y-100013109D01*
X113860128Y-100130736D01*
X114150729Y-100210340D01*
X114449347Y-100250500D01*
X114449351Y-100250500D01*
X114881153Y-100250500D01*
X115013027Y-100252704D01*
X115105125Y-100241880D01*
X115108140Y-100241603D01*
X115200634Y-100235412D01*
X115253567Y-100224651D01*
X115258629Y-100223840D01*
X115312274Y-100217538D01*
X115402070Y-100194545D01*
X115405042Y-100193863D01*
X115495903Y-100175396D01*
X115546929Y-100157677D01*
X115551847Y-100156197D01*
X115604165Y-100142802D01*
X115690129Y-100108031D01*
X115692938Y-100106976D01*
X115780537Y-100076560D01*
X115828738Y-100052202D01*
X115833440Y-100050069D01*
X115843204Y-100046119D01*
X115883489Y-100029826D01*
X115963999Y-99983938D01*
X115966731Y-99982471D01*
X116049459Y-99940668D01*
X116094003Y-99910089D01*
X116098330Y-99907377D01*
X116145264Y-99880629D01*
X116218976Y-99824391D01*
X116221444Y-99822605D01*
X116297869Y-99770144D01*
X116337926Y-99733913D01*
X116341871Y-99730634D01*
X116384816Y-99697872D01*
X116450360Y-99632326D01*
X116452594Y-99630201D01*
X116521333Y-99568032D01*
X116556202Y-99526786D01*
X116559684Y-99523002D01*
X138321369Y-77761319D01*
X138382692Y-77727834D01*
X138409050Y-77725000D01*
X145985728Y-77725000D01*
X146052767Y-77744685D01*
X146098522Y-77797489D01*
X146109048Y-77861958D01*
X146094540Y-78000000D01*
X146114326Y-78188256D01*
X146114327Y-78188259D01*
X146172818Y-78368277D01*
X146172821Y-78368284D01*
X146207347Y-78428086D01*
X146223820Y-78495984D01*
X146200968Y-78562011D01*
X146187641Y-78577766D01*
X139052228Y-85713181D01*
X138990905Y-85746666D01*
X138964547Y-85749500D01*
X138905354Y-85749500D01*
X138872897Y-85756398D01*
X138720197Y-85788855D01*
X138720192Y-85788857D01*
X138547270Y-85865848D01*
X138547265Y-85865851D01*
X138394129Y-85977111D01*
X138267466Y-86117785D01*
X138172821Y-86281715D01*
X138172818Y-86281722D01*
X138122578Y-86436346D01*
X138114326Y-86461744D01*
X138094540Y-86650000D01*
X138114326Y-86838256D01*
X138114327Y-86838259D01*
X138172818Y-87018277D01*
X138172821Y-87018284D01*
X138267467Y-87182216D01*
X138362986Y-87288300D01*
X138394129Y-87322888D01*
X138547265Y-87434148D01*
X138547270Y-87434151D01*
X138691703Y-87498458D01*
X138744940Y-87543708D01*
X138765261Y-87610558D01*
X138751814Y-87660734D01*
X138754524Y-87661907D01*
X138732915Y-87711838D01*
X138730345Y-87717084D01*
X138707903Y-87757906D01*
X138702922Y-87777307D01*
X138696621Y-87795710D01*
X138688662Y-87814102D01*
X138688661Y-87814105D01*
X138681371Y-87860127D01*
X138680187Y-87865846D01*
X138668601Y-87910972D01*
X138668600Y-87910982D01*
X138668600Y-87931016D01*
X138667073Y-87950415D01*
X138663940Y-87970194D01*
X138663940Y-87970195D01*
X138668325Y-88016583D01*
X138668600Y-88022421D01*
X138668600Y-89207555D01*
X138666875Y-89223172D01*
X138667161Y-89223199D01*
X138666426Y-89230965D01*
X138668600Y-89300114D01*
X138668600Y-89329643D01*
X138668601Y-89329660D01*
X138669468Y-89336531D01*
X138669926Y-89342350D01*
X138671390Y-89388924D01*
X138671391Y-89388927D01*
X138676980Y-89408167D01*
X138680924Y-89427211D01*
X138683436Y-89447092D01*
X138697290Y-89482085D01*
X138700590Y-89490419D01*
X138702482Y-89495947D01*
X138706897Y-89511144D01*
X138715482Y-89540690D01*
X138721283Y-89550500D01*
X138725680Y-89557934D01*
X138734238Y-89575403D01*
X138741614Y-89594032D01*
X138768998Y-89631723D01*
X138772206Y-89636607D01*
X138795927Y-89676716D01*
X138795933Y-89676724D01*
X138810090Y-89690880D01*
X138822728Y-89705676D01*
X138834505Y-89721886D01*
X138834506Y-89721887D01*
X138870409Y-89751588D01*
X138874720Y-89755510D01*
X140990329Y-91871120D01*
X141023813Y-91932441D01*
X141018829Y-92002133D01*
X140990328Y-92046480D01*
X140726428Y-92310381D01*
X140665105Y-92343866D01*
X140638747Y-92346700D01*
X140579554Y-92346700D01*
X140564029Y-92350000D01*
X140394397Y-92386055D01*
X140394392Y-92386057D01*
X140221470Y-92463048D01*
X140221465Y-92463051D01*
X140068329Y-92574311D01*
X139941666Y-92714985D01*
X139847021Y-92878915D01*
X139847018Y-92878922D01*
X139788527Y-93058940D01*
X139788526Y-93058944D01*
X139768740Y-93247200D01*
X139788526Y-93435456D01*
X139788527Y-93435459D01*
X139847018Y-93615477D01*
X139847021Y-93615484D01*
X139941667Y-93779416D01*
X140068329Y-93920088D01*
X140221465Y-94031348D01*
X140221470Y-94031351D01*
X140336397Y-94082521D01*
X140389634Y-94127771D01*
X140409955Y-94194621D01*
X140390909Y-94261844D01*
X140338543Y-94308099D01*
X140285961Y-94319800D01*
X134184712Y-94319800D01*
X134169078Y-94318074D01*
X134169052Y-94318357D01*
X134161285Y-94317623D01*
X134161284Y-94317623D01*
X134092163Y-94319800D01*
X134062638Y-94319800D01*
X134055736Y-94320672D01*
X134049926Y-94321129D01*
X134003332Y-94322597D01*
X134003320Y-94322598D01*
X133984110Y-94328181D01*
X133965058Y-94332128D01*
X133955597Y-94333323D01*
X133945208Y-94334636D01*
X133945206Y-94334636D01*
X133945201Y-94334638D01*
X133901847Y-94351803D01*
X133896325Y-94353693D01*
X133851565Y-94366702D01*
X133834347Y-94376885D01*
X133816875Y-94385446D01*
X133798274Y-94392811D01*
X133798260Y-94392818D01*
X133760547Y-94420217D01*
X133755670Y-94423422D01*
X133715541Y-94447158D01*
X133701393Y-94461308D01*
X133686600Y-94473944D01*
X133670412Y-94485706D01*
X133640693Y-94521629D01*
X133636765Y-94525947D01*
X133506158Y-94656574D01*
X133444839Y-94690064D01*
X133418471Y-94692900D01*
X133359354Y-94692900D01*
X133326897Y-94699798D01*
X133174197Y-94732255D01*
X133174192Y-94732257D01*
X133001270Y-94809248D01*
X133001265Y-94809251D01*
X132848129Y-94920511D01*
X132721466Y-95061185D01*
X132626821Y-95225115D01*
X132626818Y-95225122D01*
X132568327Y-95405140D01*
X132568326Y-95405144D01*
X132548540Y-95593400D01*
X132568326Y-95781656D01*
X132578245Y-95812183D01*
X132580241Y-95882022D01*
X132544161Y-95941855D01*
X132481460Y-95972684D01*
X132460314Y-95974500D01*
X125182737Y-95974500D01*
X125167120Y-95972776D01*
X125167093Y-95973062D01*
X125159331Y-95972327D01*
X125090203Y-95974500D01*
X125060650Y-95974500D01*
X125059929Y-95974590D01*
X125053757Y-95975369D01*
X125047945Y-95975826D01*
X125001372Y-95977290D01*
X125001369Y-95977291D01*
X124982126Y-95982881D01*
X124963083Y-95986825D01*
X124943204Y-95989336D01*
X124943203Y-95989337D01*
X124899878Y-96006490D01*
X124894352Y-96008382D01*
X124849608Y-96021383D01*
X124849604Y-96021385D01*
X124832365Y-96031580D01*
X124814898Y-96040137D01*
X124796269Y-96047512D01*
X124796267Y-96047513D01*
X124758564Y-96074906D01*
X124753682Y-96078112D01*
X124713580Y-96101828D01*
X124699408Y-96116000D01*
X124684623Y-96128628D01*
X124668412Y-96140407D01*
X124638709Y-96176310D01*
X124634777Y-96180630D01*
X124585552Y-96229856D01*
X124477226Y-96338182D01*
X124415906Y-96371666D01*
X124389547Y-96374500D01*
X120682737Y-96374500D01*
X120667120Y-96372776D01*
X120667093Y-96373062D01*
X120659331Y-96372327D01*
X120590203Y-96374500D01*
X120560650Y-96374500D01*
X120559929Y-96374590D01*
X120553757Y-96375369D01*
X120547945Y-96375826D01*
X120501372Y-96377290D01*
X120501369Y-96377291D01*
X120482126Y-96382881D01*
X120463083Y-96386825D01*
X120443204Y-96389336D01*
X120443203Y-96389337D01*
X120399878Y-96406490D01*
X120394352Y-96408382D01*
X120349608Y-96421383D01*
X120349604Y-96421385D01*
X120332365Y-96431580D01*
X120314898Y-96440137D01*
X120296269Y-96447512D01*
X120296267Y-96447513D01*
X120258564Y-96474906D01*
X120253682Y-96478112D01*
X120213580Y-96501828D01*
X120199408Y-96516000D01*
X120184623Y-96528628D01*
X120168412Y-96540407D01*
X120138709Y-96576310D01*
X120134777Y-96580631D01*
X115413989Y-101301418D01*
X115352666Y-101334903D01*
X115282974Y-101329919D01*
X115272511Y-101325459D01*
X115259645Y-101319263D01*
X115001773Y-101239720D01*
X115001767Y-101239718D01*
X114734936Y-101199500D01*
X114734929Y-101199500D01*
X114465071Y-101199500D01*
X114465063Y-101199500D01*
X114198232Y-101239718D01*
X114198226Y-101239720D01*
X113940358Y-101319262D01*
X113697230Y-101436346D01*
X113474258Y-101588365D01*
X113276442Y-101771910D01*
X113108185Y-101982898D01*
X112973258Y-102216599D01*
X112973256Y-102216603D01*
X112874666Y-102467804D01*
X112874664Y-102467811D01*
X112814616Y-102730898D01*
X112794451Y-102999995D01*
X112794451Y-103000004D01*
X112814616Y-103269101D01*
X112874664Y-103532188D01*
X112874666Y-103532195D01*
X112973256Y-103783396D01*
X112973258Y-103783400D01*
X112978202Y-103791963D01*
X113108185Y-104017102D01*
X113187748Y-104116870D01*
X113276442Y-104228089D01*
X113376489Y-104320918D01*
X113474259Y-104411635D01*
X113697226Y-104563651D01*
X113697229Y-104563652D01*
X113697230Y-104563653D01*
X113723297Y-104576206D01*
X113940359Y-104680738D01*
X114198228Y-104760280D01*
X114198229Y-104760280D01*
X114198232Y-104760281D01*
X114465063Y-104800499D01*
X114465068Y-104800499D01*
X114465071Y-104800500D01*
X114465072Y-104800500D01*
X114734928Y-104800500D01*
X114734929Y-104800500D01*
X114734936Y-104800499D01*
X115001767Y-104760281D01*
X115001768Y-104760280D01*
X115001772Y-104760280D01*
X115259641Y-104680738D01*
X115476704Y-104576206D01*
X115502767Y-104563655D01*
X115502767Y-104563654D01*
X115502775Y-104563651D01*
X115725741Y-104411635D01*
X115904335Y-104245924D01*
X115923557Y-104228089D01*
X115923557Y-104228087D01*
X115923561Y-104228085D01*
X116091815Y-104017102D01*
X116226743Y-103783398D01*
X116325334Y-103532195D01*
X116385383Y-103269103D01*
X116398935Y-103088256D01*
X116405549Y-103000004D01*
X116405549Y-102999995D01*
X116385383Y-102730898D01*
X116325335Y-102467811D01*
X116325334Y-102467805D01*
X116268028Y-102321795D01*
X116261860Y-102252200D01*
X116271274Y-102234240D01*
X129219310Y-102234240D01*
X129219311Y-102234241D01*
X129307581Y-102288895D01*
X129307588Y-102288899D01*
X129497678Y-102362539D01*
X129698072Y-102400000D01*
X129901928Y-102400000D01*
X130102321Y-102362539D01*
X130292414Y-102288897D01*
X130380688Y-102234240D01*
X129800001Y-101653553D01*
X129800000Y-101653553D01*
X129219310Y-102234240D01*
X116271274Y-102234240D01*
X116294297Y-102190316D01*
X116295713Y-102188876D01*
X117184589Y-101300000D01*
X128695287Y-101300000D01*
X128714096Y-101502989D01*
X128714097Y-101502992D01*
X128769883Y-101699063D01*
X128769886Y-101699069D01*
X128860754Y-101881556D01*
X128860755Y-101881557D01*
X128862533Y-101883912D01*
X129504654Y-101241790D01*
X129496105Y-101271840D01*
X129506454Y-101383521D01*
X129556448Y-101483922D01*
X129639334Y-101559484D01*
X129743920Y-101600000D01*
X129827802Y-101600000D01*
X129910250Y-101584588D01*
X130005610Y-101525543D01*
X130073201Y-101436038D01*
X130103895Y-101328160D01*
X130095947Y-101242394D01*
X130737465Y-101883912D01*
X130739247Y-101881552D01*
X130739249Y-101881550D01*
X130830113Y-101699069D01*
X130830116Y-101699063D01*
X130885902Y-101502992D01*
X130885903Y-101502989D01*
X130904713Y-101300000D01*
X130904713Y-101299999D01*
X130885903Y-101097010D01*
X130885902Y-101097008D01*
X130830115Y-100900936D01*
X130830110Y-100900925D01*
X130792311Y-100825013D01*
X130780050Y-100756228D01*
X130804045Y-100695431D01*
X130843796Y-100642331D01*
X130894091Y-100507483D01*
X130900500Y-100447873D01*
X130900499Y-99152128D01*
X130894091Y-99092517D01*
X130892876Y-99089260D01*
X130843797Y-98957671D01*
X130843793Y-98957664D01*
X130757547Y-98842455D01*
X130757544Y-98842452D01*
X130642335Y-98756206D01*
X130642328Y-98756202D01*
X130507482Y-98705908D01*
X130507483Y-98705908D01*
X130447883Y-98699501D01*
X130447881Y-98699500D01*
X130447873Y-98699500D01*
X130447864Y-98699500D01*
X129152129Y-98699500D01*
X129152123Y-98699501D01*
X129092516Y-98705908D01*
X128957671Y-98756202D01*
X128957664Y-98756206D01*
X128842455Y-98842452D01*
X128842452Y-98842455D01*
X128756206Y-98957664D01*
X128756202Y-98957671D01*
X128705908Y-99092517D01*
X128704005Y-99110222D01*
X128699501Y-99152123D01*
X128699500Y-99152135D01*
X128699500Y-100447870D01*
X128699501Y-100447876D01*
X128705908Y-100507483D01*
X128756202Y-100642328D01*
X128756206Y-100642335D01*
X128795954Y-100695431D01*
X128820372Y-100760895D01*
X128807688Y-100825013D01*
X128769888Y-100900925D01*
X128769883Y-100900936D01*
X128714097Y-101097007D01*
X128714096Y-101097010D01*
X128695287Y-101299999D01*
X128695287Y-101300000D01*
X117184589Y-101300000D01*
X120822772Y-97661819D01*
X120884095Y-97628334D01*
X120910453Y-97625500D01*
X124617257Y-97625500D01*
X124632877Y-97627224D01*
X124632904Y-97626939D01*
X124640660Y-97627671D01*
X124640667Y-97627673D01*
X124709814Y-97625500D01*
X124739350Y-97625500D01*
X124746228Y-97624630D01*
X124752041Y-97624172D01*
X124798627Y-97622709D01*
X124817869Y-97617117D01*
X124836912Y-97613174D01*
X124856792Y-97610664D01*
X124900122Y-97593507D01*
X124905646Y-97591617D01*
X124909396Y-97590527D01*
X124950390Y-97578618D01*
X124967629Y-97568422D01*
X124985103Y-97559862D01*
X125003727Y-97552488D01*
X125003727Y-97552487D01*
X125003732Y-97552486D01*
X125041449Y-97525082D01*
X125046305Y-97521892D01*
X125086420Y-97498170D01*
X125100589Y-97483999D01*
X125115379Y-97471368D01*
X125131587Y-97459594D01*
X125161295Y-97423681D01*
X125165207Y-97419381D01*
X125232480Y-97352108D01*
X125322774Y-97261818D01*
X125384097Y-97228334D01*
X125410454Y-97225500D01*
X149976736Y-97225500D01*
X150043775Y-97245185D01*
X150089530Y-97297989D01*
X150099474Y-97367147D01*
X150070449Y-97430703D01*
X150064391Y-97437207D01*
X149734496Y-97766907D01*
X149673163Y-97800374D01*
X149646841Y-97803200D01*
X149587354Y-97803200D01*
X149554897Y-97810098D01*
X149402197Y-97842555D01*
X149402192Y-97842557D01*
X149229270Y-97919548D01*
X149229265Y-97919551D01*
X149076129Y-98030811D01*
X148949466Y-98171485D01*
X148854821Y-98335415D01*
X148854818Y-98335422D01*
X148796327Y-98515440D01*
X148796326Y-98515444D01*
X148776540Y-98703700D01*
X148796326Y-98891956D01*
X148796327Y-98891959D01*
X148854818Y-99071977D01*
X148854821Y-99071984D01*
X148949467Y-99235916D01*
X148990459Y-99281442D01*
X149076129Y-99376588D01*
X149229265Y-99487848D01*
X149229270Y-99487851D01*
X149402192Y-99564842D01*
X149402197Y-99564844D01*
X149587354Y-99604200D01*
X149587355Y-99604200D01*
X149776644Y-99604200D01*
X149776646Y-99604200D01*
X149961803Y-99564844D01*
X150134730Y-99487851D01*
X150287871Y-99376588D01*
X150414533Y-99235916D01*
X150509179Y-99071984D01*
X150567674Y-98891956D01*
X150585286Y-98724375D01*
X150611870Y-98659763D01*
X150620942Y-98649642D01*
X150915667Y-98355092D01*
X150977000Y-98321626D01*
X151003322Y-98318800D01*
X151870546Y-98318800D01*
X151937585Y-98338485D01*
X151983340Y-98391289D01*
X151993284Y-98460447D01*
X151964259Y-98524003D01*
X151958227Y-98530481D01*
X141850528Y-108638181D01*
X141789205Y-108671666D01*
X141762847Y-108674500D01*
X138702582Y-108674500D01*
X138635543Y-108654815D01*
X138589788Y-108602011D01*
X138579844Y-108532853D01*
X138584651Y-108512183D01*
X138593829Y-108483934D01*
X138595674Y-108478256D01*
X138615460Y-108290000D01*
X138595674Y-108101744D01*
X138537179Y-107921716D01*
X138442533Y-107757784D01*
X138315871Y-107617112D01*
X138315870Y-107617111D01*
X138162734Y-107505851D01*
X138162729Y-107505848D01*
X137989807Y-107428857D01*
X137989802Y-107428855D01*
X137826245Y-107394091D01*
X137804646Y-107389500D01*
X137615354Y-107389500D01*
X137593755Y-107394091D01*
X137430197Y-107428855D01*
X137430192Y-107428857D01*
X137257270Y-107505848D01*
X137257265Y-107505851D01*
X137104130Y-107617110D01*
X137104126Y-107617114D01*
X137098400Y-107623474D01*
X137038913Y-107660121D01*
X137006252Y-107664500D01*
X133970452Y-107664500D01*
X133903413Y-107644815D01*
X133882771Y-107628181D01*
X133156427Y-106901836D01*
X133122942Y-106840513D01*
X133127925Y-106770823D01*
X133144091Y-106727483D01*
X133150500Y-106667873D01*
X133150499Y-106667845D01*
X133150678Y-106664547D01*
X133152183Y-106664627D01*
X133170112Y-106603326D01*
X133222868Y-106557514D01*
X133266464Y-106549981D01*
X133952046Y-105864399D01*
X133964835Y-105945148D01*
X134022359Y-106058045D01*
X134111955Y-106147641D01*
X134224852Y-106205165D01*
X134305599Y-106217953D01*
X133624526Y-106899025D01*
X133624526Y-106899026D01*
X133697512Y-106950131D01*
X133697516Y-106950133D01*
X133903673Y-107046265D01*
X133903682Y-107046269D01*
X134123389Y-107105139D01*
X134123400Y-107105141D01*
X134349998Y-107124966D01*
X134350002Y-107124966D01*
X134576599Y-107105141D01*
X134576610Y-107105139D01*
X134796317Y-107046269D01*
X134796331Y-107046264D01*
X135002478Y-106950136D01*
X135075472Y-106899025D01*
X134394401Y-106217953D01*
X134475148Y-106205165D01*
X134588045Y-106147641D01*
X134677641Y-106058045D01*
X134735165Y-105945148D01*
X134747953Y-105864400D01*
X135429025Y-106545472D01*
X135480136Y-106472478D01*
X135576264Y-106266331D01*
X135576269Y-106266317D01*
X135635139Y-106046610D01*
X135635141Y-106046599D01*
X135654966Y-105820002D01*
X135654966Y-105819997D01*
X135635141Y-105593400D01*
X135635139Y-105593389D01*
X135576269Y-105373682D01*
X135576265Y-105373673D01*
X135480133Y-105167516D01*
X135480131Y-105167512D01*
X135429026Y-105094526D01*
X135429025Y-105094526D01*
X134747953Y-105775598D01*
X134735165Y-105694852D01*
X134677641Y-105581955D01*
X134588045Y-105492359D01*
X134475148Y-105434835D01*
X134394400Y-105422046D01*
X135075472Y-104740974D01*
X135075471Y-104740973D01*
X135002483Y-104689866D01*
X135002481Y-104689865D01*
X134796326Y-104593734D01*
X134796317Y-104593730D01*
X134576610Y-104534860D01*
X134576599Y-104534858D01*
X134350002Y-104515034D01*
X134349998Y-104515034D01*
X134123400Y-104534858D01*
X134123389Y-104534860D01*
X133903682Y-104593730D01*
X133903673Y-104593734D01*
X133697513Y-104689868D01*
X133624527Y-104740972D01*
X133624526Y-104740973D01*
X134305600Y-105422046D01*
X134224852Y-105434835D01*
X134111955Y-105492359D01*
X134022359Y-105581955D01*
X133964835Y-105694852D01*
X133952046Y-105775599D01*
X133265798Y-105089351D01*
X133216805Y-105079505D01*
X133166623Y-105030889D01*
X133151981Y-104975366D01*
X133150900Y-104975423D01*
X133150854Y-104975429D01*
X133150853Y-104975426D01*
X133150676Y-104975436D01*
X133150499Y-104972135D01*
X133150499Y-104972128D01*
X133144091Y-104912517D01*
X133102311Y-104800500D01*
X133093797Y-104777671D01*
X133093793Y-104777664D01*
X133007547Y-104662455D01*
X133007544Y-104662452D01*
X132892335Y-104576206D01*
X132892328Y-104576202D01*
X132757482Y-104525908D01*
X132757483Y-104525908D01*
X132697883Y-104519501D01*
X132697881Y-104519500D01*
X132697873Y-104519500D01*
X132697864Y-104519500D01*
X131002129Y-104519500D01*
X131002123Y-104519501D01*
X130942516Y-104525908D01*
X130807671Y-104576202D01*
X130807664Y-104576206D01*
X130692455Y-104662452D01*
X130692452Y-104662455D01*
X130606206Y-104777664D01*
X130606202Y-104777671D01*
X130555908Y-104912517D01*
X130551879Y-104950000D01*
X130549501Y-104972123D01*
X130549500Y-104972135D01*
X130549500Y-106667870D01*
X130549501Y-106667876D01*
X130555908Y-106727483D01*
X130606202Y-106862328D01*
X130606206Y-106862335D01*
X130692452Y-106977544D01*
X130692455Y-106977547D01*
X130807664Y-107063793D01*
X130807671Y-107063797D01*
X130852618Y-107080561D01*
X130942517Y-107114091D01*
X131002127Y-107120500D01*
X131554547Y-107120499D01*
X131621586Y-107140183D01*
X131642228Y-107156818D01*
X132948229Y-108462819D01*
X132981714Y-108524142D01*
X132976730Y-108593834D01*
X132934858Y-108649767D01*
X132869394Y-108674184D01*
X132860548Y-108674500D01*
X116524500Y-108674500D01*
X116457461Y-108654815D01*
X116411706Y-108602011D01*
X116400500Y-108550500D01*
X116400499Y-106652129D01*
X116400498Y-106652123D01*
X116400497Y-106652116D01*
X116394091Y-106592517D01*
X116376544Y-106545472D01*
X116343797Y-106457671D01*
X116343793Y-106457664D01*
X116257547Y-106342455D01*
X116257544Y-106342452D01*
X116142335Y-106256206D01*
X116142328Y-106256202D01*
X116007482Y-106205908D01*
X116007483Y-106205908D01*
X115947883Y-106199501D01*
X115947881Y-106199500D01*
X115947873Y-106199500D01*
X115947864Y-106199500D01*
X113252129Y-106199500D01*
X113252123Y-106199501D01*
X113192516Y-106205908D01*
X113057671Y-106256202D01*
X113057664Y-106256206D01*
X112942455Y-106342452D01*
X112942452Y-106342455D01*
X112856206Y-106457664D01*
X112856202Y-106457671D01*
X112805908Y-106592517D01*
X112803295Y-106616828D01*
X112799501Y-106652123D01*
X112799500Y-106652135D01*
X112799500Y-109347870D01*
X112799501Y-109347876D01*
X112805908Y-109407483D01*
X112856202Y-109542328D01*
X112856204Y-109542331D01*
X112881550Y-109576189D01*
X112905967Y-109641654D01*
X112891115Y-109709926D01*
X112841710Y-109759332D01*
X112782283Y-109774500D01*
X106310452Y-109774500D01*
X106243413Y-109754815D01*
X106222771Y-109738181D01*
X105061819Y-108577228D01*
X105028334Y-108515905D01*
X105025500Y-108489547D01*
X105025500Y-90500001D01*
X106194532Y-90500001D01*
X106214364Y-90726686D01*
X106214366Y-90726697D01*
X106273258Y-90946488D01*
X106273261Y-90946497D01*
X106369431Y-91152732D01*
X106369432Y-91152734D01*
X106499954Y-91339141D01*
X106660858Y-91500045D01*
X106660861Y-91500047D01*
X106847266Y-91630568D01*
X107053504Y-91726739D01*
X107273308Y-91785635D01*
X107443216Y-91800500D01*
X107556784Y-91800500D01*
X107726692Y-91785635D01*
X107946496Y-91726739D01*
X108152734Y-91630568D01*
X108339139Y-91500047D01*
X108500047Y-91339139D01*
X108630568Y-91152734D01*
X108726739Y-90946496D01*
X108785635Y-90726692D01*
X108805468Y-90500000D01*
X108785635Y-90273308D01*
X108726739Y-90053504D01*
X108630568Y-89847266D01*
X108513964Y-89680737D01*
X108500045Y-89660858D01*
X108339141Y-89499954D01*
X108152734Y-89369432D01*
X108152732Y-89369431D01*
X107946497Y-89273261D01*
X107946488Y-89273258D01*
X107726697Y-89214366D01*
X107726687Y-89214364D01*
X107556784Y-89199500D01*
X107443216Y-89199500D01*
X107273312Y-89214364D01*
X107273302Y-89214366D01*
X107053511Y-89273258D01*
X107053502Y-89273261D01*
X106847267Y-89369431D01*
X106847265Y-89369432D01*
X106660858Y-89499954D01*
X106499954Y-89660858D01*
X106369432Y-89847265D01*
X106369431Y-89847267D01*
X106273261Y-90053502D01*
X106273258Y-90053511D01*
X106214366Y-90273302D01*
X106214364Y-90273313D01*
X106194532Y-90499998D01*
X106194532Y-90500001D01*
X105025500Y-90500001D01*
X105025500Y-88000004D01*
X112794451Y-88000004D01*
X112814616Y-88269101D01*
X112874664Y-88532188D01*
X112874666Y-88532195D01*
X112973257Y-88783398D01*
X113108185Y-89017102D01*
X113244080Y-89187509D01*
X113276442Y-89228089D01*
X113463183Y-89401358D01*
X113474259Y-89411635D01*
X113697226Y-89563651D01*
X113940359Y-89680738D01*
X114198228Y-89760280D01*
X114198229Y-89760280D01*
X114198232Y-89760281D01*
X114465063Y-89800499D01*
X114465068Y-89800499D01*
X114465071Y-89800500D01*
X114465072Y-89800500D01*
X114734928Y-89800500D01*
X114734929Y-89800500D01*
X114734936Y-89800499D01*
X115001767Y-89760281D01*
X115001768Y-89760280D01*
X115001772Y-89760280D01*
X115259641Y-89680738D01*
X115502775Y-89563651D01*
X115725741Y-89411635D01*
X115923561Y-89228085D01*
X116091815Y-89017102D01*
X116226743Y-88783398D01*
X116325334Y-88532195D01*
X116385383Y-88269103D01*
X116403869Y-88022421D01*
X116405549Y-88000004D01*
X116405549Y-87999995D01*
X116385383Y-87730898D01*
X116385383Y-87730897D01*
X116325334Y-87467805D01*
X116226743Y-87216602D01*
X116091815Y-86982898D01*
X115923561Y-86771915D01*
X115923560Y-86771914D01*
X115923557Y-86771910D01*
X115725741Y-86588365D01*
X115645977Y-86533983D01*
X115502775Y-86436349D01*
X115502769Y-86436346D01*
X115502768Y-86436345D01*
X115502767Y-86436344D01*
X115259643Y-86319263D01*
X115259645Y-86319263D01*
X115001773Y-86239720D01*
X115001767Y-86239718D01*
X114734936Y-86199500D01*
X114734929Y-86199500D01*
X114465071Y-86199500D01*
X114465063Y-86199500D01*
X114198232Y-86239718D01*
X114198226Y-86239720D01*
X113940358Y-86319262D01*
X113697230Y-86436346D01*
X113474258Y-86588365D01*
X113276442Y-86771910D01*
X113108185Y-86982898D01*
X112973258Y-87216599D01*
X112973256Y-87216603D01*
X112874666Y-87467804D01*
X112874664Y-87467811D01*
X112814616Y-87730898D01*
X112794451Y-87999995D01*
X112794451Y-88000004D01*
X105025500Y-88000004D01*
X105025500Y-85210452D01*
X105045185Y-85143413D01*
X105061819Y-85122771D01*
X106522771Y-83661819D01*
X106584094Y-83628334D01*
X106610452Y-83625500D01*
X112826745Y-83625500D01*
X112893784Y-83645185D01*
X112939539Y-83697989D01*
X112942167Y-83704184D01*
X112973257Y-83783398D01*
X113108185Y-84017102D01*
X113182072Y-84109753D01*
X113276442Y-84228089D01*
X113390821Y-84334216D01*
X113474259Y-84411635D01*
X113697226Y-84563651D01*
X113940359Y-84680738D01*
X114198228Y-84760280D01*
X114198229Y-84760280D01*
X114198232Y-84760281D01*
X114465063Y-84800499D01*
X114465068Y-84800499D01*
X114465071Y-84800500D01*
X114465072Y-84800500D01*
X114734928Y-84800500D01*
X114734929Y-84800500D01*
X114791927Y-84791909D01*
X115001767Y-84760281D01*
X115001768Y-84760280D01*
X115001772Y-84760280D01*
X115259641Y-84680738D01*
X115502775Y-84563651D01*
X115725741Y-84411635D01*
X115885950Y-84262983D01*
X115923557Y-84228089D01*
X115923557Y-84228087D01*
X115923561Y-84228085D01*
X116091815Y-84017102D01*
X116226743Y-83783398D01*
X116325334Y-83532195D01*
X116385383Y-83269103D01*
X116405549Y-83000000D01*
X116385383Y-82730897D01*
X116325334Y-82467805D01*
X116226743Y-82216602D01*
X116091815Y-81982898D01*
X115923561Y-81771915D01*
X115923560Y-81771914D01*
X115923557Y-81771910D01*
X115725741Y-81588365D01*
X115639867Y-81529817D01*
X115502775Y-81436349D01*
X115502769Y-81436346D01*
X115502768Y-81436345D01*
X115502767Y-81436344D01*
X115259643Y-81319263D01*
X115259645Y-81319263D01*
X115001773Y-81239720D01*
X115001767Y-81239718D01*
X114734936Y-81199500D01*
X114734929Y-81199500D01*
X114465071Y-81199500D01*
X114465063Y-81199500D01*
X114198232Y-81239718D01*
X114198226Y-81239720D01*
X113940358Y-81319262D01*
X113697230Y-81436346D01*
X113474258Y-81588365D01*
X113276442Y-81771910D01*
X113108185Y-81982898D01*
X112973258Y-82216599D01*
X112942173Y-82295803D01*
X112899357Y-82351016D01*
X112833487Y-82374317D01*
X112826745Y-82374500D01*
X106382743Y-82374500D01*
X106367122Y-82372775D01*
X106367095Y-82373061D01*
X106359333Y-82372326D01*
X106290172Y-82374500D01*
X106260649Y-82374500D01*
X106253778Y-82375367D01*
X106247959Y-82375825D01*
X106201374Y-82377289D01*
X106201368Y-82377290D01*
X106182126Y-82382880D01*
X106163087Y-82386823D01*
X106143217Y-82389334D01*
X106143203Y-82389337D01*
X106099883Y-82406488D01*
X106094358Y-82408380D01*
X106049613Y-82421380D01*
X106049610Y-82421381D01*
X106032366Y-82431579D01*
X106014905Y-82440133D01*
X105996274Y-82447510D01*
X105996262Y-82447517D01*
X105958570Y-82474902D01*
X105953687Y-82478109D01*
X105913580Y-82501829D01*
X105899414Y-82515995D01*
X105884624Y-82528627D01*
X105868414Y-82540404D01*
X105868411Y-82540407D01*
X105838710Y-82576309D01*
X105834777Y-82580631D01*
X104016208Y-84399199D01*
X104003951Y-84409020D01*
X104004134Y-84409241D01*
X103998123Y-84414213D01*
X103950772Y-84464636D01*
X103929889Y-84485519D01*
X103929877Y-84485532D01*
X103925621Y-84491017D01*
X103921837Y-84495447D01*
X103889937Y-84529418D01*
X103889936Y-84529420D01*
X103880284Y-84546976D01*
X103869610Y-84563226D01*
X103857329Y-84579061D01*
X103857324Y-84579068D01*
X103838815Y-84621838D01*
X103836245Y-84627084D01*
X103813803Y-84667906D01*
X103808822Y-84687307D01*
X103802521Y-84705710D01*
X103794562Y-84724102D01*
X103794561Y-84724105D01*
X103787271Y-84770127D01*
X103786087Y-84775846D01*
X103774501Y-84820972D01*
X103774500Y-84820982D01*
X103774500Y-84841016D01*
X103772973Y-84860415D01*
X103769840Y-84880194D01*
X103769840Y-84880195D01*
X103774225Y-84926583D01*
X103774500Y-84932421D01*
X103774500Y-108717255D01*
X103772775Y-108732872D01*
X103773061Y-108732899D01*
X103772326Y-108740665D01*
X103774500Y-108809814D01*
X103774500Y-108839343D01*
X103774501Y-108839360D01*
X103775368Y-108846231D01*
X103775826Y-108852050D01*
X103777290Y-108898624D01*
X103777291Y-108898627D01*
X103782880Y-108917867D01*
X103786824Y-108936911D01*
X103789336Y-108956792D01*
X103803159Y-108991705D01*
X103806490Y-109000119D01*
X103808382Y-109005647D01*
X103821381Y-109050388D01*
X103831580Y-109067634D01*
X103840138Y-109085103D01*
X103847514Y-109103732D01*
X103874898Y-109141423D01*
X103878106Y-109146307D01*
X103901827Y-109186416D01*
X103901833Y-109186424D01*
X103915990Y-109200580D01*
X103928628Y-109215376D01*
X103940405Y-109231586D01*
X103940406Y-109231587D01*
X103976309Y-109261288D01*
X103980620Y-109265210D01*
X104750316Y-110034906D01*
X105499194Y-110783784D01*
X105509001Y-110796024D01*
X105509221Y-110795843D01*
X105509711Y-110796435D01*
X105510151Y-110797460D01*
X105516210Y-110805022D01*
X105518395Y-110808465D01*
X105515632Y-110810217D01*
X105537293Y-110860630D01*
X105525790Y-110929546D01*
X105478854Y-110981303D01*
X105414188Y-110999500D01*
X103002024Y-110999500D01*
X102997974Y-110999367D01*
X102959954Y-110996875D01*
X102916350Y-110994017D01*
X102734560Y-110981015D01*
X102726880Y-110979980D01*
X102610579Y-110956846D01*
X102466352Y-110925472D01*
X102459596Y-110923597D01*
X102419723Y-110910062D01*
X102340578Y-110883196D01*
X102300938Y-110868411D01*
X102208257Y-110833841D01*
X102202499Y-110831355D01*
X102087047Y-110774421D01*
X101965091Y-110707828D01*
X101960357Y-110704962D01*
X101853349Y-110633461D01*
X101850639Y-110631543D01*
X101810592Y-110601564D01*
X101741353Y-110549732D01*
X101737648Y-110546729D01*
X101640492Y-110461526D01*
X101637549Y-110458769D01*
X101541228Y-110362448D01*
X101538469Y-110359502D01*
X101459978Y-110270000D01*
X101453265Y-110262345D01*
X101450271Y-110258652D01*
X101368454Y-110149358D01*
X101366537Y-110146649D01*
X101295036Y-110039641D01*
X101292170Y-110034906D01*
X101225578Y-109912952D01*
X101168643Y-109797499D01*
X101166157Y-109791741D01*
X101152384Y-109754815D01*
X101116805Y-109659425D01*
X101076395Y-109540383D01*
X101074531Y-109533666D01*
X101043153Y-109389420D01*
X101034888Y-109347870D01*
X101020015Y-109273100D01*
X101018985Y-109265459D01*
X101005986Y-109083708D01*
X101002938Y-109037198D01*
X101000633Y-109002019D01*
X101000500Y-108997964D01*
X101000500Y-78000004D01*
X112794953Y-78000004D01*
X112815113Y-78269026D01*
X112815113Y-78269028D01*
X112875142Y-78532033D01*
X112875148Y-78532052D01*
X112973709Y-78783181D01*
X112973708Y-78783181D01*
X113108602Y-79016822D01*
X113162294Y-79084151D01*
X113997452Y-78248992D01*
X114007188Y-78278956D01*
X114095186Y-78417619D01*
X114214903Y-78530040D01*
X114349510Y-78604041D01*
X113514848Y-79438702D01*
X113697483Y-79563220D01*
X113697485Y-79563221D01*
X113940539Y-79680269D01*
X113940537Y-79680269D01*
X114198337Y-79759790D01*
X114198343Y-79759792D01*
X114465101Y-79799999D01*
X114465110Y-79800000D01*
X114734890Y-79800000D01*
X114734898Y-79799999D01*
X115001656Y-79759792D01*
X115001662Y-79759790D01*
X115259461Y-79680269D01*
X115502521Y-79563218D01*
X115685150Y-79438702D01*
X114847534Y-78601086D01*
X114915629Y-78574126D01*
X115048492Y-78477595D01*
X115153175Y-78351055D01*
X115201631Y-78248079D01*
X116037703Y-79084151D01*
X116037704Y-79084150D01*
X116091393Y-79016828D01*
X116091400Y-79016817D01*
X116226290Y-78783181D01*
X116324851Y-78532052D01*
X116324857Y-78532033D01*
X116384886Y-78269028D01*
X116384886Y-78269026D01*
X116405047Y-78000004D01*
X116405047Y-77999995D01*
X116384886Y-77730973D01*
X116384886Y-77730971D01*
X116324857Y-77467966D01*
X116324851Y-77467947D01*
X116226290Y-77216818D01*
X116226291Y-77216818D01*
X116091397Y-76983177D01*
X116037704Y-76915847D01*
X115202546Y-77751004D01*
X115192812Y-77721044D01*
X115104814Y-77582381D01*
X114985097Y-77469960D01*
X114850489Y-77395958D01*
X115685150Y-76561296D01*
X115502517Y-76436779D01*
X115502516Y-76436778D01*
X115259460Y-76319730D01*
X115259462Y-76319730D01*
X115001662Y-76240209D01*
X115001656Y-76240207D01*
X114734898Y-76200000D01*
X114465101Y-76200000D01*
X114198343Y-76240207D01*
X114198337Y-76240209D01*
X113940538Y-76319730D01*
X113697485Y-76436778D01*
X113697476Y-76436783D01*
X113514848Y-76561296D01*
X114352465Y-77398913D01*
X114284371Y-77425874D01*
X114151508Y-77522405D01*
X114046825Y-77648945D01*
X113998368Y-77751921D01*
X113162295Y-76915848D01*
X113108600Y-76983180D01*
X112973709Y-77216818D01*
X112875148Y-77467947D01*
X112875142Y-77467966D01*
X112815113Y-77730971D01*
X112815113Y-77730973D01*
X112794953Y-77999995D01*
X112794953Y-78000004D01*
X101000500Y-78000004D01*
X101000500Y-73000004D01*
X112794451Y-73000004D01*
X112814616Y-73269101D01*
X112874664Y-73532188D01*
X112874666Y-73532195D01*
X112912995Y-73629856D01*
X112973257Y-73783398D01*
X113108185Y-74017102D01*
X113155364Y-74076262D01*
X113276442Y-74228089D01*
X113443592Y-74383180D01*
X113474259Y-74411635D01*
X113697226Y-74563651D01*
X113940359Y-74680738D01*
X114198228Y-74760280D01*
X114198229Y-74760280D01*
X114198232Y-74760281D01*
X114465063Y-74800499D01*
X114465068Y-74800499D01*
X114465071Y-74800500D01*
X114465072Y-74800500D01*
X114734928Y-74800500D01*
X114734929Y-74800500D01*
X114799006Y-74790842D01*
X115001767Y-74760281D01*
X115001768Y-74760280D01*
X115001772Y-74760280D01*
X115259641Y-74680738D01*
X115502775Y-74563651D01*
X115725741Y-74411635D01*
X115923561Y-74228085D01*
X116091815Y-74017102D01*
X116226743Y-73783398D01*
X116325334Y-73532195D01*
X116385383Y-73269103D01*
X116405549Y-73000000D01*
X116385383Y-72730897D01*
X116325334Y-72467805D01*
X116226743Y-72216602D01*
X116091815Y-71982898D01*
X115923561Y-71771915D01*
X115923560Y-71771914D01*
X115923557Y-71771910D01*
X115725741Y-71588365D01*
X115502775Y-71436349D01*
X115502769Y-71436346D01*
X115502768Y-71436345D01*
X115502767Y-71436344D01*
X115259643Y-71319263D01*
X115259645Y-71319263D01*
X115001773Y-71239720D01*
X115001767Y-71239718D01*
X114734936Y-71199500D01*
X114734929Y-71199500D01*
X114465071Y-71199500D01*
X114465063Y-71199500D01*
X114198232Y-71239718D01*
X114198226Y-71239720D01*
X113940358Y-71319262D01*
X113697230Y-71436346D01*
X113474258Y-71588365D01*
X113276442Y-71771910D01*
X113108185Y-71982898D01*
X112973258Y-72216599D01*
X112973256Y-72216603D01*
X112874666Y-72467804D01*
X112874664Y-72467811D01*
X112814616Y-72730898D01*
X112794451Y-72999995D01*
X112794451Y-73000004D01*
X101000500Y-73000004D01*
X101000500Y-72002035D01*
X101000633Y-71997980D01*
X101002393Y-71971103D01*
X101005989Y-71916244D01*
X101018986Y-71734536D01*
X101020014Y-71726903D01*
X101043153Y-71610579D01*
X101047985Y-71588365D01*
X101074533Y-71466323D01*
X101076392Y-71459625D01*
X101116815Y-71340543D01*
X101166159Y-71208251D01*
X101168633Y-71202520D01*
X101225583Y-71087036D01*
X101292179Y-70965076D01*
X101295019Y-70960384D01*
X101366563Y-70853311D01*
X101368428Y-70850676D01*
X101450291Y-70741321D01*
X101453244Y-70737678D01*
X101538503Y-70640459D01*
X101541198Y-70637581D01*
X101637581Y-70541198D01*
X101640459Y-70538503D01*
X101737678Y-70453244D01*
X101741321Y-70450291D01*
X101850676Y-70368428D01*
X101853311Y-70366563D01*
X101960384Y-70295019D01*
X101965076Y-70292179D01*
X102087036Y-70225583D01*
X102202520Y-70168633D01*
X102208251Y-70166159D01*
X102340543Y-70116815D01*
X102459625Y-70076392D01*
X102466323Y-70074533D01*
X102610579Y-70043153D01*
X102616728Y-70041929D01*
X102726903Y-70020014D01*
X102734536Y-70018986D01*
X102916244Y-70005989D01*
X102969211Y-70002517D01*
X102997981Y-70000633D01*
X103002036Y-70000500D01*
X190997964Y-70000500D01*
X191002019Y-70000633D01*
G37*
%TD.AperFunction*%
%TD*%
M02*
