M48
; DRILL file {KiCad 7.0.10-7.0.10~ubuntu22.04.1} date Thu 22 Feb 2024 09:29:01 AM EST
; FORMAT={-:-/ absolute / inch / decimal}
; #@! TF.CreationDate,2024-02-22T09:29:01-05:00
; #@! TF.GenerationSoftware,Kicad,Pcbnew,7.0.10-7.0.10~ubuntu22.04.1
; #@! TF.FileFunction,Plated,1,2,PTH
FMAT,2
INCH
; #@! TA.AperFunction,Plated,PTH,ViaDrill
T1C0.0157
; #@! TA.AperFunction,Plated,PTH,ComponentDrill
T2C0.0236
; #@! TA.AperFunction,Plated,PTH,ComponentDrill
T3C0.0315
; #@! TA.AperFunction,Plated,PTH,ComponentDrill
T4C0.0512
%
G90
G05
T1
X4.8583Y-3.7795
X4.8701Y-3.6811
X4.8898Y-3.3228
X4.9Y-3.2
X4.9606Y-3.6063
X4.9606Y-3.8386
X4.9724Y-2.9882
X5.0945Y-3.0472
X5.2541Y-3.7635
X5.2677Y-3.5866
X5.4213Y-3.4488
X5.4217Y-4.2634
X5.4252Y-3.3701
X5.437Y-3.2756
X5.4724Y-3.4114
X5.5126Y-3.5019
X5.5384Y-3.6711
X5.5589Y-3.4902
X5.622Y-4.185
X5.6339Y-3.1929
X5.6689Y-3.6204
X5.6741Y-3.313
X5.7165Y-3.2362
X5.7474Y-3.3416
X5.7476Y-3.292
X5.7874Y-3.0709
X5.8819Y-3.1496
X5.893Y-3.886
X5.9252Y-3.2874
X5.9922Y-3.7675
X5.9961Y-3.1063
X6.0218Y-3.8748
X6.0826Y-3.8813
X6.0856Y-3.765
X6.1112Y-3.9665
X6.1423Y-3.993
X6.1875Y-3.8994
X6.5209Y-4.3413
X6.5984Y-3.2677
X7.0696Y-4.0512
X7.1221Y-4.0185
T2
X5.1102Y-3.9291
X5.1102Y-3.9882
T3
X5.1909Y-4.1661
X5.2894Y-4.1661
T4
X4.5118Y-2.874
X4.5118Y-3.0709
X4.5118Y-3.2677
X4.5118Y-3.4646
X4.5118Y-3.6614
X4.5118Y-3.8583
X4.5118Y-4.0551
X4.5118Y-4.252
X6.324Y-4.1575
X6.3268Y-2.9685
X6.5209Y-4.1575
X6.5236Y-2.9685
X6.7638Y-4.1575
X6.7815Y-2.9685
X6.9606Y-4.1575
X6.9783Y-2.9685
X7.2362Y-2.9685
X7.4331Y-2.9685
M30
