%TF.GenerationSoftware,KiCad,Pcbnew,7.0.10-7.0.10~ubuntu22.04.1*%
%TF.CreationDate,2024-02-22T09:28:58-05:00*%
%TF.ProjectId,ladcp_interface_box,6c616463-705f-4696-9e74-657266616365,1.0.0*%
%TF.SameCoordinates,Original*%
%TF.FileFunction,Soldermask,Top*%
%TF.FilePolarity,Negative*%
%FSLAX46Y46*%
G04 Gerber Fmt 4.6, Leading zero omitted, Abs format (unit mm)*
G04 Created by KiCad (PCBNEW 7.0.10-7.0.10~ubuntu22.04.1) date 2024-02-22 09:28:58*
%MOMM*%
%LPD*%
G01*
G04 APERTURE LIST*
G04 Aperture macros list*
%AMRoundRect*
0 Rectangle with rounded corners*
0 $1 Rounding radius*
0 $2 $3 $4 $5 $6 $7 $8 $9 X,Y pos of 4 corners*
0 Add a 4 corners polygon primitive as box body*
4,1,4,$2,$3,$4,$5,$6,$7,$8,$9,$2,$3,0*
0 Add four circle primitives for the rounded corners*
1,1,$1+$1,$2,$3*
1,1,$1+$1,$4,$5*
1,1,$1+$1,$6,$7*
1,1,$1+$1,$8,$9*
0 Add four rect primitives between the rounded corners*
20,1,$1+$1,$2,$3,$4,$5,0*
20,1,$1+$1,$4,$5,$6,$7,0*
20,1,$1+$1,$6,$7,$8,$9,0*
20,1,$1+$1,$8,$9,$2,$3,0*%
G04 Aperture macros list end*
%ADD10R,2.600000X2.600000*%
%ADD11C,2.600000*%
%ADD12RoundRect,0.100000X0.100000X-0.637500X0.100000X0.637500X-0.100000X0.637500X-0.100000X-0.637500X0*%
%ADD13RoundRect,0.250000X0.350000X0.450000X-0.350000X0.450000X-0.350000X-0.450000X0.350000X-0.450000X0*%
%ADD14RoundRect,0.250000X-0.475000X0.337500X-0.475000X-0.337500X0.475000X-0.337500X0.475000X0.337500X0*%
%ADD15C,0.900000*%
%ADD16R,2.500000X0.500000*%
%ADD17R,2.500000X2.000000*%
%ADD18RoundRect,0.250000X-0.325000X-0.450000X0.325000X-0.450000X0.325000X0.450000X-0.325000X0.450000X0*%
%ADD19RoundRect,0.250000X0.400000X0.275000X-0.400000X0.275000X-0.400000X-0.275000X0.400000X-0.275000X0*%
%ADD20RoundRect,0.250000X-0.337500X-0.475000X0.337500X-0.475000X0.337500X0.475000X-0.337500X0.475000X0*%
%ADD21C,2.100000*%
%ADD22RoundRect,0.250000X-0.400000X-0.275000X0.400000X-0.275000X0.400000X0.275000X-0.400000X0.275000X0*%
%ADD23RoundRect,0.075000X-0.700000X-0.075000X0.700000X-0.075000X0.700000X0.075000X-0.700000X0.075000X0*%
%ADD24RoundRect,0.075000X-0.075000X-0.700000X0.075000X-0.700000X0.075000X0.700000X-0.075000X0.700000X0*%
%ADD25RoundRect,0.250000X0.475000X-0.337500X0.475000X0.337500X-0.475000X0.337500X-0.475000X-0.337500X0*%
%ADD26RoundRect,0.200000X0.250000X-0.200000X0.250000X0.200000X-0.250000X0.200000X-0.250000X-0.200000X0*%
%ADD27R,1.200000X1.200000*%
%ADD28C,1.200000*%
%ADD29RoundRect,0.150000X0.587500X0.150000X-0.587500X0.150000X-0.587500X-0.150000X0.587500X-0.150000X0*%
%ADD30RoundRect,0.250000X0.337500X0.475000X-0.337500X0.475000X-0.337500X-0.475000X0.337500X-0.475000X0*%
%ADD31R,1.600000X1.600000*%
%ADD32C,1.600000*%
%ADD33RoundRect,0.250000X0.850000X0.350000X-0.850000X0.350000X-0.850000X-0.350000X0.850000X-0.350000X0*%
%ADD34RoundRect,0.249997X2.950003X2.650003X-2.950003X2.650003X-2.950003X-2.650003X2.950003X-2.650003X0*%
G04 APERTURE END LIST*
D10*
%TO.C,J1*%
X114600000Y-108000000D03*
D11*
X114600000Y-103000000D03*
X114600000Y-98000000D03*
X114600000Y-93000000D03*
X114600000Y-88000000D03*
X114600000Y-83000000D03*
X114600000Y-78000000D03*
X114600000Y-73000000D03*
%TD*%
D10*
%TO.C,J5*%
X160700000Y-75400000D03*
D11*
X165700000Y-75400000D03*
%TD*%
D12*
%TO.C,U3*%
X151325000Y-102762500D03*
X151975000Y-102762500D03*
X152625000Y-102762500D03*
X153275000Y-102762500D03*
X153925000Y-102762500D03*
X154575000Y-102762500D03*
X155225000Y-102762500D03*
X155875000Y-102762500D03*
X155875000Y-97037500D03*
X155225000Y-97037500D03*
X154575000Y-97037500D03*
X153925000Y-97037500D03*
X153275000Y-97037500D03*
X152625000Y-97037500D03*
X151975000Y-97037500D03*
X151325000Y-97037500D03*
%TD*%
D13*
%TO.C,R2*%
X130200000Y-84779000D03*
X128200000Y-84779000D03*
%TD*%
D14*
%TO.C,C1*%
X142600000Y-102225000D03*
X142600000Y-104300000D03*
%TD*%
D15*
%TO.C,J2*%
X186475000Y-104300000D03*
X186475000Y-99900000D03*
D16*
X183875000Y-103700000D03*
X183875000Y-102900000D03*
X183875000Y-102100000D03*
X183875000Y-101300000D03*
X183875000Y-100500000D03*
D17*
X183875000Y-106500000D03*
X189375000Y-106500000D03*
X183875000Y-97700000D03*
X189375000Y-97700000D03*
%TD*%
D18*
%TO.C,FB2*%
X128200000Y-87191000D03*
X130250000Y-87191000D03*
%TD*%
D13*
%TO.C,R1*%
X130225000Y-92075000D03*
X128225000Y-92075000D03*
%TD*%
D19*
%TO.C,C13*%
X160912500Y-90600000D03*
X158962500Y-90600000D03*
%TD*%
D20*
%TO.C,C17*%
X152475000Y-92000000D03*
X154550000Y-92000000D03*
%TD*%
D14*
%TO.C,C16*%
X145000000Y-102225000D03*
X145000000Y-104300000D03*
%TD*%
D20*
%TO.C,C8*%
X152475000Y-82000000D03*
X154550000Y-82000000D03*
%TD*%
D21*
%TO.C,H2*%
X186500000Y-90500000D03*
%TD*%
D22*
%TO.C,C20*%
X182000000Y-95100000D03*
X183950000Y-95100000D03*
%TD*%
D10*
%TO.C,J3*%
X183800000Y-75400000D03*
D11*
X188800000Y-75400000D03*
%TD*%
D23*
%TO.C,U1*%
X136025000Y-81150000D03*
X136025000Y-81650000D03*
X136025000Y-82150000D03*
X136025000Y-82650000D03*
X136025000Y-83150000D03*
X136025000Y-83650000D03*
X136025000Y-84150000D03*
X136025000Y-84650000D03*
X136025000Y-85150000D03*
X136025000Y-85650000D03*
X136025000Y-86150000D03*
X136025000Y-86650000D03*
X136025000Y-87150000D03*
X136025000Y-87650000D03*
X136025000Y-88150000D03*
X136025000Y-88650000D03*
D24*
X137950000Y-90575000D03*
X138450000Y-90575000D03*
X138950000Y-90575000D03*
X139450000Y-90575000D03*
X139950000Y-90575000D03*
X140450000Y-90575000D03*
X140950000Y-90575000D03*
X141450000Y-90575000D03*
X141950000Y-90575000D03*
X142450000Y-90575000D03*
X142950000Y-90575000D03*
X143450000Y-90575000D03*
X143950000Y-90575000D03*
X144450000Y-90575000D03*
X144950000Y-90575000D03*
X145450000Y-90575000D03*
D23*
X147375000Y-88650000D03*
X147375000Y-88150000D03*
X147375000Y-87650000D03*
X147375000Y-87150000D03*
X147375000Y-86650000D03*
X147375000Y-86150000D03*
X147375000Y-85650000D03*
X147375000Y-85150000D03*
X147375000Y-84650000D03*
X147375000Y-84150000D03*
X147375000Y-83650000D03*
X147375000Y-83150000D03*
X147375000Y-82650000D03*
X147375000Y-82150000D03*
X147375000Y-81650000D03*
X147375000Y-81150000D03*
D24*
X145450000Y-79225000D03*
X144950000Y-79225000D03*
X144450000Y-79225000D03*
X143950000Y-79225000D03*
X143450000Y-79225000D03*
X142950000Y-79225000D03*
X142450000Y-79225000D03*
X141950000Y-79225000D03*
X141450000Y-79225000D03*
X140950000Y-79225000D03*
X140450000Y-79225000D03*
X139950000Y-79225000D03*
X139450000Y-79225000D03*
X138950000Y-79225000D03*
X138450000Y-79225000D03*
X137950000Y-79225000D03*
%TD*%
D25*
%TO.C,C9*%
X141900000Y-76900000D03*
X141900000Y-74825000D03*
%TD*%
D20*
%TO.C,C19*%
X153892500Y-106570000D03*
X155967500Y-106570000D03*
%TD*%
D18*
%TO.C,FB1*%
X128200000Y-82367000D03*
X130250000Y-82367000D03*
%TD*%
D26*
%TO.C,X1*%
X128520000Y-80250000D03*
X130370000Y-80250000D03*
X130370000Y-78800000D03*
X128520000Y-78800000D03*
%TD*%
D25*
%TO.C,C4*%
X138500000Y-76900000D03*
X138500000Y-74825000D03*
%TD*%
D14*
%TO.C,C12*%
X182800000Y-89662500D03*
X182800000Y-91737500D03*
%TD*%
D27*
%TO.C,C21*%
X129800000Y-99800000D03*
D28*
X129800000Y-101300000D03*
%TD*%
D20*
%TO.C,C5*%
X152475000Y-87000000D03*
X154550000Y-87000000D03*
%TD*%
D29*
%TO.C,U5*%
X129537500Y-97050000D03*
X129537500Y-95150000D03*
X127662500Y-96100000D03*
%TD*%
D14*
%TO.C,C2*%
X142600000Y-97625000D03*
X142600000Y-99700000D03*
%TD*%
D30*
%TO.C,C6*%
X130232500Y-89633000D03*
X128157500Y-89633000D03*
%TD*%
D31*
%TO.C,C22*%
X131850000Y-105820000D03*
D32*
X134350000Y-105820000D03*
%TD*%
D25*
%TO.C,C18*%
X160200000Y-97437500D03*
X160200000Y-95362500D03*
%TD*%
D10*
%TO.C,J6*%
X176800000Y-105600000D03*
D11*
X171800000Y-105600000D03*
%TD*%
D20*
%TO.C,C15*%
X148612500Y-106500000D03*
X150687500Y-106500000D03*
%TD*%
%TO.C,C10*%
X165387500Y-90600000D03*
X167462500Y-90600000D03*
%TD*%
D22*
%TO.C,C14*%
X165450000Y-92700000D03*
X167400000Y-92700000D03*
%TD*%
D20*
%TO.C,C7*%
X135525000Y-101700000D03*
X137600000Y-101700000D03*
%TD*%
D10*
%TO.C,J7*%
X165630000Y-105600000D03*
D11*
X160630000Y-105600000D03*
%TD*%
D25*
%TO.C,C3*%
X145300000Y-76900000D03*
X145300000Y-74825000D03*
%TD*%
D10*
%TO.C,J4*%
X172250000Y-75400000D03*
D11*
X177250000Y-75400000D03*
%TD*%
D20*
%TO.C,C11*%
X165387500Y-88400000D03*
X167462500Y-88400000D03*
%TD*%
D21*
%TO.C,H1*%
X107500000Y-90500000D03*
%TD*%
D33*
%TO.C,U2*%
X178800000Y-95360000D03*
X178800000Y-93080000D03*
D34*
X172500000Y-93080000D03*
D33*
X178800000Y-90800000D03*
%TD*%
M02*
